; NON-PLATED HOLES START AT T1
; THROUGH (PLATED) HOLES START AT T100
M48
INCH
T1C0.086614
T100C0.081000
T101C0.042000
T102C0.038000
T103C0.036000
T104C0.040000
%
T1
X000858Y001129
X026858Y035129
X026858Y001129
X000858Y035129
T100
X016858Y035129
X009858Y035129
X013358Y013629
X007858Y035129
X014858Y035129
X011358Y013629
T101
X021838Y003129
X018858Y003129
X014858Y003129
X015858Y003129
X016858Y003129
T102
X023858Y008129
X024858Y022129
X025858Y014129
X025858Y008129
X023858Y014129
X025858Y016129
X024858Y031129
X015858Y025129
X023858Y024129
X024858Y014129
X016858Y025129
X001858Y007129
X024858Y012129
X025858Y035129
X023858Y026129
X002858Y006129
X025858Y020129
X025858Y026129
X001858Y006129
X023858Y010129
X023858Y018129
X024858Y028129
X023858Y020129
X024858Y024129
X025858Y012129
X014858Y025129
X024858Y033129
X017858Y026129
X024858Y018129
X024858Y006129
X000858Y007129
X024858Y020129
X006858Y025129
X024858Y008129
X023858Y012129
X025858Y022129
X024858Y016129
X025858Y024129
X024858Y026129
X005858Y025129
X015858Y026129
X016858Y026129
X001858Y008129
X008858Y026129
X023858Y016129
X006858Y026129
X025858Y028129
X023858Y028129
X023858Y035129
X000858Y009129
X007858Y026129
X025858Y018129
X024858Y032129
X005858Y026129
X025858Y010129
X025858Y006129
X023858Y006129
X002858Y009129
X000858Y008129
X007858Y025129
X014858Y026129
X002858Y008129
X023858Y022129
X017858Y025129
X024858Y010129
X002858Y007129
X024858Y035129
X000858Y006129
X001858Y009129
X008858Y025129
X024858Y030129
T103
X006858Y005129
X007858Y005129
X014858Y011129
X013858Y011129
X016858Y005129
X012858Y005129
X008858Y011129
X018858Y005129
X009858Y005129
X015858Y005129
X016858Y011129
X010858Y005129
X005858Y005129
X018858Y011129
X011858Y005129
X008858Y005129
X012858Y011129
X009858Y011129
X017858Y011129
X015858Y011129
X017858Y005129
X006858Y011129
X011858Y011129
X013858Y005129
X019858Y011129
X005858Y011129
X014858Y005129
X007858Y011129
X019858Y005129
X010858Y011129
T104
X002858Y022629
X002858Y024629
X002858Y018629
X002858Y026629
X002858Y016629
X021858Y025129
X021858Y023129
X002858Y014629
X021858Y029129
X021858Y027129
X021858Y014629
X002858Y019629
X021858Y024129
X021858Y026129
X021858Y019629
X021858Y018629
X021858Y015629
X002858Y017629
X021858Y020629
X021858Y021629
X002858Y023629
X002858Y025629
X021858Y017629
X002858Y021629
X025236Y002129
X021858Y028129
X021858Y030129
X023858Y002129
X002858Y015629
X021858Y016629
T00
M30
