G04 MADE WITH FRITZING*
G04 WWW.FRITZING.ORG*
G04 DOUBLE SIDED*
G04 HOLES PLATED*
G04 CONTOUR ON CENTER OF CONTOUR VECTOR*
%ASAXBY*%
%FSLAX23Y23*%
%MOIN*%
%OFA0B0*%
%SFA1.0B1.0*%
%ADD10C,0.070000*%
%ADD11C,0.074000*%
%ADD12C,0.140000*%
%ADD13C,0.078000*%
%ADD14C,0.082000*%
%ADD15C,0.080000*%
%ADD16R,0.070000X0.069972*%
%ADD17R,0.078000X0.078000*%
%ADD18R,0.082000X0.082000*%
%ADD19R,0.080000X0.080000*%
%ADD20C,0.024000*%
%ADD21C,0.020000*%
%ADD22R,0.001000X0.001000*%
%LNCOPPER1*%
G90*
G70*
G54D10*
X1986Y1113D03*
X1886Y1113D03*
X1786Y1113D03*
X1686Y1113D03*
X1586Y1113D03*
X1486Y1113D03*
X1386Y1113D03*
X1286Y1113D03*
X1186Y1113D03*
X1086Y1113D03*
X986Y1113D03*
X886Y1113D03*
X786Y1113D03*
X686Y1113D03*
X586Y1113D03*
X1986Y513D03*
X1886Y513D03*
X1786Y513D03*
X1686Y513D03*
X1586Y513D03*
X1486Y513D03*
X1386Y513D03*
X1286Y513D03*
X1186Y513D03*
X1086Y513D03*
X986Y513D03*
X886Y513D03*
X786Y513D03*
X686Y513D03*
X586Y513D03*
G54D11*
X2186Y2513D03*
X286Y2463D03*
X2186Y1663D03*
X2186Y1463D03*
G54D12*
X786Y3513D03*
X986Y3513D03*
X1486Y3513D03*
X1686Y3513D03*
X1136Y1363D03*
G54D11*
X286Y1663D03*
G54D12*
X1336Y1363D03*
G54D11*
X2186Y2063D03*
X286Y2363D03*
X286Y1863D03*
X286Y1463D03*
X2186Y1863D03*
X2186Y2313D03*
X2186Y2713D03*
X2186Y2913D03*
X286Y2163D03*
X286Y2563D03*
X286Y1963D03*
X286Y1763D03*
X286Y1563D03*
X2186Y3013D03*
X2186Y1763D03*
X2186Y1963D03*
X2186Y2163D03*
X2186Y2413D03*
X2186Y2613D03*
X2186Y2813D03*
X286Y2263D03*
X286Y2663D03*
X2186Y1563D03*
G54D13*
X2486Y3013D03*
X2486Y3113D03*
X2486Y3213D03*
X2486Y3313D03*
X2586Y2613D03*
X2486Y2613D03*
X2386Y2613D03*
X2586Y2813D03*
X2486Y2813D03*
X2386Y2813D03*
X2586Y2413D03*
X2486Y2413D03*
X2386Y2413D03*
X2586Y2213D03*
X2486Y2213D03*
X2386Y2213D03*
X2586Y2013D03*
X2486Y2013D03*
X2386Y2013D03*
X2586Y1813D03*
X2486Y1813D03*
X2386Y1813D03*
X2586Y1613D03*
X2486Y1613D03*
X2386Y1613D03*
X2586Y1413D03*
X2486Y1413D03*
X2386Y1413D03*
X2586Y1213D03*
X2486Y1213D03*
X2386Y1213D03*
X2586Y1013D03*
X2486Y1013D03*
X2386Y1013D03*
X2586Y813D03*
X2486Y813D03*
X2386Y813D03*
X2586Y613D03*
X2486Y613D03*
X2386Y613D03*
X86Y913D03*
X186Y913D03*
X286Y913D03*
X86Y813D03*
X186Y813D03*
X286Y813D03*
X86Y713D03*
X186Y713D03*
X286Y713D03*
X86Y613D03*
X186Y613D03*
X286Y613D03*
G54D14*
X1686Y313D03*
X1586Y313D03*
X1486Y313D03*
G54D15*
X2386Y213D03*
X2524Y213D03*
G54D13*
X586Y2613D03*
X686Y2613D03*
X786Y2613D03*
X886Y2613D03*
X586Y2513D03*
X686Y2513D03*
X786Y2513D03*
X886Y2513D03*
X1486Y2513D03*
X1586Y2513D03*
X1686Y2513D03*
X1786Y2513D03*
X1486Y2613D03*
X1586Y2613D03*
X1686Y2613D03*
X1786Y2613D03*
X2386Y3513D03*
X2486Y3513D03*
X2586Y3513D03*
G54D14*
X1886Y313D03*
X2184Y313D03*
G54D16*
X1986Y1113D03*
G54D17*
X2586Y2613D03*
X2586Y2813D03*
X2586Y2413D03*
X2586Y2213D03*
X2586Y2013D03*
X2586Y1813D03*
X2586Y1613D03*
X2586Y1413D03*
X2586Y1213D03*
X2586Y1013D03*
X2586Y813D03*
X2586Y613D03*
X86Y813D03*
X86Y713D03*
X86Y613D03*
G54D18*
X1686Y313D03*
G54D19*
X2386Y213D03*
G54D18*
X1885Y313D03*
G54D20*
X2086Y2313D02*
X1786Y2313D01*
D02*
X2164Y2391D02*
X2086Y2313D01*
D02*
X1786Y2313D02*
X886Y1409D01*
D02*
X886Y1409D02*
X886Y1142D01*
D02*
X2164Y2291D02*
X2086Y2213D01*
D02*
X986Y1413D02*
X986Y1142D01*
D02*
X1786Y2213D02*
X1686Y2113D01*
D02*
X1686Y2113D02*
X986Y1413D01*
D02*
X2086Y2213D02*
X1786Y2213D01*
D02*
X1086Y1413D02*
X1786Y2113D01*
D02*
X2086Y2113D02*
X2158Y2149D01*
D02*
X1086Y1142D02*
X1086Y1413D01*
D02*
X1786Y2113D02*
X2086Y2113D01*
D02*
X2086Y2013D02*
X1786Y2013D01*
D02*
X1186Y1413D02*
X1186Y1142D01*
D02*
X1786Y2013D02*
X1186Y1413D01*
D02*
X2158Y2049D02*
X2086Y2013D01*
D02*
X1786Y1913D02*
X1286Y1413D01*
D02*
X2158Y1949D02*
X2086Y1913D01*
D02*
X1286Y1413D02*
X1286Y1142D01*
D02*
X2086Y1913D02*
X1786Y1913D01*
D02*
X2158Y1849D02*
X2086Y1813D01*
D02*
X2086Y1813D02*
X1786Y1813D01*
D02*
X1386Y1413D02*
X1386Y1142D01*
D02*
X1786Y1813D02*
X1386Y1413D01*
D02*
X186Y583D02*
X186Y413D01*
D02*
X186Y413D02*
X286Y313D01*
D02*
X1486Y413D02*
X1586Y413D01*
D02*
X1586Y413D02*
X1665Y492D01*
D02*
X1400Y319D02*
X1386Y313D01*
D02*
X1386Y313D02*
X1400Y319D01*
D02*
X1386Y313D02*
X1486Y413D01*
D02*
X286Y313D02*
X1386Y313D01*
D02*
X186Y683D02*
X186Y643D01*
D02*
X186Y783D02*
X186Y743D01*
D02*
X186Y883D02*
X186Y843D01*
D02*
X86Y843D02*
X86Y883D01*
D02*
X86Y743D02*
X86Y783D01*
D02*
X86Y643D02*
X86Y683D01*
D02*
X186Y2013D02*
X386Y2113D01*
D02*
X386Y2113D02*
X386Y2413D01*
D02*
X186Y943D02*
X186Y2013D01*
D02*
X386Y2413D02*
X314Y2449D01*
D02*
X2586Y783D02*
X2586Y643D01*
D02*
X2586Y983D02*
X2586Y843D01*
D02*
X2586Y1183D02*
X2586Y1043D01*
D02*
X488Y511D02*
X557Y512D01*
D02*
X316Y613D02*
X387Y612D01*
D02*
X387Y612D02*
X488Y511D01*
D02*
X387Y712D02*
X316Y713D01*
D02*
X585Y1084D02*
X584Y1014D01*
D02*
X488Y813D02*
X387Y712D01*
D02*
X584Y1014D02*
X584Y914D01*
D02*
X584Y914D02*
X488Y813D01*
D02*
X488Y914D02*
X488Y1115D01*
D02*
X685Y1212D02*
X686Y1142D01*
D02*
X387Y813D02*
X488Y914D01*
D02*
X584Y1212D02*
X685Y1212D01*
D02*
X488Y1212D02*
X584Y1212D01*
D02*
X316Y813D02*
X387Y813D01*
D02*
X488Y1115D02*
X488Y1212D01*
D02*
X685Y1312D02*
X786Y1212D01*
D02*
X286Y943D02*
X286Y1014D01*
D02*
X286Y1014D02*
X387Y1115D01*
D02*
X387Y1212D02*
X488Y1312D01*
D02*
X387Y1115D02*
X387Y1212D01*
D02*
X488Y1312D02*
X584Y1312D01*
D02*
X584Y1312D02*
X685Y1312D01*
D02*
X786Y1212D02*
X786Y1142D01*
D02*
X2486Y783D02*
X2486Y643D01*
D02*
X2486Y843D02*
X2486Y983D01*
D02*
X2486Y1043D02*
X2486Y1183D01*
D02*
X2486Y1243D02*
X2486Y1383D01*
D02*
X1686Y614D02*
X1606Y534D01*
D02*
X2356Y613D02*
X1686Y614D01*
D02*
X1686Y714D02*
X1586Y614D01*
D02*
X2287Y714D02*
X1686Y714D01*
D02*
X2365Y792D02*
X2287Y714D01*
D02*
X1586Y614D02*
X1506Y534D01*
D02*
X1686Y813D02*
X1406Y534D01*
D02*
X2287Y813D02*
X1686Y813D01*
D02*
X2386Y983D02*
X2386Y913D01*
D02*
X2386Y913D02*
X2287Y813D01*
D02*
X1686Y913D02*
X1306Y534D01*
D02*
X2187Y913D02*
X1686Y913D01*
D02*
X2365Y1191D02*
X2287Y1112D01*
D02*
X2287Y913D02*
X2187Y913D01*
D02*
X2287Y1112D02*
X2287Y913D01*
D02*
X2187Y1212D02*
X2187Y1013D01*
D02*
X2365Y1392D02*
X2187Y1212D01*
D02*
X2187Y1013D02*
X1686Y1013D01*
D02*
X1686Y1013D02*
X1586Y913D01*
D02*
X1586Y913D02*
X1206Y534D01*
D02*
X2486Y1583D02*
X2486Y1443D01*
D02*
X2486Y1783D02*
X2486Y1643D01*
D02*
X2486Y1983D02*
X2486Y1843D01*
D02*
X2586Y1843D02*
X2586Y1983D01*
D02*
X2586Y1643D02*
X2586Y1783D01*
D02*
X2586Y1443D02*
X2586Y1583D01*
D02*
X2586Y1243D02*
X2586Y1383D01*
D02*
X2586Y2183D02*
X2586Y2043D01*
D02*
X2586Y2383D02*
X2586Y2243D01*
D02*
X2586Y2583D02*
X2586Y2443D01*
D02*
X2586Y2783D02*
X2586Y2643D01*
D02*
X2486Y2643D02*
X2486Y2783D01*
D02*
X2486Y2443D02*
X2486Y2583D01*
D02*
X2486Y2243D02*
X2486Y2383D01*
D02*
X2486Y2043D02*
X2486Y2183D01*
D02*
X286Y2294D02*
X286Y2332D01*
D02*
X86Y943D02*
X86Y2113D01*
D02*
X186Y2213D02*
X258Y2249D01*
D02*
X86Y2113D02*
X186Y2213D01*
D02*
X2365Y2192D02*
X2286Y2113D01*
D02*
X2286Y1413D02*
X2186Y1313D01*
D02*
X2286Y2113D02*
X2286Y1613D01*
D02*
X2186Y1313D02*
X2086Y1213D01*
D02*
X2286Y1613D02*
X2286Y1413D01*
D02*
X2086Y1113D02*
X2015Y1113D01*
D02*
X2086Y1213D02*
X2086Y1113D01*
D02*
X2386Y3113D02*
X2286Y3013D01*
D02*
X2286Y3013D02*
X2286Y2513D01*
D02*
X2456Y3113D02*
X2386Y3113D01*
D02*
X2286Y2513D02*
X2365Y2434D01*
D02*
X2586Y2843D02*
X2586Y3313D01*
D02*
X2586Y3313D02*
X2516Y3313D01*
D02*
X286Y2813D02*
X386Y2813D01*
D02*
X186Y2613D02*
X186Y2713D01*
D02*
X186Y2713D02*
X286Y2813D01*
D02*
X486Y2813D02*
X582Y2713D01*
D02*
X186Y2513D02*
X186Y2613D01*
D02*
X582Y2713D02*
X585Y2643D01*
D02*
X258Y2477D02*
X186Y2513D01*
D02*
X386Y2813D02*
X486Y2813D01*
D02*
X786Y2543D02*
X786Y2583D01*
D02*
X786Y1513D02*
X786Y2013D01*
D02*
X886Y2413D02*
X886Y2483D01*
D02*
X786Y2313D02*
X886Y2413D01*
D02*
X886Y1142D02*
X886Y1413D01*
D02*
X886Y1413D02*
X786Y1513D01*
D02*
X786Y2013D02*
X786Y2313D01*
D02*
X1186Y2713D02*
X1286Y2613D01*
D02*
X582Y2713D02*
X1186Y2713D01*
D02*
X1286Y2613D02*
X1456Y2613D01*
D02*
X1686Y2543D02*
X1686Y2583D01*
D02*
X2486Y3413D02*
X2486Y3343D01*
D02*
X2407Y3492D02*
X2486Y3413D01*
D02*
X2213Y299D02*
X2358Y227D01*
D02*
X1718Y313D02*
X1854Y313D01*
D02*
X1400Y319D02*
X1454Y315D01*
D02*
X1986Y213D02*
X1586Y213D01*
D02*
X2386Y583D02*
X2386Y513D01*
D02*
X2086Y413D02*
X2086Y313D01*
D02*
X2386Y513D02*
X2086Y413D01*
D02*
X1586Y213D02*
X1509Y290D01*
D02*
X2086Y313D02*
X1986Y213D01*
G54D21*
X57Y942D02*
X115Y942D01*
X115Y884D01*
X57Y884D01*
X57Y942D01*
D02*
G54D22*
X305Y3296D02*
X310Y3296D01*
X403Y3296D02*
X499Y3296D01*
X768Y3296D02*
X862Y3296D01*
X1016Y3296D02*
X1024Y3296D01*
X1144Y3296D02*
X1226Y3296D01*
X1391Y3296D02*
X1400Y3296D01*
X1519Y3296D02*
X1648Y3296D01*
X1717Y3296D02*
X1826Y3296D01*
X1958Y3296D02*
X2013Y3296D01*
X2108Y3296D02*
X2181Y3296D01*
X302Y3295D02*
X313Y3295D01*
X400Y3295D02*
X503Y3295D01*
X768Y3295D02*
X867Y3295D01*
X1011Y3295D02*
X1029Y3295D01*
X1144Y3295D02*
X1232Y3295D01*
X1387Y3295D02*
X1405Y3295D01*
X1519Y3295D02*
X1648Y3295D01*
X1714Y3295D02*
X1828Y3295D01*
X1953Y3295D02*
X2016Y3295D01*
X2103Y3295D02*
X2186Y3295D01*
X301Y3294D02*
X315Y3294D01*
X398Y3294D02*
X505Y3294D01*
X768Y3294D02*
X871Y3294D01*
X1008Y3294D02*
X1032Y3294D01*
X1144Y3294D02*
X1235Y3294D01*
X1384Y3294D02*
X1407Y3294D01*
X1519Y3294D02*
X1648Y3294D01*
X1713Y3294D02*
X1830Y3294D01*
X1949Y3294D02*
X2018Y3294D01*
X2101Y3294D02*
X2189Y3294D01*
X300Y3293D02*
X316Y3293D01*
X397Y3293D02*
X507Y3293D01*
X768Y3293D02*
X873Y3293D01*
X1006Y3293D02*
X1034Y3293D01*
X1144Y3293D02*
X1238Y3293D01*
X1382Y3293D02*
X1410Y3293D01*
X1519Y3293D02*
X1648Y3293D01*
X1711Y3293D02*
X1831Y3293D01*
X1947Y3293D02*
X2019Y3293D01*
X2098Y3293D02*
X2191Y3293D01*
X298Y3292D02*
X317Y3292D01*
X396Y3292D02*
X509Y3292D01*
X768Y3292D02*
X875Y3292D01*
X1004Y3292D02*
X1036Y3292D01*
X1144Y3292D02*
X1241Y3292D01*
X1380Y3292D02*
X1412Y3292D01*
X1519Y3292D02*
X1648Y3292D01*
X1710Y3292D02*
X1832Y3292D01*
X1945Y3292D02*
X2020Y3292D01*
X2097Y3292D02*
X2193Y3292D01*
X298Y3291D02*
X318Y3291D01*
X395Y3291D02*
X510Y3291D01*
X768Y3291D02*
X877Y3291D01*
X1002Y3291D02*
X1038Y3291D01*
X1144Y3291D02*
X1243Y3291D01*
X1378Y3291D02*
X1413Y3291D01*
X1519Y3291D02*
X1648Y3291D01*
X1710Y3291D02*
X1833Y3291D01*
X1943Y3291D02*
X2021Y3291D01*
X2095Y3291D02*
X2195Y3291D01*
X297Y3290D02*
X318Y3290D01*
X394Y3290D02*
X511Y3290D01*
X768Y3290D02*
X879Y3290D01*
X1001Y3290D02*
X1039Y3290D01*
X1144Y3290D02*
X1245Y3290D01*
X1377Y3290D02*
X1415Y3290D01*
X1519Y3290D02*
X1648Y3290D01*
X1709Y3290D02*
X1834Y3290D01*
X1941Y3290D02*
X2022Y3290D01*
X2094Y3290D02*
X2196Y3290D01*
X296Y3289D02*
X319Y3289D01*
X394Y3289D02*
X513Y3289D01*
X768Y3289D02*
X880Y3289D01*
X1000Y3289D02*
X1041Y3289D01*
X1144Y3289D02*
X1246Y3289D01*
X1375Y3289D02*
X1416Y3289D01*
X1519Y3289D02*
X1648Y3289D01*
X1708Y3289D02*
X1834Y3289D01*
X1940Y3289D02*
X2022Y3289D01*
X2093Y3289D02*
X2197Y3289D01*
X296Y3288D02*
X319Y3288D01*
X393Y3288D02*
X514Y3288D01*
X768Y3288D02*
X881Y3288D01*
X998Y3288D02*
X1042Y3288D01*
X1144Y3288D02*
X1248Y3288D01*
X1374Y3288D02*
X1417Y3288D01*
X1519Y3288D02*
X1648Y3288D01*
X1708Y3288D02*
X1835Y3288D01*
X1938Y3288D02*
X2023Y3288D01*
X2092Y3288D02*
X2199Y3288D01*
X296Y3287D02*
X320Y3287D01*
X393Y3287D02*
X515Y3287D01*
X768Y3287D02*
X882Y3287D01*
X997Y3287D02*
X1043Y3287D01*
X1144Y3287D02*
X1249Y3287D01*
X1373Y3287D02*
X1419Y3287D01*
X1519Y3287D02*
X1648Y3287D01*
X1708Y3287D02*
X1835Y3287D01*
X1937Y3287D02*
X2023Y3287D01*
X2091Y3287D02*
X2200Y3287D01*
X295Y3286D02*
X320Y3286D01*
X393Y3286D02*
X515Y3286D01*
X768Y3286D02*
X884Y3286D01*
X996Y3286D02*
X1044Y3286D01*
X1144Y3286D02*
X1251Y3286D01*
X1372Y3286D02*
X1420Y3286D01*
X1519Y3286D02*
X1648Y3286D01*
X1707Y3286D02*
X1836Y3286D01*
X1936Y3286D02*
X2023Y3286D01*
X2090Y3286D02*
X2201Y3286D01*
X295Y3285D02*
X320Y3285D01*
X392Y3285D02*
X516Y3285D01*
X768Y3285D02*
X885Y3285D01*
X995Y3285D02*
X1045Y3285D01*
X1144Y3285D02*
X1252Y3285D01*
X1371Y3285D02*
X1421Y3285D01*
X1519Y3285D02*
X1648Y3285D01*
X1707Y3285D02*
X1836Y3285D01*
X1935Y3285D02*
X2024Y3285D01*
X2089Y3285D02*
X2202Y3285D01*
X295Y3284D02*
X320Y3284D01*
X392Y3284D02*
X517Y3284D01*
X768Y3284D02*
X886Y3284D01*
X994Y3284D02*
X1046Y3284D01*
X1144Y3284D02*
X1253Y3284D01*
X1370Y3284D02*
X1421Y3284D01*
X1519Y3284D02*
X1648Y3284D01*
X1707Y3284D02*
X1836Y3284D01*
X1934Y3284D02*
X2024Y3284D01*
X2088Y3284D02*
X2203Y3284D01*
X295Y3283D02*
X320Y3283D01*
X392Y3283D02*
X518Y3283D01*
X768Y3283D02*
X887Y3283D01*
X994Y3283D02*
X1047Y3283D01*
X1144Y3283D02*
X1254Y3283D01*
X1369Y3283D02*
X1422Y3283D01*
X1519Y3283D02*
X1648Y3283D01*
X1707Y3283D02*
X1836Y3283D01*
X1933Y3283D02*
X2024Y3283D01*
X2087Y3283D02*
X2204Y3283D01*
X295Y3282D02*
X320Y3282D01*
X392Y3282D02*
X518Y3282D01*
X768Y3282D02*
X887Y3282D01*
X993Y3282D02*
X1047Y3282D01*
X1144Y3282D02*
X1255Y3282D01*
X1368Y3282D02*
X1423Y3282D01*
X1519Y3282D02*
X1648Y3282D01*
X1707Y3282D02*
X1836Y3282D01*
X1932Y3282D02*
X2024Y3282D01*
X2087Y3282D02*
X2204Y3282D01*
X295Y3281D02*
X320Y3281D01*
X393Y3281D02*
X519Y3281D01*
X768Y3281D02*
X888Y3281D01*
X992Y3281D02*
X1048Y3281D01*
X1144Y3281D02*
X1256Y3281D01*
X1368Y3281D02*
X1424Y3281D01*
X1519Y3281D02*
X1648Y3281D01*
X1707Y3281D02*
X1836Y3281D01*
X1931Y3281D02*
X2024Y3281D01*
X2086Y3281D02*
X2205Y3281D01*
X295Y3280D02*
X320Y3280D01*
X393Y3280D02*
X519Y3280D01*
X768Y3280D02*
X889Y3280D01*
X991Y3280D02*
X1049Y3280D01*
X1144Y3280D02*
X1257Y3280D01*
X1367Y3280D02*
X1424Y3280D01*
X1519Y3280D02*
X1648Y3280D01*
X1707Y3280D02*
X1835Y3280D01*
X1931Y3280D02*
X2023Y3280D01*
X2086Y3280D02*
X2206Y3280D01*
X295Y3279D02*
X320Y3279D01*
X393Y3279D02*
X520Y3279D01*
X768Y3279D02*
X890Y3279D01*
X991Y3279D02*
X1049Y3279D01*
X1144Y3279D02*
X1258Y3279D01*
X1366Y3279D02*
X1425Y3279D01*
X1519Y3279D02*
X1648Y3279D01*
X1708Y3279D02*
X1835Y3279D01*
X1930Y3279D02*
X2023Y3279D01*
X2085Y3279D02*
X2206Y3279D01*
X295Y3278D02*
X320Y3278D01*
X393Y3278D02*
X520Y3278D01*
X768Y3278D02*
X891Y3278D01*
X990Y3278D02*
X1050Y3278D01*
X1144Y3278D02*
X1259Y3278D01*
X1366Y3278D02*
X1426Y3278D01*
X1519Y3278D02*
X1648Y3278D01*
X1708Y3278D02*
X1835Y3278D01*
X1929Y3278D02*
X2023Y3278D01*
X2085Y3278D02*
X2207Y3278D01*
X295Y3277D02*
X320Y3277D01*
X394Y3277D02*
X520Y3277D01*
X768Y3277D02*
X891Y3277D01*
X990Y3277D02*
X1051Y3277D01*
X1144Y3277D02*
X1260Y3277D01*
X1365Y3277D02*
X1426Y3277D01*
X1519Y3277D02*
X1648Y3277D01*
X1709Y3277D02*
X1834Y3277D01*
X1929Y3277D02*
X2022Y3277D01*
X2084Y3277D02*
X2208Y3277D01*
X295Y3276D02*
X320Y3276D01*
X394Y3276D02*
X521Y3276D01*
X768Y3276D02*
X892Y3276D01*
X989Y3276D02*
X1051Y3276D01*
X1144Y3276D02*
X1261Y3276D01*
X1365Y3276D02*
X1427Y3276D01*
X1519Y3276D02*
X1648Y3276D01*
X1709Y3276D02*
X1834Y3276D01*
X1928Y3276D02*
X2022Y3276D01*
X2084Y3276D02*
X2208Y3276D01*
X295Y3275D02*
X320Y3275D01*
X395Y3275D02*
X521Y3275D01*
X768Y3275D02*
X892Y3275D01*
X989Y3275D02*
X1052Y3275D01*
X1144Y3275D02*
X1262Y3275D01*
X1364Y3275D02*
X1427Y3275D01*
X1519Y3275D02*
X1648Y3275D01*
X1710Y3275D02*
X1833Y3275D01*
X1928Y3275D02*
X2021Y3275D01*
X2084Y3275D02*
X2209Y3275D01*
X295Y3274D02*
X320Y3274D01*
X396Y3274D02*
X521Y3274D01*
X768Y3274D02*
X893Y3274D01*
X988Y3274D02*
X1052Y3274D01*
X1144Y3274D02*
X1263Y3274D01*
X1364Y3274D02*
X1428Y3274D01*
X1519Y3274D02*
X1648Y3274D01*
X1711Y3274D02*
X1832Y3274D01*
X1927Y3274D02*
X2020Y3274D01*
X2083Y3274D02*
X2209Y3274D01*
X295Y3273D02*
X320Y3273D01*
X397Y3273D02*
X521Y3273D01*
X768Y3273D02*
X893Y3273D01*
X988Y3273D02*
X1053Y3273D01*
X1144Y3273D02*
X1263Y3273D01*
X1363Y3273D02*
X1428Y3273D01*
X1519Y3273D02*
X1648Y3273D01*
X1712Y3273D02*
X1831Y3273D01*
X1927Y3273D02*
X2019Y3273D01*
X2083Y3273D02*
X2209Y3273D01*
X295Y3272D02*
X320Y3272D01*
X398Y3272D02*
X521Y3272D01*
X768Y3272D02*
X894Y3272D01*
X987Y3272D02*
X1053Y3272D01*
X1144Y3272D02*
X1264Y3272D01*
X1363Y3272D02*
X1429Y3272D01*
X1519Y3272D02*
X1648Y3272D01*
X1713Y3272D02*
X1830Y3272D01*
X1926Y3272D02*
X2017Y3272D01*
X2083Y3272D02*
X2210Y3272D01*
X295Y3271D02*
X320Y3271D01*
X400Y3271D02*
X521Y3271D01*
X768Y3271D02*
X894Y3271D01*
X987Y3271D02*
X1054Y3271D01*
X1144Y3271D02*
X1265Y3271D01*
X1362Y3271D02*
X1429Y3271D01*
X1519Y3271D02*
X1648Y3271D01*
X1715Y3271D02*
X1828Y3271D01*
X1926Y3271D02*
X2016Y3271D01*
X2083Y3271D02*
X2210Y3271D01*
X295Y3270D02*
X320Y3270D01*
X405Y3270D02*
X521Y3270D01*
X768Y3270D02*
X895Y3270D01*
X986Y3270D02*
X1054Y3270D01*
X1144Y3270D02*
X1265Y3270D01*
X1362Y3270D02*
X1430Y3270D01*
X1519Y3270D02*
X1648Y3270D01*
X1720Y3270D02*
X1823Y3270D01*
X1925Y3270D02*
X2011Y3270D01*
X2083Y3270D02*
X2210Y3270D01*
X295Y3269D02*
X320Y3269D01*
X496Y3269D02*
X521Y3269D01*
X768Y3269D02*
X793Y3269D01*
X863Y3269D02*
X895Y3269D01*
X986Y3269D02*
X1016Y3269D01*
X1024Y3269D02*
X1055Y3269D01*
X1144Y3269D02*
X1169Y3269D01*
X1228Y3269D02*
X1266Y3269D01*
X1361Y3269D02*
X1392Y3269D01*
X1400Y3269D02*
X1430Y3269D01*
X1519Y3269D02*
X1545Y3269D01*
X1571Y3269D02*
X1596Y3269D01*
X1623Y3269D02*
X1648Y3269D01*
X1759Y3269D02*
X1784Y3269D01*
X1925Y3269D02*
X1957Y3269D01*
X2083Y3269D02*
X2109Y3269D01*
X2181Y3269D02*
X2211Y3269D01*
X295Y3268D02*
X320Y3268D01*
X496Y3268D02*
X521Y3268D01*
X768Y3268D02*
X793Y3268D01*
X865Y3268D02*
X895Y3268D01*
X985Y3268D02*
X1015Y3268D01*
X1026Y3268D02*
X1055Y3268D01*
X1144Y3268D02*
X1169Y3268D01*
X1231Y3268D02*
X1266Y3268D01*
X1361Y3268D02*
X1390Y3268D01*
X1401Y3268D02*
X1431Y3268D01*
X1519Y3268D02*
X1545Y3268D01*
X1571Y3268D02*
X1596Y3268D01*
X1623Y3268D02*
X1648Y3268D01*
X1759Y3268D02*
X1784Y3268D01*
X1924Y3268D02*
X1955Y3268D01*
X2083Y3268D02*
X2108Y3268D01*
X2183Y3268D02*
X2211Y3268D01*
X295Y3267D02*
X320Y3267D01*
X496Y3267D02*
X521Y3267D01*
X768Y3267D02*
X793Y3267D01*
X866Y3267D02*
X896Y3267D01*
X985Y3267D02*
X1014Y3267D01*
X1026Y3267D02*
X1055Y3267D01*
X1144Y3267D02*
X1169Y3267D01*
X1233Y3267D02*
X1267Y3267D01*
X1360Y3267D02*
X1389Y3267D01*
X1402Y3267D02*
X1431Y3267D01*
X1519Y3267D02*
X1545Y3267D01*
X1571Y3267D02*
X1596Y3267D01*
X1623Y3267D02*
X1648Y3267D01*
X1759Y3267D02*
X1784Y3267D01*
X1924Y3267D02*
X1954Y3267D01*
X2083Y3267D02*
X2108Y3267D01*
X2184Y3267D02*
X2211Y3267D01*
X295Y3266D02*
X320Y3266D01*
X496Y3266D02*
X521Y3266D01*
X768Y3266D02*
X793Y3266D01*
X868Y3266D02*
X896Y3266D01*
X984Y3266D02*
X1013Y3266D01*
X1027Y3266D02*
X1056Y3266D01*
X1144Y3266D02*
X1169Y3266D01*
X1234Y3266D02*
X1267Y3266D01*
X1360Y3266D02*
X1389Y3266D01*
X1403Y3266D02*
X1432Y3266D01*
X1519Y3266D02*
X1545Y3266D01*
X1571Y3266D02*
X1596Y3266D01*
X1623Y3266D02*
X1648Y3266D01*
X1759Y3266D02*
X1784Y3266D01*
X1923Y3266D02*
X1953Y3266D01*
X2083Y3266D02*
X2108Y3266D01*
X2185Y3266D02*
X2211Y3266D01*
X295Y3265D02*
X320Y3265D01*
X496Y3265D02*
X521Y3265D01*
X768Y3265D02*
X793Y3265D01*
X868Y3265D02*
X896Y3265D01*
X984Y3265D02*
X1013Y3265D01*
X1028Y3265D02*
X1056Y3265D01*
X1144Y3265D02*
X1169Y3265D01*
X1236Y3265D02*
X1268Y3265D01*
X1359Y3265D02*
X1388Y3265D01*
X1403Y3265D02*
X1432Y3265D01*
X1519Y3265D02*
X1545Y3265D01*
X1571Y3265D02*
X1596Y3265D01*
X1623Y3265D02*
X1648Y3265D01*
X1759Y3265D02*
X1784Y3265D01*
X1923Y3265D02*
X1952Y3265D01*
X2083Y3265D02*
X2108Y3265D01*
X2185Y3265D02*
X2211Y3265D01*
X295Y3264D02*
X320Y3264D01*
X496Y3264D02*
X521Y3264D01*
X768Y3264D02*
X793Y3264D01*
X869Y3264D02*
X896Y3264D01*
X983Y3264D02*
X1012Y3264D01*
X1028Y3264D02*
X1057Y3264D01*
X1144Y3264D02*
X1169Y3264D01*
X1237Y3264D02*
X1268Y3264D01*
X1359Y3264D02*
X1388Y3264D01*
X1404Y3264D02*
X1433Y3264D01*
X1519Y3264D02*
X1545Y3264D01*
X1571Y3264D02*
X1596Y3264D01*
X1623Y3264D02*
X1648Y3264D01*
X1759Y3264D02*
X1784Y3264D01*
X1922Y3264D02*
X1951Y3264D01*
X2083Y3264D02*
X2109Y3264D01*
X2186Y3264D02*
X2211Y3264D01*
X295Y3263D02*
X320Y3263D01*
X496Y3263D02*
X521Y3263D01*
X768Y3263D02*
X793Y3263D01*
X870Y3263D02*
X896Y3263D01*
X983Y3263D02*
X1012Y3263D01*
X1029Y3263D02*
X1057Y3263D01*
X1144Y3263D02*
X1169Y3263D01*
X1238Y3263D02*
X1269Y3263D01*
X1358Y3263D02*
X1387Y3263D01*
X1404Y3263D02*
X1433Y3263D01*
X1519Y3263D02*
X1545Y3263D01*
X1571Y3263D02*
X1596Y3263D01*
X1623Y3263D02*
X1648Y3263D01*
X1759Y3263D02*
X1784Y3263D01*
X1922Y3263D02*
X1951Y3263D01*
X2083Y3263D02*
X2110Y3263D01*
X2186Y3263D02*
X2211Y3263D01*
X295Y3262D02*
X320Y3262D01*
X496Y3262D02*
X521Y3262D01*
X768Y3262D02*
X793Y3262D01*
X870Y3262D02*
X896Y3262D01*
X982Y3262D02*
X1011Y3262D01*
X1029Y3262D02*
X1058Y3262D01*
X1144Y3262D02*
X1169Y3262D01*
X1239Y3262D02*
X1269Y3262D01*
X1358Y3262D02*
X1387Y3262D01*
X1405Y3262D02*
X1434Y3262D01*
X1519Y3262D02*
X1545Y3262D01*
X1571Y3262D02*
X1596Y3262D01*
X1623Y3262D02*
X1648Y3262D01*
X1759Y3262D02*
X1784Y3262D01*
X1921Y3262D02*
X1950Y3262D01*
X2083Y3262D02*
X2111Y3262D01*
X2186Y3262D02*
X2212Y3262D01*
X295Y3261D02*
X320Y3261D01*
X496Y3261D02*
X521Y3261D01*
X768Y3261D02*
X793Y3261D01*
X871Y3261D02*
X897Y3261D01*
X982Y3261D02*
X1011Y3261D01*
X1030Y3261D02*
X1058Y3261D01*
X1144Y3261D02*
X1169Y3261D01*
X1240Y3261D02*
X1270Y3261D01*
X1357Y3261D02*
X1386Y3261D01*
X1405Y3261D02*
X1434Y3261D01*
X1519Y3261D02*
X1545Y3261D01*
X1571Y3261D02*
X1596Y3261D01*
X1623Y3261D02*
X1648Y3261D01*
X1759Y3261D02*
X1784Y3261D01*
X1921Y3261D02*
X1950Y3261D01*
X2083Y3261D02*
X2112Y3261D01*
X2186Y3261D02*
X2212Y3261D01*
X295Y3260D02*
X320Y3260D01*
X496Y3260D02*
X521Y3260D01*
X768Y3260D02*
X793Y3260D01*
X871Y3260D02*
X897Y3260D01*
X981Y3260D02*
X1010Y3260D01*
X1030Y3260D02*
X1059Y3260D01*
X1144Y3260D02*
X1169Y3260D01*
X1241Y3260D02*
X1270Y3260D01*
X1357Y3260D02*
X1386Y3260D01*
X1406Y3260D02*
X1435Y3260D01*
X1519Y3260D02*
X1544Y3260D01*
X1571Y3260D02*
X1596Y3260D01*
X1623Y3260D02*
X1648Y3260D01*
X1759Y3260D02*
X1784Y3260D01*
X1920Y3260D02*
X1949Y3260D01*
X2083Y3260D02*
X2112Y3260D01*
X2186Y3260D02*
X2211Y3260D01*
X295Y3259D02*
X320Y3259D01*
X496Y3259D02*
X521Y3259D01*
X768Y3259D02*
X793Y3259D01*
X871Y3259D02*
X897Y3259D01*
X981Y3259D02*
X1010Y3259D01*
X1031Y3259D02*
X1059Y3259D01*
X1144Y3259D02*
X1169Y3259D01*
X1242Y3259D02*
X1270Y3259D01*
X1356Y3259D02*
X1385Y3259D01*
X1406Y3259D02*
X1435Y3259D01*
X1519Y3259D02*
X1544Y3259D01*
X1571Y3259D02*
X1596Y3259D01*
X1623Y3259D02*
X1648Y3259D01*
X1759Y3259D02*
X1784Y3259D01*
X1920Y3259D02*
X1949Y3259D01*
X2084Y3259D02*
X2113Y3259D01*
X2186Y3259D02*
X2211Y3259D01*
X295Y3258D02*
X320Y3258D01*
X496Y3258D02*
X521Y3258D01*
X768Y3258D02*
X793Y3258D01*
X871Y3258D02*
X897Y3258D01*
X980Y3258D02*
X1009Y3258D01*
X1031Y3258D02*
X1060Y3258D01*
X1144Y3258D02*
X1169Y3258D01*
X1243Y3258D02*
X1271Y3258D01*
X1356Y3258D02*
X1385Y3258D01*
X1407Y3258D02*
X1436Y3258D01*
X1520Y3258D02*
X1544Y3258D01*
X1571Y3258D02*
X1596Y3258D01*
X1623Y3258D02*
X1648Y3258D01*
X1759Y3258D02*
X1784Y3258D01*
X1919Y3258D02*
X1948Y3258D01*
X2084Y3258D02*
X2114Y3258D01*
X2187Y3258D02*
X2211Y3258D01*
X295Y3257D02*
X320Y3257D01*
X496Y3257D02*
X521Y3257D01*
X768Y3257D02*
X793Y3257D01*
X871Y3257D02*
X897Y3257D01*
X980Y3257D02*
X1008Y3257D01*
X1032Y3257D02*
X1060Y3257D01*
X1144Y3257D02*
X1169Y3257D01*
X1243Y3257D02*
X1271Y3257D01*
X1355Y3257D02*
X1384Y3257D01*
X1407Y3257D02*
X1436Y3257D01*
X1520Y3257D02*
X1544Y3257D01*
X1571Y3257D02*
X1596Y3257D01*
X1623Y3257D02*
X1647Y3257D01*
X1759Y3257D02*
X1784Y3257D01*
X1919Y3257D02*
X1948Y3257D01*
X2084Y3257D02*
X2115Y3257D01*
X2187Y3257D02*
X2211Y3257D01*
X295Y3256D02*
X320Y3256D01*
X496Y3256D02*
X521Y3256D01*
X768Y3256D02*
X793Y3256D01*
X872Y3256D02*
X897Y3256D01*
X979Y3256D02*
X1008Y3256D01*
X1032Y3256D02*
X1061Y3256D01*
X1144Y3256D02*
X1169Y3256D01*
X1244Y3256D02*
X1271Y3256D01*
X1355Y3256D02*
X1384Y3256D01*
X1408Y3256D02*
X1437Y3256D01*
X1520Y3256D02*
X1544Y3256D01*
X1571Y3256D02*
X1596Y3256D01*
X1624Y3256D02*
X1647Y3256D01*
X1759Y3256D02*
X1784Y3256D01*
X1918Y3256D02*
X1947Y3256D01*
X2085Y3256D02*
X2115Y3256D01*
X2187Y3256D02*
X2211Y3256D01*
X295Y3255D02*
X320Y3255D01*
X496Y3255D02*
X521Y3255D01*
X768Y3255D02*
X793Y3255D01*
X872Y3255D02*
X897Y3255D01*
X979Y3255D02*
X1007Y3255D01*
X1033Y3255D02*
X1061Y3255D01*
X1144Y3255D02*
X1169Y3255D01*
X1244Y3255D02*
X1271Y3255D01*
X1354Y3255D02*
X1383Y3255D01*
X1408Y3255D02*
X1437Y3255D01*
X1521Y3255D02*
X1543Y3255D01*
X1571Y3255D02*
X1596Y3255D01*
X1624Y3255D02*
X1647Y3255D01*
X1759Y3255D02*
X1784Y3255D01*
X1918Y3255D02*
X1947Y3255D01*
X2085Y3255D02*
X2116Y3255D01*
X2188Y3255D02*
X2210Y3255D01*
X295Y3254D02*
X320Y3254D01*
X496Y3254D02*
X521Y3254D01*
X768Y3254D02*
X793Y3254D01*
X872Y3254D02*
X897Y3254D01*
X978Y3254D02*
X1007Y3254D01*
X1033Y3254D02*
X1062Y3254D01*
X1144Y3254D02*
X1169Y3254D01*
X1245Y3254D02*
X1271Y3254D01*
X1354Y3254D02*
X1383Y3254D01*
X1409Y3254D02*
X1438Y3254D01*
X1521Y3254D02*
X1542Y3254D01*
X1571Y3254D02*
X1596Y3254D01*
X1625Y3254D02*
X1646Y3254D01*
X1759Y3254D02*
X1784Y3254D01*
X1917Y3254D02*
X1946Y3254D01*
X2085Y3254D02*
X2117Y3254D01*
X2188Y3254D02*
X2209Y3254D01*
X295Y3253D02*
X320Y3253D01*
X496Y3253D02*
X521Y3253D01*
X768Y3253D02*
X793Y3253D01*
X872Y3253D02*
X897Y3253D01*
X978Y3253D02*
X1006Y3253D01*
X1034Y3253D02*
X1062Y3253D01*
X1144Y3253D02*
X1169Y3253D01*
X1245Y3253D02*
X1272Y3253D01*
X1353Y3253D02*
X1382Y3253D01*
X1409Y3253D02*
X1438Y3253D01*
X1522Y3253D02*
X1542Y3253D01*
X1571Y3253D02*
X1596Y3253D01*
X1626Y3253D02*
X1645Y3253D01*
X1759Y3253D02*
X1784Y3253D01*
X1917Y3253D02*
X1946Y3253D01*
X2086Y3253D02*
X2118Y3253D01*
X2189Y3253D02*
X2209Y3253D01*
X295Y3252D02*
X320Y3252D01*
X496Y3252D02*
X521Y3252D01*
X768Y3252D02*
X793Y3252D01*
X872Y3252D02*
X897Y3252D01*
X977Y3252D02*
X1006Y3252D01*
X1034Y3252D02*
X1063Y3252D01*
X1144Y3252D02*
X1169Y3252D01*
X1246Y3252D02*
X1272Y3252D01*
X1353Y3252D02*
X1382Y3252D01*
X1410Y3252D02*
X1439Y3252D01*
X1523Y3252D02*
X1541Y3252D01*
X1571Y3252D02*
X1596Y3252D01*
X1626Y3252D02*
X1644Y3252D01*
X1759Y3252D02*
X1784Y3252D01*
X1916Y3252D02*
X1945Y3252D01*
X2086Y3252D02*
X2119Y3252D01*
X2190Y3252D02*
X2208Y3252D01*
X295Y3251D02*
X320Y3251D01*
X496Y3251D02*
X521Y3251D01*
X768Y3251D02*
X793Y3251D01*
X872Y3251D02*
X897Y3251D01*
X977Y3251D02*
X1005Y3251D01*
X1035Y3251D02*
X1063Y3251D01*
X1144Y3251D02*
X1169Y3251D01*
X1246Y3251D02*
X1272Y3251D01*
X1352Y3251D02*
X1381Y3251D01*
X1410Y3251D02*
X1439Y3251D01*
X1524Y3251D02*
X1540Y3251D01*
X1571Y3251D02*
X1596Y3251D01*
X1627Y3251D02*
X1643Y3251D01*
X1759Y3251D02*
X1784Y3251D01*
X1916Y3251D02*
X1945Y3251D01*
X2087Y3251D02*
X2119Y3251D01*
X2191Y3251D02*
X2207Y3251D01*
X295Y3250D02*
X320Y3250D01*
X496Y3250D02*
X521Y3250D01*
X768Y3250D02*
X793Y3250D01*
X872Y3250D02*
X897Y3250D01*
X976Y3250D02*
X1005Y3250D01*
X1035Y3250D02*
X1064Y3250D01*
X1144Y3250D02*
X1169Y3250D01*
X1246Y3250D02*
X1272Y3250D01*
X1352Y3250D02*
X1381Y3250D01*
X1411Y3250D02*
X1440Y3250D01*
X1525Y3250D02*
X1539Y3250D01*
X1571Y3250D02*
X1596Y3250D01*
X1629Y3250D02*
X1642Y3250D01*
X1759Y3250D02*
X1784Y3250D01*
X1915Y3250D02*
X1944Y3250D01*
X2088Y3250D02*
X2120Y3250D01*
X2192Y3250D02*
X2206Y3250D01*
X295Y3249D02*
X320Y3249D01*
X496Y3249D02*
X521Y3249D01*
X768Y3249D02*
X793Y3249D01*
X872Y3249D02*
X897Y3249D01*
X976Y3249D02*
X1004Y3249D01*
X1036Y3249D02*
X1064Y3249D01*
X1144Y3249D02*
X1169Y3249D01*
X1247Y3249D02*
X1272Y3249D01*
X1351Y3249D02*
X1380Y3249D01*
X1411Y3249D02*
X1440Y3249D01*
X1527Y3249D02*
X1537Y3249D01*
X1571Y3249D02*
X1596Y3249D01*
X1630Y3249D02*
X1640Y3249D01*
X1759Y3249D02*
X1784Y3249D01*
X1915Y3249D02*
X1943Y3249D01*
X2088Y3249D02*
X2121Y3249D01*
X2194Y3249D02*
X2204Y3249D01*
X295Y3248D02*
X320Y3248D01*
X496Y3248D02*
X521Y3248D01*
X768Y3248D02*
X793Y3248D01*
X872Y3248D02*
X897Y3248D01*
X975Y3248D02*
X1004Y3248D01*
X1036Y3248D02*
X1065Y3248D01*
X1144Y3248D02*
X1169Y3248D01*
X1247Y3248D02*
X1272Y3248D01*
X1351Y3248D02*
X1380Y3248D01*
X1412Y3248D02*
X1441Y3248D01*
X1530Y3248D02*
X1533Y3248D01*
X1571Y3248D02*
X1596Y3248D01*
X1634Y3248D02*
X1637Y3248D01*
X1759Y3248D02*
X1784Y3248D01*
X1914Y3248D02*
X1943Y3248D01*
X2089Y3248D02*
X2122Y3248D01*
X2197Y3248D02*
X2200Y3248D01*
X295Y3247D02*
X320Y3247D01*
X496Y3247D02*
X521Y3247D01*
X768Y3247D02*
X793Y3247D01*
X872Y3247D02*
X897Y3247D01*
X975Y3247D02*
X1003Y3247D01*
X1037Y3247D02*
X1065Y3247D01*
X1144Y3247D02*
X1169Y3247D01*
X1247Y3247D02*
X1272Y3247D01*
X1350Y3247D02*
X1379Y3247D01*
X1412Y3247D02*
X1441Y3247D01*
X1571Y3247D02*
X1596Y3247D01*
X1759Y3247D02*
X1784Y3247D01*
X1914Y3247D02*
X1942Y3247D01*
X2090Y3247D02*
X2122Y3247D01*
X295Y3246D02*
X320Y3246D01*
X496Y3246D02*
X521Y3246D01*
X768Y3246D02*
X793Y3246D01*
X872Y3246D02*
X897Y3246D01*
X974Y3246D02*
X1003Y3246D01*
X1037Y3246D02*
X1066Y3246D01*
X1144Y3246D02*
X1169Y3246D01*
X1247Y3246D02*
X1272Y3246D01*
X1350Y3246D02*
X1379Y3246D01*
X1413Y3246D02*
X1442Y3246D01*
X1571Y3246D02*
X1596Y3246D01*
X1759Y3246D02*
X1784Y3246D01*
X1913Y3246D02*
X1942Y3246D01*
X2090Y3246D02*
X2123Y3246D01*
X295Y3245D02*
X320Y3245D01*
X496Y3245D02*
X521Y3245D01*
X768Y3245D02*
X793Y3245D01*
X872Y3245D02*
X897Y3245D01*
X974Y3245D02*
X1002Y3245D01*
X1038Y3245D02*
X1066Y3245D01*
X1144Y3245D02*
X1169Y3245D01*
X1247Y3245D02*
X1272Y3245D01*
X1349Y3245D02*
X1378Y3245D01*
X1413Y3245D02*
X1442Y3245D01*
X1571Y3245D02*
X1596Y3245D01*
X1759Y3245D02*
X1784Y3245D01*
X1913Y3245D02*
X1941Y3245D01*
X2091Y3245D02*
X2124Y3245D01*
X295Y3244D02*
X320Y3244D01*
X496Y3244D02*
X521Y3244D01*
X768Y3244D02*
X793Y3244D01*
X872Y3244D02*
X897Y3244D01*
X973Y3244D02*
X1002Y3244D01*
X1038Y3244D02*
X1067Y3244D01*
X1144Y3244D02*
X1169Y3244D01*
X1247Y3244D02*
X1272Y3244D01*
X1349Y3244D02*
X1378Y3244D01*
X1414Y3244D02*
X1443Y3244D01*
X1571Y3244D02*
X1596Y3244D01*
X1759Y3244D02*
X1784Y3244D01*
X1912Y3244D02*
X1941Y3244D01*
X2092Y3244D02*
X2125Y3244D01*
X295Y3243D02*
X320Y3243D01*
X496Y3243D02*
X521Y3243D01*
X768Y3243D02*
X793Y3243D01*
X871Y3243D02*
X897Y3243D01*
X973Y3243D02*
X1001Y3243D01*
X1039Y3243D02*
X1067Y3243D01*
X1144Y3243D02*
X1169Y3243D01*
X1247Y3243D02*
X1272Y3243D01*
X1348Y3243D02*
X1377Y3243D01*
X1414Y3243D02*
X1443Y3243D01*
X1571Y3243D02*
X1596Y3243D01*
X1759Y3243D02*
X1784Y3243D01*
X1912Y3243D02*
X1940Y3243D01*
X2093Y3243D02*
X2126Y3243D01*
X295Y3242D02*
X320Y3242D01*
X496Y3242D02*
X521Y3242D01*
X768Y3242D02*
X793Y3242D01*
X871Y3242D02*
X897Y3242D01*
X972Y3242D02*
X1001Y3242D01*
X1039Y3242D02*
X1068Y3242D01*
X1144Y3242D02*
X1169Y3242D01*
X1247Y3242D02*
X1272Y3242D01*
X1348Y3242D02*
X1377Y3242D01*
X1415Y3242D02*
X1444Y3242D01*
X1571Y3242D02*
X1596Y3242D01*
X1759Y3242D02*
X1784Y3242D01*
X1911Y3242D02*
X1940Y3242D01*
X2094Y3242D02*
X2126Y3242D01*
X295Y3241D02*
X320Y3241D01*
X496Y3241D02*
X521Y3241D01*
X768Y3241D02*
X793Y3241D01*
X871Y3241D02*
X897Y3241D01*
X972Y3241D02*
X1000Y3241D01*
X1040Y3241D02*
X1068Y3241D01*
X1144Y3241D02*
X1169Y3241D01*
X1247Y3241D02*
X1272Y3241D01*
X1347Y3241D02*
X1376Y3241D01*
X1415Y3241D02*
X1444Y3241D01*
X1571Y3241D02*
X1596Y3241D01*
X1759Y3241D02*
X1784Y3241D01*
X1911Y3241D02*
X1939Y3241D01*
X2094Y3241D02*
X2127Y3241D01*
X295Y3240D02*
X320Y3240D01*
X496Y3240D02*
X521Y3240D01*
X768Y3240D02*
X793Y3240D01*
X871Y3240D02*
X897Y3240D01*
X971Y3240D02*
X1000Y3240D01*
X1040Y3240D02*
X1069Y3240D01*
X1144Y3240D02*
X1169Y3240D01*
X1247Y3240D02*
X1272Y3240D01*
X1347Y3240D02*
X1375Y3240D01*
X1416Y3240D02*
X1445Y3240D01*
X1571Y3240D02*
X1596Y3240D01*
X1759Y3240D02*
X1784Y3240D01*
X1910Y3240D02*
X1939Y3240D01*
X2095Y3240D02*
X2128Y3240D01*
X295Y3239D02*
X320Y3239D01*
X496Y3239D02*
X521Y3239D01*
X768Y3239D02*
X793Y3239D01*
X871Y3239D02*
X897Y3239D01*
X971Y3239D02*
X999Y3239D01*
X1041Y3239D02*
X1069Y3239D01*
X1144Y3239D02*
X1169Y3239D01*
X1247Y3239D02*
X1272Y3239D01*
X1346Y3239D02*
X1375Y3239D01*
X1416Y3239D02*
X1445Y3239D01*
X1571Y3239D02*
X1596Y3239D01*
X1759Y3239D02*
X1784Y3239D01*
X1910Y3239D02*
X1938Y3239D01*
X2096Y3239D02*
X2129Y3239D01*
X295Y3238D02*
X320Y3238D01*
X496Y3238D02*
X521Y3238D01*
X768Y3238D02*
X793Y3238D01*
X870Y3238D02*
X897Y3238D01*
X970Y3238D02*
X999Y3238D01*
X1041Y3238D02*
X1070Y3238D01*
X1144Y3238D02*
X1169Y3238D01*
X1247Y3238D02*
X1272Y3238D01*
X1346Y3238D02*
X1374Y3238D01*
X1417Y3238D02*
X1446Y3238D01*
X1571Y3238D02*
X1596Y3238D01*
X1759Y3238D02*
X1784Y3238D01*
X1909Y3238D02*
X1938Y3238D01*
X2097Y3238D02*
X2129Y3238D01*
X295Y3237D02*
X320Y3237D01*
X496Y3237D02*
X521Y3237D01*
X768Y3237D02*
X793Y3237D01*
X870Y3237D02*
X896Y3237D01*
X970Y3237D02*
X998Y3237D01*
X1042Y3237D02*
X1070Y3237D01*
X1144Y3237D02*
X1169Y3237D01*
X1247Y3237D02*
X1272Y3237D01*
X1345Y3237D02*
X1374Y3237D01*
X1417Y3237D02*
X1446Y3237D01*
X1571Y3237D02*
X1596Y3237D01*
X1759Y3237D02*
X1784Y3237D01*
X1909Y3237D02*
X1937Y3237D01*
X2097Y3237D02*
X2130Y3237D01*
X295Y3236D02*
X320Y3236D01*
X496Y3236D02*
X521Y3236D01*
X768Y3236D02*
X793Y3236D01*
X869Y3236D02*
X896Y3236D01*
X969Y3236D02*
X998Y3236D01*
X1042Y3236D02*
X1071Y3236D01*
X1144Y3236D02*
X1169Y3236D01*
X1247Y3236D02*
X1272Y3236D01*
X1345Y3236D02*
X1373Y3236D01*
X1418Y3236D02*
X1447Y3236D01*
X1571Y3236D02*
X1596Y3236D01*
X1759Y3236D02*
X1784Y3236D01*
X1908Y3236D02*
X1937Y3236D01*
X2098Y3236D02*
X2131Y3236D01*
X295Y3235D02*
X320Y3235D01*
X496Y3235D02*
X521Y3235D01*
X768Y3235D02*
X793Y3235D01*
X868Y3235D02*
X896Y3235D01*
X969Y3235D02*
X997Y3235D01*
X1043Y3235D02*
X1071Y3235D01*
X1144Y3235D02*
X1169Y3235D01*
X1247Y3235D02*
X1272Y3235D01*
X1344Y3235D02*
X1373Y3235D01*
X1418Y3235D02*
X1447Y3235D01*
X1571Y3235D02*
X1596Y3235D01*
X1759Y3235D02*
X1784Y3235D01*
X1908Y3235D02*
X1936Y3235D01*
X2099Y3235D02*
X2132Y3235D01*
X295Y3234D02*
X320Y3234D01*
X496Y3234D02*
X521Y3234D01*
X768Y3234D02*
X793Y3234D01*
X868Y3234D02*
X896Y3234D01*
X968Y3234D02*
X997Y3234D01*
X1043Y3234D02*
X1072Y3234D01*
X1144Y3234D02*
X1169Y3234D01*
X1247Y3234D02*
X1272Y3234D01*
X1344Y3234D02*
X1372Y3234D01*
X1419Y3234D02*
X1448Y3234D01*
X1571Y3234D02*
X1596Y3234D01*
X1759Y3234D02*
X1784Y3234D01*
X1907Y3234D02*
X1936Y3234D01*
X2100Y3234D02*
X2133Y3234D01*
X295Y3233D02*
X320Y3233D01*
X496Y3233D02*
X521Y3233D01*
X768Y3233D02*
X793Y3233D01*
X866Y3233D02*
X896Y3233D01*
X968Y3233D02*
X996Y3233D01*
X1044Y3233D02*
X1072Y3233D01*
X1144Y3233D02*
X1169Y3233D01*
X1247Y3233D02*
X1272Y3233D01*
X1343Y3233D02*
X1372Y3233D01*
X1419Y3233D02*
X1448Y3233D01*
X1571Y3233D02*
X1596Y3233D01*
X1759Y3233D02*
X1784Y3233D01*
X1907Y3233D02*
X1935Y3233D01*
X2101Y3233D02*
X2133Y3233D01*
X295Y3232D02*
X320Y3232D01*
X496Y3232D02*
X521Y3232D01*
X768Y3232D02*
X793Y3232D01*
X865Y3232D02*
X895Y3232D01*
X967Y3232D02*
X996Y3232D01*
X1044Y3232D02*
X1073Y3232D01*
X1144Y3232D02*
X1169Y3232D01*
X1247Y3232D02*
X1272Y3232D01*
X1343Y3232D02*
X1371Y3232D01*
X1420Y3232D02*
X1449Y3232D01*
X1571Y3232D02*
X1596Y3232D01*
X1759Y3232D02*
X1784Y3232D01*
X1906Y3232D02*
X1935Y3232D01*
X2101Y3232D02*
X2134Y3232D01*
X295Y3231D02*
X320Y3231D01*
X496Y3231D02*
X521Y3231D01*
X768Y3231D02*
X793Y3231D01*
X863Y3231D02*
X895Y3231D01*
X967Y3231D02*
X995Y3231D01*
X1045Y3231D02*
X1073Y3231D01*
X1144Y3231D02*
X1169Y3231D01*
X1247Y3231D02*
X1272Y3231D01*
X1342Y3231D02*
X1371Y3231D01*
X1421Y3231D02*
X1449Y3231D01*
X1571Y3231D02*
X1596Y3231D01*
X1759Y3231D02*
X1784Y3231D01*
X1906Y3231D02*
X1934Y3231D01*
X2102Y3231D02*
X2135Y3231D01*
X295Y3230D02*
X320Y3230D01*
X496Y3230D02*
X521Y3230D01*
X768Y3230D02*
X794Y3230D01*
X860Y3230D02*
X895Y3230D01*
X966Y3230D02*
X995Y3230D01*
X1045Y3230D02*
X1074Y3230D01*
X1144Y3230D02*
X1169Y3230D01*
X1247Y3230D02*
X1272Y3230D01*
X1342Y3230D02*
X1370Y3230D01*
X1421Y3230D02*
X1450Y3230D01*
X1571Y3230D02*
X1596Y3230D01*
X1759Y3230D02*
X1784Y3230D01*
X1905Y3230D02*
X1934Y3230D01*
X2103Y3230D02*
X2136Y3230D01*
X295Y3229D02*
X320Y3229D01*
X496Y3229D02*
X521Y3229D01*
X768Y3229D02*
X894Y3229D01*
X966Y3229D02*
X994Y3229D01*
X1046Y3229D02*
X1074Y3229D01*
X1144Y3229D02*
X1169Y3229D01*
X1247Y3229D02*
X1272Y3229D01*
X1341Y3229D02*
X1370Y3229D01*
X1422Y3229D02*
X1450Y3229D01*
X1571Y3229D02*
X1596Y3229D01*
X1759Y3229D02*
X1784Y3229D01*
X1905Y3229D02*
X1933Y3229D01*
X2104Y3229D02*
X2136Y3229D01*
X295Y3228D02*
X320Y3228D01*
X496Y3228D02*
X521Y3228D01*
X768Y3228D02*
X894Y3228D01*
X965Y3228D02*
X994Y3228D01*
X1046Y3228D02*
X1075Y3228D01*
X1144Y3228D02*
X1169Y3228D01*
X1246Y3228D02*
X1272Y3228D01*
X1341Y3228D02*
X1369Y3228D01*
X1422Y3228D02*
X1451Y3228D01*
X1571Y3228D02*
X1596Y3228D01*
X1759Y3228D02*
X1784Y3228D01*
X1904Y3228D02*
X1933Y3228D01*
X2104Y3228D02*
X2137Y3228D01*
X295Y3227D02*
X320Y3227D01*
X496Y3227D02*
X521Y3227D01*
X768Y3227D02*
X893Y3227D01*
X965Y3227D02*
X993Y3227D01*
X1047Y3227D02*
X1075Y3227D01*
X1144Y3227D02*
X1169Y3227D01*
X1246Y3227D02*
X1272Y3227D01*
X1340Y3227D02*
X1369Y3227D01*
X1423Y3227D02*
X1451Y3227D01*
X1571Y3227D02*
X1596Y3227D01*
X1759Y3227D02*
X1784Y3227D01*
X1904Y3227D02*
X1932Y3227D01*
X2105Y3227D02*
X2138Y3227D01*
X295Y3226D02*
X320Y3226D01*
X496Y3226D02*
X521Y3226D01*
X768Y3226D02*
X893Y3226D01*
X964Y3226D02*
X993Y3226D01*
X1047Y3226D02*
X1076Y3226D01*
X1144Y3226D02*
X1169Y3226D01*
X1246Y3226D02*
X1272Y3226D01*
X1340Y3226D02*
X1368Y3226D01*
X1423Y3226D02*
X1452Y3226D01*
X1571Y3226D02*
X1596Y3226D01*
X1759Y3226D02*
X1784Y3226D01*
X1903Y3226D02*
X1932Y3226D01*
X2106Y3226D02*
X2139Y3226D01*
X295Y3225D02*
X320Y3225D01*
X496Y3225D02*
X521Y3225D01*
X768Y3225D02*
X892Y3225D01*
X964Y3225D02*
X992Y3225D01*
X1048Y3225D02*
X1076Y3225D01*
X1144Y3225D02*
X1169Y3225D01*
X1245Y3225D02*
X1272Y3225D01*
X1339Y3225D02*
X1368Y3225D01*
X1424Y3225D02*
X1452Y3225D01*
X1571Y3225D02*
X1596Y3225D01*
X1759Y3225D02*
X1784Y3225D01*
X1903Y3225D02*
X1931Y3225D01*
X2107Y3225D02*
X2140Y3225D01*
X295Y3224D02*
X320Y3224D01*
X496Y3224D02*
X521Y3224D01*
X768Y3224D02*
X892Y3224D01*
X963Y3224D02*
X992Y3224D01*
X1048Y3224D02*
X1077Y3224D01*
X1144Y3224D02*
X1169Y3224D01*
X1245Y3224D02*
X1272Y3224D01*
X1339Y3224D02*
X1367Y3224D01*
X1424Y3224D02*
X1453Y3224D01*
X1571Y3224D02*
X1596Y3224D01*
X1759Y3224D02*
X1784Y3224D01*
X1902Y3224D02*
X1931Y3224D01*
X2108Y3224D02*
X2140Y3224D01*
X295Y3223D02*
X320Y3223D01*
X496Y3223D02*
X521Y3223D01*
X768Y3223D02*
X891Y3223D01*
X963Y3223D02*
X991Y3223D01*
X1049Y3223D02*
X1077Y3223D01*
X1144Y3223D02*
X1169Y3223D01*
X1245Y3223D02*
X1271Y3223D01*
X1338Y3223D02*
X1367Y3223D01*
X1425Y3223D02*
X1453Y3223D01*
X1571Y3223D02*
X1596Y3223D01*
X1759Y3223D02*
X1784Y3223D01*
X1902Y3223D02*
X1930Y3223D01*
X2108Y3223D02*
X2141Y3223D01*
X295Y3222D02*
X320Y3222D01*
X496Y3222D02*
X521Y3222D01*
X768Y3222D02*
X891Y3222D01*
X962Y3222D02*
X991Y3222D01*
X1049Y3222D02*
X1078Y3222D01*
X1144Y3222D02*
X1169Y3222D01*
X1244Y3222D02*
X1271Y3222D01*
X1338Y3222D02*
X1366Y3222D01*
X1425Y3222D02*
X1454Y3222D01*
X1571Y3222D02*
X1596Y3222D01*
X1759Y3222D02*
X1784Y3222D01*
X1901Y3222D02*
X1930Y3222D01*
X2109Y3222D02*
X2142Y3222D01*
X295Y3221D02*
X320Y3221D01*
X496Y3221D02*
X521Y3221D01*
X768Y3221D02*
X890Y3221D01*
X962Y3221D02*
X990Y3221D01*
X1050Y3221D02*
X1078Y3221D01*
X1144Y3221D02*
X1169Y3221D01*
X1243Y3221D02*
X1271Y3221D01*
X1337Y3221D02*
X1366Y3221D01*
X1426Y3221D02*
X1454Y3221D01*
X1571Y3221D02*
X1596Y3221D01*
X1759Y3221D02*
X1784Y3221D01*
X1901Y3221D02*
X1929Y3221D01*
X2110Y3221D02*
X2143Y3221D01*
X295Y3220D02*
X320Y3220D01*
X496Y3220D02*
X521Y3220D01*
X768Y3220D02*
X889Y3220D01*
X961Y3220D02*
X990Y3220D01*
X1050Y3220D02*
X1079Y3220D01*
X1144Y3220D02*
X1169Y3220D01*
X1243Y3220D02*
X1271Y3220D01*
X1337Y3220D02*
X1365Y3220D01*
X1426Y3220D02*
X1454Y3220D01*
X1571Y3220D02*
X1596Y3220D01*
X1759Y3220D02*
X1784Y3220D01*
X1900Y3220D02*
X1929Y3220D01*
X2111Y3220D02*
X2143Y3220D01*
X295Y3219D02*
X320Y3219D01*
X496Y3219D02*
X521Y3219D01*
X768Y3219D02*
X888Y3219D01*
X961Y3219D02*
X989Y3219D01*
X1051Y3219D02*
X1079Y3219D01*
X1144Y3219D02*
X1169Y3219D01*
X1242Y3219D02*
X1270Y3219D01*
X1337Y3219D02*
X1365Y3219D01*
X1427Y3219D02*
X1455Y3219D01*
X1571Y3219D02*
X1596Y3219D01*
X1759Y3219D02*
X1784Y3219D01*
X1900Y3219D02*
X1928Y3219D01*
X2111Y3219D02*
X2144Y3219D01*
X295Y3218D02*
X320Y3218D01*
X496Y3218D02*
X521Y3218D01*
X768Y3218D02*
X888Y3218D01*
X961Y3218D02*
X989Y3218D01*
X1051Y3218D02*
X1080Y3218D01*
X1144Y3218D02*
X1169Y3218D01*
X1241Y3218D02*
X1270Y3218D01*
X1336Y3218D02*
X1364Y3218D01*
X1427Y3218D02*
X1455Y3218D01*
X1571Y3218D02*
X1596Y3218D01*
X1759Y3218D02*
X1784Y3218D01*
X1900Y3218D02*
X1928Y3218D01*
X2112Y3218D02*
X2145Y3218D01*
X295Y3217D02*
X320Y3217D01*
X495Y3217D02*
X521Y3217D01*
X768Y3217D02*
X887Y3217D01*
X960Y3217D02*
X988Y3217D01*
X1052Y3217D02*
X1080Y3217D01*
X1144Y3217D02*
X1169Y3217D01*
X1240Y3217D02*
X1270Y3217D01*
X1336Y3217D02*
X1364Y3217D01*
X1428Y3217D02*
X1456Y3217D01*
X1571Y3217D02*
X1596Y3217D01*
X1759Y3217D02*
X1784Y3217D01*
X1899Y3217D02*
X1927Y3217D01*
X2113Y3217D02*
X2146Y3217D01*
X295Y3216D02*
X320Y3216D01*
X495Y3216D02*
X521Y3216D01*
X768Y3216D02*
X886Y3216D01*
X960Y3216D02*
X988Y3216D01*
X1052Y3216D02*
X1080Y3216D01*
X1144Y3216D02*
X1169Y3216D01*
X1240Y3216D02*
X1269Y3216D01*
X1335Y3216D02*
X1363Y3216D01*
X1428Y3216D02*
X1456Y3216D01*
X1571Y3216D02*
X1596Y3216D01*
X1759Y3216D02*
X1784Y3216D01*
X1899Y3216D02*
X1927Y3216D01*
X2114Y3216D02*
X2147Y3216D01*
X295Y3215D02*
X320Y3215D01*
X494Y3215D02*
X521Y3215D01*
X768Y3215D02*
X885Y3215D01*
X959Y3215D02*
X987Y3215D01*
X1053Y3215D02*
X1081Y3215D01*
X1144Y3215D02*
X1169Y3215D01*
X1238Y3215D02*
X1269Y3215D01*
X1335Y3215D02*
X1363Y3215D01*
X1429Y3215D02*
X1457Y3215D01*
X1571Y3215D02*
X1596Y3215D01*
X1759Y3215D02*
X1784Y3215D01*
X1898Y3215D02*
X1926Y3215D01*
X2115Y3215D02*
X2147Y3215D01*
X295Y3214D02*
X320Y3214D01*
X494Y3214D02*
X521Y3214D01*
X768Y3214D02*
X884Y3214D01*
X959Y3214D02*
X987Y3214D01*
X1054Y3214D02*
X1081Y3214D01*
X1144Y3214D02*
X1169Y3214D01*
X1237Y3214D02*
X1269Y3214D01*
X1335Y3214D02*
X1362Y3214D01*
X1429Y3214D02*
X1457Y3214D01*
X1571Y3214D02*
X1596Y3214D01*
X1759Y3214D02*
X1784Y3214D01*
X1898Y3214D02*
X1926Y3214D01*
X2115Y3214D02*
X2148Y3214D01*
X295Y3213D02*
X320Y3213D01*
X493Y3213D02*
X520Y3213D01*
X768Y3213D02*
X883Y3213D01*
X959Y3213D02*
X986Y3213D01*
X1054Y3213D02*
X1082Y3213D01*
X1144Y3213D02*
X1169Y3213D01*
X1236Y3213D02*
X1268Y3213D01*
X1334Y3213D02*
X1362Y3213D01*
X1430Y3213D02*
X1457Y3213D01*
X1571Y3213D02*
X1596Y3213D01*
X1759Y3213D02*
X1784Y3213D01*
X1898Y3213D02*
X1925Y3213D01*
X2116Y3213D02*
X2149Y3213D01*
X295Y3212D02*
X320Y3212D01*
X492Y3212D02*
X520Y3212D01*
X768Y3212D02*
X881Y3212D01*
X958Y3212D02*
X986Y3212D01*
X1055Y3212D02*
X1082Y3212D01*
X1144Y3212D02*
X1169Y3212D01*
X1235Y3212D02*
X1268Y3212D01*
X1334Y3212D02*
X1361Y3212D01*
X1430Y3212D02*
X1457Y3212D01*
X1571Y3212D02*
X1596Y3212D01*
X1759Y3212D02*
X1784Y3212D01*
X1897Y3212D02*
X1925Y3212D01*
X2117Y3212D02*
X2150Y3212D01*
X295Y3211D02*
X320Y3211D01*
X491Y3211D02*
X520Y3211D01*
X768Y3211D02*
X880Y3211D01*
X958Y3211D02*
X985Y3211D01*
X1055Y3211D02*
X1082Y3211D01*
X1144Y3211D02*
X1169Y3211D01*
X1233Y3211D02*
X1267Y3211D01*
X1334Y3211D02*
X1361Y3211D01*
X1431Y3211D02*
X1458Y3211D01*
X1571Y3211D02*
X1596Y3211D01*
X1759Y3211D02*
X1784Y3211D01*
X1897Y3211D02*
X1924Y3211D01*
X2118Y3211D02*
X2150Y3211D01*
X295Y3210D02*
X320Y3210D01*
X490Y3210D02*
X520Y3210D01*
X768Y3210D02*
X879Y3210D01*
X958Y3210D02*
X985Y3210D01*
X1056Y3210D02*
X1082Y3210D01*
X1144Y3210D02*
X1169Y3210D01*
X1231Y3210D02*
X1267Y3210D01*
X1333Y3210D02*
X1360Y3210D01*
X1431Y3210D02*
X1458Y3210D01*
X1571Y3210D02*
X1596Y3210D01*
X1759Y3210D02*
X1784Y3210D01*
X1897Y3210D02*
X1924Y3210D01*
X2118Y3210D02*
X2151Y3210D01*
X295Y3209D02*
X320Y3209D01*
X488Y3209D02*
X519Y3209D01*
X768Y3209D02*
X877Y3209D01*
X958Y3209D02*
X984Y3209D01*
X1056Y3209D02*
X1083Y3209D01*
X1144Y3209D02*
X1169Y3209D01*
X1228Y3209D02*
X1266Y3209D01*
X1333Y3209D02*
X1360Y3209D01*
X1432Y3209D02*
X1458Y3209D01*
X1571Y3209D02*
X1596Y3209D01*
X1759Y3209D02*
X1784Y3209D01*
X1897Y3209D02*
X1923Y3209D01*
X2119Y3209D02*
X2152Y3209D01*
X295Y3208D02*
X320Y3208D01*
X484Y3208D02*
X519Y3208D01*
X768Y3208D02*
X875Y3208D01*
X957Y3208D02*
X984Y3208D01*
X1056Y3208D02*
X1083Y3208D01*
X1144Y3208D02*
X1169Y3208D01*
X1223Y3208D02*
X1266Y3208D01*
X1333Y3208D02*
X1359Y3208D01*
X1432Y3208D02*
X1459Y3208D01*
X1571Y3208D02*
X1596Y3208D01*
X1759Y3208D02*
X1784Y3208D01*
X1896Y3208D02*
X1923Y3208D01*
X2120Y3208D02*
X2153Y3208D01*
X295Y3207D02*
X320Y3207D01*
X426Y3207D02*
X519Y3207D01*
X768Y3207D02*
X873Y3207D01*
X957Y3207D02*
X983Y3207D01*
X1057Y3207D02*
X1083Y3207D01*
X1144Y3207D02*
X1265Y3207D01*
X1333Y3207D02*
X1359Y3207D01*
X1432Y3207D02*
X1459Y3207D01*
X1571Y3207D02*
X1596Y3207D01*
X1759Y3207D02*
X1784Y3207D01*
X1896Y3207D02*
X1922Y3207D01*
X2121Y3207D02*
X2154Y3207D01*
X295Y3206D02*
X320Y3206D01*
X424Y3206D02*
X518Y3206D01*
X768Y3206D02*
X871Y3206D01*
X957Y3206D02*
X983Y3206D01*
X1057Y3206D02*
X1083Y3206D01*
X1144Y3206D02*
X1264Y3206D01*
X1333Y3206D02*
X1359Y3206D01*
X1433Y3206D02*
X1459Y3206D01*
X1571Y3206D02*
X1596Y3206D01*
X1759Y3206D02*
X1784Y3206D01*
X1896Y3206D02*
X1922Y3206D01*
X2121Y3206D02*
X2154Y3206D01*
X295Y3205D02*
X320Y3205D01*
X423Y3205D02*
X518Y3205D01*
X768Y3205D02*
X868Y3205D01*
X957Y3205D02*
X983Y3205D01*
X1058Y3205D02*
X1084Y3205D01*
X1144Y3205D02*
X1264Y3205D01*
X1332Y3205D02*
X1358Y3205D01*
X1433Y3205D02*
X1459Y3205D01*
X1571Y3205D02*
X1596Y3205D01*
X1759Y3205D02*
X1784Y3205D01*
X1896Y3205D02*
X1922Y3205D01*
X2122Y3205D02*
X2155Y3205D01*
X295Y3204D02*
X320Y3204D01*
X422Y3204D02*
X517Y3204D01*
X768Y3204D02*
X864Y3204D01*
X957Y3204D02*
X982Y3204D01*
X1058Y3204D02*
X1084Y3204D01*
X1144Y3204D02*
X1263Y3204D01*
X1332Y3204D02*
X1358Y3204D01*
X1434Y3204D02*
X1459Y3204D01*
X1571Y3204D02*
X1596Y3204D01*
X1759Y3204D02*
X1784Y3204D01*
X1896Y3204D02*
X1922Y3204D01*
X2123Y3204D02*
X2156Y3204D01*
X295Y3203D02*
X320Y3203D01*
X421Y3203D02*
X517Y3203D01*
X768Y3203D02*
X793Y3203D01*
X813Y3203D02*
X842Y3203D01*
X956Y3203D02*
X982Y3203D01*
X1058Y3203D02*
X1084Y3203D01*
X1144Y3203D02*
X1262Y3203D01*
X1332Y3203D02*
X1358Y3203D01*
X1434Y3203D02*
X1460Y3203D01*
X1571Y3203D02*
X1596Y3203D01*
X1759Y3203D02*
X1784Y3203D01*
X1895Y3203D02*
X1921Y3203D01*
X2124Y3203D02*
X2157Y3203D01*
X295Y3202D02*
X320Y3202D01*
X420Y3202D02*
X516Y3202D01*
X768Y3202D02*
X793Y3202D01*
X813Y3202D02*
X843Y3202D01*
X956Y3202D02*
X982Y3202D01*
X1058Y3202D02*
X1084Y3202D01*
X1144Y3202D02*
X1261Y3202D01*
X1332Y3202D02*
X1358Y3202D01*
X1434Y3202D02*
X1460Y3202D01*
X1571Y3202D02*
X1596Y3202D01*
X1759Y3202D02*
X1784Y3202D01*
X1895Y3202D02*
X1921Y3202D01*
X2125Y3202D02*
X2157Y3202D01*
X295Y3201D02*
X320Y3201D01*
X420Y3201D02*
X516Y3201D01*
X768Y3201D02*
X793Y3201D01*
X814Y3201D02*
X844Y3201D01*
X956Y3201D02*
X982Y3201D01*
X1059Y3201D02*
X1084Y3201D01*
X1144Y3201D02*
X1260Y3201D01*
X1332Y3201D02*
X1357Y3201D01*
X1434Y3201D02*
X1460Y3201D01*
X1571Y3201D02*
X1596Y3201D01*
X1759Y3201D02*
X1784Y3201D01*
X1895Y3201D02*
X1921Y3201D01*
X2125Y3201D02*
X2158Y3201D01*
X295Y3200D02*
X320Y3200D01*
X419Y3200D02*
X515Y3200D01*
X768Y3200D02*
X793Y3200D01*
X814Y3200D02*
X844Y3200D01*
X956Y3200D02*
X982Y3200D01*
X1059Y3200D02*
X1084Y3200D01*
X1144Y3200D02*
X1260Y3200D01*
X1332Y3200D02*
X1357Y3200D01*
X1434Y3200D02*
X1460Y3200D01*
X1571Y3200D02*
X1596Y3200D01*
X1759Y3200D02*
X1784Y3200D01*
X1895Y3200D02*
X1921Y3200D01*
X2126Y3200D02*
X2159Y3200D01*
X295Y3199D02*
X320Y3199D01*
X419Y3199D02*
X514Y3199D01*
X768Y3199D02*
X793Y3199D01*
X815Y3199D02*
X845Y3199D01*
X956Y3199D02*
X981Y3199D01*
X1059Y3199D02*
X1084Y3199D01*
X1144Y3199D02*
X1259Y3199D01*
X1332Y3199D02*
X1357Y3199D01*
X1435Y3199D02*
X1460Y3199D01*
X1571Y3199D02*
X1596Y3199D01*
X1759Y3199D02*
X1784Y3199D01*
X1895Y3199D02*
X1920Y3199D01*
X2127Y3199D02*
X2160Y3199D01*
X295Y3198D02*
X320Y3198D01*
X419Y3198D02*
X514Y3198D01*
X768Y3198D02*
X793Y3198D01*
X816Y3198D02*
X845Y3198D01*
X956Y3198D02*
X981Y3198D01*
X1059Y3198D02*
X1085Y3198D01*
X1144Y3198D02*
X1258Y3198D01*
X1332Y3198D02*
X1357Y3198D01*
X1435Y3198D02*
X1460Y3198D01*
X1571Y3198D02*
X1596Y3198D01*
X1759Y3198D02*
X1784Y3198D01*
X1895Y3198D02*
X1920Y3198D01*
X2128Y3198D02*
X2161Y3198D01*
X295Y3197D02*
X320Y3197D01*
X418Y3197D02*
X513Y3197D01*
X768Y3197D02*
X793Y3197D01*
X816Y3197D02*
X846Y3197D01*
X956Y3197D02*
X981Y3197D01*
X1059Y3197D02*
X1085Y3197D01*
X1144Y3197D02*
X1257Y3197D01*
X1332Y3197D02*
X1357Y3197D01*
X1435Y3197D02*
X1460Y3197D01*
X1571Y3197D02*
X1596Y3197D01*
X1759Y3197D02*
X1784Y3197D01*
X1895Y3197D02*
X1920Y3197D01*
X2128Y3197D02*
X2161Y3197D01*
X295Y3196D02*
X320Y3196D01*
X418Y3196D02*
X512Y3196D01*
X768Y3196D02*
X793Y3196D01*
X817Y3196D02*
X846Y3196D01*
X956Y3196D02*
X981Y3196D01*
X1059Y3196D02*
X1085Y3196D01*
X1144Y3196D02*
X1256Y3196D01*
X1331Y3196D02*
X1357Y3196D01*
X1435Y3196D02*
X1460Y3196D01*
X1571Y3196D02*
X1596Y3196D01*
X1759Y3196D02*
X1784Y3196D01*
X1895Y3196D02*
X1920Y3196D01*
X2129Y3196D02*
X2162Y3196D01*
X295Y3195D02*
X320Y3195D01*
X418Y3195D02*
X511Y3195D01*
X768Y3195D02*
X793Y3195D01*
X817Y3195D02*
X847Y3195D01*
X956Y3195D02*
X981Y3195D01*
X1059Y3195D02*
X1085Y3195D01*
X1144Y3195D02*
X1255Y3195D01*
X1331Y3195D02*
X1357Y3195D01*
X1435Y3195D02*
X1460Y3195D01*
X1571Y3195D02*
X1596Y3195D01*
X1759Y3195D02*
X1784Y3195D01*
X1895Y3195D02*
X1920Y3195D01*
X2130Y3195D02*
X2163Y3195D01*
X295Y3194D02*
X320Y3194D01*
X418Y3194D02*
X511Y3194D01*
X768Y3194D02*
X793Y3194D01*
X818Y3194D02*
X848Y3194D01*
X956Y3194D02*
X981Y3194D01*
X1059Y3194D02*
X1085Y3194D01*
X1144Y3194D02*
X1255Y3194D01*
X1331Y3194D02*
X1357Y3194D01*
X1435Y3194D02*
X1460Y3194D01*
X1571Y3194D02*
X1596Y3194D01*
X1759Y3194D02*
X1784Y3194D01*
X1895Y3194D02*
X1920Y3194D01*
X2131Y3194D02*
X2164Y3194D01*
X295Y3193D02*
X320Y3193D01*
X418Y3193D02*
X512Y3193D01*
X768Y3193D02*
X793Y3193D01*
X818Y3193D02*
X848Y3193D01*
X956Y3193D02*
X981Y3193D01*
X1059Y3193D02*
X1085Y3193D01*
X1144Y3193D02*
X1256Y3193D01*
X1331Y3193D02*
X1357Y3193D01*
X1435Y3193D02*
X1460Y3193D01*
X1571Y3193D02*
X1596Y3193D01*
X1759Y3193D02*
X1784Y3193D01*
X1895Y3193D02*
X1920Y3193D01*
X2132Y3193D02*
X2164Y3193D01*
X295Y3192D02*
X320Y3192D01*
X418Y3192D02*
X513Y3192D01*
X768Y3192D02*
X793Y3192D01*
X819Y3192D02*
X849Y3192D01*
X956Y3192D02*
X981Y3192D01*
X1059Y3192D02*
X1085Y3192D01*
X1144Y3192D02*
X1257Y3192D01*
X1331Y3192D02*
X1357Y3192D01*
X1435Y3192D02*
X1460Y3192D01*
X1571Y3192D02*
X1596Y3192D01*
X1759Y3192D02*
X1784Y3192D01*
X1895Y3192D02*
X1920Y3192D01*
X2132Y3192D02*
X2165Y3192D01*
X295Y3191D02*
X320Y3191D01*
X419Y3191D02*
X514Y3191D01*
X768Y3191D02*
X793Y3191D01*
X820Y3191D02*
X849Y3191D01*
X956Y3191D02*
X981Y3191D01*
X1059Y3191D02*
X1085Y3191D01*
X1144Y3191D02*
X1258Y3191D01*
X1331Y3191D02*
X1357Y3191D01*
X1435Y3191D02*
X1460Y3191D01*
X1571Y3191D02*
X1596Y3191D01*
X1759Y3191D02*
X1784Y3191D01*
X1895Y3191D02*
X1920Y3191D01*
X2133Y3191D02*
X2166Y3191D01*
X295Y3190D02*
X320Y3190D01*
X419Y3190D02*
X514Y3190D01*
X768Y3190D02*
X793Y3190D01*
X820Y3190D02*
X850Y3190D01*
X956Y3190D02*
X981Y3190D01*
X1059Y3190D02*
X1084Y3190D01*
X1144Y3190D02*
X1259Y3190D01*
X1332Y3190D02*
X1357Y3190D01*
X1434Y3190D02*
X1460Y3190D01*
X1571Y3190D02*
X1596Y3190D01*
X1759Y3190D02*
X1784Y3190D01*
X1895Y3190D02*
X1921Y3190D01*
X2134Y3190D02*
X2167Y3190D01*
X295Y3189D02*
X320Y3189D01*
X419Y3189D02*
X515Y3189D01*
X768Y3189D02*
X793Y3189D01*
X821Y3189D02*
X851Y3189D01*
X956Y3189D02*
X982Y3189D01*
X1059Y3189D02*
X1084Y3189D01*
X1144Y3189D02*
X1260Y3189D01*
X1332Y3189D02*
X1357Y3189D01*
X1434Y3189D02*
X1460Y3189D01*
X1571Y3189D02*
X1596Y3189D01*
X1759Y3189D02*
X1784Y3189D01*
X1895Y3189D02*
X1921Y3189D01*
X2135Y3189D02*
X2168Y3189D01*
X295Y3188D02*
X320Y3188D01*
X420Y3188D02*
X516Y3188D01*
X768Y3188D02*
X793Y3188D01*
X821Y3188D02*
X851Y3188D01*
X956Y3188D02*
X982Y3188D01*
X1058Y3188D02*
X1084Y3188D01*
X1144Y3188D02*
X1261Y3188D01*
X1332Y3188D02*
X1357Y3188D01*
X1434Y3188D02*
X1460Y3188D01*
X1571Y3188D02*
X1596Y3188D01*
X1759Y3188D02*
X1784Y3188D01*
X1895Y3188D02*
X1921Y3188D01*
X2135Y3188D02*
X2168Y3188D01*
X295Y3187D02*
X320Y3187D01*
X421Y3187D02*
X516Y3187D01*
X768Y3187D02*
X793Y3187D01*
X822Y3187D02*
X852Y3187D01*
X956Y3187D02*
X982Y3187D01*
X1058Y3187D02*
X1084Y3187D01*
X1144Y3187D02*
X1261Y3187D01*
X1332Y3187D02*
X1358Y3187D01*
X1434Y3187D02*
X1460Y3187D01*
X1571Y3187D02*
X1596Y3187D01*
X1759Y3187D02*
X1784Y3187D01*
X1895Y3187D02*
X1921Y3187D01*
X2136Y3187D02*
X2169Y3187D01*
X295Y3186D02*
X320Y3186D01*
X421Y3186D02*
X517Y3186D01*
X768Y3186D02*
X793Y3186D01*
X823Y3186D02*
X852Y3186D01*
X956Y3186D02*
X982Y3186D01*
X1058Y3186D02*
X1084Y3186D01*
X1144Y3186D02*
X1262Y3186D01*
X1332Y3186D02*
X1358Y3186D01*
X1434Y3186D02*
X1460Y3186D01*
X1571Y3186D02*
X1596Y3186D01*
X1759Y3186D02*
X1784Y3186D01*
X1896Y3186D02*
X1921Y3186D01*
X2137Y3186D02*
X2170Y3186D01*
X226Y3185D02*
X234Y3185D01*
X295Y3185D02*
X320Y3185D01*
X422Y3185D02*
X517Y3185D01*
X768Y3185D02*
X793Y3185D01*
X823Y3185D02*
X853Y3185D01*
X957Y3185D02*
X983Y3185D01*
X1058Y3185D02*
X1084Y3185D01*
X1144Y3185D02*
X1263Y3185D01*
X1332Y3185D02*
X1358Y3185D01*
X1433Y3185D02*
X1459Y3185D01*
X1571Y3185D02*
X1596Y3185D01*
X1759Y3185D02*
X1784Y3185D01*
X1896Y3185D02*
X1922Y3185D01*
X2138Y3185D02*
X2171Y3185D01*
X224Y3184D02*
X236Y3184D01*
X295Y3184D02*
X320Y3184D01*
X424Y3184D02*
X518Y3184D01*
X768Y3184D02*
X793Y3184D01*
X824Y3184D02*
X853Y3184D01*
X957Y3184D02*
X983Y3184D01*
X1057Y3184D02*
X1084Y3184D01*
X1144Y3184D02*
X1264Y3184D01*
X1332Y3184D02*
X1358Y3184D01*
X1433Y3184D02*
X1459Y3184D01*
X1571Y3184D02*
X1596Y3184D01*
X1759Y3184D02*
X1784Y3184D01*
X1896Y3184D02*
X1922Y3184D01*
X2139Y3184D02*
X2171Y3184D01*
X223Y3183D02*
X238Y3183D01*
X295Y3183D02*
X320Y3183D01*
X425Y3183D02*
X518Y3183D01*
X768Y3183D02*
X793Y3183D01*
X824Y3183D02*
X854Y3183D01*
X957Y3183D02*
X983Y3183D01*
X1057Y3183D02*
X1083Y3183D01*
X1144Y3183D02*
X1264Y3183D01*
X1333Y3183D02*
X1359Y3183D01*
X1433Y3183D02*
X1459Y3183D01*
X1571Y3183D02*
X1596Y3183D01*
X1759Y3183D02*
X1784Y3183D01*
X1896Y3183D02*
X1922Y3183D01*
X2139Y3183D02*
X2172Y3183D01*
X221Y3182D02*
X239Y3182D01*
X295Y3182D02*
X320Y3182D01*
X428Y3182D02*
X519Y3182D01*
X768Y3182D02*
X793Y3182D01*
X825Y3182D02*
X855Y3182D01*
X957Y3182D02*
X984Y3182D01*
X1057Y3182D02*
X1083Y3182D01*
X1144Y3182D02*
X1265Y3182D01*
X1333Y3182D02*
X1359Y3182D01*
X1432Y3182D02*
X1459Y3182D01*
X1571Y3182D02*
X1596Y3182D01*
X1759Y3182D02*
X1784Y3182D01*
X1896Y3182D02*
X1923Y3182D01*
X2140Y3182D02*
X2173Y3182D01*
X221Y3181D02*
X240Y3181D01*
X295Y3181D02*
X320Y3181D01*
X486Y3181D02*
X519Y3181D01*
X768Y3181D02*
X793Y3181D01*
X825Y3181D02*
X855Y3181D01*
X957Y3181D02*
X984Y3181D01*
X1056Y3181D02*
X1083Y3181D01*
X1144Y3181D02*
X1169Y3181D01*
X1226Y3181D02*
X1266Y3181D01*
X1333Y3181D02*
X1360Y3181D01*
X1432Y3181D02*
X1459Y3181D01*
X1571Y3181D02*
X1596Y3181D01*
X1759Y3181D02*
X1784Y3181D01*
X1896Y3181D02*
X1923Y3181D01*
X2141Y3181D02*
X2174Y3181D01*
X220Y3180D02*
X240Y3180D01*
X295Y3180D02*
X320Y3180D01*
X489Y3180D02*
X519Y3180D01*
X768Y3180D02*
X793Y3180D01*
X826Y3180D02*
X856Y3180D01*
X957Y3180D02*
X984Y3180D01*
X1056Y3180D02*
X1083Y3180D01*
X1144Y3180D02*
X1169Y3180D01*
X1230Y3180D02*
X1266Y3180D01*
X1333Y3180D02*
X1360Y3180D01*
X1431Y3180D02*
X1458Y3180D01*
X1571Y3180D02*
X1596Y3180D01*
X1759Y3180D02*
X1784Y3180D01*
X1897Y3180D02*
X1923Y3180D01*
X2142Y3180D02*
X2175Y3180D01*
X219Y3179D02*
X241Y3179D01*
X295Y3179D02*
X320Y3179D01*
X490Y3179D02*
X520Y3179D01*
X768Y3179D02*
X793Y3179D01*
X827Y3179D02*
X856Y3179D01*
X958Y3179D02*
X985Y3179D01*
X1055Y3179D02*
X1082Y3179D01*
X1144Y3179D02*
X1169Y3179D01*
X1232Y3179D02*
X1267Y3179D01*
X1333Y3179D02*
X1360Y3179D01*
X1431Y3179D02*
X1458Y3179D01*
X1571Y3179D02*
X1596Y3179D01*
X1759Y3179D02*
X1784Y3179D01*
X1897Y3179D02*
X1924Y3179D01*
X2142Y3179D02*
X2175Y3179D01*
X219Y3178D02*
X241Y3178D01*
X295Y3178D02*
X320Y3178D01*
X491Y3178D02*
X520Y3178D01*
X768Y3178D02*
X793Y3178D01*
X827Y3178D02*
X857Y3178D01*
X958Y3178D02*
X985Y3178D01*
X1055Y3178D02*
X1082Y3178D01*
X1144Y3178D02*
X1169Y3178D01*
X1234Y3178D02*
X1267Y3178D01*
X1334Y3178D02*
X1361Y3178D01*
X1431Y3178D02*
X1458Y3178D01*
X1571Y3178D02*
X1596Y3178D01*
X1759Y3178D02*
X1784Y3178D01*
X1897Y3178D02*
X1924Y3178D01*
X2143Y3178D02*
X2176Y3178D01*
X218Y3177D02*
X242Y3177D01*
X295Y3177D02*
X320Y3177D01*
X492Y3177D02*
X520Y3177D01*
X768Y3177D02*
X793Y3177D01*
X828Y3177D02*
X858Y3177D01*
X958Y3177D02*
X986Y3177D01*
X1054Y3177D02*
X1082Y3177D01*
X1144Y3177D02*
X1169Y3177D01*
X1235Y3177D02*
X1268Y3177D01*
X1334Y3177D02*
X1361Y3177D01*
X1430Y3177D02*
X1457Y3177D01*
X1571Y3177D02*
X1596Y3177D01*
X1759Y3177D02*
X1784Y3177D01*
X1898Y3177D02*
X1925Y3177D01*
X2144Y3177D02*
X2177Y3177D01*
X218Y3176D02*
X242Y3176D01*
X295Y3176D02*
X320Y3176D01*
X493Y3176D02*
X520Y3176D01*
X768Y3176D02*
X793Y3176D01*
X828Y3176D02*
X858Y3176D01*
X959Y3176D02*
X986Y3176D01*
X1054Y3176D02*
X1081Y3176D01*
X1144Y3176D02*
X1169Y3176D01*
X1237Y3176D02*
X1268Y3176D01*
X1334Y3176D02*
X1362Y3176D01*
X1430Y3176D02*
X1457Y3176D01*
X1571Y3176D02*
X1596Y3176D01*
X1759Y3176D02*
X1784Y3176D01*
X1898Y3176D02*
X1925Y3176D01*
X2145Y3176D02*
X2178Y3176D01*
X218Y3175D02*
X242Y3175D01*
X295Y3175D02*
X320Y3175D01*
X494Y3175D02*
X521Y3175D01*
X768Y3175D02*
X793Y3175D01*
X829Y3175D02*
X859Y3175D01*
X959Y3175D02*
X987Y3175D01*
X1053Y3175D02*
X1081Y3175D01*
X1144Y3175D02*
X1169Y3175D01*
X1238Y3175D02*
X1269Y3175D01*
X1335Y3175D02*
X1362Y3175D01*
X1429Y3175D02*
X1457Y3175D01*
X1571Y3175D02*
X1596Y3175D01*
X1759Y3175D02*
X1784Y3175D01*
X1898Y3175D02*
X1926Y3175D01*
X2146Y3175D02*
X2178Y3175D01*
X217Y3174D02*
X243Y3174D01*
X295Y3174D02*
X320Y3174D01*
X494Y3174D02*
X521Y3174D01*
X768Y3174D02*
X793Y3174D01*
X830Y3174D02*
X859Y3174D01*
X959Y3174D02*
X987Y3174D01*
X1053Y3174D02*
X1081Y3174D01*
X1144Y3174D02*
X1169Y3174D01*
X1239Y3174D02*
X1269Y3174D01*
X1335Y3174D02*
X1363Y3174D01*
X1429Y3174D02*
X1456Y3174D01*
X1571Y3174D02*
X1596Y3174D01*
X1759Y3174D02*
X1784Y3174D01*
X1899Y3174D02*
X1926Y3174D01*
X2146Y3174D02*
X2179Y3174D01*
X217Y3173D02*
X243Y3173D01*
X295Y3173D02*
X320Y3173D01*
X495Y3173D02*
X521Y3173D01*
X768Y3173D02*
X793Y3173D01*
X830Y3173D02*
X860Y3173D01*
X960Y3173D02*
X988Y3173D01*
X1052Y3173D02*
X1080Y3173D01*
X1144Y3173D02*
X1169Y3173D01*
X1240Y3173D02*
X1269Y3173D01*
X1335Y3173D02*
X1363Y3173D01*
X1428Y3173D02*
X1456Y3173D01*
X1571Y3173D02*
X1596Y3173D01*
X1759Y3173D02*
X1784Y3173D01*
X1899Y3173D02*
X1927Y3173D01*
X2147Y3173D02*
X2180Y3173D01*
X217Y3172D02*
X243Y3172D01*
X295Y3172D02*
X320Y3172D01*
X495Y3172D02*
X521Y3172D01*
X768Y3172D02*
X793Y3172D01*
X831Y3172D02*
X860Y3172D01*
X960Y3172D02*
X988Y3172D01*
X1052Y3172D02*
X1080Y3172D01*
X1144Y3172D02*
X1169Y3172D01*
X1241Y3172D02*
X1270Y3172D01*
X1336Y3172D02*
X1364Y3172D01*
X1428Y3172D02*
X1456Y3172D01*
X1571Y3172D02*
X1596Y3172D01*
X1759Y3172D02*
X1784Y3172D01*
X1899Y3172D02*
X1927Y3172D01*
X2148Y3172D02*
X2181Y3172D01*
X217Y3171D02*
X243Y3171D01*
X295Y3171D02*
X320Y3171D01*
X496Y3171D02*
X521Y3171D01*
X768Y3171D02*
X793Y3171D01*
X831Y3171D02*
X861Y3171D01*
X961Y3171D02*
X989Y3171D01*
X1051Y3171D02*
X1080Y3171D01*
X1144Y3171D02*
X1169Y3171D01*
X1242Y3171D02*
X1270Y3171D01*
X1336Y3171D02*
X1364Y3171D01*
X1427Y3171D02*
X1455Y3171D01*
X1571Y3171D02*
X1596Y3171D01*
X1759Y3171D02*
X1784Y3171D01*
X1900Y3171D02*
X1928Y3171D01*
X2149Y3171D02*
X2182Y3171D01*
X217Y3170D02*
X243Y3170D01*
X295Y3170D02*
X320Y3170D01*
X496Y3170D02*
X521Y3170D01*
X768Y3170D02*
X793Y3170D01*
X832Y3170D02*
X862Y3170D01*
X961Y3170D02*
X989Y3170D01*
X1051Y3170D02*
X1079Y3170D01*
X1144Y3170D02*
X1169Y3170D01*
X1242Y3170D02*
X1270Y3170D01*
X1337Y3170D02*
X1365Y3170D01*
X1427Y3170D02*
X1455Y3170D01*
X1571Y3170D02*
X1596Y3170D01*
X1759Y3170D02*
X1784Y3170D01*
X1900Y3170D02*
X1928Y3170D01*
X2149Y3170D02*
X2182Y3170D01*
X217Y3169D02*
X243Y3169D01*
X295Y3169D02*
X320Y3169D01*
X496Y3169D02*
X521Y3169D01*
X768Y3169D02*
X793Y3169D01*
X832Y3169D02*
X862Y3169D01*
X961Y3169D02*
X990Y3169D01*
X1050Y3169D02*
X1079Y3169D01*
X1144Y3169D02*
X1169Y3169D01*
X1243Y3169D02*
X1271Y3169D01*
X1337Y3169D02*
X1365Y3169D01*
X1426Y3169D02*
X1454Y3169D01*
X1571Y3169D02*
X1596Y3169D01*
X1759Y3169D02*
X1784Y3169D01*
X1901Y3169D02*
X1929Y3169D01*
X2150Y3169D02*
X2183Y3169D01*
X217Y3168D02*
X243Y3168D01*
X295Y3168D02*
X320Y3168D01*
X496Y3168D02*
X521Y3168D01*
X768Y3168D02*
X793Y3168D01*
X833Y3168D02*
X863Y3168D01*
X962Y3168D02*
X990Y3168D01*
X1050Y3168D02*
X1078Y3168D01*
X1144Y3168D02*
X1169Y3168D01*
X1244Y3168D02*
X1271Y3168D01*
X1338Y3168D02*
X1366Y3168D01*
X1426Y3168D02*
X1454Y3168D01*
X1571Y3168D02*
X1596Y3168D01*
X1759Y3168D02*
X1784Y3168D01*
X1901Y3168D02*
X1929Y3168D01*
X2151Y3168D02*
X2184Y3168D01*
X217Y3167D02*
X243Y3167D01*
X295Y3167D02*
X320Y3167D01*
X496Y3167D02*
X521Y3167D01*
X768Y3167D02*
X793Y3167D01*
X834Y3167D02*
X863Y3167D01*
X962Y3167D02*
X991Y3167D01*
X1049Y3167D02*
X1078Y3167D01*
X1144Y3167D02*
X1169Y3167D01*
X1244Y3167D02*
X1271Y3167D01*
X1338Y3167D02*
X1366Y3167D01*
X1425Y3167D02*
X1453Y3167D01*
X1571Y3167D02*
X1596Y3167D01*
X1759Y3167D02*
X1784Y3167D01*
X1901Y3167D02*
X1930Y3167D01*
X2152Y3167D02*
X2185Y3167D01*
X217Y3166D02*
X243Y3166D01*
X295Y3166D02*
X320Y3166D01*
X496Y3166D02*
X521Y3166D01*
X768Y3166D02*
X793Y3166D01*
X834Y3166D02*
X864Y3166D01*
X963Y3166D02*
X991Y3166D01*
X1049Y3166D02*
X1077Y3166D01*
X1144Y3166D02*
X1169Y3166D01*
X1245Y3166D02*
X1271Y3166D01*
X1339Y3166D02*
X1367Y3166D01*
X1425Y3166D02*
X1453Y3166D01*
X1571Y3166D02*
X1596Y3166D01*
X1759Y3166D02*
X1784Y3166D01*
X1902Y3166D02*
X1930Y3166D01*
X2153Y3166D02*
X2185Y3166D01*
X217Y3165D02*
X243Y3165D01*
X295Y3165D02*
X320Y3165D01*
X496Y3165D02*
X521Y3165D01*
X768Y3165D02*
X793Y3165D01*
X835Y3165D02*
X865Y3165D01*
X963Y3165D02*
X992Y3165D01*
X1048Y3165D02*
X1077Y3165D01*
X1144Y3165D02*
X1169Y3165D01*
X1245Y3165D02*
X1272Y3165D01*
X1339Y3165D02*
X1367Y3165D01*
X1424Y3165D02*
X1452Y3165D01*
X1571Y3165D02*
X1596Y3165D01*
X1759Y3165D02*
X1784Y3165D01*
X1902Y3165D02*
X1931Y3165D01*
X2153Y3165D02*
X2186Y3165D01*
X217Y3164D02*
X243Y3164D01*
X295Y3164D02*
X320Y3164D01*
X496Y3164D02*
X521Y3164D01*
X768Y3164D02*
X793Y3164D01*
X835Y3164D02*
X865Y3164D01*
X964Y3164D02*
X992Y3164D01*
X1048Y3164D02*
X1076Y3164D01*
X1144Y3164D02*
X1169Y3164D01*
X1246Y3164D02*
X1272Y3164D01*
X1340Y3164D02*
X1368Y3164D01*
X1424Y3164D02*
X1452Y3164D01*
X1571Y3164D02*
X1596Y3164D01*
X1759Y3164D02*
X1784Y3164D01*
X1903Y3164D02*
X1931Y3164D01*
X2154Y3164D02*
X2187Y3164D01*
X217Y3163D02*
X243Y3163D01*
X295Y3163D02*
X320Y3163D01*
X496Y3163D02*
X521Y3163D01*
X768Y3163D02*
X793Y3163D01*
X836Y3163D02*
X866Y3163D01*
X964Y3163D02*
X993Y3163D01*
X1047Y3163D02*
X1076Y3163D01*
X1144Y3163D02*
X1169Y3163D01*
X1246Y3163D02*
X1272Y3163D01*
X1340Y3163D02*
X1368Y3163D01*
X1423Y3163D02*
X1451Y3163D01*
X1571Y3163D02*
X1596Y3163D01*
X1759Y3163D02*
X1784Y3163D01*
X1903Y3163D02*
X1932Y3163D01*
X2155Y3163D02*
X2188Y3163D01*
X217Y3162D02*
X243Y3162D01*
X295Y3162D02*
X320Y3162D01*
X496Y3162D02*
X521Y3162D01*
X768Y3162D02*
X793Y3162D01*
X837Y3162D02*
X866Y3162D01*
X965Y3162D02*
X993Y3162D01*
X1047Y3162D02*
X1075Y3162D01*
X1144Y3162D02*
X1169Y3162D01*
X1246Y3162D02*
X1272Y3162D01*
X1341Y3162D02*
X1369Y3162D01*
X1423Y3162D02*
X1451Y3162D01*
X1571Y3162D02*
X1596Y3162D01*
X1759Y3162D02*
X1784Y3162D01*
X1904Y3162D02*
X1932Y3162D01*
X2156Y3162D02*
X2189Y3162D01*
X217Y3161D02*
X243Y3161D01*
X295Y3161D02*
X320Y3161D01*
X496Y3161D02*
X521Y3161D01*
X768Y3161D02*
X793Y3161D01*
X837Y3161D02*
X867Y3161D01*
X965Y3161D02*
X994Y3161D01*
X1046Y3161D02*
X1075Y3161D01*
X1144Y3161D02*
X1169Y3161D01*
X1247Y3161D02*
X1272Y3161D01*
X1341Y3161D02*
X1369Y3161D01*
X1422Y3161D02*
X1450Y3161D01*
X1571Y3161D02*
X1596Y3161D01*
X1759Y3161D02*
X1784Y3161D01*
X1904Y3161D02*
X1933Y3161D01*
X2156Y3161D02*
X2189Y3161D01*
X217Y3160D02*
X243Y3160D01*
X295Y3160D02*
X320Y3160D01*
X496Y3160D02*
X521Y3160D01*
X768Y3160D02*
X793Y3160D01*
X838Y3160D02*
X867Y3160D01*
X966Y3160D02*
X994Y3160D01*
X1046Y3160D02*
X1074Y3160D01*
X1144Y3160D02*
X1169Y3160D01*
X1247Y3160D02*
X1272Y3160D01*
X1342Y3160D02*
X1370Y3160D01*
X1422Y3160D02*
X1450Y3160D01*
X1571Y3160D02*
X1596Y3160D01*
X1759Y3160D02*
X1784Y3160D01*
X1905Y3160D02*
X1933Y3160D01*
X2157Y3160D02*
X2190Y3160D01*
X217Y3159D02*
X243Y3159D01*
X295Y3159D02*
X320Y3159D01*
X496Y3159D02*
X521Y3159D01*
X768Y3159D02*
X793Y3159D01*
X838Y3159D02*
X868Y3159D01*
X966Y3159D02*
X995Y3159D01*
X1045Y3159D02*
X1074Y3159D01*
X1144Y3159D02*
X1169Y3159D01*
X1247Y3159D02*
X1272Y3159D01*
X1342Y3159D02*
X1370Y3159D01*
X1421Y3159D02*
X1449Y3159D01*
X1571Y3159D02*
X1596Y3159D01*
X1759Y3159D02*
X1784Y3159D01*
X1905Y3159D02*
X1934Y3159D01*
X2158Y3159D02*
X2191Y3159D01*
X217Y3158D02*
X243Y3158D01*
X295Y3158D02*
X320Y3158D01*
X496Y3158D02*
X521Y3158D01*
X768Y3158D02*
X793Y3158D01*
X839Y3158D02*
X869Y3158D01*
X967Y3158D02*
X995Y3158D01*
X1045Y3158D02*
X1073Y3158D01*
X1144Y3158D02*
X1169Y3158D01*
X1247Y3158D02*
X1272Y3158D01*
X1343Y3158D02*
X1371Y3158D01*
X1421Y3158D02*
X1449Y3158D01*
X1571Y3158D02*
X1596Y3158D01*
X1759Y3158D02*
X1784Y3158D01*
X1906Y3158D02*
X1934Y3158D01*
X2159Y3158D02*
X2192Y3158D01*
X217Y3157D02*
X243Y3157D01*
X295Y3157D02*
X320Y3157D01*
X496Y3157D02*
X521Y3157D01*
X768Y3157D02*
X793Y3157D01*
X839Y3157D02*
X869Y3157D01*
X967Y3157D02*
X996Y3157D01*
X1044Y3157D02*
X1073Y3157D01*
X1144Y3157D02*
X1169Y3157D01*
X1247Y3157D02*
X1272Y3157D01*
X1343Y3157D02*
X1371Y3157D01*
X1420Y3157D02*
X1448Y3157D01*
X1571Y3157D02*
X1596Y3157D01*
X1759Y3157D02*
X1784Y3157D01*
X1906Y3157D02*
X1935Y3157D01*
X2160Y3157D02*
X2192Y3157D01*
X217Y3156D02*
X243Y3156D01*
X295Y3156D02*
X320Y3156D01*
X496Y3156D02*
X521Y3156D01*
X768Y3156D02*
X793Y3156D01*
X840Y3156D02*
X870Y3156D01*
X968Y3156D02*
X996Y3156D01*
X1044Y3156D02*
X1072Y3156D01*
X1144Y3156D02*
X1169Y3156D01*
X1247Y3156D02*
X1272Y3156D01*
X1343Y3156D02*
X1372Y3156D01*
X1420Y3156D02*
X1448Y3156D01*
X1571Y3156D02*
X1596Y3156D01*
X1759Y3156D02*
X1784Y3156D01*
X1907Y3156D02*
X1935Y3156D01*
X2160Y3156D02*
X2193Y3156D01*
X217Y3155D02*
X243Y3155D01*
X295Y3155D02*
X320Y3155D01*
X496Y3155D02*
X521Y3155D01*
X768Y3155D02*
X793Y3155D01*
X841Y3155D02*
X870Y3155D01*
X968Y3155D02*
X997Y3155D01*
X1043Y3155D02*
X1072Y3155D01*
X1144Y3155D02*
X1169Y3155D01*
X1247Y3155D02*
X1272Y3155D01*
X1344Y3155D02*
X1373Y3155D01*
X1419Y3155D02*
X1447Y3155D01*
X1571Y3155D02*
X1596Y3155D01*
X1759Y3155D02*
X1784Y3155D01*
X1907Y3155D02*
X1936Y3155D01*
X2161Y3155D02*
X2194Y3155D01*
X217Y3154D02*
X243Y3154D01*
X295Y3154D02*
X320Y3154D01*
X496Y3154D02*
X521Y3154D01*
X768Y3154D02*
X793Y3154D01*
X841Y3154D02*
X871Y3154D01*
X969Y3154D02*
X997Y3154D01*
X1043Y3154D02*
X1071Y3154D01*
X1144Y3154D02*
X1169Y3154D01*
X1247Y3154D02*
X1272Y3154D01*
X1344Y3154D02*
X1373Y3154D01*
X1419Y3154D02*
X1447Y3154D01*
X1571Y3154D02*
X1596Y3154D01*
X1759Y3154D02*
X1784Y3154D01*
X1908Y3154D02*
X1937Y3154D01*
X2162Y3154D02*
X2195Y3154D01*
X217Y3153D02*
X243Y3153D01*
X295Y3153D02*
X320Y3153D01*
X496Y3153D02*
X521Y3153D01*
X768Y3153D02*
X793Y3153D01*
X842Y3153D02*
X872Y3153D01*
X969Y3153D02*
X998Y3153D01*
X1042Y3153D02*
X1071Y3153D01*
X1144Y3153D02*
X1169Y3153D01*
X1247Y3153D02*
X1272Y3153D01*
X1345Y3153D02*
X1374Y3153D01*
X1418Y3153D02*
X1446Y3153D01*
X1571Y3153D02*
X1596Y3153D01*
X1759Y3153D02*
X1784Y3153D01*
X1908Y3153D02*
X1937Y3153D01*
X2163Y3153D02*
X2196Y3153D01*
X217Y3152D02*
X243Y3152D01*
X295Y3152D02*
X320Y3152D01*
X496Y3152D02*
X521Y3152D01*
X768Y3152D02*
X793Y3152D01*
X842Y3152D02*
X872Y3152D01*
X970Y3152D02*
X998Y3152D01*
X1042Y3152D02*
X1070Y3152D01*
X1144Y3152D02*
X1169Y3152D01*
X1247Y3152D02*
X1272Y3152D01*
X1345Y3152D02*
X1374Y3152D01*
X1418Y3152D02*
X1446Y3152D01*
X1571Y3152D02*
X1596Y3152D01*
X1759Y3152D02*
X1784Y3152D01*
X1909Y3152D02*
X1938Y3152D01*
X2163Y3152D02*
X2196Y3152D01*
X217Y3151D02*
X243Y3151D01*
X295Y3151D02*
X320Y3151D01*
X496Y3151D02*
X521Y3151D01*
X768Y3151D02*
X793Y3151D01*
X843Y3151D02*
X873Y3151D01*
X970Y3151D02*
X999Y3151D01*
X1041Y3151D02*
X1070Y3151D01*
X1144Y3151D02*
X1169Y3151D01*
X1247Y3151D02*
X1272Y3151D01*
X1346Y3151D02*
X1375Y3151D01*
X1417Y3151D02*
X1445Y3151D01*
X1571Y3151D02*
X1596Y3151D01*
X1759Y3151D02*
X1784Y3151D01*
X1909Y3151D02*
X1938Y3151D01*
X2164Y3151D02*
X2197Y3151D01*
X217Y3150D02*
X243Y3150D01*
X295Y3150D02*
X320Y3150D01*
X496Y3150D02*
X521Y3150D01*
X768Y3150D02*
X793Y3150D01*
X844Y3150D02*
X873Y3150D01*
X971Y3150D02*
X999Y3150D01*
X1041Y3150D02*
X1069Y3150D01*
X1144Y3150D02*
X1169Y3150D01*
X1247Y3150D02*
X1272Y3150D01*
X1346Y3150D02*
X1375Y3150D01*
X1417Y3150D02*
X1445Y3150D01*
X1571Y3150D02*
X1596Y3150D01*
X1759Y3150D02*
X1784Y3150D01*
X1910Y3150D02*
X1939Y3150D01*
X2165Y3150D02*
X2198Y3150D01*
X217Y3149D02*
X243Y3149D01*
X295Y3149D02*
X320Y3149D01*
X496Y3149D02*
X521Y3149D01*
X768Y3149D02*
X793Y3149D01*
X844Y3149D02*
X874Y3149D01*
X971Y3149D02*
X1000Y3149D01*
X1040Y3149D02*
X1069Y3149D01*
X1144Y3149D02*
X1169Y3149D01*
X1247Y3149D02*
X1272Y3149D01*
X1347Y3149D02*
X1376Y3149D01*
X1416Y3149D02*
X1444Y3149D01*
X1571Y3149D02*
X1596Y3149D01*
X1759Y3149D02*
X1784Y3149D01*
X1910Y3149D02*
X1939Y3149D01*
X2166Y3149D02*
X2199Y3149D01*
X217Y3148D02*
X243Y3148D01*
X295Y3148D02*
X320Y3148D01*
X496Y3148D02*
X521Y3148D01*
X768Y3148D02*
X793Y3148D01*
X845Y3148D02*
X874Y3148D01*
X972Y3148D02*
X1000Y3148D01*
X1040Y3148D02*
X1068Y3148D01*
X1144Y3148D02*
X1169Y3148D01*
X1247Y3148D02*
X1272Y3148D01*
X1347Y3148D02*
X1376Y3148D01*
X1416Y3148D02*
X1444Y3148D01*
X1571Y3148D02*
X1596Y3148D01*
X1759Y3148D02*
X1784Y3148D01*
X1911Y3148D02*
X1940Y3148D01*
X2167Y3148D02*
X2199Y3148D01*
X217Y3147D02*
X243Y3147D01*
X295Y3147D02*
X320Y3147D01*
X496Y3147D02*
X521Y3147D01*
X768Y3147D02*
X793Y3147D01*
X845Y3147D02*
X875Y3147D01*
X972Y3147D02*
X1001Y3147D01*
X1040Y3147D02*
X1068Y3147D01*
X1144Y3147D02*
X1169Y3147D01*
X1247Y3147D02*
X1272Y3147D01*
X1348Y3147D02*
X1377Y3147D01*
X1415Y3147D02*
X1443Y3147D01*
X1571Y3147D02*
X1596Y3147D01*
X1759Y3147D02*
X1784Y3147D01*
X1911Y3147D02*
X1940Y3147D01*
X2167Y3147D02*
X2200Y3147D01*
X217Y3146D02*
X243Y3146D01*
X295Y3146D02*
X320Y3146D01*
X496Y3146D02*
X521Y3146D01*
X768Y3146D02*
X793Y3146D01*
X846Y3146D02*
X876Y3146D01*
X973Y3146D02*
X1001Y3146D01*
X1039Y3146D02*
X1067Y3146D01*
X1144Y3146D02*
X1169Y3146D01*
X1247Y3146D02*
X1272Y3146D01*
X1348Y3146D02*
X1377Y3146D01*
X1415Y3146D02*
X1443Y3146D01*
X1571Y3146D02*
X1596Y3146D01*
X1759Y3146D02*
X1784Y3146D01*
X1912Y3146D02*
X1941Y3146D01*
X2168Y3146D02*
X2201Y3146D01*
X217Y3145D02*
X243Y3145D01*
X295Y3145D02*
X320Y3145D01*
X496Y3145D02*
X521Y3145D01*
X768Y3145D02*
X793Y3145D01*
X846Y3145D02*
X876Y3145D01*
X973Y3145D02*
X1002Y3145D01*
X1039Y3145D02*
X1067Y3145D01*
X1144Y3145D02*
X1169Y3145D01*
X1247Y3145D02*
X1272Y3145D01*
X1349Y3145D02*
X1378Y3145D01*
X1414Y3145D02*
X1442Y3145D01*
X1571Y3145D02*
X1596Y3145D01*
X1759Y3145D02*
X1784Y3145D01*
X1912Y3145D02*
X1941Y3145D01*
X2169Y3145D02*
X2202Y3145D01*
X217Y3144D02*
X243Y3144D01*
X295Y3144D02*
X320Y3144D01*
X496Y3144D02*
X521Y3144D01*
X768Y3144D02*
X793Y3144D01*
X847Y3144D02*
X877Y3144D01*
X974Y3144D02*
X1002Y3144D01*
X1038Y3144D02*
X1066Y3144D01*
X1144Y3144D02*
X1169Y3144D01*
X1247Y3144D02*
X1272Y3144D01*
X1349Y3144D02*
X1378Y3144D01*
X1414Y3144D02*
X1442Y3144D01*
X1571Y3144D02*
X1596Y3144D01*
X1759Y3144D02*
X1784Y3144D01*
X1913Y3144D02*
X1942Y3144D01*
X2170Y3144D02*
X2203Y3144D01*
X217Y3143D02*
X243Y3143D01*
X295Y3143D02*
X320Y3143D01*
X496Y3143D02*
X521Y3143D01*
X768Y3143D02*
X793Y3143D01*
X848Y3143D02*
X877Y3143D01*
X974Y3143D02*
X1003Y3143D01*
X1038Y3143D02*
X1066Y3143D01*
X1144Y3143D02*
X1169Y3143D01*
X1247Y3143D02*
X1272Y3143D01*
X1350Y3143D02*
X1379Y3143D01*
X1413Y3143D02*
X1441Y3143D01*
X1571Y3143D02*
X1596Y3143D01*
X1759Y3143D02*
X1784Y3143D01*
X1913Y3143D02*
X1942Y3143D01*
X2170Y3143D02*
X2203Y3143D01*
X217Y3142D02*
X243Y3142D01*
X295Y3142D02*
X320Y3142D01*
X496Y3142D02*
X521Y3142D01*
X768Y3142D02*
X793Y3142D01*
X848Y3142D02*
X878Y3142D01*
X975Y3142D02*
X1003Y3142D01*
X1037Y3142D02*
X1065Y3142D01*
X1144Y3142D02*
X1169Y3142D01*
X1247Y3142D02*
X1272Y3142D01*
X1350Y3142D02*
X1379Y3142D01*
X1413Y3142D02*
X1441Y3142D01*
X1571Y3142D02*
X1596Y3142D01*
X1759Y3142D02*
X1784Y3142D01*
X1914Y3142D02*
X1943Y3142D01*
X2171Y3142D02*
X2204Y3142D01*
X217Y3141D02*
X243Y3141D01*
X295Y3141D02*
X320Y3141D01*
X496Y3141D02*
X521Y3141D01*
X768Y3141D02*
X793Y3141D01*
X849Y3141D02*
X879Y3141D01*
X975Y3141D02*
X1004Y3141D01*
X1037Y3141D02*
X1065Y3141D01*
X1144Y3141D02*
X1169Y3141D01*
X1247Y3141D02*
X1272Y3141D01*
X1351Y3141D02*
X1380Y3141D01*
X1412Y3141D02*
X1440Y3141D01*
X1571Y3141D02*
X1596Y3141D01*
X1759Y3141D02*
X1784Y3141D01*
X1914Y3141D02*
X1943Y3141D01*
X2093Y3141D02*
X2098Y3141D01*
X2172Y3141D02*
X2205Y3141D01*
X217Y3140D02*
X243Y3140D01*
X295Y3140D02*
X320Y3140D01*
X496Y3140D02*
X521Y3140D01*
X768Y3140D02*
X793Y3140D01*
X849Y3140D02*
X879Y3140D01*
X976Y3140D02*
X1004Y3140D01*
X1036Y3140D02*
X1064Y3140D01*
X1144Y3140D02*
X1169Y3140D01*
X1247Y3140D02*
X1272Y3140D01*
X1351Y3140D02*
X1380Y3140D01*
X1412Y3140D02*
X1440Y3140D01*
X1571Y3140D02*
X1596Y3140D01*
X1759Y3140D02*
X1784Y3140D01*
X1915Y3140D02*
X1944Y3140D01*
X2090Y3140D02*
X2101Y3140D01*
X2173Y3140D02*
X2206Y3140D01*
X217Y3139D02*
X243Y3139D01*
X295Y3139D02*
X320Y3139D01*
X496Y3139D02*
X521Y3139D01*
X768Y3139D02*
X793Y3139D01*
X850Y3139D02*
X880Y3139D01*
X976Y3139D02*
X1005Y3139D01*
X1036Y3139D02*
X1064Y3139D01*
X1144Y3139D02*
X1169Y3139D01*
X1246Y3139D02*
X1272Y3139D01*
X1352Y3139D02*
X1381Y3139D01*
X1411Y3139D02*
X1439Y3139D01*
X1571Y3139D02*
X1596Y3139D01*
X1759Y3139D02*
X1784Y3139D01*
X1915Y3139D02*
X1944Y3139D01*
X2088Y3139D02*
X2102Y3139D01*
X2173Y3139D02*
X2206Y3139D01*
X217Y3138D02*
X243Y3138D01*
X295Y3138D02*
X320Y3138D01*
X496Y3138D02*
X521Y3138D01*
X768Y3138D02*
X793Y3138D01*
X851Y3138D02*
X880Y3138D01*
X977Y3138D02*
X1005Y3138D01*
X1035Y3138D02*
X1063Y3138D01*
X1144Y3138D02*
X1169Y3138D01*
X1246Y3138D02*
X1272Y3138D01*
X1352Y3138D02*
X1381Y3138D01*
X1411Y3138D02*
X1439Y3138D01*
X1571Y3138D02*
X1596Y3138D01*
X1759Y3138D02*
X1784Y3138D01*
X1916Y3138D02*
X1945Y3138D01*
X2087Y3138D02*
X2103Y3138D01*
X2174Y3138D02*
X2207Y3138D01*
X217Y3137D02*
X243Y3137D01*
X295Y3137D02*
X320Y3137D01*
X496Y3137D02*
X521Y3137D01*
X768Y3137D02*
X793Y3137D01*
X851Y3137D02*
X881Y3137D01*
X977Y3137D02*
X1006Y3137D01*
X1035Y3137D02*
X1063Y3137D01*
X1144Y3137D02*
X1169Y3137D01*
X1246Y3137D02*
X1272Y3137D01*
X1353Y3137D02*
X1382Y3137D01*
X1410Y3137D02*
X1438Y3137D01*
X1571Y3137D02*
X1596Y3137D01*
X1759Y3137D02*
X1784Y3137D01*
X1916Y3137D02*
X1945Y3137D01*
X2086Y3137D02*
X2104Y3137D01*
X2175Y3137D02*
X2208Y3137D01*
X217Y3136D02*
X243Y3136D01*
X295Y3136D02*
X320Y3136D01*
X496Y3136D02*
X521Y3136D01*
X768Y3136D02*
X793Y3136D01*
X852Y3136D02*
X881Y3136D01*
X978Y3136D02*
X1006Y3136D01*
X1034Y3136D02*
X1062Y3136D01*
X1144Y3136D02*
X1169Y3136D01*
X1245Y3136D02*
X1272Y3136D01*
X1353Y3136D02*
X1382Y3136D01*
X1410Y3136D02*
X1438Y3136D01*
X1571Y3136D02*
X1596Y3136D01*
X1759Y3136D02*
X1784Y3136D01*
X1917Y3136D02*
X1946Y3136D01*
X2085Y3136D02*
X2105Y3136D01*
X2176Y3136D02*
X2208Y3136D01*
X217Y3135D02*
X243Y3135D01*
X295Y3135D02*
X320Y3135D01*
X496Y3135D02*
X521Y3135D01*
X768Y3135D02*
X793Y3135D01*
X852Y3135D02*
X882Y3135D01*
X978Y3135D02*
X1007Y3135D01*
X1034Y3135D02*
X1062Y3135D01*
X1144Y3135D02*
X1169Y3135D01*
X1245Y3135D02*
X1271Y3135D01*
X1354Y3135D02*
X1383Y3135D01*
X1409Y3135D02*
X1437Y3135D01*
X1571Y3135D02*
X1596Y3135D01*
X1759Y3135D02*
X1784Y3135D01*
X1917Y3135D02*
X1946Y3135D01*
X2085Y3135D02*
X2106Y3135D01*
X2177Y3135D02*
X2209Y3135D01*
X217Y3134D02*
X243Y3134D01*
X295Y3134D02*
X320Y3134D01*
X496Y3134D02*
X521Y3134D01*
X768Y3134D02*
X793Y3134D01*
X853Y3134D02*
X883Y3134D01*
X979Y3134D02*
X1007Y3134D01*
X1033Y3134D02*
X1061Y3134D01*
X1144Y3134D02*
X1169Y3134D01*
X1244Y3134D02*
X1271Y3134D01*
X1354Y3134D02*
X1383Y3134D01*
X1409Y3134D02*
X1437Y3134D01*
X1571Y3134D02*
X1596Y3134D01*
X1759Y3134D02*
X1784Y3134D01*
X1918Y3134D02*
X1947Y3134D01*
X2084Y3134D02*
X2107Y3134D01*
X2177Y3134D02*
X2209Y3134D01*
X217Y3133D02*
X243Y3133D01*
X295Y3133D02*
X320Y3133D01*
X496Y3133D02*
X521Y3133D01*
X768Y3133D02*
X793Y3133D01*
X853Y3133D02*
X883Y3133D01*
X979Y3133D02*
X1008Y3133D01*
X1033Y3133D02*
X1061Y3133D01*
X1144Y3133D02*
X1169Y3133D01*
X1244Y3133D02*
X1271Y3133D01*
X1355Y3133D02*
X1384Y3133D01*
X1408Y3133D02*
X1436Y3133D01*
X1571Y3133D02*
X1596Y3133D01*
X1759Y3133D02*
X1784Y3133D01*
X1918Y3133D02*
X1947Y3133D01*
X2084Y3133D02*
X2107Y3133D01*
X2178Y3133D02*
X2210Y3133D01*
X217Y3132D02*
X243Y3132D01*
X295Y3132D02*
X320Y3132D01*
X496Y3132D02*
X521Y3132D01*
X768Y3132D02*
X793Y3132D01*
X854Y3132D02*
X884Y3132D01*
X980Y3132D02*
X1008Y3132D01*
X1032Y3132D02*
X1060Y3132D01*
X1144Y3132D02*
X1169Y3132D01*
X1243Y3132D02*
X1271Y3132D01*
X1355Y3132D02*
X1384Y3132D01*
X1408Y3132D02*
X1436Y3132D01*
X1571Y3132D02*
X1596Y3132D01*
X1759Y3132D02*
X1784Y3132D01*
X1919Y3132D02*
X1948Y3132D01*
X2083Y3132D02*
X2107Y3132D01*
X2179Y3132D02*
X2210Y3132D01*
X217Y3131D02*
X243Y3131D01*
X295Y3131D02*
X320Y3131D01*
X496Y3131D02*
X521Y3131D01*
X768Y3131D02*
X793Y3131D01*
X855Y3131D02*
X884Y3131D01*
X980Y3131D02*
X1009Y3131D01*
X1032Y3131D02*
X1060Y3131D01*
X1144Y3131D02*
X1169Y3131D01*
X1242Y3131D02*
X1270Y3131D01*
X1356Y3131D02*
X1385Y3131D01*
X1407Y3131D02*
X1435Y3131D01*
X1571Y3131D02*
X1596Y3131D01*
X1759Y3131D02*
X1784Y3131D01*
X1919Y3131D02*
X1948Y3131D01*
X2083Y3131D02*
X2108Y3131D01*
X2180Y3131D02*
X2210Y3131D01*
X217Y3130D02*
X243Y3130D01*
X295Y3130D02*
X320Y3130D01*
X496Y3130D02*
X521Y3130D01*
X768Y3130D02*
X793Y3130D01*
X855Y3130D02*
X885Y3130D01*
X981Y3130D02*
X1009Y3130D01*
X1031Y3130D02*
X1059Y3130D01*
X1144Y3130D02*
X1169Y3130D01*
X1242Y3130D02*
X1270Y3130D01*
X1356Y3130D02*
X1385Y3130D01*
X1407Y3130D02*
X1435Y3130D01*
X1571Y3130D02*
X1596Y3130D01*
X1759Y3130D02*
X1784Y3130D01*
X1920Y3130D02*
X1949Y3130D01*
X2083Y3130D02*
X2108Y3130D01*
X2180Y3130D02*
X2211Y3130D01*
X217Y3129D02*
X243Y3129D01*
X295Y3129D02*
X320Y3129D01*
X496Y3129D02*
X521Y3129D01*
X768Y3129D02*
X793Y3129D01*
X856Y3129D02*
X886Y3129D01*
X981Y3129D02*
X1010Y3129D01*
X1031Y3129D02*
X1059Y3129D01*
X1144Y3129D02*
X1169Y3129D01*
X1241Y3129D02*
X1270Y3129D01*
X1357Y3129D02*
X1386Y3129D01*
X1406Y3129D02*
X1434Y3129D01*
X1571Y3129D02*
X1596Y3129D01*
X1759Y3129D02*
X1784Y3129D01*
X1920Y3129D02*
X1949Y3129D01*
X2083Y3129D02*
X2108Y3129D01*
X2181Y3129D02*
X2211Y3129D01*
X218Y3128D02*
X243Y3128D01*
X294Y3128D02*
X320Y3128D01*
X496Y3128D02*
X521Y3128D01*
X768Y3128D02*
X793Y3128D01*
X856Y3128D02*
X886Y3128D01*
X982Y3128D02*
X1011Y3128D01*
X1030Y3128D02*
X1058Y3128D01*
X1144Y3128D02*
X1169Y3128D01*
X1240Y3128D02*
X1269Y3128D01*
X1357Y3128D02*
X1386Y3128D01*
X1406Y3128D02*
X1434Y3128D01*
X1571Y3128D02*
X1596Y3128D01*
X1759Y3128D02*
X1784Y3128D01*
X1921Y3128D02*
X1950Y3128D01*
X2083Y3128D02*
X2108Y3128D01*
X2182Y3128D02*
X2211Y3128D01*
X218Y3127D02*
X244Y3127D01*
X294Y3127D02*
X320Y3127D01*
X496Y3127D02*
X521Y3127D01*
X768Y3127D02*
X793Y3127D01*
X857Y3127D02*
X887Y3127D01*
X982Y3127D02*
X1011Y3127D01*
X1030Y3127D02*
X1058Y3127D01*
X1144Y3127D02*
X1169Y3127D01*
X1239Y3127D02*
X1269Y3127D01*
X1358Y3127D02*
X1387Y3127D01*
X1405Y3127D02*
X1434Y3127D01*
X1571Y3127D02*
X1596Y3127D01*
X1759Y3127D02*
X1784Y3127D01*
X1921Y3127D02*
X1950Y3127D01*
X2083Y3127D02*
X2108Y3127D01*
X2183Y3127D02*
X2211Y3127D01*
X218Y3126D02*
X244Y3126D01*
X293Y3126D02*
X320Y3126D01*
X496Y3126D02*
X521Y3126D01*
X768Y3126D02*
X793Y3126D01*
X858Y3126D02*
X887Y3126D01*
X983Y3126D02*
X1012Y3126D01*
X1029Y3126D02*
X1057Y3126D01*
X1144Y3126D02*
X1169Y3126D01*
X1238Y3126D02*
X1269Y3126D01*
X1358Y3126D02*
X1387Y3126D01*
X1405Y3126D02*
X1433Y3126D01*
X1571Y3126D02*
X1596Y3126D01*
X1759Y3126D02*
X1784Y3126D01*
X1922Y3126D02*
X1951Y3126D01*
X2083Y3126D02*
X2108Y3126D01*
X2184Y3126D02*
X2211Y3126D01*
X218Y3125D02*
X245Y3125D01*
X293Y3125D02*
X320Y3125D01*
X496Y3125D02*
X521Y3125D01*
X768Y3125D02*
X793Y3125D01*
X858Y3125D02*
X888Y3125D01*
X983Y3125D02*
X1012Y3125D01*
X1029Y3125D02*
X1057Y3125D01*
X1144Y3125D02*
X1169Y3125D01*
X1237Y3125D02*
X1268Y3125D01*
X1359Y3125D02*
X1388Y3125D01*
X1404Y3125D02*
X1433Y3125D01*
X1571Y3125D02*
X1596Y3125D01*
X1759Y3125D02*
X1784Y3125D01*
X1922Y3125D02*
X1951Y3125D01*
X2083Y3125D02*
X2109Y3125D01*
X2184Y3125D02*
X2211Y3125D01*
X218Y3124D02*
X246Y3124D01*
X292Y3124D02*
X320Y3124D01*
X496Y3124D02*
X521Y3124D01*
X768Y3124D02*
X793Y3124D01*
X859Y3124D02*
X888Y3124D01*
X984Y3124D02*
X1013Y3124D01*
X1028Y3124D02*
X1056Y3124D01*
X1144Y3124D02*
X1169Y3124D01*
X1236Y3124D02*
X1268Y3124D01*
X1359Y3124D02*
X1388Y3124D01*
X1404Y3124D02*
X1432Y3124D01*
X1571Y3124D02*
X1596Y3124D01*
X1759Y3124D02*
X1784Y3124D01*
X1923Y3124D02*
X1952Y3124D01*
X2083Y3124D02*
X2109Y3124D01*
X2185Y3124D02*
X2211Y3124D01*
X218Y3123D02*
X247Y3123D01*
X291Y3123D02*
X319Y3123D01*
X496Y3123D02*
X521Y3123D01*
X768Y3123D02*
X793Y3123D01*
X859Y3123D02*
X889Y3123D01*
X984Y3123D02*
X1013Y3123D01*
X1027Y3123D02*
X1056Y3123D01*
X1144Y3123D02*
X1169Y3123D01*
X1234Y3123D02*
X1267Y3123D01*
X1360Y3123D02*
X1389Y3123D01*
X1403Y3123D02*
X1432Y3123D01*
X1571Y3123D02*
X1596Y3123D01*
X1759Y3123D02*
X1784Y3123D01*
X1923Y3123D02*
X1953Y3123D01*
X2083Y3123D02*
X2110Y3123D01*
X2186Y3123D02*
X2212Y3123D01*
X219Y3122D02*
X248Y3122D01*
X290Y3122D02*
X319Y3122D01*
X496Y3122D02*
X521Y3122D01*
X768Y3122D02*
X793Y3122D01*
X860Y3122D02*
X890Y3122D01*
X985Y3122D02*
X1014Y3122D01*
X1027Y3122D02*
X1055Y3122D01*
X1144Y3122D02*
X1169Y3122D01*
X1232Y3122D02*
X1267Y3122D01*
X1360Y3122D02*
X1389Y3122D01*
X1402Y3122D02*
X1431Y3122D01*
X1571Y3122D02*
X1596Y3122D01*
X1759Y3122D02*
X1784Y3122D01*
X1924Y3122D02*
X1954Y3122D01*
X2083Y3122D02*
X2110Y3122D01*
X2186Y3122D02*
X2211Y3122D01*
X219Y3121D02*
X249Y3121D01*
X288Y3121D02*
X319Y3121D01*
X496Y3121D02*
X521Y3121D01*
X768Y3121D02*
X793Y3121D01*
X860Y3121D02*
X890Y3121D01*
X985Y3121D02*
X1015Y3121D01*
X1026Y3121D02*
X1055Y3121D01*
X1144Y3121D02*
X1169Y3121D01*
X1230Y3121D02*
X1266Y3121D01*
X1361Y3121D02*
X1390Y3121D01*
X1401Y3121D02*
X1431Y3121D01*
X1571Y3121D02*
X1596Y3121D01*
X1759Y3121D02*
X1784Y3121D01*
X1924Y3121D02*
X1955Y3121D01*
X2083Y3121D02*
X2112Y3121D01*
X2186Y3121D02*
X2211Y3121D01*
X219Y3120D02*
X252Y3120D01*
X286Y3120D02*
X318Y3120D01*
X496Y3120D02*
X521Y3120D01*
X768Y3120D02*
X793Y3120D01*
X861Y3120D02*
X891Y3120D01*
X986Y3120D02*
X1016Y3120D01*
X1024Y3120D02*
X1054Y3120D01*
X1144Y3120D02*
X1169Y3120D01*
X1227Y3120D02*
X1266Y3120D01*
X1361Y3120D02*
X1392Y3120D01*
X1400Y3120D02*
X1430Y3120D01*
X1571Y3120D02*
X1596Y3120D01*
X1759Y3120D02*
X1784Y3120D01*
X1925Y3120D02*
X1957Y3120D01*
X2084Y3120D02*
X2113Y3120D01*
X2185Y3120D02*
X2211Y3120D01*
X220Y3119D02*
X318Y3119D01*
X403Y3119D02*
X521Y3119D01*
X768Y3119D02*
X793Y3119D01*
X862Y3119D02*
X891Y3119D01*
X986Y3119D02*
X1054Y3119D01*
X1144Y3119D02*
X1265Y3119D01*
X1362Y3119D02*
X1430Y3119D01*
X1571Y3119D02*
X1596Y3119D01*
X1718Y3119D02*
X1825Y3119D01*
X1926Y3119D02*
X2013Y3119D01*
X2084Y3119D02*
X2211Y3119D01*
X220Y3118D02*
X318Y3118D01*
X400Y3118D02*
X521Y3118D01*
X768Y3118D02*
X793Y3118D01*
X862Y3118D02*
X892Y3118D01*
X987Y3118D02*
X1053Y3118D01*
X1144Y3118D02*
X1264Y3118D01*
X1362Y3118D02*
X1429Y3118D01*
X1571Y3118D02*
X1596Y3118D01*
X1715Y3118D02*
X1828Y3118D01*
X1926Y3118D02*
X2016Y3118D01*
X2084Y3118D02*
X2211Y3118D01*
X220Y3117D02*
X317Y3117D01*
X398Y3117D02*
X521Y3117D01*
X768Y3117D02*
X793Y3117D01*
X863Y3117D02*
X893Y3117D01*
X987Y3117D02*
X1053Y3117D01*
X1144Y3117D02*
X1264Y3117D01*
X1363Y3117D02*
X1429Y3117D01*
X1571Y3117D02*
X1596Y3117D01*
X1713Y3117D02*
X1830Y3117D01*
X1927Y3117D02*
X2018Y3117D01*
X2084Y3117D02*
X2211Y3117D01*
X221Y3116D02*
X317Y3116D01*
X397Y3116D02*
X521Y3116D01*
X768Y3116D02*
X793Y3116D01*
X863Y3116D02*
X893Y3116D01*
X988Y3116D02*
X1052Y3116D01*
X1144Y3116D02*
X1263Y3116D01*
X1363Y3116D02*
X1428Y3116D01*
X1571Y3116D02*
X1596Y3116D01*
X1712Y3116D02*
X1831Y3116D01*
X1927Y3116D02*
X2019Y3116D01*
X2085Y3116D02*
X2211Y3116D01*
X221Y3115D02*
X316Y3115D01*
X396Y3115D02*
X521Y3115D01*
X768Y3115D02*
X793Y3115D01*
X864Y3115D02*
X894Y3115D01*
X988Y3115D02*
X1052Y3115D01*
X1144Y3115D02*
X1262Y3115D01*
X1364Y3115D02*
X1428Y3115D01*
X1571Y3115D02*
X1596Y3115D01*
X1711Y3115D02*
X1832Y3115D01*
X1928Y3115D02*
X2020Y3115D01*
X2085Y3115D02*
X2210Y3115D01*
X222Y3114D02*
X316Y3114D01*
X395Y3114D02*
X521Y3114D01*
X768Y3114D02*
X793Y3114D01*
X865Y3114D02*
X894Y3114D01*
X989Y3114D02*
X1051Y3114D01*
X1144Y3114D02*
X1262Y3114D01*
X1364Y3114D02*
X1427Y3114D01*
X1571Y3114D02*
X1596Y3114D01*
X1710Y3114D02*
X1833Y3114D01*
X1928Y3114D02*
X2021Y3114D01*
X2086Y3114D02*
X2210Y3114D01*
X222Y3113D02*
X315Y3113D01*
X394Y3113D02*
X520Y3113D01*
X768Y3113D02*
X793Y3113D01*
X865Y3113D02*
X895Y3113D01*
X989Y3113D02*
X1051Y3113D01*
X1144Y3113D02*
X1261Y3113D01*
X1365Y3113D02*
X1427Y3113D01*
X1571Y3113D02*
X1596Y3113D01*
X1709Y3113D02*
X1834Y3113D01*
X1929Y3113D02*
X2022Y3113D01*
X2086Y3113D02*
X2210Y3113D01*
X223Y3112D02*
X315Y3112D01*
X394Y3112D02*
X520Y3112D01*
X768Y3112D02*
X793Y3112D01*
X866Y3112D02*
X895Y3112D01*
X990Y3112D02*
X1050Y3112D01*
X1144Y3112D02*
X1260Y3112D01*
X1365Y3112D02*
X1426Y3112D01*
X1571Y3112D02*
X1596Y3112D01*
X1708Y3112D02*
X1834Y3112D01*
X1929Y3112D02*
X2022Y3112D01*
X2087Y3112D02*
X2209Y3112D01*
X224Y3111D02*
X314Y3111D01*
X393Y3111D02*
X520Y3111D01*
X768Y3111D02*
X793Y3111D01*
X866Y3111D02*
X896Y3111D01*
X990Y3111D02*
X1050Y3111D01*
X1144Y3111D02*
X1259Y3111D01*
X1366Y3111D02*
X1425Y3111D01*
X1571Y3111D02*
X1596Y3111D01*
X1708Y3111D02*
X1835Y3111D01*
X1930Y3111D02*
X2023Y3111D01*
X2087Y3111D02*
X2209Y3111D01*
X224Y3110D02*
X313Y3110D01*
X393Y3110D02*
X520Y3110D01*
X768Y3110D02*
X793Y3110D01*
X867Y3110D02*
X896Y3110D01*
X991Y3110D02*
X1049Y3110D01*
X1144Y3110D02*
X1258Y3110D01*
X1367Y3110D02*
X1425Y3110D01*
X1571Y3110D02*
X1596Y3110D01*
X1708Y3110D02*
X1835Y3110D01*
X1931Y3110D02*
X2023Y3110D01*
X2088Y3110D02*
X2208Y3110D01*
X225Y3109D02*
X313Y3109D01*
X393Y3109D02*
X519Y3109D01*
X768Y3109D02*
X793Y3109D01*
X867Y3109D02*
X896Y3109D01*
X992Y3109D02*
X1049Y3109D01*
X1144Y3109D02*
X1257Y3109D01*
X1367Y3109D02*
X1424Y3109D01*
X1571Y3109D02*
X1596Y3109D01*
X1707Y3109D02*
X1836Y3109D01*
X1931Y3109D02*
X2023Y3109D01*
X2088Y3109D02*
X2208Y3109D01*
X226Y3108D02*
X312Y3108D01*
X393Y3108D02*
X519Y3108D01*
X768Y3108D02*
X793Y3108D01*
X868Y3108D02*
X897Y3108D01*
X992Y3108D02*
X1048Y3108D01*
X1144Y3108D02*
X1256Y3108D01*
X1368Y3108D02*
X1424Y3108D01*
X1571Y3108D02*
X1596Y3108D01*
X1707Y3108D02*
X1836Y3108D01*
X1932Y3108D02*
X2024Y3108D01*
X2089Y3108D02*
X2207Y3108D01*
X227Y3107D02*
X311Y3107D01*
X392Y3107D02*
X518Y3107D01*
X768Y3107D02*
X793Y3107D01*
X869Y3107D02*
X897Y3107D01*
X993Y3107D02*
X1047Y3107D01*
X1144Y3107D02*
X1255Y3107D01*
X1369Y3107D02*
X1423Y3107D01*
X1571Y3107D02*
X1596Y3107D01*
X1707Y3107D02*
X1836Y3107D01*
X1933Y3107D02*
X2024Y3107D01*
X2090Y3107D02*
X2207Y3107D01*
X228Y3106D02*
X310Y3106D01*
X392Y3106D02*
X518Y3106D01*
X768Y3106D02*
X793Y3106D01*
X869Y3106D02*
X897Y3106D01*
X994Y3106D02*
X1046Y3106D01*
X1144Y3106D02*
X1254Y3106D01*
X1369Y3106D02*
X1422Y3106D01*
X1571Y3106D02*
X1596Y3106D01*
X1707Y3106D02*
X1836Y3106D01*
X1934Y3106D02*
X2024Y3106D01*
X2091Y3106D02*
X2206Y3106D01*
X229Y3105D02*
X309Y3105D01*
X392Y3105D02*
X517Y3105D01*
X768Y3105D02*
X793Y3105D01*
X870Y3105D02*
X897Y3105D01*
X995Y3105D02*
X1046Y3105D01*
X1144Y3105D02*
X1253Y3105D01*
X1370Y3105D02*
X1421Y3105D01*
X1571Y3105D02*
X1596Y3105D01*
X1707Y3105D02*
X1836Y3105D01*
X1935Y3105D02*
X2024Y3105D01*
X2092Y3105D02*
X2205Y3105D01*
X230Y3104D02*
X308Y3104D01*
X393Y3104D02*
X516Y3104D01*
X768Y3104D02*
X793Y3104D01*
X870Y3104D02*
X897Y3104D01*
X995Y3104D02*
X1045Y3104D01*
X1144Y3104D02*
X1252Y3104D01*
X1371Y3104D02*
X1420Y3104D01*
X1571Y3104D02*
X1596Y3104D01*
X1707Y3104D02*
X1836Y3104D01*
X1936Y3104D02*
X2024Y3104D01*
X2092Y3104D02*
X2204Y3104D01*
X231Y3103D02*
X307Y3103D01*
X393Y3103D02*
X515Y3103D01*
X768Y3103D02*
X793Y3103D01*
X871Y3103D02*
X896Y3103D01*
X996Y3103D02*
X1044Y3103D01*
X1144Y3103D02*
X1250Y3103D01*
X1372Y3103D02*
X1419Y3103D01*
X1571Y3103D02*
X1596Y3103D01*
X1707Y3103D02*
X1836Y3103D01*
X1937Y3103D02*
X2023Y3103D01*
X2093Y3103D02*
X2204Y3103D01*
X232Y3102D02*
X306Y3102D01*
X393Y3102D02*
X514Y3102D01*
X769Y3102D02*
X793Y3102D01*
X872Y3102D02*
X896Y3102D01*
X998Y3102D02*
X1043Y3102D01*
X1144Y3102D02*
X1249Y3102D01*
X1373Y3102D02*
X1418Y3102D01*
X1572Y3102D02*
X1595Y3102D01*
X1708Y3102D02*
X1835Y3102D01*
X1938Y3102D02*
X2023Y3102D01*
X2095Y3102D02*
X2203Y3102D01*
X233Y3101D02*
X305Y3101D01*
X393Y3101D02*
X514Y3101D01*
X769Y3101D02*
X792Y3101D01*
X872Y3101D02*
X896Y3101D01*
X999Y3101D02*
X1042Y3101D01*
X1144Y3101D02*
X1248Y3101D01*
X1374Y3101D02*
X1417Y3101D01*
X1572Y3101D02*
X1595Y3101D01*
X1708Y3101D02*
X1835Y3101D01*
X1939Y3101D02*
X2023Y3101D01*
X2096Y3101D02*
X2202Y3101D01*
X234Y3100D02*
X303Y3100D01*
X394Y3100D02*
X512Y3100D01*
X769Y3100D02*
X792Y3100D01*
X873Y3100D02*
X895Y3100D01*
X1000Y3100D02*
X1040Y3100D01*
X1144Y3100D02*
X1246Y3100D01*
X1376Y3100D02*
X1416Y3100D01*
X1572Y3100D02*
X1595Y3100D01*
X1709Y3100D02*
X1834Y3100D01*
X1941Y3100D02*
X2022Y3100D01*
X2097Y3100D02*
X2201Y3100D01*
X236Y3099D02*
X302Y3099D01*
X394Y3099D02*
X511Y3099D01*
X770Y3099D02*
X791Y3099D01*
X873Y3099D02*
X895Y3099D01*
X1001Y3099D02*
X1039Y3099D01*
X1144Y3099D02*
X1244Y3099D01*
X1377Y3099D02*
X1414Y3099D01*
X1573Y3099D02*
X1594Y3099D01*
X1709Y3099D02*
X1834Y3099D01*
X1942Y3099D02*
X2022Y3099D01*
X2098Y3099D02*
X2200Y3099D01*
X238Y3098D02*
X300Y3098D01*
X395Y3098D02*
X510Y3098D01*
X771Y3098D02*
X790Y3098D01*
X874Y3098D02*
X894Y3098D01*
X1003Y3098D02*
X1037Y3098D01*
X1144Y3098D02*
X1242Y3098D01*
X1378Y3098D02*
X1413Y3098D01*
X1574Y3098D02*
X1593Y3098D01*
X1710Y3098D02*
X1833Y3098D01*
X1944Y3098D02*
X2021Y3098D01*
X2100Y3098D02*
X2198Y3098D01*
X239Y3097D02*
X298Y3097D01*
X396Y3097D02*
X509Y3097D01*
X772Y3097D02*
X790Y3097D01*
X875Y3097D02*
X893Y3097D01*
X1005Y3097D02*
X1036Y3097D01*
X1144Y3097D02*
X1240Y3097D01*
X1380Y3097D02*
X1411Y3097D01*
X1575Y3097D02*
X1592Y3097D01*
X1711Y3097D02*
X1832Y3097D01*
X1946Y3097D02*
X2020Y3097D01*
X2101Y3097D02*
X2197Y3097D01*
X241Y3096D02*
X296Y3096D01*
X397Y3096D02*
X507Y3096D01*
X773Y3096D02*
X788Y3096D01*
X876Y3096D02*
X892Y3096D01*
X1006Y3096D02*
X1034Y3096D01*
X1144Y3096D02*
X1238Y3096D01*
X1382Y3096D02*
X1409Y3096D01*
X1576Y3096D02*
X1591Y3096D01*
X1712Y3096D02*
X1831Y3096D01*
X1948Y3096D02*
X2019Y3096D01*
X2103Y3096D02*
X2195Y3096D01*
X244Y3095D02*
X294Y3095D01*
X398Y3095D02*
X505Y3095D01*
X774Y3095D02*
X787Y3095D01*
X877Y3095D02*
X891Y3095D01*
X1009Y3095D02*
X1031Y3095D01*
X1144Y3095D02*
X1235Y3095D01*
X1385Y3095D02*
X1407Y3095D01*
X1577Y3095D02*
X1590Y3095D01*
X1713Y3095D02*
X1830Y3095D01*
X1951Y3095D02*
X2018Y3095D01*
X2106Y3095D02*
X2193Y3095D01*
X248Y3094D02*
X290Y3094D01*
X400Y3094D02*
X502Y3094D01*
X776Y3094D02*
X785Y3094D01*
X879Y3094D02*
X889Y3094D01*
X1012Y3094D02*
X1028Y3094D01*
X1144Y3094D02*
X1231Y3094D01*
X1388Y3094D02*
X1404Y3094D01*
X1579Y3094D02*
X1588Y3094D01*
X1715Y3094D02*
X1828Y3094D01*
X1954Y3094D02*
X2016Y3094D01*
X2109Y3094D02*
X2190Y3094D01*
X255Y3093D02*
X283Y3093D01*
X404Y3093D02*
X497Y3093D01*
X780Y3093D02*
X781Y3093D01*
X883Y3093D02*
X885Y3093D01*
X1019Y3093D02*
X1021Y3093D01*
X1144Y3093D02*
X1222Y3093D01*
X1395Y3093D02*
X1397Y3093D01*
X1583Y3093D02*
X1584Y3093D01*
X1719Y3093D02*
X1824Y3093D01*
X1961Y3093D02*
X2012Y3093D01*
X2116Y3093D02*
X2184Y3093D01*
X588Y3092D02*
X701Y3092D01*
X586Y3091D02*
X703Y3091D01*
X585Y3090D02*
X704Y3090D01*
X584Y3089D02*
X705Y3089D01*
X583Y3088D02*
X706Y3088D01*
X582Y3087D02*
X707Y3087D01*
X582Y3086D02*
X707Y3086D01*
X581Y3085D02*
X708Y3085D01*
X581Y3084D02*
X708Y3084D01*
X581Y3083D02*
X709Y3083D01*
X580Y3082D02*
X709Y3082D01*
X580Y3081D02*
X709Y3081D01*
X580Y3080D02*
X709Y3080D01*
X580Y3079D02*
X709Y3079D01*
X580Y3078D02*
X709Y3078D01*
X580Y3077D02*
X709Y3077D01*
X581Y3076D02*
X708Y3076D01*
X581Y3075D02*
X708Y3075D01*
X581Y3074D02*
X708Y3074D01*
X582Y3073D02*
X707Y3073D01*
X583Y3072D02*
X706Y3072D01*
X584Y3071D02*
X706Y3071D01*
X584Y3070D02*
X705Y3070D01*
X586Y3069D02*
X703Y3069D01*
X587Y3068D02*
X702Y3068D01*
X590Y3067D02*
X699Y3067D01*
X979Y309D02*
X987Y309D01*
X978Y308D02*
X989Y308D01*
X977Y307D02*
X989Y307D01*
X976Y306D02*
X990Y306D01*
X606Y305D02*
X646Y305D01*
X894Y305D02*
X894Y305D01*
X976Y305D02*
X990Y305D01*
X1077Y305D02*
X1078Y305D01*
X603Y304D02*
X648Y304D01*
X891Y304D02*
X896Y304D01*
X976Y304D02*
X990Y304D01*
X1075Y304D02*
X1080Y304D01*
X602Y303D02*
X649Y303D01*
X890Y303D02*
X897Y303D01*
X976Y303D02*
X990Y303D01*
X1074Y303D02*
X1081Y303D01*
X602Y302D02*
X650Y302D01*
X890Y302D02*
X898Y302D01*
X976Y302D02*
X990Y302D01*
X1073Y302D02*
X1082Y302D01*
X602Y301D02*
X650Y301D01*
X889Y301D02*
X898Y301D01*
X976Y301D02*
X990Y301D01*
X1073Y301D02*
X1082Y301D01*
X601Y300D02*
X650Y300D01*
X889Y300D02*
X898Y300D01*
X976Y300D02*
X990Y300D01*
X1073Y300D02*
X1082Y300D01*
X602Y299D02*
X650Y299D01*
X889Y299D02*
X898Y299D01*
X976Y299D02*
X990Y299D01*
X1073Y299D02*
X1082Y299D01*
X602Y298D02*
X650Y298D01*
X889Y298D02*
X898Y298D01*
X977Y298D02*
X990Y298D01*
X1073Y298D02*
X1082Y298D01*
X603Y297D02*
X649Y297D01*
X889Y297D02*
X898Y297D01*
X977Y297D02*
X989Y297D01*
X1073Y297D02*
X1082Y297D01*
X604Y296D02*
X648Y296D01*
X889Y296D02*
X898Y296D01*
X978Y296D02*
X988Y296D01*
X1073Y296D02*
X1082Y296D01*
X621Y295D02*
X631Y295D01*
X889Y295D02*
X898Y295D01*
X1073Y295D02*
X1082Y295D01*
X621Y294D02*
X630Y294D01*
X889Y294D02*
X898Y294D01*
X1073Y294D02*
X1082Y294D01*
X621Y293D02*
X630Y293D01*
X889Y293D02*
X898Y293D01*
X1073Y293D02*
X1082Y293D01*
X621Y292D02*
X630Y292D01*
X889Y292D02*
X898Y292D01*
X1073Y292D02*
X1082Y292D01*
X621Y291D02*
X630Y291D01*
X889Y291D02*
X898Y291D01*
X1073Y291D02*
X1082Y291D01*
X621Y290D02*
X630Y290D01*
X889Y290D02*
X898Y290D01*
X1073Y290D02*
X1082Y290D01*
X621Y289D02*
X630Y289D01*
X889Y289D02*
X898Y289D01*
X1073Y289D02*
X1082Y289D01*
X621Y288D02*
X630Y288D01*
X889Y288D02*
X898Y288D01*
X1073Y288D02*
X1082Y288D01*
X621Y287D02*
X630Y287D01*
X889Y287D02*
X898Y287D01*
X1073Y287D02*
X1082Y287D01*
X621Y286D02*
X630Y286D01*
X889Y286D02*
X898Y286D01*
X1073Y286D02*
X1082Y286D01*
X621Y285D02*
X630Y285D01*
X889Y285D02*
X898Y285D01*
X1073Y285D02*
X1082Y285D01*
X621Y284D02*
X630Y284D01*
X889Y284D02*
X898Y284D01*
X1073Y284D02*
X1082Y284D01*
X621Y283D02*
X630Y283D01*
X676Y283D02*
X680Y283D01*
X695Y283D02*
X712Y283D01*
X759Y283D02*
X781Y283D01*
X820Y283D02*
X824Y283D01*
X840Y283D02*
X855Y283D01*
X889Y283D02*
X898Y283D01*
X912Y283D02*
X927Y283D01*
X969Y283D02*
X988Y283D01*
X1047Y283D02*
X1064Y283D01*
X1073Y283D02*
X1082Y283D01*
X1119Y283D02*
X1141Y283D01*
X621Y282D02*
X630Y282D01*
X674Y282D02*
X681Y282D01*
X694Y282D02*
X714Y282D01*
X757Y282D02*
X783Y282D01*
X818Y282D02*
X825Y282D01*
X838Y282D02*
X857Y282D01*
X889Y282D02*
X898Y282D01*
X910Y282D02*
X929Y282D01*
X967Y282D02*
X989Y282D01*
X1045Y282D02*
X1066Y282D01*
X1073Y282D02*
X1082Y282D01*
X1117Y282D02*
X1143Y282D01*
X621Y281D02*
X630Y281D01*
X674Y281D02*
X682Y281D01*
X693Y281D02*
X716Y281D01*
X755Y281D02*
X784Y281D01*
X818Y281D02*
X826Y281D01*
X836Y281D02*
X859Y281D01*
X889Y281D02*
X898Y281D01*
X908Y281D02*
X931Y281D01*
X967Y281D02*
X990Y281D01*
X1043Y281D02*
X1067Y281D01*
X1073Y281D02*
X1082Y281D01*
X1115Y281D02*
X1144Y281D01*
X621Y280D02*
X630Y280D01*
X674Y280D02*
X682Y280D01*
X692Y280D02*
X717Y280D01*
X754Y280D02*
X786Y280D01*
X818Y280D02*
X826Y280D01*
X835Y280D02*
X860Y280D01*
X889Y280D02*
X898Y280D01*
X907Y280D02*
X932Y280D01*
X966Y280D02*
X990Y280D01*
X1042Y280D02*
X1069Y280D01*
X1073Y280D02*
X1082Y280D01*
X1114Y280D02*
X1146Y280D01*
X621Y279D02*
X630Y279D01*
X673Y279D02*
X682Y279D01*
X690Y279D02*
X718Y279D01*
X753Y279D02*
X787Y279D01*
X817Y279D02*
X826Y279D01*
X833Y279D02*
X861Y279D01*
X889Y279D02*
X898Y279D01*
X905Y279D02*
X933Y279D01*
X966Y279D02*
X990Y279D01*
X1041Y279D02*
X1070Y279D01*
X1073Y279D02*
X1082Y279D01*
X1113Y279D02*
X1147Y279D01*
X621Y278D02*
X630Y278D01*
X673Y278D02*
X682Y278D01*
X689Y278D02*
X719Y278D01*
X751Y278D02*
X788Y278D01*
X817Y278D02*
X826Y278D01*
X831Y278D02*
X862Y278D01*
X889Y278D02*
X898Y278D01*
X903Y278D02*
X934Y278D01*
X966Y278D02*
X990Y278D01*
X1039Y278D02*
X1071Y278D01*
X1073Y278D02*
X1082Y278D01*
X1111Y278D02*
X1148Y278D01*
X621Y277D02*
X630Y277D01*
X673Y277D02*
X682Y277D01*
X688Y277D02*
X720Y277D01*
X750Y277D02*
X789Y277D01*
X817Y277D02*
X826Y277D01*
X830Y277D02*
X862Y277D01*
X889Y277D02*
X898Y277D01*
X902Y277D02*
X934Y277D01*
X967Y277D02*
X990Y277D01*
X1038Y277D02*
X1082Y277D01*
X1110Y277D02*
X1149Y277D01*
X621Y276D02*
X630Y276D01*
X673Y276D02*
X682Y276D01*
X687Y276D02*
X720Y276D01*
X749Y276D02*
X790Y276D01*
X817Y276D02*
X863Y276D01*
X889Y276D02*
X935Y276D01*
X967Y276D02*
X990Y276D01*
X1037Y276D02*
X1082Y276D01*
X1109Y276D02*
X1150Y276D01*
X621Y275D02*
X630Y275D01*
X673Y275D02*
X682Y275D01*
X686Y275D02*
X721Y275D01*
X749Y275D02*
X791Y275D01*
X817Y275D02*
X864Y275D01*
X889Y275D02*
X936Y275D01*
X968Y275D02*
X990Y275D01*
X1037Y275D02*
X1082Y275D01*
X1109Y275D02*
X1151Y275D01*
X621Y274D02*
X630Y274D01*
X673Y274D02*
X682Y274D01*
X685Y274D02*
X721Y274D01*
X748Y274D02*
X792Y274D01*
X817Y274D02*
X864Y274D01*
X889Y274D02*
X936Y274D01*
X971Y274D02*
X990Y274D01*
X1036Y274D02*
X1082Y274D01*
X1108Y274D02*
X1152Y274D01*
X621Y273D02*
X630Y273D01*
X673Y273D02*
X698Y273D01*
X711Y273D02*
X722Y273D01*
X747Y273D02*
X760Y273D01*
X779Y273D02*
X792Y273D01*
X817Y273D02*
X841Y273D01*
X853Y273D02*
X864Y273D01*
X889Y273D02*
X913Y273D01*
X925Y273D02*
X936Y273D01*
X981Y273D02*
X990Y273D01*
X1035Y273D02*
X1048Y273D01*
X1062Y273D02*
X1082Y273D01*
X1107Y273D02*
X1120Y273D01*
X1139Y273D02*
X1152Y273D01*
X621Y272D02*
X630Y272D01*
X673Y272D02*
X697Y272D01*
X712Y272D02*
X722Y272D01*
X747Y272D02*
X759Y272D01*
X781Y272D02*
X793Y272D01*
X817Y272D02*
X840Y272D01*
X855Y272D02*
X865Y272D01*
X889Y272D02*
X912Y272D01*
X927Y272D02*
X937Y272D01*
X981Y272D02*
X990Y272D01*
X1035Y272D02*
X1047Y272D01*
X1063Y272D02*
X1082Y272D01*
X1107Y272D02*
X1119Y272D01*
X1141Y272D02*
X1153Y272D01*
X621Y271D02*
X630Y271D01*
X673Y271D02*
X696Y271D01*
X713Y271D02*
X722Y271D01*
X746Y271D02*
X758Y271D01*
X782Y271D02*
X793Y271D01*
X817Y271D02*
X838Y271D01*
X855Y271D02*
X865Y271D01*
X889Y271D02*
X910Y271D01*
X927Y271D02*
X937Y271D01*
X981Y271D02*
X990Y271D01*
X1034Y271D02*
X1046Y271D01*
X1065Y271D02*
X1082Y271D01*
X1106Y271D02*
X1118Y271D01*
X1142Y271D02*
X1153Y271D01*
X621Y270D02*
X630Y270D01*
X673Y270D02*
X695Y270D01*
X713Y270D02*
X722Y270D01*
X746Y270D02*
X757Y270D01*
X783Y270D02*
X794Y270D01*
X817Y270D02*
X837Y270D01*
X856Y270D02*
X865Y270D01*
X889Y270D02*
X909Y270D01*
X928Y270D02*
X937Y270D01*
X981Y270D02*
X990Y270D01*
X1034Y270D02*
X1045Y270D01*
X1066Y270D02*
X1082Y270D01*
X1106Y270D02*
X1117Y270D01*
X1143Y270D02*
X1154Y270D01*
X621Y269D02*
X630Y269D01*
X673Y269D02*
X693Y269D01*
X713Y269D02*
X722Y269D01*
X746Y269D02*
X756Y269D01*
X784Y269D02*
X794Y269D01*
X817Y269D02*
X835Y269D01*
X856Y269D02*
X865Y269D01*
X889Y269D02*
X907Y269D01*
X928Y269D02*
X937Y269D01*
X981Y269D02*
X990Y269D01*
X1034Y269D02*
X1044Y269D01*
X1067Y269D02*
X1082Y269D01*
X1106Y269D02*
X1116Y269D01*
X1144Y269D02*
X1154Y269D01*
X621Y268D02*
X630Y268D01*
X673Y268D02*
X692Y268D01*
X713Y268D02*
X722Y268D01*
X746Y268D02*
X755Y268D01*
X785Y268D02*
X794Y268D01*
X817Y268D02*
X834Y268D01*
X856Y268D02*
X865Y268D01*
X889Y268D02*
X906Y268D01*
X928Y268D02*
X937Y268D01*
X981Y268D02*
X990Y268D01*
X1033Y268D02*
X1043Y268D01*
X1068Y268D02*
X1082Y268D01*
X1106Y268D02*
X1115Y268D01*
X1144Y268D02*
X1154Y268D01*
X621Y267D02*
X630Y267D01*
X673Y267D02*
X691Y267D01*
X713Y267D02*
X722Y267D01*
X745Y267D02*
X755Y267D01*
X785Y267D02*
X794Y267D01*
X817Y267D02*
X832Y267D01*
X856Y267D02*
X865Y267D01*
X889Y267D02*
X904Y267D01*
X928Y267D02*
X937Y267D01*
X981Y267D02*
X990Y267D01*
X1033Y267D02*
X1043Y267D01*
X1069Y267D02*
X1082Y267D01*
X1105Y267D02*
X1115Y267D01*
X1145Y267D02*
X1154Y267D01*
X621Y266D02*
X630Y266D01*
X673Y266D02*
X690Y266D01*
X713Y266D02*
X722Y266D01*
X745Y266D02*
X754Y266D01*
X785Y266D02*
X794Y266D01*
X817Y266D02*
X831Y266D01*
X856Y266D02*
X865Y266D01*
X889Y266D02*
X903Y266D01*
X928Y266D02*
X937Y266D01*
X981Y266D02*
X990Y266D01*
X1033Y266D02*
X1042Y266D01*
X1070Y266D02*
X1082Y266D01*
X1105Y266D02*
X1114Y266D01*
X1145Y266D02*
X1154Y266D01*
X621Y265D02*
X630Y265D01*
X673Y265D02*
X689Y265D01*
X713Y265D02*
X722Y265D01*
X745Y265D02*
X754Y265D01*
X785Y265D02*
X794Y265D01*
X817Y265D02*
X829Y265D01*
X856Y265D02*
X865Y265D01*
X889Y265D02*
X901Y265D01*
X928Y265D02*
X937Y265D01*
X981Y265D02*
X990Y265D01*
X1033Y265D02*
X1042Y265D01*
X1071Y265D02*
X1082Y265D01*
X1105Y265D02*
X1114Y265D01*
X1145Y265D02*
X1154Y265D01*
X621Y264D02*
X630Y264D01*
X673Y264D02*
X688Y264D01*
X714Y264D02*
X722Y264D01*
X745Y264D02*
X754Y264D01*
X785Y264D02*
X794Y264D01*
X817Y264D02*
X827Y264D01*
X856Y264D02*
X865Y264D01*
X889Y264D02*
X899Y264D01*
X928Y264D02*
X937Y264D01*
X981Y264D02*
X990Y264D01*
X1033Y264D02*
X1042Y264D01*
X1072Y264D02*
X1082Y264D01*
X1105Y264D02*
X1114Y264D01*
X1145Y264D02*
X1154Y264D01*
X621Y263D02*
X630Y263D01*
X673Y263D02*
X686Y263D01*
X714Y263D02*
X721Y263D01*
X745Y263D02*
X754Y263D01*
X785Y263D02*
X794Y263D01*
X817Y263D02*
X826Y263D01*
X856Y263D02*
X865Y263D01*
X889Y263D02*
X898Y263D01*
X928Y263D02*
X937Y263D01*
X981Y263D02*
X990Y263D01*
X1033Y263D02*
X1042Y263D01*
X1073Y263D02*
X1082Y263D01*
X1105Y263D02*
X1114Y263D01*
X1145Y263D02*
X1154Y263D01*
X621Y262D02*
X630Y262D01*
X673Y262D02*
X685Y262D01*
X715Y262D02*
X720Y262D01*
X745Y262D02*
X754Y262D01*
X785Y262D02*
X794Y262D01*
X817Y262D02*
X826Y262D01*
X856Y262D02*
X865Y262D01*
X889Y262D02*
X898Y262D01*
X928Y262D02*
X937Y262D01*
X981Y262D02*
X990Y262D01*
X1033Y262D02*
X1042Y262D01*
X1073Y262D02*
X1082Y262D01*
X1105Y262D02*
X1114Y262D01*
X1145Y262D02*
X1154Y262D01*
X621Y261D02*
X630Y261D01*
X673Y261D02*
X684Y261D01*
X745Y261D02*
X754Y261D01*
X785Y261D02*
X794Y261D01*
X817Y261D02*
X826Y261D01*
X856Y261D02*
X865Y261D01*
X889Y261D02*
X898Y261D01*
X928Y261D02*
X937Y261D01*
X981Y261D02*
X990Y261D01*
X1033Y261D02*
X1042Y261D01*
X1073Y261D02*
X1082Y261D01*
X1105Y261D02*
X1114Y261D01*
X1145Y261D02*
X1154Y261D01*
X621Y260D02*
X630Y260D01*
X673Y260D02*
X683Y260D01*
X745Y260D02*
X754Y260D01*
X785Y260D02*
X794Y260D01*
X817Y260D02*
X826Y260D01*
X856Y260D02*
X865Y260D01*
X889Y260D02*
X898Y260D01*
X928Y260D02*
X937Y260D01*
X981Y260D02*
X990Y260D01*
X1033Y260D02*
X1042Y260D01*
X1073Y260D02*
X1082Y260D01*
X1105Y260D02*
X1114Y260D01*
X1145Y260D02*
X1154Y260D01*
X621Y259D02*
X630Y259D01*
X673Y259D02*
X682Y259D01*
X745Y259D02*
X754Y259D01*
X785Y259D02*
X794Y259D01*
X817Y259D02*
X826Y259D01*
X856Y259D02*
X865Y259D01*
X889Y259D02*
X898Y259D01*
X928Y259D02*
X937Y259D01*
X981Y259D02*
X990Y259D01*
X1033Y259D02*
X1042Y259D01*
X1073Y259D02*
X1082Y259D01*
X1105Y259D02*
X1114Y259D01*
X1145Y259D02*
X1154Y259D01*
X621Y258D02*
X630Y258D01*
X673Y258D02*
X682Y258D01*
X745Y258D02*
X754Y258D01*
X785Y258D02*
X794Y258D01*
X817Y258D02*
X826Y258D01*
X856Y258D02*
X865Y258D01*
X889Y258D02*
X898Y258D01*
X928Y258D02*
X937Y258D01*
X981Y258D02*
X990Y258D01*
X1033Y258D02*
X1042Y258D01*
X1073Y258D02*
X1082Y258D01*
X1105Y258D02*
X1154Y258D01*
X621Y257D02*
X630Y257D01*
X673Y257D02*
X682Y257D01*
X745Y257D02*
X754Y257D01*
X785Y257D02*
X794Y257D01*
X817Y257D02*
X826Y257D01*
X856Y257D02*
X865Y257D01*
X889Y257D02*
X898Y257D01*
X928Y257D02*
X937Y257D01*
X981Y257D02*
X990Y257D01*
X1033Y257D02*
X1042Y257D01*
X1073Y257D02*
X1082Y257D01*
X1105Y257D02*
X1154Y257D01*
X621Y256D02*
X630Y256D01*
X673Y256D02*
X682Y256D01*
X745Y256D02*
X754Y256D01*
X785Y256D02*
X794Y256D01*
X817Y256D02*
X826Y256D01*
X856Y256D02*
X865Y256D01*
X889Y256D02*
X898Y256D01*
X928Y256D02*
X937Y256D01*
X981Y256D02*
X990Y256D01*
X1033Y256D02*
X1042Y256D01*
X1073Y256D02*
X1082Y256D01*
X1105Y256D02*
X1154Y256D01*
X621Y255D02*
X630Y255D01*
X673Y255D02*
X682Y255D01*
X745Y255D02*
X754Y255D01*
X785Y255D02*
X794Y255D01*
X817Y255D02*
X826Y255D01*
X856Y255D02*
X865Y255D01*
X889Y255D02*
X898Y255D01*
X928Y255D02*
X937Y255D01*
X981Y255D02*
X990Y255D01*
X1033Y255D02*
X1042Y255D01*
X1073Y255D02*
X1082Y255D01*
X1105Y255D02*
X1154Y255D01*
X621Y254D02*
X630Y254D01*
X673Y254D02*
X682Y254D01*
X745Y254D02*
X754Y254D01*
X785Y254D02*
X794Y254D01*
X817Y254D02*
X826Y254D01*
X856Y254D02*
X865Y254D01*
X889Y254D02*
X898Y254D01*
X928Y254D02*
X937Y254D01*
X981Y254D02*
X990Y254D01*
X1033Y254D02*
X1042Y254D01*
X1073Y254D02*
X1082Y254D01*
X1105Y254D02*
X1154Y254D01*
X621Y253D02*
X630Y253D01*
X673Y253D02*
X682Y253D01*
X745Y253D02*
X754Y253D01*
X785Y253D02*
X794Y253D01*
X817Y253D02*
X826Y253D01*
X856Y253D02*
X865Y253D01*
X889Y253D02*
X898Y253D01*
X928Y253D02*
X937Y253D01*
X981Y253D02*
X990Y253D01*
X1033Y253D02*
X1042Y253D01*
X1073Y253D02*
X1082Y253D01*
X1105Y253D02*
X1154Y253D01*
X621Y252D02*
X630Y252D01*
X673Y252D02*
X682Y252D01*
X745Y252D02*
X754Y252D01*
X785Y252D02*
X794Y252D01*
X817Y252D02*
X826Y252D01*
X856Y252D02*
X865Y252D01*
X889Y252D02*
X898Y252D01*
X928Y252D02*
X937Y252D01*
X981Y252D02*
X990Y252D01*
X1033Y252D02*
X1042Y252D01*
X1073Y252D02*
X1082Y252D01*
X1105Y252D02*
X1154Y252D01*
X621Y251D02*
X630Y251D01*
X673Y251D02*
X682Y251D01*
X745Y251D02*
X754Y251D01*
X785Y251D02*
X794Y251D01*
X817Y251D02*
X826Y251D01*
X856Y251D02*
X865Y251D01*
X889Y251D02*
X898Y251D01*
X928Y251D02*
X937Y251D01*
X981Y251D02*
X990Y251D01*
X1033Y251D02*
X1042Y251D01*
X1073Y251D02*
X1082Y251D01*
X1105Y251D02*
X1153Y251D01*
X621Y250D02*
X630Y250D01*
X673Y250D02*
X682Y250D01*
X745Y250D02*
X754Y250D01*
X785Y250D02*
X794Y250D01*
X817Y250D02*
X826Y250D01*
X856Y250D02*
X865Y250D01*
X889Y250D02*
X898Y250D01*
X928Y250D02*
X937Y250D01*
X981Y250D02*
X990Y250D01*
X1033Y250D02*
X1042Y250D01*
X1073Y250D02*
X1082Y250D01*
X1105Y250D02*
X1153Y250D01*
X621Y249D02*
X630Y249D01*
X673Y249D02*
X682Y249D01*
X745Y249D02*
X754Y249D01*
X785Y249D02*
X794Y249D01*
X817Y249D02*
X826Y249D01*
X856Y249D02*
X866Y249D01*
X889Y249D02*
X898Y249D01*
X928Y249D02*
X937Y249D01*
X981Y249D02*
X990Y249D01*
X1033Y249D02*
X1042Y249D01*
X1073Y249D02*
X1082Y249D01*
X1105Y249D02*
X1151Y249D01*
X621Y248D02*
X630Y248D01*
X673Y248D02*
X682Y248D01*
X745Y248D02*
X754Y248D01*
X785Y248D02*
X794Y248D01*
X817Y248D02*
X826Y248D01*
X856Y248D02*
X866Y248D01*
X889Y248D02*
X898Y248D01*
X928Y248D02*
X938Y248D01*
X981Y248D02*
X990Y248D01*
X1033Y248D02*
X1042Y248D01*
X1073Y248D02*
X1082Y248D01*
X1105Y248D02*
X1114Y248D01*
X621Y247D02*
X630Y247D01*
X673Y247D02*
X682Y247D01*
X745Y247D02*
X754Y247D01*
X785Y247D02*
X794Y247D01*
X817Y247D02*
X826Y247D01*
X857Y247D02*
X866Y247D01*
X889Y247D02*
X898Y247D01*
X929Y247D02*
X938Y247D01*
X981Y247D02*
X990Y247D01*
X1033Y247D02*
X1042Y247D01*
X1072Y247D02*
X1082Y247D01*
X1105Y247D02*
X1114Y247D01*
X621Y246D02*
X630Y246D01*
X673Y246D02*
X682Y246D01*
X745Y246D02*
X754Y246D01*
X785Y246D02*
X794Y246D01*
X817Y246D02*
X826Y246D01*
X857Y246D02*
X866Y246D01*
X889Y246D02*
X898Y246D01*
X929Y246D02*
X938Y246D01*
X981Y246D02*
X990Y246D01*
X1033Y246D02*
X1042Y246D01*
X1071Y246D02*
X1082Y246D01*
X1105Y246D02*
X1114Y246D01*
X621Y245D02*
X630Y245D01*
X673Y245D02*
X682Y245D01*
X745Y245D02*
X754Y245D01*
X785Y245D02*
X794Y245D01*
X817Y245D02*
X826Y245D01*
X857Y245D02*
X866Y245D01*
X889Y245D02*
X898Y245D01*
X929Y245D02*
X938Y245D01*
X981Y245D02*
X990Y245D01*
X1033Y245D02*
X1042Y245D01*
X1070Y245D02*
X1082Y245D01*
X1105Y245D02*
X1114Y245D01*
X621Y244D02*
X630Y244D01*
X673Y244D02*
X682Y244D01*
X745Y244D02*
X755Y244D01*
X785Y244D02*
X794Y244D01*
X817Y244D02*
X826Y244D01*
X857Y244D02*
X866Y244D01*
X889Y244D02*
X898Y244D01*
X929Y244D02*
X938Y244D01*
X981Y244D02*
X990Y244D01*
X1033Y244D02*
X1043Y244D01*
X1069Y244D02*
X1082Y244D01*
X1105Y244D02*
X1115Y244D01*
X621Y243D02*
X630Y243D01*
X673Y243D02*
X682Y243D01*
X746Y243D02*
X755Y243D01*
X784Y243D02*
X794Y243D01*
X817Y243D02*
X826Y243D01*
X857Y243D02*
X866Y243D01*
X889Y243D02*
X898Y243D01*
X929Y243D02*
X938Y243D01*
X981Y243D02*
X990Y243D01*
X1034Y243D02*
X1043Y243D01*
X1068Y243D02*
X1082Y243D01*
X1106Y243D02*
X1115Y243D01*
X621Y242D02*
X630Y242D01*
X673Y242D02*
X682Y242D01*
X746Y242D02*
X756Y242D01*
X784Y242D02*
X794Y242D01*
X817Y242D02*
X826Y242D01*
X857Y242D02*
X866Y242D01*
X889Y242D02*
X898Y242D01*
X929Y242D02*
X938Y242D01*
X981Y242D02*
X990Y242D01*
X1034Y242D02*
X1044Y242D01*
X1067Y242D02*
X1082Y242D01*
X1106Y242D02*
X1116Y242D01*
X621Y241D02*
X630Y241D01*
X673Y241D02*
X682Y241D01*
X746Y241D02*
X757Y241D01*
X783Y241D02*
X794Y241D01*
X817Y241D02*
X826Y241D01*
X857Y241D02*
X866Y241D01*
X889Y241D02*
X898Y241D01*
X929Y241D02*
X938Y241D01*
X981Y241D02*
X990Y241D01*
X1034Y241D02*
X1045Y241D01*
X1066Y241D02*
X1082Y241D01*
X1106Y241D02*
X1117Y241D01*
X621Y240D02*
X630Y240D01*
X673Y240D02*
X682Y240D01*
X746Y240D02*
X758Y240D01*
X782Y240D02*
X793Y240D01*
X817Y240D02*
X826Y240D01*
X857Y240D02*
X866Y240D01*
X889Y240D02*
X898Y240D01*
X929Y240D02*
X938Y240D01*
X981Y240D02*
X990Y240D01*
X1034Y240D02*
X1046Y240D01*
X1064Y240D02*
X1082Y240D01*
X1106Y240D02*
X1118Y240D01*
X621Y239D02*
X630Y239D01*
X673Y239D02*
X682Y239D01*
X747Y239D02*
X759Y239D01*
X780Y239D02*
X793Y239D01*
X817Y239D02*
X826Y239D01*
X857Y239D02*
X866Y239D01*
X889Y239D02*
X898Y239D01*
X929Y239D02*
X938Y239D01*
X981Y239D02*
X990Y239D01*
X1035Y239D02*
X1047Y239D01*
X1063Y239D02*
X1082Y239D01*
X1107Y239D02*
X1119Y239D01*
X621Y238D02*
X630Y238D01*
X673Y238D02*
X682Y238D01*
X747Y238D02*
X761Y238D01*
X779Y238D02*
X792Y238D01*
X817Y238D02*
X826Y238D01*
X857Y238D02*
X866Y238D01*
X889Y238D02*
X898Y238D01*
X929Y238D02*
X938Y238D01*
X981Y238D02*
X990Y238D01*
X1035Y238D02*
X1049Y238D01*
X1062Y238D02*
X1082Y238D01*
X1107Y238D02*
X1121Y238D01*
X605Y237D02*
X647Y237D01*
X673Y237D02*
X682Y237D01*
X748Y237D02*
X791Y237D01*
X817Y237D02*
X826Y237D01*
X857Y237D02*
X866Y237D01*
X889Y237D02*
X898Y237D01*
X929Y237D02*
X938Y237D01*
X970Y237D02*
X1002Y237D01*
X1036Y237D02*
X1082Y237D01*
X1108Y237D02*
X1151Y237D01*
X603Y236D02*
X648Y236D01*
X673Y236D02*
X682Y236D01*
X748Y236D02*
X791Y236D01*
X817Y236D02*
X826Y236D01*
X857Y236D02*
X866Y236D01*
X889Y236D02*
X898Y236D01*
X929Y236D02*
X938Y236D01*
X968Y236D02*
X1003Y236D01*
X1036Y236D02*
X1082Y236D01*
X1108Y236D02*
X1152Y236D01*
X602Y235D02*
X649Y235D01*
X673Y235D02*
X682Y235D01*
X749Y235D02*
X790Y235D01*
X817Y235D02*
X826Y235D01*
X857Y235D02*
X866Y235D01*
X889Y235D02*
X898Y235D01*
X929Y235D02*
X938Y235D01*
X967Y235D02*
X1004Y235D01*
X1037Y235D02*
X1082Y235D01*
X1109Y235D02*
X1153Y235D01*
X602Y234D02*
X650Y234D01*
X673Y234D02*
X682Y234D01*
X750Y234D02*
X789Y234D01*
X817Y234D02*
X826Y234D01*
X857Y234D02*
X866Y234D01*
X889Y234D02*
X898Y234D01*
X929Y234D02*
X938Y234D01*
X967Y234D02*
X1005Y234D01*
X1038Y234D02*
X1082Y234D01*
X1110Y234D02*
X1154Y234D01*
X601Y233D02*
X650Y233D01*
X673Y233D02*
X682Y233D01*
X752Y233D02*
X788Y233D01*
X817Y233D02*
X826Y233D01*
X857Y233D02*
X866Y233D01*
X889Y233D02*
X898Y233D01*
X929Y233D02*
X938Y233D01*
X966Y233D02*
X1005Y233D01*
X1039Y233D02*
X1071Y233D01*
X1073Y233D02*
X1082Y233D01*
X1111Y233D02*
X1154Y233D01*
X601Y232D02*
X650Y232D01*
X673Y232D02*
X682Y232D01*
X753Y232D02*
X787Y232D01*
X817Y232D02*
X826Y232D01*
X857Y232D02*
X866Y232D01*
X889Y232D02*
X898Y232D01*
X929Y232D02*
X938Y232D01*
X966Y232D02*
X1005Y232D01*
X1041Y232D02*
X1070Y232D01*
X1073Y232D02*
X1082Y232D01*
X1113Y232D02*
X1154Y232D01*
X602Y231D02*
X650Y231D01*
X674Y231D02*
X682Y231D01*
X754Y231D02*
X785Y231D01*
X818Y231D02*
X826Y231D01*
X857Y231D02*
X866Y231D01*
X890Y231D02*
X898Y231D01*
X929Y231D02*
X938Y231D01*
X966Y231D02*
X1005Y231D01*
X1042Y231D02*
X1069Y231D01*
X1073Y231D02*
X1082Y231D01*
X1114Y231D02*
X1154Y231D01*
X602Y230D02*
X650Y230D01*
X674Y230D02*
X682Y230D01*
X755Y230D02*
X784Y230D01*
X818Y230D02*
X826Y230D01*
X858Y230D02*
X865Y230D01*
X890Y230D02*
X898Y230D01*
X930Y230D02*
X937Y230D01*
X967Y230D02*
X1005Y230D01*
X1043Y230D02*
X1067Y230D01*
X1074Y230D02*
X1082Y230D01*
X1115Y230D02*
X1154Y230D01*
X603Y229D02*
X649Y229D01*
X675Y229D02*
X681Y229D01*
X757Y229D02*
X783Y229D01*
X819Y229D02*
X825Y229D01*
X858Y229D02*
X865Y229D01*
X891Y229D02*
X897Y229D01*
X930Y229D02*
X937Y229D01*
X968Y229D02*
X1004Y229D01*
X1045Y229D02*
X1066Y229D01*
X1074Y229D02*
X1081Y229D01*
X1117Y229D02*
X1153Y229D01*
X604Y228D02*
X648Y228D01*
X676Y228D02*
X680Y228D01*
X759Y228D02*
X780Y228D01*
X820Y228D02*
X824Y228D01*
X859Y228D02*
X864Y228D01*
X892Y228D02*
X896Y228D01*
X931Y228D02*
X936Y228D01*
X969Y228D02*
X1003Y228D01*
X1047Y228D02*
X1063Y228D01*
X1075Y228D02*
X1080Y228D01*
X1119Y228D02*
X1152Y228D01*
X1020Y177D02*
X1030Y177D01*
X1019Y176D02*
X1031Y176D01*
X1018Y175D02*
X1031Y175D01*
X1018Y174D02*
X1032Y174D01*
X464Y173D02*
X468Y173D01*
X502Y173D02*
X541Y173D01*
X643Y173D02*
X681Y173D01*
X790Y173D02*
X794Y173D01*
X1018Y173D02*
X1032Y173D01*
X463Y172D02*
X469Y172D01*
X500Y172D02*
X543Y172D01*
X643Y172D02*
X684Y172D01*
X788Y172D02*
X795Y172D01*
X1018Y172D02*
X1032Y172D01*
X462Y171D02*
X470Y171D01*
X500Y171D02*
X544Y171D01*
X643Y171D02*
X685Y171D01*
X788Y171D02*
X795Y171D01*
X1018Y171D02*
X1032Y171D01*
X462Y170D02*
X471Y170D01*
X499Y170D02*
X545Y170D01*
X643Y170D02*
X686Y170D01*
X787Y170D02*
X796Y170D01*
X1018Y170D02*
X1032Y170D01*
X462Y169D02*
X471Y169D01*
X499Y169D02*
X546Y169D01*
X643Y169D02*
X688Y169D01*
X787Y169D02*
X796Y169D01*
X944Y169D02*
X947Y169D01*
X1018Y169D02*
X1032Y169D01*
X462Y168D02*
X471Y168D01*
X499Y168D02*
X547Y168D01*
X643Y168D02*
X688Y168D01*
X787Y168D02*
X796Y168D01*
X942Y168D02*
X948Y168D01*
X1018Y168D02*
X1032Y168D01*
X462Y167D02*
X471Y167D01*
X499Y167D02*
X547Y167D01*
X643Y167D02*
X689Y167D01*
X787Y167D02*
X796Y167D01*
X942Y167D02*
X949Y167D01*
X1018Y167D02*
X1032Y167D01*
X462Y166D02*
X471Y166D01*
X500Y166D02*
X548Y166D01*
X643Y166D02*
X690Y166D01*
X787Y166D02*
X796Y166D01*
X941Y166D02*
X950Y166D01*
X1019Y166D02*
X1031Y166D01*
X462Y165D02*
X471Y165D01*
X501Y165D02*
X548Y165D01*
X643Y165D02*
X690Y165D01*
X787Y165D02*
X796Y165D01*
X941Y165D02*
X950Y165D01*
X1020Y165D02*
X1030Y165D01*
X462Y164D02*
X471Y164D01*
X502Y164D02*
X548Y164D01*
X643Y164D02*
X691Y164D01*
X787Y164D02*
X796Y164D01*
X941Y164D02*
X950Y164D01*
X1021Y164D02*
X1029Y164D01*
X462Y163D02*
X471Y163D01*
X539Y163D02*
X548Y163D01*
X643Y163D02*
X652Y163D01*
X680Y163D02*
X691Y163D01*
X787Y163D02*
X796Y163D01*
X941Y163D02*
X950Y163D01*
X462Y162D02*
X471Y162D01*
X539Y162D02*
X548Y162D01*
X643Y162D02*
X652Y162D01*
X681Y162D02*
X691Y162D01*
X787Y162D02*
X796Y162D01*
X941Y162D02*
X950Y162D01*
X462Y161D02*
X471Y161D01*
X539Y161D02*
X548Y161D01*
X643Y161D02*
X652Y161D01*
X682Y161D02*
X692Y161D01*
X787Y161D02*
X796Y161D01*
X941Y161D02*
X950Y161D01*
X462Y160D02*
X471Y160D01*
X539Y160D02*
X548Y160D01*
X643Y160D02*
X652Y160D01*
X682Y160D02*
X692Y160D01*
X787Y160D02*
X796Y160D01*
X941Y160D02*
X950Y160D01*
X462Y159D02*
X471Y159D01*
X539Y159D02*
X548Y159D01*
X643Y159D02*
X652Y159D01*
X683Y159D02*
X692Y159D01*
X787Y159D02*
X796Y159D01*
X941Y159D02*
X950Y159D01*
X462Y158D02*
X471Y158D01*
X539Y158D02*
X548Y158D01*
X643Y158D02*
X652Y158D01*
X683Y158D02*
X692Y158D01*
X787Y158D02*
X796Y158D01*
X941Y158D02*
X950Y158D01*
X462Y157D02*
X471Y157D01*
X539Y157D02*
X548Y157D01*
X643Y157D02*
X652Y157D01*
X683Y157D02*
X692Y157D01*
X787Y157D02*
X796Y157D01*
X941Y157D02*
X950Y157D01*
X462Y156D02*
X471Y156D01*
X539Y156D02*
X548Y156D01*
X643Y156D02*
X652Y156D01*
X683Y156D02*
X692Y156D01*
X787Y156D02*
X796Y156D01*
X941Y156D02*
X950Y156D01*
X462Y155D02*
X471Y155D01*
X539Y155D02*
X548Y155D01*
X643Y155D02*
X652Y155D01*
X683Y155D02*
X692Y155D01*
X787Y155D02*
X796Y155D01*
X941Y155D02*
X950Y155D01*
X462Y154D02*
X471Y154D01*
X539Y154D02*
X548Y154D01*
X643Y154D02*
X652Y154D01*
X683Y154D02*
X692Y154D01*
X787Y154D02*
X796Y154D01*
X941Y154D02*
X950Y154D01*
X462Y153D02*
X471Y153D01*
X539Y153D02*
X548Y153D01*
X643Y153D02*
X652Y153D01*
X683Y153D02*
X692Y153D01*
X787Y153D02*
X796Y153D01*
X941Y153D02*
X950Y153D01*
X462Y152D02*
X471Y152D01*
X539Y152D02*
X548Y152D01*
X643Y152D02*
X652Y152D01*
X682Y152D02*
X692Y152D01*
X730Y152D02*
X749Y152D01*
X787Y152D02*
X796Y152D01*
X807Y152D02*
X821Y152D01*
X874Y152D02*
X893Y152D01*
X934Y152D02*
X972Y152D01*
X1011Y152D02*
X1029Y152D01*
X1095Y152D02*
X1121Y152D01*
X1158Y152D02*
X1185Y152D01*
X462Y151D02*
X471Y151D01*
X539Y151D02*
X548Y151D01*
X643Y151D02*
X652Y151D01*
X682Y151D02*
X692Y151D01*
X727Y151D02*
X752Y151D01*
X787Y151D02*
X796Y151D01*
X804Y151D02*
X824Y151D01*
X871Y151D02*
X896Y151D01*
X933Y151D02*
X973Y151D01*
X1010Y151D02*
X1030Y151D01*
X1092Y151D02*
X1122Y151D01*
X1155Y151D02*
X1188Y151D01*
X462Y150D02*
X471Y150D01*
X539Y150D02*
X548Y150D01*
X643Y150D02*
X652Y150D01*
X681Y150D02*
X691Y150D01*
X725Y150D02*
X753Y150D01*
X787Y150D02*
X796Y150D01*
X802Y150D02*
X825Y150D01*
X869Y150D02*
X897Y150D01*
X932Y150D02*
X974Y150D01*
X1009Y150D02*
X1031Y150D01*
X1090Y150D02*
X1123Y150D01*
X1153Y150D02*
X1190Y150D01*
X462Y149D02*
X471Y149D01*
X539Y149D02*
X548Y149D01*
X643Y149D02*
X652Y149D01*
X680Y149D02*
X691Y149D01*
X724Y149D02*
X755Y149D01*
X787Y149D02*
X796Y149D01*
X801Y149D02*
X827Y149D01*
X868Y149D02*
X899Y149D01*
X931Y149D02*
X974Y149D01*
X1008Y149D02*
X1032Y149D01*
X1089Y149D02*
X1124Y149D01*
X1152Y149D02*
X1191Y149D01*
X462Y148D02*
X471Y148D01*
X539Y148D02*
X548Y148D01*
X643Y148D02*
X691Y148D01*
X723Y148D02*
X756Y148D01*
X787Y148D02*
X796Y148D01*
X799Y148D02*
X828Y148D01*
X867Y148D02*
X900Y148D01*
X931Y148D02*
X975Y148D01*
X1008Y148D02*
X1032Y148D01*
X1087Y148D02*
X1124Y148D01*
X1151Y148D02*
X1192Y148D01*
X462Y147D02*
X471Y147D01*
X539Y147D02*
X548Y147D01*
X643Y147D02*
X690Y147D01*
X722Y147D02*
X757Y147D01*
X787Y147D02*
X796Y147D01*
X798Y147D02*
X829Y147D01*
X866Y147D02*
X901Y147D01*
X931Y147D02*
X975Y147D01*
X1008Y147D02*
X1032Y147D01*
X1086Y147D02*
X1124Y147D01*
X1150Y147D02*
X1193Y147D01*
X462Y146D02*
X471Y146D01*
X539Y146D02*
X548Y146D01*
X643Y146D02*
X690Y146D01*
X721Y146D02*
X758Y146D01*
X787Y146D02*
X830Y146D01*
X865Y146D02*
X902Y146D01*
X931Y146D02*
X974Y146D01*
X1008Y146D02*
X1032Y146D01*
X1085Y146D02*
X1124Y146D01*
X1150Y146D02*
X1194Y146D01*
X462Y145D02*
X471Y145D01*
X539Y145D02*
X548Y145D01*
X643Y145D02*
X689Y145D01*
X719Y145D02*
X759Y145D01*
X787Y145D02*
X831Y145D01*
X863Y145D02*
X903Y145D01*
X932Y145D02*
X974Y145D01*
X1009Y145D02*
X1032Y145D01*
X1084Y145D02*
X1123Y145D01*
X1149Y145D02*
X1194Y145D01*
X462Y144D02*
X471Y144D01*
X539Y144D02*
X548Y144D01*
X643Y144D02*
X688Y144D01*
X719Y144D02*
X760Y144D01*
X787Y144D02*
X832Y144D01*
X863Y144D02*
X904Y144D01*
X932Y144D02*
X973Y144D01*
X1009Y144D02*
X1032Y144D01*
X1083Y144D02*
X1122Y144D01*
X1149Y144D02*
X1195Y144D01*
X462Y143D02*
X471Y143D01*
X538Y143D02*
X548Y143D01*
X643Y143D02*
X688Y143D01*
X718Y143D02*
X761Y143D01*
X787Y143D02*
X833Y143D01*
X862Y143D02*
X905Y143D01*
X934Y143D02*
X972Y143D01*
X1011Y143D02*
X1032Y143D01*
X1082Y143D02*
X1121Y143D01*
X1149Y143D02*
X1195Y143D01*
X462Y142D02*
X471Y142D01*
X538Y142D02*
X548Y142D01*
X643Y142D02*
X687Y142D01*
X717Y142D02*
X731Y142D01*
X748Y142D02*
X762Y142D01*
X787Y142D02*
X808Y142D01*
X820Y142D02*
X834Y142D01*
X861Y142D02*
X875Y142D01*
X892Y142D02*
X906Y142D01*
X941Y142D02*
X950Y142D01*
X1023Y142D02*
X1032Y142D01*
X1081Y142D02*
X1096Y142D01*
X1148Y142D02*
X1159Y142D01*
X1184Y142D02*
X1194Y142D01*
X462Y141D02*
X471Y141D01*
X537Y141D02*
X547Y141D01*
X643Y141D02*
X685Y141D01*
X717Y141D02*
X729Y141D01*
X750Y141D02*
X762Y141D01*
X787Y141D02*
X806Y141D01*
X822Y141D02*
X834Y141D01*
X861Y141D02*
X873Y141D01*
X894Y141D02*
X906Y141D01*
X941Y141D02*
X950Y141D01*
X1023Y141D02*
X1032Y141D01*
X1080Y141D02*
X1094Y141D01*
X1148Y141D02*
X1158Y141D01*
X1186Y141D02*
X1194Y141D01*
X462Y140D02*
X471Y140D01*
X535Y140D02*
X547Y140D01*
X643Y140D02*
X684Y140D01*
X716Y140D02*
X728Y140D01*
X751Y140D02*
X763Y140D01*
X787Y140D02*
X805Y140D01*
X823Y140D02*
X835Y140D01*
X860Y140D02*
X872Y140D01*
X895Y140D02*
X907Y140D01*
X941Y140D02*
X950Y140D01*
X1023Y140D02*
X1032Y140D01*
X1079Y140D02*
X1093Y140D01*
X1148Y140D02*
X1157Y140D01*
X1187Y140D02*
X1193Y140D01*
X462Y139D02*
X471Y139D01*
X511Y139D02*
X547Y139D01*
X643Y139D02*
X682Y139D01*
X716Y139D02*
X727Y139D01*
X752Y139D02*
X763Y139D01*
X787Y139D02*
X804Y139D01*
X824Y139D02*
X835Y139D01*
X860Y139D02*
X871Y139D01*
X896Y139D02*
X907Y139D01*
X941Y139D02*
X950Y139D01*
X1023Y139D02*
X1032Y139D01*
X1078Y139D02*
X1092Y139D01*
X1148Y139D02*
X1157Y139D01*
X1188Y139D02*
X1192Y139D01*
X462Y138D02*
X471Y138D01*
X510Y138D02*
X546Y138D01*
X643Y138D02*
X652Y138D01*
X660Y138D02*
X671Y138D01*
X716Y138D02*
X726Y138D01*
X753Y138D02*
X763Y138D01*
X787Y138D02*
X803Y138D01*
X825Y138D02*
X835Y138D01*
X860Y138D02*
X870Y138D01*
X897Y138D02*
X907Y138D01*
X941Y138D02*
X950Y138D01*
X1023Y138D02*
X1032Y138D01*
X1077Y138D02*
X1091Y138D01*
X1148Y138D02*
X1158Y138D01*
X462Y137D02*
X471Y137D01*
X510Y137D02*
X546Y137D01*
X643Y137D02*
X652Y137D01*
X661Y137D02*
X672Y137D01*
X715Y137D02*
X725Y137D01*
X754Y137D02*
X764Y137D01*
X787Y137D02*
X802Y137D01*
X826Y137D02*
X836Y137D01*
X859Y137D02*
X869Y137D01*
X898Y137D02*
X908Y137D01*
X941Y137D02*
X950Y137D01*
X1023Y137D02*
X1032Y137D01*
X1077Y137D02*
X1090Y137D01*
X1149Y137D02*
X1159Y137D01*
X462Y136D02*
X471Y136D01*
X509Y136D02*
X545Y136D01*
X643Y136D02*
X652Y136D01*
X661Y136D02*
X672Y136D01*
X715Y136D02*
X724Y136D01*
X754Y136D02*
X764Y136D01*
X787Y136D02*
X800Y136D01*
X826Y136D02*
X836Y136D01*
X859Y136D02*
X868Y136D01*
X898Y136D02*
X908Y136D01*
X941Y136D02*
X950Y136D01*
X1023Y136D02*
X1032Y136D01*
X1076Y136D02*
X1088Y136D01*
X1149Y136D02*
X1161Y136D01*
X462Y135D02*
X471Y135D01*
X509Y135D02*
X544Y135D01*
X643Y135D02*
X652Y135D01*
X662Y135D02*
X673Y135D01*
X715Y135D02*
X724Y135D01*
X755Y135D02*
X764Y135D01*
X787Y135D02*
X799Y135D01*
X827Y135D02*
X836Y135D01*
X859Y135D02*
X868Y135D01*
X899Y135D02*
X908Y135D01*
X941Y135D02*
X950Y135D01*
X1023Y135D02*
X1032Y135D01*
X1076Y135D02*
X1087Y135D01*
X1149Y135D02*
X1164Y135D01*
X462Y134D02*
X471Y134D01*
X509Y134D02*
X544Y134D01*
X643Y134D02*
X652Y134D01*
X662Y134D02*
X673Y134D01*
X715Y134D02*
X724Y134D01*
X755Y134D02*
X764Y134D01*
X787Y134D02*
X798Y134D01*
X827Y134D02*
X836Y134D01*
X859Y134D02*
X868Y134D01*
X899Y134D02*
X908Y134D01*
X941Y134D02*
X950Y134D01*
X1023Y134D02*
X1032Y134D01*
X1076Y134D02*
X1086Y134D01*
X1150Y134D02*
X1166Y134D01*
X462Y133D02*
X471Y133D01*
X509Y133D02*
X545Y133D01*
X643Y133D02*
X652Y133D01*
X663Y133D02*
X674Y133D01*
X715Y133D02*
X724Y133D01*
X755Y133D02*
X764Y133D01*
X787Y133D02*
X797Y133D01*
X827Y133D02*
X836Y133D01*
X859Y133D02*
X868Y133D01*
X899Y133D02*
X908Y133D01*
X941Y133D02*
X950Y133D01*
X1023Y133D02*
X1032Y133D01*
X1075Y133D02*
X1085Y133D01*
X1150Y133D02*
X1168Y133D01*
X462Y132D02*
X471Y132D01*
X510Y132D02*
X546Y132D01*
X643Y132D02*
X652Y132D01*
X664Y132D02*
X674Y132D01*
X715Y132D02*
X724Y132D01*
X755Y132D02*
X764Y132D01*
X787Y132D02*
X796Y132D01*
X827Y132D02*
X836Y132D01*
X859Y132D02*
X868Y132D01*
X899Y132D02*
X908Y132D01*
X941Y132D02*
X950Y132D01*
X1023Y132D02*
X1032Y132D01*
X1075Y132D02*
X1084Y132D01*
X1151Y132D02*
X1171Y132D01*
X435Y131D02*
X438Y131D01*
X462Y131D02*
X471Y131D01*
X511Y131D02*
X546Y131D01*
X643Y131D02*
X652Y131D01*
X664Y131D02*
X675Y131D01*
X715Y131D02*
X724Y131D01*
X755Y131D02*
X764Y131D01*
X787Y131D02*
X796Y131D01*
X827Y131D02*
X836Y131D01*
X859Y131D02*
X868Y131D01*
X899Y131D02*
X908Y131D01*
X941Y131D02*
X950Y131D01*
X1023Y131D02*
X1032Y131D01*
X1075Y131D02*
X1084Y131D01*
X1152Y131D02*
X1173Y131D01*
X434Y130D02*
X439Y130D01*
X462Y130D02*
X471Y130D01*
X513Y130D02*
X547Y130D01*
X643Y130D02*
X652Y130D01*
X665Y130D02*
X676Y130D01*
X715Y130D02*
X724Y130D01*
X755Y130D02*
X764Y130D01*
X787Y130D02*
X796Y130D01*
X827Y130D02*
X836Y130D01*
X859Y130D02*
X868Y130D01*
X899Y130D02*
X908Y130D01*
X941Y130D02*
X950Y130D01*
X1023Y130D02*
X1032Y130D01*
X1075Y130D02*
X1084Y130D01*
X1153Y130D02*
X1175Y130D01*
X433Y129D02*
X440Y129D01*
X462Y129D02*
X471Y129D01*
X536Y129D02*
X547Y129D01*
X643Y129D02*
X652Y129D01*
X665Y129D02*
X676Y129D01*
X715Y129D02*
X724Y129D01*
X755Y129D02*
X764Y129D01*
X787Y129D02*
X796Y129D01*
X827Y129D02*
X836Y129D01*
X859Y129D02*
X868Y129D01*
X899Y129D02*
X908Y129D01*
X941Y129D02*
X950Y129D01*
X1023Y129D02*
X1032Y129D01*
X1075Y129D02*
X1084Y129D01*
X1154Y129D02*
X1178Y129D01*
X432Y128D02*
X441Y128D01*
X462Y128D02*
X471Y128D01*
X537Y128D02*
X547Y128D01*
X643Y128D02*
X652Y128D01*
X666Y128D02*
X677Y128D01*
X715Y128D02*
X724Y128D01*
X755Y128D02*
X764Y128D01*
X787Y128D02*
X796Y128D01*
X827Y128D02*
X836Y128D01*
X859Y128D02*
X868Y128D01*
X899Y128D02*
X908Y128D01*
X941Y128D02*
X950Y128D01*
X1023Y128D02*
X1032Y128D01*
X1075Y128D02*
X1084Y128D01*
X1156Y128D02*
X1180Y128D01*
X432Y127D02*
X441Y127D01*
X462Y127D02*
X471Y127D01*
X538Y127D02*
X548Y127D01*
X643Y127D02*
X652Y127D01*
X667Y127D02*
X677Y127D01*
X715Y127D02*
X724Y127D01*
X755Y127D02*
X764Y127D01*
X787Y127D02*
X796Y127D01*
X827Y127D02*
X836Y127D01*
X859Y127D02*
X868Y127D01*
X899Y127D02*
X908Y127D01*
X941Y127D02*
X950Y127D01*
X1023Y127D02*
X1032Y127D01*
X1075Y127D02*
X1084Y127D01*
X1158Y127D02*
X1182Y127D01*
X432Y126D02*
X441Y126D01*
X462Y126D02*
X471Y126D01*
X538Y126D02*
X548Y126D01*
X643Y126D02*
X652Y126D01*
X667Y126D02*
X678Y126D01*
X715Y126D02*
X724Y126D01*
X755Y126D02*
X764Y126D01*
X787Y126D02*
X796Y126D01*
X827Y126D02*
X836Y126D01*
X859Y126D02*
X868Y126D01*
X899Y126D02*
X908Y126D01*
X941Y126D02*
X950Y126D01*
X1023Y126D02*
X1032Y126D01*
X1075Y126D02*
X1084Y126D01*
X1160Y126D02*
X1185Y126D01*
X432Y125D02*
X441Y125D01*
X462Y125D02*
X471Y125D01*
X539Y125D02*
X548Y125D01*
X643Y125D02*
X652Y125D01*
X668Y125D02*
X679Y125D01*
X715Y125D02*
X724Y125D01*
X755Y125D02*
X764Y125D01*
X787Y125D02*
X796Y125D01*
X827Y125D02*
X836Y125D01*
X859Y125D02*
X868Y125D01*
X899Y125D02*
X908Y125D01*
X941Y125D02*
X950Y125D01*
X1023Y125D02*
X1032Y125D01*
X1075Y125D02*
X1084Y125D01*
X1163Y125D02*
X1187Y125D01*
X432Y124D02*
X441Y124D01*
X462Y124D02*
X471Y124D01*
X539Y124D02*
X548Y124D01*
X643Y124D02*
X652Y124D01*
X668Y124D02*
X679Y124D01*
X715Y124D02*
X724Y124D01*
X755Y124D02*
X764Y124D01*
X787Y124D02*
X796Y124D01*
X827Y124D02*
X836Y124D01*
X859Y124D02*
X868Y124D01*
X899Y124D02*
X908Y124D01*
X941Y124D02*
X950Y124D01*
X1023Y124D02*
X1032Y124D01*
X1075Y124D02*
X1084Y124D01*
X1165Y124D02*
X1189Y124D01*
X432Y123D02*
X441Y123D01*
X462Y123D02*
X471Y123D01*
X539Y123D02*
X548Y123D01*
X643Y123D02*
X652Y123D01*
X669Y123D02*
X680Y123D01*
X715Y123D02*
X724Y123D01*
X755Y123D02*
X764Y123D01*
X787Y123D02*
X796Y123D01*
X827Y123D02*
X836Y123D01*
X859Y123D02*
X868Y123D01*
X899Y123D02*
X908Y123D01*
X941Y123D02*
X950Y123D01*
X1023Y123D02*
X1032Y123D01*
X1075Y123D02*
X1084Y123D01*
X1167Y123D02*
X1190Y123D01*
X432Y122D02*
X441Y122D01*
X462Y122D02*
X471Y122D01*
X539Y122D02*
X548Y122D01*
X643Y122D02*
X652Y122D01*
X669Y122D02*
X680Y122D01*
X715Y122D02*
X724Y122D01*
X755Y122D02*
X764Y122D01*
X787Y122D02*
X796Y122D01*
X827Y122D02*
X836Y122D01*
X859Y122D02*
X868Y122D01*
X899Y122D02*
X908Y122D01*
X941Y122D02*
X950Y122D01*
X1023Y122D02*
X1032Y122D01*
X1075Y122D02*
X1084Y122D01*
X1170Y122D02*
X1191Y122D01*
X432Y121D02*
X441Y121D01*
X462Y121D02*
X471Y121D01*
X539Y121D02*
X548Y121D01*
X643Y121D02*
X652Y121D01*
X670Y121D02*
X681Y121D01*
X715Y121D02*
X724Y121D01*
X755Y121D02*
X764Y121D01*
X787Y121D02*
X796Y121D01*
X827Y121D02*
X836Y121D01*
X859Y121D02*
X868Y121D01*
X899Y121D02*
X908Y121D01*
X941Y121D02*
X950Y121D01*
X1023Y121D02*
X1032Y121D01*
X1075Y121D02*
X1084Y121D01*
X1172Y121D02*
X1192Y121D01*
X432Y120D02*
X441Y120D01*
X462Y120D02*
X471Y120D01*
X539Y120D02*
X548Y120D01*
X643Y120D02*
X652Y120D01*
X671Y120D02*
X681Y120D01*
X715Y120D02*
X724Y120D01*
X755Y120D02*
X764Y120D01*
X787Y120D02*
X796Y120D01*
X827Y120D02*
X836Y120D01*
X859Y120D02*
X868Y120D01*
X899Y120D02*
X908Y120D01*
X941Y120D02*
X950Y120D01*
X1023Y120D02*
X1032Y120D01*
X1075Y120D02*
X1084Y120D01*
X1174Y120D02*
X1193Y120D01*
X432Y119D02*
X441Y119D01*
X462Y119D02*
X471Y119D01*
X539Y119D02*
X548Y119D01*
X643Y119D02*
X652Y119D01*
X671Y119D02*
X682Y119D01*
X715Y119D02*
X724Y119D01*
X755Y119D02*
X764Y119D01*
X787Y119D02*
X796Y119D01*
X827Y119D02*
X836Y119D01*
X859Y119D02*
X868Y119D01*
X899Y119D02*
X908Y119D01*
X941Y119D02*
X950Y119D01*
X1023Y119D02*
X1032Y119D01*
X1075Y119D02*
X1084Y119D01*
X1176Y119D02*
X1193Y119D01*
X432Y118D02*
X441Y118D01*
X462Y118D02*
X471Y118D01*
X539Y118D02*
X548Y118D01*
X643Y118D02*
X652Y118D01*
X672Y118D02*
X683Y118D01*
X715Y118D02*
X724Y118D01*
X755Y118D02*
X764Y118D01*
X787Y118D02*
X796Y118D01*
X827Y118D02*
X836Y118D01*
X859Y118D02*
X868Y118D01*
X899Y118D02*
X908Y118D01*
X941Y118D02*
X950Y118D01*
X1023Y118D02*
X1032Y118D01*
X1075Y118D02*
X1084Y118D01*
X1179Y118D02*
X1194Y118D01*
X432Y117D02*
X441Y117D01*
X462Y117D02*
X471Y117D01*
X539Y117D02*
X548Y117D01*
X643Y117D02*
X652Y117D01*
X672Y117D02*
X683Y117D01*
X715Y117D02*
X724Y117D01*
X755Y117D02*
X764Y117D01*
X787Y117D02*
X796Y117D01*
X827Y117D02*
X836Y117D01*
X859Y117D02*
X868Y117D01*
X899Y117D02*
X908Y117D01*
X941Y117D02*
X950Y117D01*
X1023Y117D02*
X1032Y117D01*
X1075Y117D02*
X1084Y117D01*
X1181Y117D02*
X1194Y117D01*
X432Y116D02*
X441Y116D01*
X462Y116D02*
X471Y116D01*
X539Y116D02*
X548Y116D01*
X643Y116D02*
X652Y116D01*
X673Y116D02*
X684Y116D01*
X715Y116D02*
X724Y116D01*
X755Y116D02*
X764Y116D01*
X787Y116D02*
X797Y116D01*
X827Y116D02*
X836Y116D01*
X859Y116D02*
X868Y116D01*
X899Y116D02*
X908Y116D01*
X941Y116D02*
X950Y116D01*
X1023Y116D02*
X1032Y116D01*
X1075Y116D02*
X1085Y116D01*
X1183Y116D02*
X1195Y116D01*
X432Y115D02*
X441Y115D01*
X462Y115D02*
X471Y115D01*
X539Y115D02*
X548Y115D01*
X643Y115D02*
X652Y115D01*
X674Y115D02*
X684Y115D01*
X715Y115D02*
X724Y115D01*
X755Y115D02*
X764Y115D01*
X787Y115D02*
X797Y115D01*
X827Y115D02*
X836Y115D01*
X859Y115D02*
X868Y115D01*
X899Y115D02*
X908Y115D01*
X941Y115D02*
X950Y115D01*
X1023Y115D02*
X1032Y115D01*
X1075Y115D02*
X1085Y115D01*
X1185Y115D02*
X1195Y115D01*
X432Y114D02*
X441Y114D01*
X462Y114D02*
X471Y114D01*
X539Y114D02*
X548Y114D01*
X643Y114D02*
X652Y114D01*
X674Y114D02*
X685Y114D01*
X715Y114D02*
X724Y114D01*
X755Y114D02*
X764Y114D01*
X787Y114D02*
X798Y114D01*
X827Y114D02*
X836Y114D01*
X859Y114D02*
X868Y114D01*
X899Y114D02*
X908Y114D01*
X941Y114D02*
X950Y114D01*
X974Y114D02*
X976Y114D01*
X1023Y114D02*
X1032Y114D01*
X1076Y114D02*
X1086Y114D01*
X1186Y114D02*
X1195Y114D01*
X432Y113D02*
X441Y113D01*
X462Y113D02*
X471Y113D01*
X539Y113D02*
X548Y113D01*
X643Y113D02*
X652Y113D01*
X675Y113D02*
X686Y113D01*
X715Y113D02*
X724Y113D01*
X755Y113D02*
X764Y113D01*
X787Y113D02*
X800Y113D01*
X827Y113D02*
X836Y113D01*
X859Y113D02*
X868Y113D01*
X899Y113D02*
X908Y113D01*
X941Y113D02*
X950Y113D01*
X973Y113D02*
X978Y113D01*
X1023Y113D02*
X1032Y113D01*
X1076Y113D02*
X1087Y113D01*
X1186Y113D02*
X1196Y113D01*
X432Y112D02*
X441Y112D01*
X462Y112D02*
X471Y112D01*
X539Y112D02*
X548Y112D01*
X643Y112D02*
X652Y112D01*
X675Y112D02*
X686Y112D01*
X715Y112D02*
X725Y112D01*
X754Y112D02*
X764Y112D01*
X787Y112D02*
X801Y112D01*
X826Y112D02*
X836Y112D01*
X859Y112D02*
X869Y112D01*
X898Y112D02*
X908Y112D01*
X941Y112D02*
X950Y112D01*
X972Y112D02*
X979Y112D01*
X1023Y112D02*
X1032Y112D01*
X1076Y112D02*
X1089Y112D01*
X1186Y112D02*
X1196Y112D01*
X432Y111D02*
X441Y111D01*
X462Y111D02*
X471Y111D01*
X539Y111D02*
X548Y111D01*
X643Y111D02*
X652Y111D01*
X676Y111D02*
X687Y111D01*
X715Y111D02*
X725Y111D01*
X754Y111D02*
X764Y111D01*
X787Y111D02*
X802Y111D01*
X826Y111D02*
X836Y111D01*
X859Y111D02*
X869Y111D01*
X898Y111D02*
X908Y111D01*
X941Y111D02*
X950Y111D01*
X971Y111D02*
X979Y111D01*
X1023Y111D02*
X1032Y111D01*
X1077Y111D02*
X1090Y111D01*
X1186Y111D02*
X1196Y111D01*
X432Y110D02*
X441Y110D01*
X462Y110D02*
X471Y110D01*
X539Y110D02*
X548Y110D01*
X643Y110D02*
X652Y110D01*
X676Y110D02*
X687Y110D01*
X716Y110D02*
X726Y110D01*
X753Y110D02*
X763Y110D01*
X787Y110D02*
X803Y110D01*
X825Y110D02*
X835Y110D01*
X860Y110D02*
X870Y110D01*
X897Y110D02*
X907Y110D01*
X941Y110D02*
X950Y110D01*
X971Y110D02*
X980Y110D01*
X1023Y110D02*
X1032Y110D01*
X1077Y110D02*
X1091Y110D01*
X1186Y110D02*
X1196Y110D01*
X432Y109D02*
X441Y109D01*
X461Y109D02*
X471Y109D01*
X539Y109D02*
X548Y109D01*
X643Y109D02*
X652Y109D01*
X677Y109D02*
X688Y109D01*
X716Y109D02*
X727Y109D01*
X752Y109D02*
X763Y109D01*
X787Y109D02*
X804Y109D01*
X824Y109D02*
X835Y109D01*
X860Y109D02*
X871Y109D01*
X896Y109D02*
X907Y109D01*
X941Y109D02*
X950Y109D01*
X970Y109D02*
X980Y109D01*
X1023Y109D02*
X1032Y109D01*
X1078Y109D02*
X1092Y109D01*
X1149Y109D02*
X1154Y109D01*
X1186Y109D02*
X1196Y109D01*
X432Y108D02*
X442Y108D01*
X461Y108D02*
X471Y108D01*
X539Y108D02*
X548Y108D01*
X643Y108D02*
X652Y108D01*
X678Y108D02*
X688Y108D01*
X716Y108D02*
X728Y108D01*
X751Y108D02*
X763Y108D01*
X787Y108D02*
X805Y108D01*
X823Y108D02*
X835Y108D01*
X860Y108D02*
X872Y108D01*
X895Y108D02*
X907Y108D01*
X941Y108D02*
X951Y108D01*
X970Y108D02*
X980Y108D01*
X1023Y108D02*
X1032Y108D01*
X1079Y108D02*
X1093Y108D01*
X1148Y108D02*
X1156Y108D01*
X1185Y108D02*
X1195Y108D01*
X432Y107D02*
X443Y107D01*
X460Y107D02*
X470Y107D01*
X539Y107D02*
X548Y107D01*
X643Y107D02*
X652Y107D01*
X678Y107D02*
X689Y107D01*
X717Y107D02*
X730Y107D01*
X749Y107D02*
X762Y107D01*
X787Y107D02*
X807Y107D01*
X821Y107D02*
X834Y107D01*
X861Y107D02*
X874Y107D01*
X893Y107D02*
X906Y107D01*
X941Y107D02*
X952Y107D01*
X969Y107D02*
X979Y107D01*
X1023Y107D02*
X1032Y107D01*
X1080Y107D02*
X1095Y107D01*
X1147Y107D02*
X1157Y107D01*
X1184Y107D02*
X1195Y107D01*
X433Y106D02*
X445Y106D01*
X458Y106D02*
X470Y106D01*
X539Y106D02*
X548Y106D01*
X643Y106D02*
X652Y106D01*
X679Y106D02*
X690Y106D01*
X717Y106D02*
X732Y106D01*
X747Y106D02*
X762Y106D01*
X787Y106D02*
X809Y106D01*
X819Y106D02*
X834Y106D01*
X861Y106D02*
X876Y106D01*
X891Y106D02*
X906Y106D01*
X942Y106D02*
X954Y106D01*
X967Y106D02*
X979Y106D01*
X1023Y106D02*
X1032Y106D01*
X1081Y106D02*
X1097Y106D01*
X1147Y106D02*
X1160Y106D01*
X1183Y106D02*
X1195Y106D01*
X433Y105D02*
X470Y105D01*
X501Y105D02*
X548Y105D01*
X643Y105D02*
X652Y105D01*
X679Y105D02*
X690Y105D01*
X718Y105D02*
X761Y105D01*
X787Y105D02*
X833Y105D01*
X862Y105D02*
X905Y105D01*
X942Y105D02*
X979Y105D01*
X1010Y105D02*
X1044Y105D01*
X1082Y105D02*
X1121Y105D01*
X1147Y105D02*
X1194Y105D01*
X434Y104D02*
X469Y104D01*
X500Y104D02*
X548Y104D01*
X643Y104D02*
X652Y104D01*
X680Y104D02*
X691Y104D01*
X719Y104D02*
X760Y104D01*
X787Y104D02*
X832Y104D01*
X863Y104D02*
X904Y104D01*
X943Y104D02*
X978Y104D01*
X1009Y104D02*
X1046Y104D01*
X1083Y104D02*
X1123Y104D01*
X1147Y104D02*
X1194Y104D01*
X434Y103D02*
X469Y103D01*
X500Y103D02*
X547Y103D01*
X643Y103D02*
X652Y103D01*
X681Y103D02*
X691Y103D01*
X720Y103D02*
X759Y103D01*
X787Y103D02*
X831Y103D01*
X864Y103D02*
X903Y103D01*
X943Y103D02*
X978Y103D01*
X1009Y103D02*
X1046Y103D01*
X1085Y103D02*
X1123Y103D01*
X1147Y103D02*
X1193Y103D01*
X435Y102D02*
X468Y102D01*
X499Y102D02*
X547Y102D01*
X643Y102D02*
X652Y102D01*
X681Y102D02*
X692Y102D01*
X721Y102D02*
X758Y102D01*
X787Y102D02*
X830Y102D01*
X865Y102D02*
X902Y102D01*
X944Y102D02*
X977Y102D01*
X1008Y102D02*
X1047Y102D01*
X1086Y102D02*
X1124Y102D01*
X1148Y102D02*
X1193Y102D01*
X436Y101D02*
X467Y101D01*
X499Y101D02*
X547Y101D01*
X643Y101D02*
X652Y101D01*
X682Y101D02*
X692Y101D01*
X722Y101D02*
X757Y101D01*
X787Y101D02*
X796Y101D01*
X799Y101D02*
X829Y101D01*
X866Y101D02*
X901Y101D01*
X945Y101D02*
X976Y101D01*
X1008Y101D02*
X1047Y101D01*
X1087Y101D02*
X1124Y101D01*
X1149Y101D02*
X1192Y101D01*
X437Y100D02*
X466Y100D01*
X499Y100D02*
X546Y100D01*
X643Y100D02*
X652Y100D01*
X682Y100D02*
X692Y100D01*
X723Y100D02*
X756Y100D01*
X787Y100D02*
X796Y100D01*
X800Y100D02*
X828Y100D01*
X867Y100D02*
X900Y100D01*
X946Y100D02*
X975Y100D01*
X1008Y100D02*
X1047Y100D01*
X1088Y100D02*
X1124Y100D01*
X1150Y100D02*
X1191Y100D01*
X438Y99D02*
X465Y99D01*
X499Y99D02*
X545Y99D01*
X643Y99D02*
X652Y99D01*
X683Y99D02*
X691Y99D01*
X724Y99D02*
X754Y99D01*
X787Y99D02*
X796Y99D01*
X801Y99D02*
X826Y99D01*
X868Y99D02*
X898Y99D01*
X947Y99D02*
X974Y99D01*
X1008Y99D02*
X1046Y99D01*
X1089Y99D02*
X1123Y99D01*
X1152Y99D02*
X1190Y99D01*
X439Y98D02*
X464Y98D01*
X500Y98D02*
X544Y98D01*
X644Y98D02*
X651Y98D01*
X684Y98D02*
X691Y98D01*
X726Y98D02*
X753Y98D01*
X788Y98D02*
X795Y98D01*
X803Y98D02*
X825Y98D01*
X870Y98D02*
X897Y98D01*
X948Y98D02*
X973Y98D01*
X1009Y98D02*
X1046Y98D01*
X1091Y98D02*
X1123Y98D01*
X1154Y98D02*
X1188Y98D01*
X441Y97D02*
X462Y97D01*
X501Y97D02*
X542Y97D01*
X645Y97D02*
X650Y97D01*
X684Y97D02*
X690Y97D01*
X728Y97D02*
X751Y97D01*
X789Y97D02*
X794Y97D01*
X805Y97D02*
X823Y97D01*
X872Y97D02*
X895Y97D01*
X950Y97D02*
X971Y97D01*
X1010Y97D02*
X1045Y97D01*
X1093Y97D02*
X1122Y97D01*
X1156Y97D02*
X1186Y97D01*
X444Y96D02*
X458Y96D01*
X503Y96D02*
X540Y96D01*
X647Y96D02*
X648Y96D01*
X686Y96D02*
X688Y96D01*
X731Y96D02*
X748Y96D01*
X791Y96D02*
X792Y96D01*
X808Y96D02*
X820Y96D01*
X875Y96D02*
X892Y96D01*
X953Y96D02*
X968Y96D01*
X1012Y96D02*
X1043Y96D01*
X1096Y96D02*
X1120Y96D01*
X1160Y96D02*
X1183Y96D01*
X574Y95D02*
X617Y95D01*
X572Y94D02*
X618Y94D01*
X572Y93D02*
X619Y93D01*
X571Y92D02*
X620Y92D01*
X571Y91D02*
X620Y91D01*
X571Y90D02*
X620Y90D01*
X571Y89D02*
X619Y89D01*
X572Y88D02*
X619Y88D01*
X573Y87D02*
X618Y87D01*
X574Y86D02*
X617Y86D01*
D02*
G04 End of Copper1*
M02*