G04 MADE WITH FRITZING*
G04 WWW.FRITZING.ORG*
G04 DOUBLE SIDED*
G04 HOLES PLATED*
G04 CONTOUR ON CENTER OF CONTOUR VECTOR*
%ASAXBY*%
%FSLAX23Y23*%
%MOIN*%
%OFA0B0*%
%SFA1.0B1.0*%
%ADD10C,0.070000*%
%ADD11C,0.074000*%
%ADD12C,0.140000*%
%ADD13C,0.078000*%
%ADD14C,0.082000*%
%ADD15C,0.080000*%
%ADD16R,0.070000X0.069972*%
%ADD17R,0.078000X0.078000*%
%ADD18R,0.082000X0.082000*%
%ADD19R,0.080000X0.080000*%
%ADD20C,0.024000*%
%ADD21C,0.020000*%
%ADD22R,0.001000X0.001000*%
%LNCOPPER0*%
G90*
G70*
G54D10*
X1986Y1113D03*
X1886Y1113D03*
X1786Y1113D03*
X1686Y1113D03*
X1586Y1113D03*
X1486Y1113D03*
X1386Y1113D03*
X1286Y1113D03*
X1186Y1113D03*
X1086Y1113D03*
X986Y1113D03*
X886Y1113D03*
X786Y1113D03*
X686Y1113D03*
X586Y1113D03*
X1986Y513D03*
X1886Y513D03*
X1786Y513D03*
X1686Y513D03*
X1586Y513D03*
X1486Y513D03*
X1386Y513D03*
X1286Y513D03*
X1186Y513D03*
X1086Y513D03*
X986Y513D03*
X886Y513D03*
X786Y513D03*
X686Y513D03*
X586Y513D03*
G54D11*
X2186Y2513D03*
X286Y2463D03*
X2186Y1663D03*
X2186Y1463D03*
G54D12*
X786Y3513D03*
X986Y3513D03*
X1486Y3513D03*
X1686Y3513D03*
X1136Y1363D03*
G54D11*
X286Y1663D03*
G54D12*
X1336Y1363D03*
G54D11*
X2186Y2063D03*
X286Y2363D03*
X286Y1863D03*
X286Y1463D03*
X2186Y1863D03*
X2186Y2313D03*
X2186Y2713D03*
X2186Y2913D03*
X286Y2163D03*
X286Y2563D03*
X286Y1963D03*
X286Y1763D03*
X286Y1563D03*
X2186Y3013D03*
X2186Y1763D03*
X2186Y1963D03*
X2186Y2163D03*
X2186Y2413D03*
X2186Y2613D03*
X2186Y2813D03*
X286Y2263D03*
X286Y2663D03*
X2186Y1563D03*
G54D13*
X2486Y3013D03*
X2486Y3113D03*
X2486Y3213D03*
X2486Y3313D03*
X2586Y2613D03*
X2486Y2613D03*
X2386Y2613D03*
X2586Y2813D03*
X2486Y2813D03*
X2386Y2813D03*
X2586Y2413D03*
X2486Y2413D03*
X2386Y2413D03*
X2586Y2213D03*
X2486Y2213D03*
X2386Y2213D03*
X2586Y2013D03*
X2486Y2013D03*
X2386Y2013D03*
X2586Y1813D03*
X2486Y1813D03*
X2386Y1813D03*
X2586Y1613D03*
X2486Y1613D03*
X2386Y1613D03*
X2586Y1413D03*
X2486Y1413D03*
X2386Y1413D03*
X2586Y1213D03*
X2486Y1213D03*
X2386Y1213D03*
X2586Y1013D03*
X2486Y1013D03*
X2386Y1013D03*
X2586Y813D03*
X2486Y813D03*
X2386Y813D03*
X2586Y613D03*
X2486Y613D03*
X2386Y613D03*
X86Y913D03*
X186Y913D03*
X286Y913D03*
X86Y813D03*
X186Y813D03*
X286Y813D03*
X86Y713D03*
X186Y713D03*
X286Y713D03*
X86Y613D03*
X186Y613D03*
X286Y613D03*
G54D14*
X1686Y313D03*
X1586Y313D03*
X1486Y313D03*
G54D15*
X2386Y213D03*
X2524Y213D03*
G54D13*
X586Y2613D03*
X686Y2613D03*
X786Y2613D03*
X886Y2613D03*
X586Y2513D03*
X686Y2513D03*
X786Y2513D03*
X886Y2513D03*
X1486Y2513D03*
X1586Y2513D03*
X1686Y2513D03*
X1786Y2513D03*
X1486Y2613D03*
X1586Y2613D03*
X1686Y2613D03*
X1786Y2613D03*
X2386Y3513D03*
X2486Y3513D03*
X2586Y3513D03*
G54D14*
X1886Y313D03*
X2184Y313D03*
G54D16*
X1986Y1113D03*
G54D17*
X2586Y2613D03*
X2586Y2813D03*
X2586Y2413D03*
X2586Y2213D03*
X2586Y2013D03*
X2586Y1813D03*
X2586Y1613D03*
X2586Y1413D03*
X2586Y1213D03*
X2586Y1013D03*
X2586Y813D03*
X2586Y613D03*
X86Y813D03*
X86Y713D03*
X86Y613D03*
G54D18*
X1686Y313D03*
G54D19*
X2386Y213D03*
G54D18*
X1885Y313D03*
G54D20*
X2286Y1413D02*
X2281Y1337D01*
D02*
X2287Y714D02*
X2187Y614D01*
D02*
X2372Y1586D02*
X2286Y1413D01*
D02*
X2187Y614D02*
X1185Y614D01*
D02*
X1185Y614D02*
X1106Y534D01*
D02*
X2281Y1337D02*
X2287Y714D01*
D02*
X2088Y714D02*
X1185Y714D01*
D02*
X1185Y714D02*
X1006Y534D01*
D02*
X2187Y813D02*
X2088Y714D01*
D02*
X2187Y1315D02*
X2187Y813D01*
D02*
X2286Y1513D02*
X2186Y1313D01*
D02*
X2186Y1313D02*
X2187Y1315D01*
D02*
X2286Y1613D02*
X2286Y1513D01*
D02*
X2365Y1792D02*
X2286Y1713D01*
D02*
X2286Y1713D02*
X2286Y1613D01*
D02*
X1190Y809D02*
X1086Y713D01*
D02*
X1086Y713D02*
X906Y534D01*
D02*
X1982Y817D02*
X1190Y809D01*
D02*
X2086Y913D02*
X1982Y817D01*
D02*
X2086Y1713D02*
X2086Y913D01*
D02*
X2158Y1749D02*
X2086Y1713D01*
D02*
X2214Y1777D02*
X2286Y1813D01*
D02*
X2286Y1813D02*
X2372Y1986D01*
D02*
X2086Y2213D02*
X2286Y2213D01*
D02*
X1986Y2113D02*
X2086Y2113D01*
D02*
X1906Y1134D02*
X1986Y1213D01*
D02*
X1986Y1213D02*
X1986Y2113D01*
D02*
X2286Y2213D02*
X2372Y2386D01*
D02*
X2086Y2113D02*
X2086Y2213D01*
D02*
X2286Y2513D02*
X2365Y2592D01*
D02*
X2217Y2513D02*
X2286Y2513D01*
D02*
X2217Y2613D02*
X2286Y2613D01*
D02*
X2286Y2613D02*
X2372Y2786D01*
D02*
X2686Y2913D02*
X2686Y2413D01*
D02*
X2686Y2413D02*
X2686Y2313D01*
D02*
X2586Y3013D02*
X2686Y2913D01*
D02*
X2686Y2313D02*
X2586Y2313D01*
D02*
X2516Y3013D02*
X2586Y3013D01*
D02*
X2586Y2313D02*
X2486Y2313D01*
D02*
X2486Y2313D02*
X2407Y2234D01*
D02*
X2386Y2913D02*
X2465Y2834D01*
D02*
X2386Y3213D02*
X2386Y2913D01*
D02*
X2456Y3213D02*
X2386Y3213D01*
D02*
X386Y2313D02*
X486Y2313D01*
D02*
X486Y2313D02*
X586Y2413D01*
D02*
X314Y2277D02*
X386Y2313D01*
D02*
X586Y2413D02*
X586Y2483D01*
D02*
X786Y2713D02*
X786Y2643D01*
D02*
X886Y2813D02*
X786Y2713D01*
D02*
X986Y2813D02*
X886Y2813D01*
D02*
X1086Y2713D02*
X986Y2813D01*
D02*
X1086Y1142D02*
X1086Y2713D01*
D02*
X986Y2513D02*
X907Y2592D01*
D02*
X986Y1142D02*
X986Y2513D01*
D02*
X1286Y2513D02*
X1456Y2513D01*
D02*
X1186Y2613D02*
X1286Y2513D01*
D02*
X1186Y2713D02*
X1186Y2613D01*
D02*
X986Y2913D02*
X1186Y2713D01*
D02*
X586Y2913D02*
X986Y2913D01*
D02*
X486Y2813D02*
X586Y2913D01*
D02*
X486Y2613D02*
X486Y2813D01*
D02*
X565Y2534D02*
X486Y2613D01*
D02*
X2386Y3413D02*
X2386Y3213D01*
D02*
X2386Y3213D02*
X2456Y3213D01*
D02*
X2465Y3492D02*
X2386Y3413D01*
D02*
X2586Y3213D02*
X2586Y3113D01*
D02*
X2586Y3113D02*
X2507Y3034D01*
D02*
X2586Y3483D02*
X2586Y3213D01*
D02*
X2513Y184D02*
X2486Y113D01*
D02*
X2486Y113D02*
X2186Y113D01*
D02*
X2186Y113D02*
X1686Y113D01*
D02*
X1686Y113D02*
X1586Y213D01*
D02*
X1586Y213D02*
X1586Y281D01*
G54D21*
X57Y942D02*
X115Y942D01*
X115Y884D01*
X57Y884D01*
X57Y942D01*
D02*
G54D22*
X232Y3279D02*
X309Y3279D01*
X401Y3279D02*
X459Y3279D01*
X588Y3279D02*
X699Y3279D01*
X767Y3279D02*
X896Y3279D01*
X1013Y3279D02*
X1025Y3279D01*
X1187Y3279D02*
X1271Y3279D01*
X1389Y3279D02*
X1401Y3279D01*
X1551Y3279D02*
X1647Y3279D01*
X1914Y3279D02*
X2014Y3279D01*
X2104Y3279D02*
X2111Y3279D01*
X228Y3278D02*
X313Y3278D01*
X398Y3278D02*
X464Y3278D01*
X586Y3278D02*
X701Y3278D01*
X767Y3278D02*
X896Y3278D01*
X1009Y3278D02*
X1029Y3278D01*
X1182Y3278D02*
X1271Y3278D01*
X1385Y3278D02*
X1405Y3278D01*
X1546Y3278D02*
X1647Y3278D01*
X1911Y3278D02*
X2016Y3278D01*
X2102Y3278D02*
X2113Y3278D01*
X225Y3277D02*
X315Y3277D01*
X397Y3277D02*
X466Y3277D01*
X585Y3277D02*
X703Y3277D01*
X767Y3277D02*
X896Y3277D01*
X1007Y3277D02*
X1032Y3277D01*
X1179Y3277D02*
X1271Y3277D01*
X1382Y3277D02*
X1408Y3277D01*
X1544Y3277D02*
X1647Y3277D01*
X1909Y3277D02*
X2017Y3277D01*
X2100Y3277D02*
X2115Y3277D01*
X223Y3276D02*
X317Y3276D01*
X396Y3276D02*
X469Y3276D01*
X583Y3276D02*
X704Y3276D01*
X767Y3276D02*
X896Y3276D01*
X1005Y3276D02*
X1034Y3276D01*
X1176Y3276D02*
X1271Y3276D01*
X1380Y3276D02*
X1410Y3276D01*
X1541Y3276D02*
X1647Y3276D01*
X1907Y3276D02*
X2019Y3276D01*
X2099Y3276D02*
X2116Y3276D01*
X222Y3275D02*
X319Y3275D01*
X395Y3275D02*
X471Y3275D01*
X582Y3275D02*
X705Y3275D01*
X767Y3275D02*
X896Y3275D01*
X1003Y3275D02*
X1036Y3275D01*
X1174Y3275D02*
X1271Y3275D01*
X1378Y3275D02*
X1411Y3275D01*
X1539Y3275D02*
X1647Y3275D01*
X1906Y3275D02*
X2020Y3275D01*
X2098Y3275D02*
X2117Y3275D01*
X220Y3274D02*
X320Y3274D01*
X394Y3274D02*
X473Y3274D01*
X582Y3274D02*
X706Y3274D01*
X767Y3274D02*
X896Y3274D01*
X1001Y3274D02*
X1038Y3274D01*
X1172Y3274D02*
X1271Y3274D01*
X1377Y3274D02*
X1413Y3274D01*
X1538Y3274D02*
X1647Y3274D01*
X1904Y3274D02*
X2020Y3274D01*
X2097Y3274D02*
X2118Y3274D01*
X219Y3273D02*
X321Y3273D01*
X393Y3273D02*
X474Y3273D01*
X581Y3273D02*
X706Y3273D01*
X767Y3273D02*
X896Y3273D01*
X1000Y3273D02*
X1039Y3273D01*
X1170Y3273D02*
X1271Y3273D01*
X1375Y3273D02*
X1414Y3273D01*
X1536Y3273D02*
X1647Y3273D01*
X1903Y3273D02*
X2021Y3273D01*
X2096Y3273D02*
X2118Y3273D01*
X217Y3272D02*
X323Y3272D01*
X393Y3272D02*
X476Y3272D01*
X580Y3272D02*
X707Y3272D01*
X767Y3272D02*
X896Y3272D01*
X998Y3272D02*
X1040Y3272D01*
X1168Y3272D02*
X1271Y3272D01*
X1374Y3272D02*
X1416Y3272D01*
X1535Y3272D02*
X1647Y3272D01*
X1902Y3272D02*
X2021Y3272D01*
X2096Y3272D02*
X2119Y3272D01*
X216Y3271D02*
X324Y3271D01*
X392Y3271D02*
X477Y3271D01*
X580Y3271D02*
X707Y3271D01*
X767Y3271D02*
X896Y3271D01*
X997Y3271D02*
X1041Y3271D01*
X1167Y3271D02*
X1271Y3271D01*
X1373Y3271D02*
X1417Y3271D01*
X1533Y3271D02*
X1647Y3271D01*
X1901Y3271D02*
X2022Y3271D01*
X2095Y3271D02*
X2119Y3271D01*
X215Y3270D02*
X325Y3270D01*
X392Y3270D02*
X478Y3270D01*
X580Y3270D02*
X708Y3270D01*
X767Y3270D02*
X896Y3270D01*
X996Y3270D02*
X1042Y3270D01*
X1165Y3270D02*
X1271Y3270D01*
X1372Y3270D02*
X1418Y3270D01*
X1532Y3270D02*
X1647Y3270D01*
X1900Y3270D02*
X2022Y3270D01*
X2095Y3270D02*
X2119Y3270D01*
X214Y3269D02*
X326Y3269D01*
X392Y3269D02*
X479Y3269D01*
X579Y3269D02*
X708Y3269D01*
X767Y3269D02*
X896Y3269D01*
X995Y3269D02*
X1044Y3269D01*
X1164Y3269D02*
X1271Y3269D01*
X1371Y3269D02*
X1419Y3269D01*
X1531Y3269D02*
X1647Y3269D01*
X1899Y3269D02*
X2022Y3269D01*
X2095Y3269D02*
X2120Y3269D01*
X213Y3268D02*
X326Y3268D01*
X391Y3268D02*
X481Y3268D01*
X579Y3268D02*
X708Y3268D01*
X767Y3268D02*
X896Y3268D01*
X994Y3268D02*
X1045Y3268D01*
X1163Y3268D02*
X1271Y3268D01*
X1370Y3268D02*
X1420Y3268D01*
X1530Y3268D02*
X1647Y3268D01*
X1898Y3268D02*
X2023Y3268D01*
X2095Y3268D02*
X2120Y3268D01*
X212Y3267D02*
X327Y3267D01*
X391Y3267D02*
X482Y3267D01*
X579Y3267D02*
X708Y3267D01*
X767Y3267D02*
X896Y3267D01*
X993Y3267D02*
X1045Y3267D01*
X1161Y3267D02*
X1271Y3267D01*
X1369Y3267D02*
X1421Y3267D01*
X1529Y3267D02*
X1647Y3267D01*
X1898Y3267D02*
X2023Y3267D01*
X2095Y3267D02*
X2120Y3267D01*
X211Y3266D02*
X328Y3266D01*
X391Y3266D02*
X482Y3266D01*
X579Y3266D02*
X708Y3266D01*
X767Y3266D02*
X896Y3266D01*
X993Y3266D02*
X1046Y3266D01*
X1160Y3266D02*
X1271Y3266D01*
X1368Y3266D02*
X1422Y3266D01*
X1528Y3266D02*
X1647Y3266D01*
X1897Y3266D02*
X2023Y3266D01*
X2095Y3266D02*
X2120Y3266D01*
X210Y3265D02*
X328Y3265D01*
X391Y3265D02*
X483Y3265D01*
X579Y3265D02*
X708Y3265D01*
X767Y3265D02*
X896Y3265D01*
X992Y3265D02*
X1047Y3265D01*
X1159Y3265D02*
X1271Y3265D01*
X1367Y3265D02*
X1423Y3265D01*
X1527Y3265D02*
X1647Y3265D01*
X1897Y3265D02*
X2023Y3265D01*
X2095Y3265D02*
X2120Y3265D01*
X210Y3264D02*
X329Y3264D01*
X392Y3264D02*
X484Y3264D01*
X579Y3264D02*
X708Y3264D01*
X767Y3264D02*
X896Y3264D01*
X991Y3264D02*
X1048Y3264D01*
X1158Y3264D02*
X1271Y3264D01*
X1367Y3264D02*
X1423Y3264D01*
X1526Y3264D02*
X1647Y3264D01*
X1896Y3264D02*
X2022Y3264D01*
X2095Y3264D02*
X2120Y3264D01*
X209Y3263D02*
X330Y3263D01*
X392Y3263D02*
X485Y3263D01*
X580Y3263D02*
X707Y3263D01*
X767Y3263D02*
X896Y3263D01*
X990Y3263D02*
X1048Y3263D01*
X1157Y3263D02*
X1271Y3263D01*
X1366Y3263D02*
X1424Y3263D01*
X1526Y3263D02*
X1647Y3263D01*
X1896Y3263D02*
X2022Y3263D01*
X2095Y3263D02*
X2120Y3263D01*
X208Y3262D02*
X330Y3262D01*
X392Y3262D02*
X485Y3262D01*
X580Y3262D02*
X707Y3262D01*
X767Y3262D02*
X896Y3262D01*
X990Y3262D02*
X1049Y3262D01*
X1156Y3262D02*
X1271Y3262D01*
X1365Y3262D02*
X1424Y3262D01*
X1525Y3262D02*
X1647Y3262D01*
X1895Y3262D02*
X2022Y3262D01*
X2095Y3262D02*
X2120Y3262D01*
X208Y3261D02*
X330Y3261D01*
X393Y3261D02*
X486Y3261D01*
X580Y3261D02*
X707Y3261D01*
X767Y3261D02*
X896Y3261D01*
X989Y3261D02*
X1049Y3261D01*
X1155Y3261D02*
X1271Y3261D01*
X1365Y3261D02*
X1425Y3261D01*
X1524Y3261D02*
X1647Y3261D01*
X1895Y3261D02*
X2021Y3261D01*
X2095Y3261D02*
X2120Y3261D01*
X207Y3260D02*
X331Y3260D01*
X393Y3260D02*
X487Y3260D01*
X581Y3260D02*
X706Y3260D01*
X767Y3260D02*
X896Y3260D01*
X989Y3260D02*
X1050Y3260D01*
X1155Y3260D02*
X1271Y3260D01*
X1364Y3260D02*
X1426Y3260D01*
X1524Y3260D02*
X1647Y3260D01*
X1895Y3260D02*
X2021Y3260D01*
X2095Y3260D02*
X2120Y3260D01*
X207Y3259D02*
X331Y3259D01*
X394Y3259D02*
X487Y3259D01*
X582Y3259D02*
X706Y3259D01*
X767Y3259D02*
X896Y3259D01*
X988Y3259D02*
X1050Y3259D01*
X1154Y3259D02*
X1271Y3259D01*
X1364Y3259D02*
X1426Y3259D01*
X1523Y3259D02*
X1647Y3259D01*
X1894Y3259D02*
X2020Y3259D01*
X2095Y3259D02*
X2120Y3259D01*
X206Y3258D02*
X331Y3258D01*
X395Y3258D02*
X488Y3258D01*
X582Y3258D02*
X705Y3258D01*
X767Y3258D02*
X896Y3258D01*
X988Y3258D02*
X1051Y3258D01*
X1153Y3258D02*
X1271Y3258D01*
X1363Y3258D02*
X1427Y3258D01*
X1523Y3258D02*
X1647Y3258D01*
X1894Y3258D02*
X2020Y3258D01*
X2095Y3258D02*
X2120Y3258D01*
X206Y3257D02*
X332Y3257D01*
X395Y3257D02*
X488Y3257D01*
X583Y3257D02*
X704Y3257D01*
X767Y3257D02*
X896Y3257D01*
X987Y3257D02*
X1051Y3257D01*
X1152Y3257D02*
X1271Y3257D01*
X1363Y3257D02*
X1427Y3257D01*
X1522Y3257D02*
X1647Y3257D01*
X1894Y3257D02*
X2019Y3257D01*
X2095Y3257D02*
X2120Y3257D01*
X205Y3256D02*
X332Y3256D01*
X397Y3256D02*
X489Y3256D01*
X584Y3256D02*
X703Y3256D01*
X767Y3256D02*
X896Y3256D01*
X987Y3256D02*
X1052Y3256D01*
X1151Y3256D02*
X1271Y3256D01*
X1362Y3256D02*
X1428Y3256D01*
X1522Y3256D02*
X1647Y3256D01*
X1894Y3256D02*
X2017Y3256D01*
X2095Y3256D02*
X2120Y3256D01*
X205Y3255D02*
X332Y3255D01*
X398Y3255D02*
X489Y3255D01*
X586Y3255D02*
X701Y3255D01*
X767Y3255D02*
X896Y3255D01*
X986Y3255D02*
X1052Y3255D01*
X1151Y3255D02*
X1271Y3255D01*
X1362Y3255D02*
X1428Y3255D01*
X1521Y3255D02*
X1647Y3255D01*
X1894Y3255D02*
X2016Y3255D01*
X2095Y3255D02*
X2120Y3255D01*
X205Y3254D02*
X332Y3254D01*
X401Y3254D02*
X490Y3254D01*
X588Y3254D02*
X699Y3254D01*
X767Y3254D02*
X896Y3254D01*
X986Y3254D02*
X1053Y3254D01*
X1150Y3254D02*
X1271Y3254D01*
X1361Y3254D02*
X1429Y3254D01*
X1521Y3254D02*
X1647Y3254D01*
X1894Y3254D02*
X2014Y3254D01*
X2095Y3254D02*
X2120Y3254D01*
X205Y3253D02*
X236Y3253D01*
X306Y3253D02*
X332Y3253D01*
X456Y3253D02*
X490Y3253D01*
X631Y3253D02*
X656Y3253D01*
X767Y3253D02*
X792Y3253D01*
X819Y3253D02*
X844Y3253D01*
X870Y3253D02*
X896Y3253D01*
X985Y3253D02*
X1017Y3253D01*
X1022Y3253D02*
X1053Y3253D01*
X1150Y3253D02*
X1190Y3253D01*
X1246Y3253D02*
X1271Y3253D01*
X1361Y3253D02*
X1392Y3253D01*
X1398Y3253D02*
X1429Y3253D01*
X1520Y3253D02*
X1554Y3253D01*
X1622Y3253D02*
X1647Y3253D01*
X1894Y3253D02*
X1919Y3253D01*
X2095Y3253D02*
X2120Y3253D01*
X204Y3252D02*
X233Y3252D01*
X307Y3252D02*
X332Y3252D01*
X459Y3252D02*
X491Y3252D01*
X631Y3252D02*
X656Y3252D01*
X767Y3252D02*
X792Y3252D01*
X819Y3252D02*
X844Y3252D01*
X870Y3252D02*
X896Y3252D01*
X985Y3252D02*
X1015Y3252D01*
X1024Y3252D02*
X1054Y3252D01*
X1149Y3252D02*
X1186Y3252D01*
X1246Y3252D02*
X1271Y3252D01*
X1360Y3252D02*
X1390Y3252D01*
X1400Y3252D02*
X1429Y3252D01*
X1520Y3252D02*
X1551Y3252D01*
X1622Y3252D02*
X1647Y3252D01*
X1894Y3252D02*
X1919Y3252D01*
X2095Y3252D02*
X2120Y3252D01*
X204Y3251D02*
X232Y3251D01*
X307Y3251D02*
X332Y3251D01*
X461Y3251D02*
X491Y3251D01*
X631Y3251D02*
X656Y3251D01*
X767Y3251D02*
X792Y3251D01*
X819Y3251D02*
X844Y3251D01*
X870Y3251D02*
X896Y3251D01*
X984Y3251D02*
X1013Y3251D01*
X1025Y3251D02*
X1054Y3251D01*
X1148Y3251D02*
X1184Y3251D01*
X1246Y3251D02*
X1271Y3251D01*
X1360Y3251D02*
X1389Y3251D01*
X1401Y3251D02*
X1430Y3251D01*
X1520Y3251D02*
X1550Y3251D01*
X1622Y3251D02*
X1647Y3251D01*
X1894Y3251D02*
X1919Y3251D01*
X2095Y3251D02*
X2120Y3251D01*
X204Y3250D02*
X231Y3250D01*
X307Y3250D02*
X332Y3250D01*
X462Y3250D02*
X492Y3250D01*
X631Y3250D02*
X656Y3250D01*
X767Y3250D02*
X792Y3250D01*
X819Y3250D02*
X844Y3250D01*
X870Y3250D02*
X896Y3250D01*
X984Y3250D02*
X1013Y3250D01*
X1026Y3250D02*
X1055Y3250D01*
X1148Y3250D02*
X1182Y3250D01*
X1246Y3250D02*
X1271Y3250D01*
X1359Y3250D02*
X1388Y3250D01*
X1401Y3250D02*
X1430Y3250D01*
X1519Y3250D02*
X1548Y3250D01*
X1622Y3250D02*
X1647Y3250D01*
X1894Y3250D02*
X1919Y3250D01*
X2095Y3250D02*
X2120Y3250D01*
X204Y3249D02*
X230Y3249D01*
X307Y3249D02*
X332Y3249D01*
X463Y3249D02*
X492Y3249D01*
X631Y3249D02*
X656Y3249D01*
X767Y3249D02*
X792Y3249D01*
X819Y3249D02*
X844Y3249D01*
X870Y3249D02*
X896Y3249D01*
X983Y3249D02*
X1012Y3249D01*
X1026Y3249D02*
X1055Y3249D01*
X1147Y3249D02*
X1180Y3249D01*
X1246Y3249D02*
X1271Y3249D01*
X1359Y3249D02*
X1388Y3249D01*
X1402Y3249D02*
X1431Y3249D01*
X1519Y3249D02*
X1547Y3249D01*
X1622Y3249D02*
X1647Y3249D01*
X1894Y3249D02*
X1919Y3249D01*
X2095Y3249D02*
X2120Y3249D01*
X204Y3248D02*
X230Y3248D01*
X306Y3248D02*
X332Y3248D01*
X463Y3248D02*
X493Y3248D01*
X631Y3248D02*
X656Y3248D01*
X767Y3248D02*
X792Y3248D01*
X819Y3248D02*
X844Y3248D01*
X870Y3248D02*
X896Y3248D01*
X983Y3248D02*
X1012Y3248D01*
X1027Y3248D02*
X1056Y3248D01*
X1147Y3248D02*
X1179Y3248D01*
X1246Y3248D02*
X1271Y3248D01*
X1358Y3248D02*
X1387Y3248D01*
X1403Y3248D02*
X1431Y3248D01*
X1519Y3248D02*
X1546Y3248D01*
X1622Y3248D02*
X1647Y3248D01*
X1894Y3248D02*
X1919Y3248D01*
X2095Y3248D02*
X2120Y3248D01*
X204Y3247D02*
X229Y3247D01*
X306Y3247D02*
X332Y3247D01*
X464Y3247D02*
X493Y3247D01*
X631Y3247D02*
X656Y3247D01*
X767Y3247D02*
X792Y3247D01*
X819Y3247D02*
X844Y3247D01*
X870Y3247D02*
X896Y3247D01*
X982Y3247D02*
X1011Y3247D01*
X1028Y3247D02*
X1056Y3247D01*
X1147Y3247D02*
X1178Y3247D01*
X1246Y3247D02*
X1271Y3247D01*
X1358Y3247D02*
X1387Y3247D01*
X1403Y3247D02*
X1432Y3247D01*
X1519Y3247D02*
X1546Y3247D01*
X1622Y3247D02*
X1647Y3247D01*
X1894Y3247D02*
X1919Y3247D01*
X2095Y3247D02*
X2120Y3247D01*
X204Y3246D02*
X229Y3246D01*
X305Y3246D02*
X332Y3246D01*
X465Y3246D02*
X494Y3246D01*
X631Y3246D02*
X656Y3246D01*
X767Y3246D02*
X792Y3246D01*
X819Y3246D02*
X844Y3246D01*
X870Y3246D02*
X896Y3246D01*
X982Y3246D02*
X1011Y3246D01*
X1028Y3246D02*
X1057Y3246D01*
X1146Y3246D02*
X1176Y3246D01*
X1246Y3246D02*
X1271Y3246D01*
X1357Y3246D02*
X1386Y3246D01*
X1404Y3246D02*
X1432Y3246D01*
X1519Y3246D02*
X1545Y3246D01*
X1622Y3246D02*
X1647Y3246D01*
X1894Y3246D02*
X1919Y3246D01*
X2095Y3246D02*
X2120Y3246D01*
X204Y3245D02*
X229Y3245D01*
X304Y3245D02*
X332Y3245D01*
X465Y3245D02*
X494Y3245D01*
X631Y3245D02*
X656Y3245D01*
X767Y3245D02*
X792Y3245D01*
X819Y3245D02*
X844Y3245D01*
X870Y3245D02*
X896Y3245D01*
X981Y3245D02*
X1010Y3245D01*
X1029Y3245D02*
X1057Y3245D01*
X1146Y3245D02*
X1175Y3245D01*
X1246Y3245D02*
X1271Y3245D01*
X1357Y3245D02*
X1386Y3245D01*
X1404Y3245D02*
X1433Y3245D01*
X1518Y3245D02*
X1545Y3245D01*
X1622Y3245D02*
X1647Y3245D01*
X1894Y3245D02*
X1919Y3245D01*
X2095Y3245D02*
X2120Y3245D01*
X204Y3244D02*
X229Y3244D01*
X303Y3244D02*
X332Y3244D01*
X466Y3244D02*
X495Y3244D01*
X631Y3244D02*
X656Y3244D01*
X767Y3244D02*
X792Y3244D01*
X819Y3244D02*
X844Y3244D01*
X871Y3244D02*
X896Y3244D01*
X981Y3244D02*
X1010Y3244D01*
X1029Y3244D02*
X1058Y3244D01*
X1145Y3244D02*
X1175Y3244D01*
X1246Y3244D02*
X1271Y3244D01*
X1356Y3244D02*
X1385Y3244D01*
X1405Y3244D02*
X1433Y3244D01*
X1518Y3244D02*
X1544Y3244D01*
X1622Y3244D02*
X1647Y3244D01*
X1894Y3244D02*
X1919Y3244D01*
X2095Y3244D02*
X2120Y3244D01*
X204Y3243D02*
X229Y3243D01*
X302Y3243D02*
X332Y3243D01*
X466Y3243D02*
X495Y3243D01*
X631Y3243D02*
X656Y3243D01*
X767Y3243D02*
X792Y3243D01*
X819Y3243D02*
X844Y3243D01*
X871Y3243D02*
X896Y3243D01*
X980Y3243D02*
X1009Y3243D01*
X1030Y3243D02*
X1058Y3243D01*
X1145Y3243D02*
X1174Y3243D01*
X1246Y3243D02*
X1271Y3243D01*
X1356Y3243D02*
X1385Y3243D01*
X1405Y3243D02*
X1434Y3243D01*
X1518Y3243D02*
X1544Y3243D01*
X1622Y3243D02*
X1647Y3243D01*
X1894Y3243D02*
X1919Y3243D01*
X2095Y3243D02*
X2120Y3243D01*
X204Y3242D02*
X229Y3242D01*
X302Y3242D02*
X331Y3242D01*
X467Y3242D02*
X496Y3242D01*
X631Y3242D02*
X656Y3242D01*
X767Y3242D02*
X792Y3242D01*
X819Y3242D02*
X844Y3242D01*
X871Y3242D02*
X896Y3242D01*
X980Y3242D02*
X1009Y3242D01*
X1030Y3242D02*
X1059Y3242D01*
X1145Y3242D02*
X1173Y3242D01*
X1246Y3242D02*
X1271Y3242D01*
X1355Y3242D02*
X1384Y3242D01*
X1406Y3242D02*
X1434Y3242D01*
X1518Y3242D02*
X1544Y3242D01*
X1622Y3242D02*
X1647Y3242D01*
X1894Y3242D02*
X1919Y3242D01*
X2095Y3242D02*
X2120Y3242D01*
X204Y3241D02*
X228Y3241D01*
X301Y3241D02*
X331Y3241D01*
X467Y3241D02*
X496Y3241D01*
X631Y3241D02*
X656Y3241D01*
X767Y3241D02*
X792Y3241D01*
X819Y3241D02*
X844Y3241D01*
X871Y3241D02*
X895Y3241D01*
X979Y3241D02*
X1008Y3241D01*
X1031Y3241D02*
X1059Y3241D01*
X1144Y3241D02*
X1172Y3241D01*
X1246Y3241D02*
X1271Y3241D01*
X1355Y3241D02*
X1384Y3241D01*
X1406Y3241D02*
X1435Y3241D01*
X1518Y3241D02*
X1544Y3241D01*
X1622Y3241D02*
X1647Y3241D01*
X1894Y3241D02*
X1919Y3241D01*
X2095Y3241D02*
X2120Y3241D01*
X204Y3240D02*
X228Y3240D01*
X300Y3240D02*
X331Y3240D01*
X468Y3240D02*
X497Y3240D01*
X631Y3240D02*
X656Y3240D01*
X768Y3240D02*
X791Y3240D01*
X819Y3240D02*
X844Y3240D01*
X871Y3240D02*
X895Y3240D01*
X979Y3240D02*
X1008Y3240D01*
X1031Y3240D02*
X1060Y3240D01*
X1144Y3240D02*
X1172Y3240D01*
X1246Y3240D02*
X1271Y3240D01*
X1354Y3240D02*
X1383Y3240D01*
X1407Y3240D02*
X1435Y3240D01*
X1518Y3240D02*
X1544Y3240D01*
X1622Y3240D02*
X1647Y3240D01*
X1894Y3240D02*
X1919Y3240D01*
X2095Y3240D02*
X2120Y3240D01*
X205Y3239D02*
X228Y3239D01*
X299Y3239D02*
X330Y3239D01*
X468Y3239D02*
X497Y3239D01*
X631Y3239D02*
X656Y3239D01*
X768Y3239D02*
X791Y3239D01*
X819Y3239D02*
X844Y3239D01*
X872Y3239D02*
X895Y3239D01*
X978Y3239D02*
X1007Y3239D01*
X1032Y3239D02*
X1060Y3239D01*
X1144Y3239D02*
X1171Y3239D01*
X1246Y3239D02*
X1271Y3239D01*
X1354Y3239D02*
X1383Y3239D01*
X1407Y3239D02*
X1436Y3239D01*
X1518Y3239D02*
X1544Y3239D01*
X1622Y3239D02*
X1647Y3239D01*
X1894Y3239D02*
X1919Y3239D01*
X2095Y3239D02*
X2120Y3239D01*
X205Y3238D02*
X227Y3238D01*
X299Y3238D02*
X330Y3238D01*
X469Y3238D02*
X498Y3238D01*
X631Y3238D02*
X656Y3238D01*
X769Y3238D02*
X791Y3238D01*
X819Y3238D02*
X844Y3238D01*
X872Y3238D02*
X894Y3238D01*
X978Y3238D02*
X1007Y3238D01*
X1032Y3238D02*
X1061Y3238D01*
X1144Y3238D02*
X1171Y3238D01*
X1246Y3238D02*
X1271Y3238D01*
X1353Y3238D02*
X1382Y3238D01*
X1408Y3238D02*
X1436Y3238D01*
X1518Y3238D02*
X1544Y3238D01*
X1622Y3238D02*
X1647Y3238D01*
X1894Y3238D02*
X1919Y3238D01*
X2095Y3238D02*
X2120Y3238D01*
X206Y3237D02*
X227Y3237D01*
X298Y3237D02*
X329Y3237D01*
X469Y3237D02*
X498Y3237D01*
X631Y3237D02*
X656Y3237D01*
X769Y3237D02*
X790Y3237D01*
X819Y3237D02*
X844Y3237D01*
X873Y3237D02*
X894Y3237D01*
X977Y3237D02*
X1006Y3237D01*
X1033Y3237D02*
X1061Y3237D01*
X1143Y3237D02*
X1170Y3237D01*
X1246Y3237D02*
X1271Y3237D01*
X1353Y3237D02*
X1382Y3237D01*
X1408Y3237D02*
X1437Y3237D01*
X1518Y3237D02*
X1544Y3237D01*
X1622Y3237D02*
X1647Y3237D01*
X1894Y3237D02*
X1919Y3237D01*
X2095Y3237D02*
X2120Y3237D01*
X207Y3236D02*
X226Y3236D01*
X297Y3236D02*
X329Y3236D01*
X470Y3236D02*
X498Y3236D01*
X631Y3236D02*
X656Y3236D01*
X770Y3236D02*
X789Y3236D01*
X819Y3236D02*
X844Y3236D01*
X874Y3236D02*
X893Y3236D01*
X977Y3236D02*
X1006Y3236D01*
X1033Y3236D02*
X1062Y3236D01*
X1143Y3236D02*
X1170Y3236D01*
X1246Y3236D02*
X1271Y3236D01*
X1352Y3236D02*
X1381Y3236D01*
X1409Y3236D02*
X1437Y3236D01*
X1518Y3236D02*
X1544Y3236D01*
X1622Y3236D02*
X1647Y3236D01*
X1894Y3236D02*
X1919Y3236D01*
X2095Y3236D02*
X2120Y3236D01*
X207Y3235D02*
X225Y3235D01*
X296Y3235D02*
X328Y3235D01*
X470Y3235D02*
X499Y3235D01*
X631Y3235D02*
X656Y3235D01*
X771Y3235D02*
X788Y3235D01*
X819Y3235D02*
X844Y3235D01*
X874Y3235D02*
X892Y3235D01*
X976Y3235D02*
X1005Y3235D01*
X1034Y3235D02*
X1062Y3235D01*
X1143Y3235D02*
X1169Y3235D01*
X1246Y3235D02*
X1271Y3235D01*
X1352Y3235D02*
X1381Y3235D01*
X1409Y3235D02*
X1438Y3235D01*
X1518Y3235D02*
X1544Y3235D01*
X1622Y3235D02*
X1647Y3235D01*
X1894Y3235D02*
X1919Y3235D01*
X2095Y3235D02*
X2120Y3235D01*
X209Y3234D02*
X224Y3234D01*
X295Y3234D02*
X328Y3234D01*
X471Y3234D02*
X499Y3234D01*
X631Y3234D02*
X656Y3234D01*
X772Y3234D02*
X787Y3234D01*
X819Y3234D02*
X844Y3234D01*
X876Y3234D02*
X891Y3234D01*
X976Y3234D02*
X1004Y3234D01*
X1034Y3234D02*
X1063Y3234D01*
X1143Y3234D02*
X1169Y3234D01*
X1246Y3234D02*
X1271Y3234D01*
X1351Y3234D02*
X1380Y3234D01*
X1410Y3234D02*
X1438Y3234D01*
X1518Y3234D02*
X1544Y3234D01*
X1622Y3234D02*
X1647Y3234D01*
X1894Y3234D02*
X1919Y3234D01*
X2095Y3234D02*
X2120Y3234D01*
X210Y3233D02*
X222Y3233D01*
X295Y3233D02*
X327Y3233D01*
X471Y3233D02*
X500Y3233D01*
X631Y3233D02*
X656Y3233D01*
X774Y3233D02*
X786Y3233D01*
X819Y3233D02*
X844Y3233D01*
X877Y3233D02*
X889Y3233D01*
X975Y3233D02*
X1004Y3233D01*
X1035Y3233D02*
X1063Y3233D01*
X1143Y3233D02*
X1169Y3233D01*
X1246Y3233D02*
X1271Y3233D01*
X1351Y3233D02*
X1380Y3233D01*
X1410Y3233D02*
X1439Y3233D01*
X1518Y3233D02*
X1544Y3233D01*
X1622Y3233D02*
X1647Y3233D01*
X1894Y3233D02*
X1919Y3233D01*
X2095Y3233D02*
X2120Y3233D01*
X212Y3232D02*
X220Y3232D01*
X294Y3232D02*
X327Y3232D01*
X472Y3232D02*
X500Y3232D01*
X631Y3232D02*
X656Y3232D01*
X776Y3232D02*
X784Y3232D01*
X819Y3232D02*
X844Y3232D01*
X879Y3232D02*
X887Y3232D01*
X975Y3232D02*
X1003Y3232D01*
X1035Y3232D02*
X1064Y3232D01*
X1143Y3232D02*
X1168Y3232D01*
X1246Y3232D02*
X1271Y3232D01*
X1350Y3232D02*
X1379Y3232D01*
X1411Y3232D02*
X1439Y3232D01*
X1518Y3232D02*
X1544Y3232D01*
X1622Y3232D02*
X1647Y3232D01*
X1894Y3232D02*
X1919Y3232D01*
X2095Y3232D02*
X2120Y3232D01*
X293Y3231D02*
X326Y3231D01*
X472Y3231D02*
X501Y3231D01*
X631Y3231D02*
X656Y3231D01*
X819Y3231D02*
X844Y3231D01*
X974Y3231D02*
X1003Y3231D01*
X1036Y3231D02*
X1064Y3231D01*
X1143Y3231D02*
X1168Y3231D01*
X1246Y3231D02*
X1271Y3231D01*
X1350Y3231D02*
X1379Y3231D01*
X1411Y3231D02*
X1440Y3231D01*
X1518Y3231D02*
X1544Y3231D01*
X1622Y3231D02*
X1647Y3231D01*
X1894Y3231D02*
X1919Y3231D01*
X2095Y3231D02*
X2120Y3231D01*
X292Y3230D02*
X325Y3230D01*
X473Y3230D02*
X501Y3230D01*
X631Y3230D02*
X656Y3230D01*
X819Y3230D02*
X844Y3230D01*
X974Y3230D02*
X1002Y3230D01*
X1036Y3230D02*
X1065Y3230D01*
X1143Y3230D02*
X1168Y3230D01*
X1246Y3230D02*
X1271Y3230D01*
X1349Y3230D02*
X1378Y3230D01*
X1412Y3230D02*
X1440Y3230D01*
X1518Y3230D02*
X1544Y3230D01*
X1622Y3230D02*
X1647Y3230D01*
X1894Y3230D02*
X1919Y3230D01*
X2095Y3230D02*
X2120Y3230D01*
X292Y3229D02*
X324Y3229D01*
X473Y3229D02*
X502Y3229D01*
X631Y3229D02*
X656Y3229D01*
X819Y3229D02*
X844Y3229D01*
X973Y3229D02*
X1002Y3229D01*
X1037Y3229D02*
X1065Y3229D01*
X1143Y3229D02*
X1168Y3229D01*
X1246Y3229D02*
X1271Y3229D01*
X1349Y3229D02*
X1378Y3229D01*
X1412Y3229D02*
X1441Y3229D01*
X1518Y3229D02*
X1544Y3229D01*
X1622Y3229D02*
X1647Y3229D01*
X1894Y3229D02*
X1919Y3229D01*
X2095Y3229D02*
X2120Y3229D01*
X291Y3228D02*
X324Y3228D01*
X474Y3228D02*
X502Y3228D01*
X631Y3228D02*
X656Y3228D01*
X819Y3228D02*
X844Y3228D01*
X973Y3228D02*
X1001Y3228D01*
X1037Y3228D02*
X1066Y3228D01*
X1143Y3228D02*
X1168Y3228D01*
X1246Y3228D02*
X1271Y3228D01*
X1348Y3228D02*
X1377Y3228D01*
X1413Y3228D02*
X1441Y3228D01*
X1518Y3228D02*
X1544Y3228D01*
X1622Y3228D02*
X1647Y3228D01*
X1894Y3228D02*
X1919Y3228D01*
X2095Y3228D02*
X2120Y3228D01*
X290Y3227D02*
X323Y3227D01*
X474Y3227D02*
X503Y3227D01*
X631Y3227D02*
X656Y3227D01*
X819Y3227D02*
X844Y3227D01*
X972Y3227D02*
X1001Y3227D01*
X1038Y3227D02*
X1066Y3227D01*
X1143Y3227D02*
X1168Y3227D01*
X1246Y3227D02*
X1271Y3227D01*
X1348Y3227D02*
X1377Y3227D01*
X1413Y3227D02*
X1442Y3227D01*
X1518Y3227D02*
X1544Y3227D01*
X1622Y3227D02*
X1647Y3227D01*
X1894Y3227D02*
X1919Y3227D01*
X2095Y3227D02*
X2120Y3227D01*
X289Y3226D02*
X322Y3226D01*
X475Y3226D02*
X503Y3226D01*
X631Y3226D02*
X656Y3226D01*
X819Y3226D02*
X844Y3226D01*
X972Y3226D02*
X1000Y3226D01*
X1038Y3226D02*
X1067Y3226D01*
X1143Y3226D02*
X1168Y3226D01*
X1246Y3226D02*
X1271Y3226D01*
X1347Y3226D02*
X1376Y3226D01*
X1414Y3226D02*
X1442Y3226D01*
X1518Y3226D02*
X1544Y3226D01*
X1622Y3226D02*
X1647Y3226D01*
X1894Y3226D02*
X1919Y3226D01*
X2095Y3226D02*
X2120Y3226D01*
X288Y3225D02*
X321Y3225D01*
X475Y3225D02*
X504Y3225D01*
X631Y3225D02*
X656Y3225D01*
X819Y3225D02*
X844Y3225D01*
X971Y3225D02*
X1000Y3225D01*
X1039Y3225D02*
X1067Y3225D01*
X1143Y3225D02*
X1168Y3225D01*
X1246Y3225D02*
X1271Y3225D01*
X1347Y3225D02*
X1376Y3225D01*
X1414Y3225D02*
X1443Y3225D01*
X1518Y3225D02*
X1544Y3225D01*
X1622Y3225D02*
X1647Y3225D01*
X1894Y3225D02*
X1919Y3225D01*
X2095Y3225D02*
X2120Y3225D01*
X288Y3224D02*
X320Y3224D01*
X476Y3224D02*
X504Y3224D01*
X631Y3224D02*
X656Y3224D01*
X819Y3224D02*
X844Y3224D01*
X971Y3224D02*
X999Y3224D01*
X1039Y3224D02*
X1068Y3224D01*
X1143Y3224D02*
X1168Y3224D01*
X1246Y3224D02*
X1271Y3224D01*
X1346Y3224D02*
X1375Y3224D01*
X1415Y3224D02*
X1443Y3224D01*
X1518Y3224D02*
X1544Y3224D01*
X1622Y3224D02*
X1647Y3224D01*
X1894Y3224D02*
X1919Y3224D01*
X2095Y3224D02*
X2120Y3224D01*
X287Y3223D02*
X320Y3223D01*
X476Y3223D02*
X505Y3223D01*
X631Y3223D02*
X656Y3223D01*
X819Y3223D02*
X844Y3223D01*
X970Y3223D02*
X999Y3223D01*
X1040Y3223D02*
X1068Y3223D01*
X1143Y3223D02*
X1168Y3223D01*
X1246Y3223D02*
X1271Y3223D01*
X1346Y3223D02*
X1375Y3223D01*
X1415Y3223D02*
X1444Y3223D01*
X1518Y3223D02*
X1544Y3223D01*
X1622Y3223D02*
X1647Y3223D01*
X1894Y3223D02*
X1919Y3223D01*
X2095Y3223D02*
X2120Y3223D01*
X286Y3222D02*
X319Y3222D01*
X477Y3222D02*
X505Y3222D01*
X631Y3222D02*
X656Y3222D01*
X819Y3222D02*
X844Y3222D01*
X970Y3222D02*
X998Y3222D01*
X1040Y3222D02*
X1069Y3222D01*
X1143Y3222D02*
X1168Y3222D01*
X1246Y3222D02*
X1271Y3222D01*
X1345Y3222D02*
X1374Y3222D01*
X1416Y3222D02*
X1444Y3222D01*
X1518Y3222D02*
X1544Y3222D01*
X1622Y3222D02*
X1647Y3222D01*
X1894Y3222D02*
X1919Y3222D01*
X2095Y3222D02*
X2120Y3222D01*
X285Y3221D02*
X318Y3221D01*
X477Y3221D02*
X506Y3221D01*
X631Y3221D02*
X656Y3221D01*
X819Y3221D02*
X844Y3221D01*
X969Y3221D02*
X998Y3221D01*
X1041Y3221D02*
X1069Y3221D01*
X1143Y3221D02*
X1168Y3221D01*
X1246Y3221D02*
X1271Y3221D01*
X1345Y3221D02*
X1374Y3221D01*
X1416Y3221D02*
X1445Y3221D01*
X1519Y3221D02*
X1545Y3221D01*
X1622Y3221D02*
X1647Y3221D01*
X1894Y3221D02*
X1919Y3221D01*
X2095Y3221D02*
X2120Y3221D01*
X285Y3220D02*
X317Y3220D01*
X478Y3220D02*
X506Y3220D01*
X631Y3220D02*
X656Y3220D01*
X819Y3220D02*
X844Y3220D01*
X969Y3220D02*
X997Y3220D01*
X1041Y3220D02*
X1070Y3220D01*
X1143Y3220D02*
X1168Y3220D01*
X1246Y3220D02*
X1271Y3220D01*
X1344Y3220D02*
X1373Y3220D01*
X1417Y3220D02*
X1445Y3220D01*
X1519Y3220D02*
X1545Y3220D01*
X1622Y3220D02*
X1647Y3220D01*
X1894Y3220D02*
X1919Y3220D01*
X2095Y3220D02*
X2120Y3220D01*
X284Y3219D02*
X317Y3219D01*
X478Y3219D02*
X507Y3219D01*
X631Y3219D02*
X656Y3219D01*
X819Y3219D02*
X844Y3219D01*
X968Y3219D02*
X997Y3219D01*
X1042Y3219D02*
X1070Y3219D01*
X1143Y3219D02*
X1168Y3219D01*
X1246Y3219D02*
X1271Y3219D01*
X1344Y3219D02*
X1372Y3219D01*
X1417Y3219D02*
X1446Y3219D01*
X1519Y3219D02*
X1546Y3219D01*
X1622Y3219D02*
X1647Y3219D01*
X1894Y3219D02*
X1919Y3219D01*
X2095Y3219D02*
X2120Y3219D01*
X283Y3218D02*
X316Y3218D01*
X479Y3218D02*
X507Y3218D01*
X631Y3218D02*
X656Y3218D01*
X819Y3218D02*
X844Y3218D01*
X968Y3218D02*
X996Y3218D01*
X1042Y3218D02*
X1071Y3218D01*
X1143Y3218D02*
X1168Y3218D01*
X1246Y3218D02*
X1271Y3218D01*
X1343Y3218D02*
X1372Y3218D01*
X1418Y3218D02*
X1446Y3218D01*
X1519Y3218D02*
X1547Y3218D01*
X1622Y3218D02*
X1647Y3218D01*
X1894Y3218D02*
X1919Y3218D01*
X2095Y3218D02*
X2120Y3218D01*
X282Y3217D02*
X315Y3217D01*
X479Y3217D02*
X508Y3217D01*
X631Y3217D02*
X656Y3217D01*
X819Y3217D02*
X844Y3217D01*
X967Y3217D02*
X996Y3217D01*
X1043Y3217D02*
X1071Y3217D01*
X1143Y3217D02*
X1168Y3217D01*
X1246Y3217D02*
X1271Y3217D01*
X1343Y3217D02*
X1371Y3217D01*
X1418Y3217D02*
X1447Y3217D01*
X1519Y3217D02*
X1548Y3217D01*
X1622Y3217D02*
X1647Y3217D01*
X1894Y3217D02*
X1919Y3217D01*
X2095Y3217D02*
X2120Y3217D01*
X281Y3216D02*
X314Y3216D01*
X480Y3216D02*
X508Y3216D01*
X631Y3216D02*
X656Y3216D01*
X819Y3216D02*
X844Y3216D01*
X967Y3216D02*
X995Y3216D01*
X1043Y3216D02*
X1072Y3216D01*
X1143Y3216D02*
X1168Y3216D01*
X1246Y3216D02*
X1271Y3216D01*
X1342Y3216D02*
X1371Y3216D01*
X1419Y3216D02*
X1447Y3216D01*
X1520Y3216D02*
X1549Y3216D01*
X1622Y3216D02*
X1647Y3216D01*
X1894Y3216D02*
X1919Y3216D01*
X2095Y3216D02*
X2120Y3216D01*
X281Y3215D02*
X313Y3215D01*
X480Y3215D02*
X509Y3215D01*
X631Y3215D02*
X656Y3215D01*
X819Y3215D02*
X844Y3215D01*
X966Y3215D02*
X995Y3215D01*
X1044Y3215D02*
X1072Y3215D01*
X1143Y3215D02*
X1168Y3215D01*
X1246Y3215D02*
X1271Y3215D01*
X1342Y3215D02*
X1370Y3215D01*
X1419Y3215D02*
X1448Y3215D01*
X1520Y3215D02*
X1550Y3215D01*
X1622Y3215D02*
X1647Y3215D01*
X1894Y3215D02*
X1919Y3215D01*
X2095Y3215D02*
X2120Y3215D01*
X280Y3214D02*
X313Y3214D01*
X481Y3214D02*
X509Y3214D01*
X631Y3214D02*
X656Y3214D01*
X819Y3214D02*
X844Y3214D01*
X966Y3214D02*
X994Y3214D01*
X1044Y3214D02*
X1073Y3214D01*
X1143Y3214D02*
X1168Y3214D01*
X1246Y3214D02*
X1271Y3214D01*
X1341Y3214D02*
X1370Y3214D01*
X1420Y3214D02*
X1448Y3214D01*
X1520Y3214D02*
X1552Y3214D01*
X1622Y3214D02*
X1647Y3214D01*
X1894Y3214D02*
X1919Y3214D01*
X2095Y3214D02*
X2120Y3214D01*
X279Y3213D02*
X312Y3213D01*
X481Y3213D02*
X510Y3213D01*
X631Y3213D02*
X656Y3213D01*
X819Y3213D02*
X844Y3213D01*
X965Y3213D02*
X994Y3213D01*
X1045Y3213D02*
X1073Y3213D01*
X1143Y3213D02*
X1168Y3213D01*
X1246Y3213D02*
X1271Y3213D01*
X1341Y3213D02*
X1369Y3213D01*
X1420Y3213D02*
X1449Y3213D01*
X1521Y3213D02*
X1647Y3213D01*
X1894Y3213D02*
X1919Y3213D01*
X2095Y3213D02*
X2120Y3213D01*
X278Y3212D02*
X311Y3212D01*
X482Y3212D02*
X510Y3212D01*
X631Y3212D02*
X656Y3212D01*
X819Y3212D02*
X844Y3212D01*
X965Y3212D02*
X993Y3212D01*
X1045Y3212D02*
X1074Y3212D01*
X1143Y3212D02*
X1168Y3212D01*
X1246Y3212D02*
X1271Y3212D01*
X1340Y3212D02*
X1369Y3212D01*
X1421Y3212D02*
X1449Y3212D01*
X1521Y3212D02*
X1647Y3212D01*
X1894Y3212D02*
X1919Y3212D01*
X2095Y3212D02*
X2120Y3212D01*
X278Y3211D02*
X310Y3211D01*
X482Y3211D02*
X511Y3211D01*
X631Y3211D02*
X656Y3211D01*
X819Y3211D02*
X844Y3211D01*
X964Y3211D02*
X993Y3211D01*
X1046Y3211D02*
X1074Y3211D01*
X1143Y3211D02*
X1169Y3211D01*
X1246Y3211D02*
X1271Y3211D01*
X1340Y3211D02*
X1368Y3211D01*
X1421Y3211D02*
X1450Y3211D01*
X1521Y3211D02*
X1647Y3211D01*
X1894Y3211D02*
X1919Y3211D01*
X2095Y3211D02*
X2120Y3211D01*
X277Y3210D02*
X310Y3210D01*
X483Y3210D02*
X511Y3210D01*
X631Y3210D02*
X656Y3210D01*
X819Y3210D02*
X844Y3210D01*
X964Y3210D02*
X992Y3210D01*
X1046Y3210D02*
X1075Y3210D01*
X1143Y3210D02*
X1169Y3210D01*
X1246Y3210D02*
X1271Y3210D01*
X1339Y3210D02*
X1368Y3210D01*
X1422Y3210D02*
X1450Y3210D01*
X1522Y3210D02*
X1647Y3210D01*
X1894Y3210D02*
X1919Y3210D01*
X2095Y3210D02*
X2120Y3210D01*
X276Y3209D02*
X309Y3209D01*
X483Y3209D02*
X512Y3209D01*
X631Y3209D02*
X656Y3209D01*
X819Y3209D02*
X844Y3209D01*
X963Y3209D02*
X992Y3209D01*
X1047Y3209D02*
X1075Y3209D01*
X1143Y3209D02*
X1169Y3209D01*
X1246Y3209D02*
X1271Y3209D01*
X1339Y3209D02*
X1367Y3209D01*
X1422Y3209D02*
X1451Y3209D01*
X1522Y3209D02*
X1647Y3209D01*
X1894Y3209D02*
X1919Y3209D01*
X2095Y3209D02*
X2120Y3209D01*
X275Y3208D02*
X308Y3208D01*
X484Y3208D02*
X512Y3208D01*
X631Y3208D02*
X656Y3208D01*
X819Y3208D02*
X844Y3208D01*
X963Y3208D02*
X991Y3208D01*
X1047Y3208D02*
X1076Y3208D01*
X1143Y3208D02*
X1170Y3208D01*
X1246Y3208D02*
X1271Y3208D01*
X1338Y3208D02*
X1367Y3208D01*
X1423Y3208D02*
X1451Y3208D01*
X1523Y3208D02*
X1647Y3208D01*
X1894Y3208D02*
X1919Y3208D01*
X2095Y3208D02*
X2120Y3208D01*
X274Y3207D02*
X307Y3207D01*
X484Y3207D02*
X513Y3207D01*
X631Y3207D02*
X656Y3207D01*
X819Y3207D02*
X844Y3207D01*
X962Y3207D02*
X991Y3207D01*
X1048Y3207D02*
X1076Y3207D01*
X1144Y3207D02*
X1170Y3207D01*
X1246Y3207D02*
X1271Y3207D01*
X1338Y3207D02*
X1366Y3207D01*
X1423Y3207D02*
X1452Y3207D01*
X1523Y3207D02*
X1647Y3207D01*
X1894Y3207D02*
X1919Y3207D01*
X2095Y3207D02*
X2120Y3207D01*
X274Y3206D02*
X306Y3206D01*
X485Y3206D02*
X513Y3206D01*
X631Y3206D02*
X656Y3206D01*
X819Y3206D02*
X844Y3206D01*
X962Y3206D02*
X990Y3206D01*
X1048Y3206D02*
X1077Y3206D01*
X1144Y3206D02*
X1171Y3206D01*
X1246Y3206D02*
X1271Y3206D01*
X1337Y3206D02*
X1366Y3206D01*
X1424Y3206D02*
X1452Y3206D01*
X1524Y3206D02*
X1647Y3206D01*
X1894Y3206D02*
X1919Y3206D01*
X2095Y3206D02*
X2120Y3206D01*
X273Y3205D02*
X306Y3205D01*
X485Y3205D02*
X514Y3205D01*
X631Y3205D02*
X656Y3205D01*
X819Y3205D02*
X844Y3205D01*
X961Y3205D02*
X990Y3205D01*
X1049Y3205D02*
X1077Y3205D01*
X1144Y3205D02*
X1171Y3205D01*
X1246Y3205D02*
X1271Y3205D01*
X1337Y3205D02*
X1365Y3205D01*
X1424Y3205D02*
X1453Y3205D01*
X1525Y3205D02*
X1647Y3205D01*
X1894Y3205D02*
X1919Y3205D01*
X2095Y3205D02*
X2120Y3205D01*
X272Y3204D02*
X305Y3204D01*
X486Y3204D02*
X514Y3204D01*
X631Y3204D02*
X656Y3204D01*
X819Y3204D02*
X844Y3204D01*
X961Y3204D02*
X989Y3204D01*
X1049Y3204D02*
X1078Y3204D01*
X1144Y3204D02*
X1172Y3204D01*
X1246Y3204D02*
X1271Y3204D01*
X1337Y3204D02*
X1365Y3204D01*
X1425Y3204D02*
X1453Y3204D01*
X1525Y3204D02*
X1647Y3204D01*
X1894Y3204D02*
X1919Y3204D01*
X2095Y3204D02*
X2120Y3204D01*
X271Y3203D02*
X304Y3203D01*
X486Y3203D02*
X515Y3203D01*
X631Y3203D02*
X656Y3203D01*
X819Y3203D02*
X844Y3203D01*
X960Y3203D02*
X989Y3203D01*
X1050Y3203D02*
X1078Y3203D01*
X1145Y3203D02*
X1172Y3203D01*
X1246Y3203D02*
X1271Y3203D01*
X1336Y3203D02*
X1364Y3203D01*
X1425Y3203D02*
X1454Y3203D01*
X1526Y3203D02*
X1647Y3203D01*
X1894Y3203D02*
X1919Y3203D01*
X2095Y3203D02*
X2120Y3203D01*
X271Y3202D02*
X303Y3202D01*
X487Y3202D02*
X515Y3202D01*
X631Y3202D02*
X656Y3202D01*
X819Y3202D02*
X844Y3202D01*
X960Y3202D02*
X988Y3202D01*
X1050Y3202D02*
X1079Y3202D01*
X1145Y3202D02*
X1173Y3202D01*
X1246Y3202D02*
X1271Y3202D01*
X1336Y3202D02*
X1364Y3202D01*
X1426Y3202D02*
X1454Y3202D01*
X1527Y3202D02*
X1647Y3202D01*
X1894Y3202D02*
X1919Y3202D01*
X2095Y3202D02*
X2120Y3202D01*
X270Y3201D02*
X303Y3201D01*
X487Y3201D02*
X516Y3201D01*
X631Y3201D02*
X656Y3201D01*
X819Y3201D02*
X844Y3201D01*
X960Y3201D02*
X988Y3201D01*
X1051Y3201D02*
X1079Y3201D01*
X1145Y3201D02*
X1174Y3201D01*
X1246Y3201D02*
X1271Y3201D01*
X1335Y3201D02*
X1363Y3201D01*
X1426Y3201D02*
X1455Y3201D01*
X1528Y3201D02*
X1647Y3201D01*
X1894Y3201D02*
X1920Y3201D01*
X2095Y3201D02*
X2120Y3201D01*
X269Y3200D02*
X302Y3200D01*
X488Y3200D02*
X516Y3200D01*
X631Y3200D02*
X656Y3200D01*
X819Y3200D02*
X844Y3200D01*
X959Y3200D02*
X987Y3200D01*
X1051Y3200D02*
X1079Y3200D01*
X1145Y3200D02*
X1175Y3200D01*
X1246Y3200D02*
X1271Y3200D01*
X1335Y3200D02*
X1363Y3200D01*
X1427Y3200D02*
X1455Y3200D01*
X1529Y3200D02*
X1647Y3200D01*
X1894Y3200D02*
X1920Y3200D01*
X2095Y3200D02*
X2120Y3200D01*
X268Y3199D02*
X301Y3199D01*
X488Y3199D02*
X516Y3199D01*
X631Y3199D02*
X656Y3199D01*
X819Y3199D02*
X844Y3199D01*
X959Y3199D02*
X987Y3199D01*
X1052Y3199D02*
X1080Y3199D01*
X1146Y3199D02*
X1176Y3199D01*
X1246Y3199D02*
X1271Y3199D01*
X1334Y3199D02*
X1362Y3199D01*
X1428Y3199D02*
X1455Y3199D01*
X1530Y3199D02*
X1647Y3199D01*
X1894Y3199D02*
X1920Y3199D01*
X2095Y3199D02*
X2120Y3199D01*
X267Y3198D02*
X300Y3198D01*
X489Y3198D02*
X517Y3198D01*
X631Y3198D02*
X656Y3198D01*
X819Y3198D02*
X844Y3198D01*
X958Y3198D02*
X986Y3198D01*
X1052Y3198D02*
X1080Y3198D01*
X1146Y3198D02*
X1177Y3198D01*
X1246Y3198D02*
X1271Y3198D01*
X1334Y3198D02*
X1362Y3198D01*
X1428Y3198D02*
X1456Y3198D01*
X1531Y3198D02*
X1647Y3198D01*
X1894Y3198D02*
X1921Y3198D01*
X2095Y3198D02*
X2120Y3198D01*
X267Y3197D02*
X299Y3197D01*
X489Y3197D02*
X517Y3197D01*
X631Y3197D02*
X656Y3197D01*
X819Y3197D02*
X844Y3197D01*
X958Y3197D02*
X986Y3197D01*
X1053Y3197D02*
X1080Y3197D01*
X1147Y3197D02*
X1178Y3197D01*
X1246Y3197D02*
X1271Y3197D01*
X1334Y3197D02*
X1361Y3197D01*
X1429Y3197D02*
X1456Y3197D01*
X1532Y3197D02*
X1647Y3197D01*
X1894Y3197D02*
X1921Y3197D01*
X2095Y3197D02*
X2120Y3197D01*
X266Y3196D02*
X299Y3196D01*
X490Y3196D02*
X517Y3196D01*
X631Y3196D02*
X656Y3196D01*
X819Y3196D02*
X844Y3196D01*
X958Y3196D02*
X985Y3196D01*
X1053Y3196D02*
X1081Y3196D01*
X1147Y3196D02*
X1179Y3196D01*
X1246Y3196D02*
X1271Y3196D01*
X1333Y3196D02*
X1361Y3196D01*
X1429Y3196D02*
X1456Y3196D01*
X1533Y3196D02*
X1647Y3196D01*
X1895Y3196D02*
X1922Y3196D01*
X2095Y3196D02*
X2120Y3196D01*
X265Y3195D02*
X298Y3195D01*
X490Y3195D02*
X518Y3195D01*
X631Y3195D02*
X656Y3195D01*
X819Y3195D02*
X844Y3195D01*
X957Y3195D02*
X985Y3195D01*
X1054Y3195D02*
X1081Y3195D01*
X1148Y3195D02*
X1181Y3195D01*
X1246Y3195D02*
X1271Y3195D01*
X1333Y3195D02*
X1360Y3195D01*
X1430Y3195D02*
X1457Y3195D01*
X1534Y3195D02*
X1647Y3195D01*
X1895Y3195D02*
X1923Y3195D01*
X2095Y3195D02*
X2120Y3195D01*
X264Y3194D02*
X297Y3194D01*
X491Y3194D02*
X518Y3194D01*
X631Y3194D02*
X656Y3194D01*
X819Y3194D02*
X844Y3194D01*
X957Y3194D02*
X984Y3194D01*
X1054Y3194D02*
X1081Y3194D01*
X1148Y3194D02*
X1183Y3194D01*
X1246Y3194D02*
X1271Y3194D01*
X1333Y3194D02*
X1360Y3194D01*
X1430Y3194D02*
X1457Y3194D01*
X1535Y3194D02*
X1647Y3194D01*
X1895Y3194D02*
X1924Y3194D01*
X2095Y3194D02*
X2120Y3194D01*
X264Y3193D02*
X296Y3193D01*
X491Y3193D02*
X518Y3193D01*
X631Y3193D02*
X656Y3193D01*
X819Y3193D02*
X844Y3193D01*
X957Y3193D02*
X984Y3193D01*
X1055Y3193D02*
X1082Y3193D01*
X1149Y3193D02*
X1185Y3193D01*
X1246Y3193D02*
X1271Y3193D01*
X1332Y3193D02*
X1359Y3193D01*
X1431Y3193D02*
X1457Y3193D01*
X1537Y3193D02*
X1647Y3193D01*
X1895Y3193D02*
X1926Y3193D01*
X2095Y3193D02*
X2120Y3193D01*
X263Y3192D02*
X296Y3192D01*
X492Y3192D02*
X518Y3192D01*
X631Y3192D02*
X656Y3192D01*
X819Y3192D02*
X844Y3192D01*
X957Y3192D02*
X983Y3192D01*
X1055Y3192D02*
X1082Y3192D01*
X1149Y3192D02*
X1188Y3192D01*
X1246Y3192D02*
X1271Y3192D01*
X1332Y3192D02*
X1359Y3192D01*
X1431Y3192D02*
X1458Y3192D01*
X1539Y3192D02*
X1647Y3192D01*
X1896Y3192D02*
X1928Y3192D01*
X2095Y3192D02*
X2120Y3192D01*
X262Y3191D02*
X295Y3191D01*
X492Y3191D02*
X519Y3191D01*
X631Y3191D02*
X656Y3191D01*
X819Y3191D02*
X844Y3191D01*
X956Y3191D02*
X983Y3191D01*
X1056Y3191D02*
X1082Y3191D01*
X1150Y3191D02*
X1271Y3191D01*
X1332Y3191D02*
X1358Y3191D01*
X1431Y3191D02*
X1458Y3191D01*
X1540Y3191D02*
X1647Y3191D01*
X1896Y3191D02*
X1986Y3191D01*
X2095Y3191D02*
X2120Y3191D01*
X261Y3190D02*
X294Y3190D01*
X493Y3190D02*
X519Y3190D01*
X631Y3190D02*
X656Y3190D01*
X819Y3190D02*
X844Y3190D01*
X956Y3190D02*
X982Y3190D01*
X1056Y3190D02*
X1082Y3190D01*
X1150Y3190D02*
X1271Y3190D01*
X1332Y3190D02*
X1358Y3190D01*
X1432Y3190D02*
X1458Y3190D01*
X1542Y3190D02*
X1647Y3190D01*
X1896Y3190D02*
X1989Y3190D01*
X2095Y3190D02*
X2120Y3190D01*
X260Y3189D02*
X293Y3189D01*
X493Y3189D02*
X519Y3189D01*
X631Y3189D02*
X656Y3189D01*
X819Y3189D02*
X844Y3189D01*
X956Y3189D02*
X982Y3189D01*
X1056Y3189D02*
X1083Y3189D01*
X1151Y3189D02*
X1271Y3189D01*
X1332Y3189D02*
X1358Y3189D01*
X1432Y3189D02*
X1458Y3189D01*
X1545Y3189D02*
X1647Y3189D01*
X1897Y3189D02*
X1991Y3189D01*
X2095Y3189D02*
X2120Y3189D01*
X260Y3188D02*
X292Y3188D01*
X493Y3188D02*
X519Y3188D01*
X631Y3188D02*
X656Y3188D01*
X819Y3188D02*
X844Y3188D01*
X956Y3188D02*
X982Y3188D01*
X1057Y3188D02*
X1083Y3188D01*
X1152Y3188D02*
X1271Y3188D01*
X1331Y3188D02*
X1357Y3188D01*
X1432Y3188D02*
X1458Y3188D01*
X1548Y3188D02*
X1647Y3188D01*
X1897Y3188D02*
X1992Y3188D01*
X2095Y3188D02*
X2120Y3188D01*
X259Y3187D02*
X292Y3187D01*
X494Y3187D02*
X519Y3187D01*
X631Y3187D02*
X656Y3187D01*
X819Y3187D02*
X844Y3187D01*
X956Y3187D02*
X981Y3187D01*
X1057Y3187D02*
X1083Y3187D01*
X1152Y3187D02*
X1271Y3187D01*
X1331Y3187D02*
X1357Y3187D01*
X1433Y3187D02*
X1458Y3187D01*
X1554Y3187D02*
X1647Y3187D01*
X1898Y3187D02*
X1993Y3187D01*
X2095Y3187D02*
X2120Y3187D01*
X258Y3186D02*
X291Y3186D01*
X494Y3186D02*
X520Y3186D01*
X631Y3186D02*
X656Y3186D01*
X819Y3186D02*
X844Y3186D01*
X955Y3186D02*
X981Y3186D01*
X1057Y3186D02*
X1083Y3186D01*
X1153Y3186D02*
X1271Y3186D01*
X1331Y3186D02*
X1357Y3186D01*
X1433Y3186D02*
X1459Y3186D01*
X1572Y3186D02*
X1602Y3186D01*
X1622Y3186D02*
X1647Y3186D01*
X1898Y3186D02*
X1994Y3186D01*
X2095Y3186D02*
X2120Y3186D01*
X257Y3185D02*
X290Y3185D01*
X494Y3185D02*
X520Y3185D01*
X631Y3185D02*
X656Y3185D01*
X819Y3185D02*
X844Y3185D01*
X955Y3185D02*
X981Y3185D01*
X1058Y3185D02*
X1083Y3185D01*
X1154Y3185D02*
X1271Y3185D01*
X1331Y3185D02*
X1356Y3185D01*
X1433Y3185D02*
X1459Y3185D01*
X1572Y3185D02*
X1602Y3185D01*
X1622Y3185D02*
X1647Y3185D01*
X1899Y3185D02*
X1995Y3185D01*
X2095Y3185D02*
X2120Y3185D01*
X257Y3184D02*
X289Y3184D01*
X494Y3184D02*
X520Y3184D01*
X631Y3184D02*
X656Y3184D01*
X819Y3184D02*
X844Y3184D01*
X955Y3184D02*
X981Y3184D01*
X1058Y3184D02*
X1083Y3184D01*
X1155Y3184D02*
X1271Y3184D01*
X1331Y3184D02*
X1356Y3184D01*
X1433Y3184D02*
X1459Y3184D01*
X1571Y3184D02*
X1601Y3184D01*
X1622Y3184D02*
X1647Y3184D01*
X1900Y3184D02*
X1995Y3184D01*
X2095Y3184D02*
X2120Y3184D01*
X256Y3183D02*
X289Y3183D01*
X494Y3183D02*
X520Y3183D01*
X631Y3183D02*
X656Y3183D01*
X819Y3183D02*
X844Y3183D01*
X955Y3183D02*
X981Y3183D01*
X1058Y3183D02*
X1083Y3183D01*
X1156Y3183D02*
X1271Y3183D01*
X1331Y3183D02*
X1356Y3183D01*
X1434Y3183D02*
X1459Y3183D01*
X1571Y3183D02*
X1600Y3183D01*
X1622Y3183D02*
X1647Y3183D01*
X1900Y3183D02*
X1996Y3183D01*
X2095Y3183D02*
X2120Y3183D01*
X255Y3182D02*
X288Y3182D01*
X495Y3182D02*
X520Y3182D01*
X631Y3182D02*
X656Y3182D01*
X819Y3182D02*
X844Y3182D01*
X955Y3182D02*
X980Y3182D01*
X1058Y3182D02*
X1083Y3182D01*
X1157Y3182D02*
X1271Y3182D01*
X1331Y3182D02*
X1356Y3182D01*
X1434Y3182D02*
X1459Y3182D01*
X1570Y3182D02*
X1600Y3182D01*
X1622Y3182D02*
X1647Y3182D01*
X1901Y3182D02*
X1996Y3182D01*
X2095Y3182D02*
X2120Y3182D01*
X254Y3181D02*
X287Y3181D01*
X495Y3181D02*
X520Y3181D01*
X631Y3181D02*
X656Y3181D01*
X819Y3181D02*
X844Y3181D01*
X955Y3181D02*
X980Y3181D01*
X1058Y3181D02*
X1083Y3181D01*
X1158Y3181D02*
X1271Y3181D01*
X1330Y3181D02*
X1356Y3181D01*
X1434Y3181D02*
X1459Y3181D01*
X1570Y3181D02*
X1599Y3181D01*
X1622Y3181D02*
X1647Y3181D01*
X1902Y3181D02*
X1997Y3181D01*
X2095Y3181D02*
X2120Y3181D01*
X253Y3180D02*
X286Y3180D01*
X495Y3180D02*
X520Y3180D01*
X631Y3180D02*
X656Y3180D01*
X819Y3180D02*
X844Y3180D01*
X955Y3180D02*
X980Y3180D01*
X1058Y3180D02*
X1084Y3180D01*
X1159Y3180D02*
X1271Y3180D01*
X1330Y3180D02*
X1356Y3180D01*
X1434Y3180D02*
X1459Y3180D01*
X1569Y3180D02*
X1599Y3180D01*
X1622Y3180D02*
X1647Y3180D01*
X1902Y3180D02*
X1997Y3180D01*
X2095Y3180D02*
X2120Y3180D01*
X253Y3179D02*
X286Y3179D01*
X495Y3179D02*
X520Y3179D01*
X631Y3179D02*
X656Y3179D01*
X819Y3179D02*
X844Y3179D01*
X955Y3179D02*
X980Y3179D01*
X1058Y3179D02*
X1084Y3179D01*
X1160Y3179D02*
X1271Y3179D01*
X1330Y3179D02*
X1356Y3179D01*
X1434Y3179D02*
X1459Y3179D01*
X1568Y3179D02*
X1598Y3179D01*
X1622Y3179D02*
X1647Y3179D01*
X1903Y3179D02*
X1997Y3179D01*
X2095Y3179D02*
X2120Y3179D01*
X252Y3178D02*
X285Y3178D01*
X495Y3178D02*
X520Y3178D01*
X631Y3178D02*
X656Y3178D01*
X819Y3178D02*
X844Y3178D01*
X955Y3178D02*
X980Y3178D01*
X1058Y3178D02*
X1084Y3178D01*
X1161Y3178D02*
X1271Y3178D01*
X1330Y3178D02*
X1356Y3178D01*
X1434Y3178D02*
X1459Y3178D01*
X1568Y3178D02*
X1598Y3178D01*
X1622Y3178D02*
X1647Y3178D01*
X1904Y3178D02*
X1997Y3178D01*
X2095Y3178D02*
X2120Y3178D01*
X251Y3177D02*
X284Y3177D01*
X495Y3177D02*
X520Y3177D01*
X631Y3177D02*
X656Y3177D01*
X819Y3177D02*
X844Y3177D01*
X955Y3177D02*
X980Y3177D01*
X1058Y3177D02*
X1084Y3177D01*
X1160Y3177D02*
X1271Y3177D01*
X1330Y3177D02*
X1356Y3177D01*
X1434Y3177D02*
X1459Y3177D01*
X1567Y3177D02*
X1597Y3177D01*
X1622Y3177D02*
X1647Y3177D01*
X1903Y3177D02*
X1997Y3177D01*
X2095Y3177D02*
X2120Y3177D01*
X250Y3176D02*
X283Y3176D01*
X495Y3176D02*
X520Y3176D01*
X631Y3176D02*
X656Y3176D01*
X819Y3176D02*
X844Y3176D01*
X955Y3176D02*
X980Y3176D01*
X1058Y3176D02*
X1084Y3176D01*
X1159Y3176D02*
X1271Y3176D01*
X1330Y3176D02*
X1356Y3176D01*
X1434Y3176D02*
X1459Y3176D01*
X1567Y3176D02*
X1596Y3176D01*
X1622Y3176D02*
X1647Y3176D01*
X1903Y3176D02*
X1997Y3176D01*
X2095Y3176D02*
X2120Y3176D01*
X250Y3175D02*
X282Y3175D01*
X495Y3175D02*
X520Y3175D01*
X631Y3175D02*
X656Y3175D01*
X819Y3175D02*
X844Y3175D01*
X955Y3175D02*
X980Y3175D01*
X1058Y3175D02*
X1084Y3175D01*
X1158Y3175D02*
X1271Y3175D01*
X1330Y3175D02*
X1356Y3175D01*
X1434Y3175D02*
X1459Y3175D01*
X1566Y3175D02*
X1596Y3175D01*
X1622Y3175D02*
X1647Y3175D01*
X1902Y3175D02*
X1997Y3175D01*
X2095Y3175D02*
X2120Y3175D01*
X249Y3174D02*
X282Y3174D01*
X495Y3174D02*
X520Y3174D01*
X631Y3174D02*
X656Y3174D01*
X819Y3174D02*
X844Y3174D01*
X955Y3174D02*
X980Y3174D01*
X1058Y3174D02*
X1084Y3174D01*
X1157Y3174D02*
X1271Y3174D01*
X1331Y3174D02*
X1356Y3174D01*
X1434Y3174D02*
X1459Y3174D01*
X1565Y3174D02*
X1595Y3174D01*
X1622Y3174D02*
X1647Y3174D01*
X1901Y3174D02*
X1996Y3174D01*
X2095Y3174D02*
X2120Y3174D01*
X248Y3173D02*
X281Y3173D01*
X494Y3173D02*
X520Y3173D01*
X631Y3173D02*
X656Y3173D01*
X819Y3173D02*
X844Y3173D01*
X955Y3173D02*
X981Y3173D01*
X1058Y3173D02*
X1083Y3173D01*
X1156Y3173D02*
X1271Y3173D01*
X1331Y3173D02*
X1356Y3173D01*
X1434Y3173D02*
X1459Y3173D01*
X1565Y3173D02*
X1595Y3173D01*
X1622Y3173D02*
X1647Y3173D01*
X1900Y3173D02*
X1996Y3173D01*
X2095Y3173D02*
X2120Y3173D01*
X247Y3172D02*
X280Y3172D01*
X494Y3172D02*
X520Y3172D01*
X631Y3172D02*
X656Y3172D01*
X819Y3172D02*
X844Y3172D01*
X955Y3172D02*
X981Y3172D01*
X1058Y3172D02*
X1083Y3172D01*
X1155Y3172D02*
X1271Y3172D01*
X1331Y3172D02*
X1356Y3172D01*
X1433Y3172D02*
X1459Y3172D01*
X1564Y3172D02*
X1594Y3172D01*
X1622Y3172D02*
X1647Y3172D01*
X1900Y3172D02*
X1995Y3172D01*
X2095Y3172D02*
X2120Y3172D01*
X246Y3171D02*
X279Y3171D01*
X494Y3171D02*
X520Y3171D01*
X631Y3171D02*
X656Y3171D01*
X819Y3171D02*
X844Y3171D01*
X955Y3171D02*
X981Y3171D01*
X1058Y3171D02*
X1083Y3171D01*
X1154Y3171D02*
X1271Y3171D01*
X1331Y3171D02*
X1357Y3171D01*
X1433Y3171D02*
X1459Y3171D01*
X1564Y3171D02*
X1593Y3171D01*
X1622Y3171D02*
X1647Y3171D01*
X1899Y3171D02*
X1995Y3171D01*
X2095Y3171D02*
X2120Y3171D01*
X246Y3170D02*
X279Y3170D01*
X494Y3170D02*
X520Y3170D01*
X631Y3170D02*
X656Y3170D01*
X819Y3170D02*
X844Y3170D01*
X955Y3170D02*
X981Y3170D01*
X1057Y3170D02*
X1083Y3170D01*
X1153Y3170D02*
X1271Y3170D01*
X1331Y3170D02*
X1357Y3170D01*
X1433Y3170D02*
X1459Y3170D01*
X1563Y3170D02*
X1593Y3170D01*
X1622Y3170D02*
X1647Y3170D01*
X1898Y3170D02*
X1994Y3170D01*
X2095Y3170D02*
X2120Y3170D01*
X245Y3169D02*
X278Y3169D01*
X494Y3169D02*
X519Y3169D01*
X631Y3169D02*
X656Y3169D01*
X819Y3169D02*
X844Y3169D01*
X956Y3169D02*
X982Y3169D01*
X1057Y3169D02*
X1083Y3169D01*
X1153Y3169D02*
X1271Y3169D01*
X1331Y3169D02*
X1357Y3169D01*
X1433Y3169D02*
X1459Y3169D01*
X1563Y3169D02*
X1592Y3169D01*
X1622Y3169D02*
X1647Y3169D01*
X1898Y3169D02*
X1993Y3169D01*
X2095Y3169D02*
X2120Y3169D01*
X2185Y3169D02*
X2185Y3169D01*
X244Y3168D02*
X277Y3168D01*
X493Y3168D02*
X519Y3168D01*
X631Y3168D02*
X656Y3168D01*
X819Y3168D02*
X844Y3168D01*
X956Y3168D02*
X982Y3168D01*
X1057Y3168D02*
X1083Y3168D01*
X1152Y3168D02*
X1271Y3168D01*
X1331Y3168D02*
X1357Y3168D01*
X1432Y3168D02*
X1458Y3168D01*
X1562Y3168D02*
X1592Y3168D01*
X1622Y3168D02*
X1647Y3168D01*
X1897Y3168D02*
X1992Y3168D01*
X2095Y3168D02*
X2120Y3168D01*
X2180Y3168D02*
X2190Y3168D01*
X243Y3167D02*
X276Y3167D01*
X493Y3167D02*
X519Y3167D01*
X631Y3167D02*
X656Y3167D01*
X819Y3167D02*
X844Y3167D01*
X956Y3167D02*
X982Y3167D01*
X1057Y3167D02*
X1083Y3167D01*
X1151Y3167D02*
X1271Y3167D01*
X1332Y3167D02*
X1358Y3167D01*
X1432Y3167D02*
X1458Y3167D01*
X1561Y3167D02*
X1591Y3167D01*
X1622Y3167D02*
X1647Y3167D01*
X1897Y3167D02*
X1991Y3167D01*
X2095Y3167D02*
X2120Y3167D01*
X2178Y3167D02*
X2192Y3167D01*
X243Y3166D02*
X275Y3166D01*
X493Y3166D02*
X519Y3166D01*
X631Y3166D02*
X656Y3166D01*
X819Y3166D02*
X844Y3166D01*
X956Y3166D02*
X983Y3166D01*
X1056Y3166D02*
X1082Y3166D01*
X1150Y3166D02*
X1271Y3166D01*
X1332Y3166D02*
X1358Y3166D01*
X1432Y3166D02*
X1458Y3166D01*
X1561Y3166D02*
X1591Y3166D01*
X1622Y3166D02*
X1647Y3166D01*
X1897Y3166D02*
X1989Y3166D01*
X2095Y3166D02*
X2120Y3166D01*
X2177Y3166D02*
X2193Y3166D01*
X242Y3165D02*
X275Y3165D01*
X492Y3165D02*
X519Y3165D01*
X631Y3165D02*
X656Y3165D01*
X819Y3165D02*
X844Y3165D01*
X956Y3165D02*
X983Y3165D01*
X1056Y3165D02*
X1082Y3165D01*
X1150Y3165D02*
X1271Y3165D01*
X1332Y3165D02*
X1359Y3165D01*
X1431Y3165D02*
X1458Y3165D01*
X1560Y3165D02*
X1590Y3165D01*
X1622Y3165D02*
X1647Y3165D01*
X1896Y3165D02*
X1985Y3165D01*
X2095Y3165D02*
X2120Y3165D01*
X2176Y3165D02*
X2194Y3165D01*
X241Y3164D02*
X274Y3164D01*
X492Y3164D02*
X518Y3164D01*
X631Y3164D02*
X656Y3164D01*
X819Y3164D02*
X844Y3164D01*
X957Y3164D02*
X983Y3164D01*
X1055Y3164D02*
X1082Y3164D01*
X1149Y3164D02*
X1187Y3164D01*
X1246Y3164D02*
X1271Y3164D01*
X1332Y3164D02*
X1359Y3164D01*
X1431Y3164D02*
X1458Y3164D01*
X1560Y3164D02*
X1589Y3164D01*
X1622Y3164D02*
X1647Y3164D01*
X1896Y3164D02*
X1928Y3164D01*
X2095Y3164D02*
X2120Y3164D01*
X2175Y3164D02*
X2195Y3164D01*
X240Y3163D02*
X273Y3163D01*
X492Y3163D02*
X518Y3163D01*
X631Y3163D02*
X656Y3163D01*
X819Y3163D02*
X844Y3163D01*
X957Y3163D02*
X984Y3163D01*
X1055Y3163D02*
X1082Y3163D01*
X1149Y3163D02*
X1184Y3163D01*
X1246Y3163D02*
X1271Y3163D01*
X1332Y3163D02*
X1359Y3163D01*
X1431Y3163D02*
X1457Y3163D01*
X1559Y3163D02*
X1589Y3163D01*
X1622Y3163D02*
X1647Y3163D01*
X1895Y3163D02*
X1926Y3163D01*
X2095Y3163D02*
X2120Y3163D01*
X2174Y3163D02*
X2196Y3163D01*
X239Y3162D02*
X272Y3162D01*
X491Y3162D02*
X518Y3162D01*
X631Y3162D02*
X656Y3162D01*
X819Y3162D02*
X844Y3162D01*
X957Y3162D02*
X984Y3162D01*
X1054Y3162D02*
X1082Y3162D01*
X1148Y3162D02*
X1182Y3162D01*
X1246Y3162D02*
X1271Y3162D01*
X1333Y3162D02*
X1360Y3162D01*
X1430Y3162D02*
X1457Y3162D01*
X1558Y3162D02*
X1588Y3162D01*
X1622Y3162D02*
X1647Y3162D01*
X1895Y3162D02*
X1925Y3162D01*
X2095Y3162D02*
X2120Y3162D01*
X2174Y3162D02*
X2196Y3162D01*
X239Y3161D02*
X272Y3161D01*
X491Y3161D02*
X518Y3161D01*
X631Y3161D02*
X656Y3161D01*
X819Y3161D02*
X844Y3161D01*
X957Y3161D02*
X985Y3161D01*
X1054Y3161D02*
X1081Y3161D01*
X1148Y3161D02*
X1181Y3161D01*
X1246Y3161D02*
X1271Y3161D01*
X1333Y3161D02*
X1360Y3161D01*
X1430Y3161D02*
X1457Y3161D01*
X1558Y3161D02*
X1588Y3161D01*
X1622Y3161D02*
X1647Y3161D01*
X1895Y3161D02*
X1923Y3161D01*
X2095Y3161D02*
X2120Y3161D01*
X2173Y3161D02*
X2197Y3161D01*
X238Y3160D02*
X271Y3160D01*
X490Y3160D02*
X517Y3160D01*
X631Y3160D02*
X656Y3160D01*
X819Y3160D02*
X844Y3160D01*
X958Y3160D02*
X985Y3160D01*
X1053Y3160D02*
X1081Y3160D01*
X1147Y3160D02*
X1179Y3160D01*
X1246Y3160D02*
X1271Y3160D01*
X1333Y3160D02*
X1361Y3160D01*
X1429Y3160D02*
X1457Y3160D01*
X1557Y3160D02*
X1587Y3160D01*
X1622Y3160D02*
X1647Y3160D01*
X1895Y3160D02*
X1922Y3160D01*
X2095Y3160D02*
X2120Y3160D01*
X2173Y3160D02*
X2197Y3160D01*
X237Y3159D02*
X270Y3159D01*
X490Y3159D02*
X517Y3159D01*
X631Y3159D02*
X656Y3159D01*
X819Y3159D02*
X844Y3159D01*
X958Y3159D02*
X986Y3159D01*
X1053Y3159D02*
X1081Y3159D01*
X1147Y3159D02*
X1178Y3159D01*
X1246Y3159D02*
X1271Y3159D01*
X1334Y3159D02*
X1361Y3159D01*
X1429Y3159D02*
X1456Y3159D01*
X1557Y3159D02*
X1586Y3159D01*
X1622Y3159D02*
X1647Y3159D01*
X1894Y3159D02*
X1922Y3159D01*
X2095Y3159D02*
X2120Y3159D01*
X2173Y3159D02*
X2197Y3159D01*
X236Y3158D02*
X269Y3158D01*
X489Y3158D02*
X517Y3158D01*
X631Y3158D02*
X656Y3158D01*
X819Y3158D02*
X844Y3158D01*
X958Y3158D02*
X986Y3158D01*
X1052Y3158D02*
X1080Y3158D01*
X1146Y3158D02*
X1177Y3158D01*
X1246Y3158D02*
X1271Y3158D01*
X1334Y3158D02*
X1362Y3158D01*
X1428Y3158D02*
X1456Y3158D01*
X1556Y3158D02*
X1586Y3158D01*
X1622Y3158D02*
X1647Y3158D01*
X1894Y3158D02*
X1921Y3158D01*
X2095Y3158D02*
X2120Y3158D01*
X2173Y3158D02*
X2198Y3158D01*
X236Y3157D02*
X268Y3157D01*
X489Y3157D02*
X516Y3157D01*
X631Y3157D02*
X656Y3157D01*
X819Y3157D02*
X844Y3157D01*
X959Y3157D02*
X987Y3157D01*
X1052Y3157D02*
X1080Y3157D01*
X1146Y3157D02*
X1176Y3157D01*
X1246Y3157D02*
X1271Y3157D01*
X1334Y3157D02*
X1362Y3157D01*
X1428Y3157D02*
X1456Y3157D01*
X1556Y3157D02*
X1585Y3157D01*
X1622Y3157D02*
X1647Y3157D01*
X1894Y3157D02*
X1920Y3157D01*
X2095Y3157D02*
X2120Y3157D01*
X2172Y3157D02*
X2198Y3157D01*
X235Y3156D02*
X268Y3156D01*
X488Y3156D02*
X516Y3156D01*
X631Y3156D02*
X656Y3156D01*
X819Y3156D02*
X844Y3156D01*
X959Y3156D02*
X987Y3156D01*
X1051Y3156D02*
X1080Y3156D01*
X1146Y3156D02*
X1175Y3156D01*
X1246Y3156D02*
X1271Y3156D01*
X1335Y3156D02*
X1363Y3156D01*
X1427Y3156D02*
X1455Y3156D01*
X1555Y3156D02*
X1585Y3156D01*
X1622Y3156D02*
X1647Y3156D01*
X1894Y3156D02*
X1920Y3156D01*
X2095Y3156D02*
X2120Y3156D01*
X2172Y3156D02*
X2198Y3156D01*
X234Y3155D02*
X267Y3155D01*
X487Y3155D02*
X516Y3155D01*
X631Y3155D02*
X656Y3155D01*
X819Y3155D02*
X844Y3155D01*
X960Y3155D02*
X988Y3155D01*
X1051Y3155D02*
X1079Y3155D01*
X1145Y3155D02*
X1174Y3155D01*
X1246Y3155D02*
X1271Y3155D01*
X1335Y3155D02*
X1363Y3155D01*
X1427Y3155D02*
X1455Y3155D01*
X1554Y3155D02*
X1584Y3155D01*
X1622Y3155D02*
X1647Y3155D01*
X1894Y3155D02*
X1920Y3155D01*
X2095Y3155D02*
X2120Y3155D01*
X2172Y3155D02*
X2198Y3155D01*
X233Y3154D02*
X266Y3154D01*
X487Y3154D02*
X515Y3154D01*
X631Y3154D02*
X656Y3154D01*
X819Y3154D02*
X844Y3154D01*
X960Y3154D02*
X988Y3154D01*
X1050Y3154D02*
X1079Y3154D01*
X1145Y3154D02*
X1173Y3154D01*
X1246Y3154D02*
X1271Y3154D01*
X1336Y3154D02*
X1364Y3154D01*
X1426Y3154D02*
X1454Y3154D01*
X1554Y3154D02*
X1584Y3154D01*
X1622Y3154D02*
X1647Y3154D01*
X1894Y3154D02*
X1919Y3154D01*
X2095Y3154D02*
X2120Y3154D01*
X2172Y3154D02*
X2198Y3154D01*
X232Y3153D02*
X265Y3153D01*
X486Y3153D02*
X515Y3153D01*
X631Y3153D02*
X656Y3153D01*
X819Y3153D02*
X844Y3153D01*
X960Y3153D02*
X989Y3153D01*
X1050Y3153D02*
X1078Y3153D01*
X1145Y3153D02*
X1172Y3153D01*
X1246Y3153D02*
X1271Y3153D01*
X1336Y3153D02*
X1364Y3153D01*
X1426Y3153D02*
X1454Y3153D01*
X1553Y3153D02*
X1583Y3153D01*
X1622Y3153D02*
X1647Y3153D01*
X1894Y3153D02*
X1919Y3153D01*
X2095Y3153D02*
X2120Y3153D01*
X2172Y3153D02*
X2198Y3153D01*
X232Y3152D02*
X265Y3152D01*
X486Y3152D02*
X514Y3152D01*
X631Y3152D02*
X656Y3152D01*
X819Y3152D02*
X844Y3152D01*
X961Y3152D02*
X989Y3152D01*
X1049Y3152D02*
X1078Y3152D01*
X1144Y3152D02*
X1172Y3152D01*
X1246Y3152D02*
X1271Y3152D01*
X1336Y3152D02*
X1365Y3152D01*
X1425Y3152D02*
X1453Y3152D01*
X1553Y3152D02*
X1582Y3152D01*
X1622Y3152D02*
X1647Y3152D01*
X1894Y3152D02*
X1919Y3152D01*
X2095Y3152D02*
X2120Y3152D01*
X2172Y3152D02*
X2198Y3152D01*
X231Y3151D02*
X264Y3151D01*
X485Y3151D02*
X514Y3151D01*
X631Y3151D02*
X656Y3151D01*
X819Y3151D02*
X844Y3151D01*
X961Y3151D02*
X990Y3151D01*
X1049Y3151D02*
X1077Y3151D01*
X1144Y3151D02*
X1171Y3151D01*
X1246Y3151D02*
X1271Y3151D01*
X1337Y3151D02*
X1365Y3151D01*
X1425Y3151D02*
X1453Y3151D01*
X1552Y3151D02*
X1582Y3151D01*
X1622Y3151D02*
X1647Y3151D01*
X1894Y3151D02*
X1919Y3151D01*
X2095Y3151D02*
X2120Y3151D01*
X2172Y3151D02*
X2198Y3151D01*
X230Y3150D02*
X263Y3150D01*
X485Y3150D02*
X513Y3150D01*
X631Y3150D02*
X656Y3150D01*
X819Y3150D02*
X844Y3150D01*
X962Y3150D02*
X990Y3150D01*
X1048Y3150D02*
X1077Y3150D01*
X1144Y3150D02*
X1171Y3150D01*
X1246Y3150D02*
X1271Y3150D01*
X1337Y3150D02*
X1366Y3150D01*
X1424Y3150D02*
X1452Y3150D01*
X1551Y3150D02*
X1581Y3150D01*
X1622Y3150D02*
X1647Y3150D01*
X1894Y3150D02*
X1919Y3150D01*
X2095Y3150D02*
X2120Y3150D01*
X2172Y3150D02*
X2198Y3150D01*
X229Y3149D02*
X262Y3149D01*
X484Y3149D02*
X513Y3149D01*
X631Y3149D02*
X656Y3149D01*
X819Y3149D02*
X844Y3149D01*
X962Y3149D02*
X991Y3149D01*
X1048Y3149D02*
X1076Y3149D01*
X1144Y3149D02*
X1170Y3149D01*
X1246Y3149D02*
X1271Y3149D01*
X1338Y3149D02*
X1366Y3149D01*
X1424Y3149D02*
X1452Y3149D01*
X1551Y3149D02*
X1581Y3149D01*
X1622Y3149D02*
X1647Y3149D01*
X1894Y3149D02*
X1919Y3149D01*
X2095Y3149D02*
X2120Y3149D01*
X2172Y3149D02*
X2198Y3149D01*
X229Y3148D02*
X261Y3148D01*
X484Y3148D02*
X512Y3148D01*
X631Y3148D02*
X656Y3148D01*
X819Y3148D02*
X844Y3148D01*
X963Y3148D02*
X991Y3148D01*
X1047Y3148D02*
X1076Y3148D01*
X1143Y3148D02*
X1170Y3148D01*
X1246Y3148D02*
X1271Y3148D01*
X1338Y3148D02*
X1367Y3148D01*
X1423Y3148D02*
X1451Y3148D01*
X1550Y3148D02*
X1580Y3148D01*
X1622Y3148D02*
X1647Y3148D01*
X1894Y3148D02*
X1919Y3148D01*
X2095Y3148D02*
X2120Y3148D01*
X2172Y3148D02*
X2198Y3148D01*
X228Y3147D02*
X261Y3147D01*
X483Y3147D02*
X512Y3147D01*
X631Y3147D02*
X656Y3147D01*
X819Y3147D02*
X844Y3147D01*
X963Y3147D02*
X992Y3147D01*
X1047Y3147D02*
X1075Y3147D01*
X1143Y3147D02*
X1169Y3147D01*
X1246Y3147D02*
X1271Y3147D01*
X1339Y3147D02*
X1367Y3147D01*
X1423Y3147D02*
X1451Y3147D01*
X1550Y3147D02*
X1579Y3147D01*
X1622Y3147D02*
X1647Y3147D01*
X1894Y3147D02*
X1919Y3147D01*
X2095Y3147D02*
X2120Y3147D01*
X2172Y3147D02*
X2198Y3147D01*
X227Y3146D02*
X260Y3146D01*
X483Y3146D02*
X511Y3146D01*
X631Y3146D02*
X656Y3146D01*
X819Y3146D02*
X844Y3146D01*
X964Y3146D02*
X992Y3146D01*
X1046Y3146D02*
X1075Y3146D01*
X1143Y3146D02*
X1169Y3146D01*
X1246Y3146D02*
X1271Y3146D01*
X1339Y3146D02*
X1368Y3146D01*
X1422Y3146D02*
X1450Y3146D01*
X1549Y3146D02*
X1579Y3146D01*
X1622Y3146D02*
X1647Y3146D01*
X1894Y3146D02*
X1919Y3146D01*
X2095Y3146D02*
X2120Y3146D01*
X2172Y3146D02*
X2198Y3146D01*
X226Y3145D02*
X259Y3145D01*
X482Y3145D02*
X511Y3145D01*
X631Y3145D02*
X656Y3145D01*
X819Y3145D02*
X844Y3145D01*
X964Y3145D02*
X993Y3145D01*
X1046Y3145D02*
X1074Y3145D01*
X1143Y3145D02*
X1169Y3145D01*
X1246Y3145D02*
X1271Y3145D01*
X1340Y3145D02*
X1368Y3145D01*
X1422Y3145D02*
X1450Y3145D01*
X1549Y3145D02*
X1578Y3145D01*
X1622Y3145D02*
X1647Y3145D01*
X1894Y3145D02*
X1919Y3145D01*
X2095Y3145D02*
X2120Y3145D01*
X2172Y3145D02*
X2198Y3145D01*
X225Y3144D02*
X258Y3144D01*
X482Y3144D02*
X511Y3144D01*
X631Y3144D02*
X656Y3144D01*
X819Y3144D02*
X844Y3144D01*
X965Y3144D02*
X993Y3144D01*
X1045Y3144D02*
X1074Y3144D01*
X1143Y3144D02*
X1168Y3144D01*
X1246Y3144D02*
X1271Y3144D01*
X1340Y3144D02*
X1369Y3144D01*
X1421Y3144D02*
X1449Y3144D01*
X1548Y3144D02*
X1578Y3144D01*
X1622Y3144D02*
X1647Y3144D01*
X1894Y3144D02*
X1919Y3144D01*
X2095Y3144D02*
X2120Y3144D01*
X2172Y3144D02*
X2198Y3144D01*
X225Y3143D02*
X258Y3143D01*
X481Y3143D02*
X510Y3143D01*
X631Y3143D02*
X656Y3143D01*
X819Y3143D02*
X844Y3143D01*
X965Y3143D02*
X994Y3143D01*
X1045Y3143D02*
X1073Y3143D01*
X1143Y3143D02*
X1168Y3143D01*
X1246Y3143D02*
X1271Y3143D01*
X1341Y3143D02*
X1369Y3143D01*
X1421Y3143D02*
X1449Y3143D01*
X1547Y3143D02*
X1577Y3143D01*
X1622Y3143D02*
X1647Y3143D01*
X1894Y3143D02*
X1919Y3143D01*
X2095Y3143D02*
X2120Y3143D01*
X2172Y3143D02*
X2198Y3143D01*
X224Y3142D02*
X257Y3142D01*
X481Y3142D02*
X510Y3142D01*
X631Y3142D02*
X656Y3142D01*
X819Y3142D02*
X844Y3142D01*
X966Y3142D02*
X994Y3142D01*
X1044Y3142D02*
X1073Y3142D01*
X1143Y3142D02*
X1168Y3142D01*
X1246Y3142D02*
X1271Y3142D01*
X1341Y3142D02*
X1370Y3142D01*
X1420Y3142D02*
X1448Y3142D01*
X1547Y3142D02*
X1577Y3142D01*
X1622Y3142D02*
X1647Y3142D01*
X1894Y3142D02*
X1919Y3142D01*
X2095Y3142D02*
X2120Y3142D01*
X2172Y3142D02*
X2198Y3142D01*
X223Y3141D02*
X256Y3141D01*
X480Y3141D02*
X509Y3141D01*
X631Y3141D02*
X656Y3141D01*
X819Y3141D02*
X844Y3141D01*
X966Y3141D02*
X995Y3141D01*
X1044Y3141D02*
X1072Y3141D01*
X1143Y3141D02*
X1168Y3141D01*
X1246Y3141D02*
X1271Y3141D01*
X1342Y3141D02*
X1370Y3141D01*
X1420Y3141D02*
X1448Y3141D01*
X1546Y3141D02*
X1576Y3141D01*
X1622Y3141D02*
X1647Y3141D01*
X1894Y3141D02*
X1919Y3141D01*
X2095Y3141D02*
X2120Y3141D01*
X2172Y3141D02*
X2198Y3141D01*
X222Y3140D02*
X255Y3140D01*
X480Y3140D02*
X509Y3140D01*
X631Y3140D02*
X656Y3140D01*
X819Y3140D02*
X844Y3140D01*
X967Y3140D02*
X995Y3140D01*
X1043Y3140D02*
X1072Y3140D01*
X1143Y3140D02*
X1168Y3140D01*
X1246Y3140D02*
X1271Y3140D01*
X1342Y3140D02*
X1371Y3140D01*
X1419Y3140D02*
X1447Y3140D01*
X1546Y3140D02*
X1575Y3140D01*
X1622Y3140D02*
X1647Y3140D01*
X1894Y3140D02*
X1919Y3140D01*
X2095Y3140D02*
X2120Y3140D01*
X2172Y3140D02*
X2198Y3140D01*
X222Y3139D02*
X254Y3139D01*
X479Y3139D02*
X508Y3139D01*
X631Y3139D02*
X656Y3139D01*
X819Y3139D02*
X844Y3139D01*
X967Y3139D02*
X996Y3139D01*
X1043Y3139D02*
X1071Y3139D01*
X1143Y3139D02*
X1168Y3139D01*
X1246Y3139D02*
X1271Y3139D01*
X1343Y3139D02*
X1371Y3139D01*
X1418Y3139D02*
X1447Y3139D01*
X1545Y3139D02*
X1575Y3139D01*
X1622Y3139D02*
X1647Y3139D01*
X1894Y3139D02*
X1919Y3139D01*
X2095Y3139D02*
X2120Y3139D01*
X2172Y3139D02*
X2198Y3139D01*
X221Y3138D02*
X254Y3138D01*
X479Y3138D02*
X508Y3138D01*
X631Y3138D02*
X656Y3138D01*
X819Y3138D02*
X844Y3138D01*
X968Y3138D02*
X996Y3138D01*
X1042Y3138D02*
X1071Y3138D01*
X1143Y3138D02*
X1168Y3138D01*
X1246Y3138D02*
X1271Y3138D01*
X1343Y3138D02*
X1372Y3138D01*
X1418Y3138D02*
X1446Y3138D01*
X1544Y3138D02*
X1574Y3138D01*
X1622Y3138D02*
X1647Y3138D01*
X1894Y3138D02*
X1919Y3138D01*
X2095Y3138D02*
X2120Y3138D01*
X2172Y3138D02*
X2198Y3138D01*
X220Y3137D02*
X253Y3137D01*
X478Y3137D02*
X507Y3137D01*
X631Y3137D02*
X656Y3137D01*
X819Y3137D02*
X844Y3137D01*
X968Y3137D02*
X997Y3137D01*
X1042Y3137D02*
X1070Y3137D01*
X1143Y3137D02*
X1168Y3137D01*
X1246Y3137D02*
X1271Y3137D01*
X1344Y3137D02*
X1372Y3137D01*
X1417Y3137D02*
X1446Y3137D01*
X1544Y3137D02*
X1574Y3137D01*
X1622Y3137D02*
X1647Y3137D01*
X1894Y3137D02*
X1919Y3137D01*
X2095Y3137D02*
X2120Y3137D01*
X2172Y3137D02*
X2198Y3137D01*
X219Y3136D02*
X252Y3136D01*
X478Y3136D02*
X507Y3136D01*
X631Y3136D02*
X656Y3136D01*
X819Y3136D02*
X844Y3136D01*
X969Y3136D02*
X997Y3136D01*
X1041Y3136D02*
X1070Y3136D01*
X1143Y3136D02*
X1168Y3136D01*
X1246Y3136D02*
X1271Y3136D01*
X1344Y3136D02*
X1373Y3136D01*
X1417Y3136D02*
X1445Y3136D01*
X1543Y3136D02*
X1573Y3136D01*
X1622Y3136D02*
X1647Y3136D01*
X1894Y3136D02*
X1919Y3136D01*
X2095Y3136D02*
X2120Y3136D01*
X2172Y3136D02*
X2198Y3136D01*
X218Y3135D02*
X251Y3135D01*
X477Y3135D02*
X506Y3135D01*
X631Y3135D02*
X656Y3135D01*
X819Y3135D02*
X844Y3135D01*
X969Y3135D02*
X998Y3135D01*
X1041Y3135D02*
X1069Y3135D01*
X1143Y3135D02*
X1168Y3135D01*
X1246Y3135D02*
X1271Y3135D01*
X1345Y3135D02*
X1373Y3135D01*
X1416Y3135D02*
X1445Y3135D01*
X1543Y3135D02*
X1572Y3135D01*
X1622Y3135D02*
X1647Y3135D01*
X1894Y3135D02*
X1919Y3135D01*
X2095Y3135D02*
X2120Y3135D01*
X2172Y3135D02*
X2198Y3135D01*
X218Y3134D02*
X251Y3134D01*
X477Y3134D02*
X506Y3134D01*
X631Y3134D02*
X656Y3134D01*
X819Y3134D02*
X844Y3134D01*
X970Y3134D02*
X998Y3134D01*
X1040Y3134D02*
X1069Y3134D01*
X1143Y3134D02*
X1168Y3134D01*
X1246Y3134D02*
X1271Y3134D01*
X1345Y3134D02*
X1374Y3134D01*
X1416Y3134D02*
X1444Y3134D01*
X1542Y3134D02*
X1572Y3134D01*
X1622Y3134D02*
X1647Y3134D01*
X1894Y3134D02*
X1919Y3134D01*
X2095Y3134D02*
X2120Y3134D01*
X2172Y3134D02*
X2198Y3134D01*
X217Y3133D02*
X250Y3133D01*
X476Y3133D02*
X505Y3133D01*
X631Y3133D02*
X656Y3133D01*
X819Y3133D02*
X844Y3133D01*
X970Y3133D02*
X999Y3133D01*
X1040Y3133D02*
X1068Y3133D01*
X1143Y3133D02*
X1168Y3133D01*
X1246Y3133D02*
X1271Y3133D01*
X1346Y3133D02*
X1374Y3133D01*
X1415Y3133D02*
X1444Y3133D01*
X1542Y3133D02*
X1571Y3133D01*
X1622Y3133D02*
X1647Y3133D01*
X1894Y3133D02*
X1919Y3133D01*
X2095Y3133D02*
X2120Y3133D01*
X2172Y3133D02*
X2198Y3133D01*
X216Y3132D02*
X249Y3132D01*
X476Y3132D02*
X505Y3132D01*
X631Y3132D02*
X656Y3132D01*
X819Y3132D02*
X844Y3132D01*
X971Y3132D02*
X999Y3132D01*
X1039Y3132D02*
X1068Y3132D01*
X1143Y3132D02*
X1168Y3132D01*
X1246Y3132D02*
X1271Y3132D01*
X1346Y3132D02*
X1375Y3132D01*
X1415Y3132D02*
X1443Y3132D01*
X1541Y3132D02*
X1571Y3132D01*
X1622Y3132D02*
X1647Y3132D01*
X1894Y3132D02*
X1919Y3132D01*
X2095Y3132D02*
X2120Y3132D01*
X2172Y3132D02*
X2198Y3132D01*
X215Y3131D02*
X248Y3131D01*
X475Y3131D02*
X504Y3131D01*
X631Y3131D02*
X656Y3131D01*
X819Y3131D02*
X844Y3131D01*
X971Y3131D02*
X1000Y3131D01*
X1039Y3131D02*
X1067Y3131D01*
X1143Y3131D02*
X1168Y3131D01*
X1246Y3131D02*
X1271Y3131D01*
X1347Y3131D02*
X1375Y3131D01*
X1414Y3131D02*
X1443Y3131D01*
X1540Y3131D02*
X1570Y3131D01*
X1622Y3131D02*
X1647Y3131D01*
X1894Y3131D02*
X1919Y3131D01*
X2095Y3131D02*
X2120Y3131D01*
X2172Y3131D02*
X2198Y3131D01*
X214Y3130D02*
X247Y3130D01*
X475Y3130D02*
X504Y3130D01*
X631Y3130D02*
X656Y3130D01*
X819Y3130D02*
X844Y3130D01*
X972Y3130D02*
X1000Y3130D01*
X1038Y3130D02*
X1067Y3130D01*
X1143Y3130D02*
X1168Y3130D01*
X1246Y3130D02*
X1271Y3130D01*
X1347Y3130D02*
X1376Y3130D01*
X1414Y3130D02*
X1443Y3130D01*
X1540Y3130D02*
X1570Y3130D01*
X1622Y3130D02*
X1647Y3130D01*
X1894Y3130D02*
X1919Y3130D01*
X2095Y3130D02*
X2120Y3130D01*
X2172Y3130D02*
X2198Y3130D01*
X214Y3129D02*
X247Y3129D01*
X474Y3129D02*
X503Y3129D01*
X631Y3129D02*
X656Y3129D01*
X819Y3129D02*
X844Y3129D01*
X972Y3129D02*
X1001Y3129D01*
X1038Y3129D02*
X1066Y3129D01*
X1143Y3129D02*
X1168Y3129D01*
X1246Y3129D02*
X1271Y3129D01*
X1348Y3129D02*
X1376Y3129D01*
X1413Y3129D02*
X1442Y3129D01*
X1539Y3129D02*
X1569Y3129D01*
X1622Y3129D02*
X1647Y3129D01*
X1894Y3129D02*
X1919Y3129D01*
X2095Y3129D02*
X2120Y3129D01*
X2172Y3129D02*
X2198Y3129D01*
X213Y3128D02*
X246Y3128D01*
X474Y3128D02*
X503Y3128D01*
X631Y3128D02*
X656Y3128D01*
X819Y3128D02*
X844Y3128D01*
X973Y3128D02*
X1001Y3128D01*
X1037Y3128D02*
X1066Y3128D01*
X1143Y3128D02*
X1168Y3128D01*
X1246Y3128D02*
X1271Y3128D01*
X1348Y3128D02*
X1377Y3128D01*
X1413Y3128D02*
X1442Y3128D01*
X1539Y3128D02*
X1568Y3128D01*
X1622Y3128D02*
X1647Y3128D01*
X1894Y3128D02*
X1919Y3128D01*
X2095Y3128D02*
X2120Y3128D01*
X2172Y3128D02*
X2198Y3128D01*
X212Y3127D02*
X245Y3127D01*
X473Y3127D02*
X502Y3127D01*
X631Y3127D02*
X656Y3127D01*
X819Y3127D02*
X844Y3127D01*
X973Y3127D02*
X1002Y3127D01*
X1037Y3127D02*
X1065Y3127D01*
X1143Y3127D02*
X1168Y3127D01*
X1246Y3127D02*
X1271Y3127D01*
X1349Y3127D02*
X1377Y3127D01*
X1412Y3127D02*
X1441Y3127D01*
X1538Y3127D02*
X1568Y3127D01*
X1622Y3127D02*
X1647Y3127D01*
X1894Y3127D02*
X1919Y3127D01*
X2095Y3127D02*
X2120Y3127D01*
X2172Y3127D02*
X2198Y3127D01*
X211Y3126D02*
X244Y3126D01*
X473Y3126D02*
X502Y3126D01*
X631Y3126D02*
X656Y3126D01*
X819Y3126D02*
X844Y3126D01*
X974Y3126D02*
X1002Y3126D01*
X1036Y3126D02*
X1065Y3126D01*
X1143Y3126D02*
X1168Y3126D01*
X1246Y3126D02*
X1271Y3126D01*
X1349Y3126D02*
X1378Y3126D01*
X1412Y3126D02*
X1441Y3126D01*
X1537Y3126D02*
X1567Y3126D01*
X1622Y3126D02*
X1647Y3126D01*
X1894Y3126D02*
X1919Y3126D01*
X2095Y3126D02*
X2120Y3126D01*
X2172Y3126D02*
X2198Y3126D01*
X211Y3125D02*
X244Y3125D01*
X472Y3125D02*
X501Y3125D01*
X631Y3125D02*
X656Y3125D01*
X819Y3125D02*
X844Y3125D01*
X974Y3125D02*
X1003Y3125D01*
X1036Y3125D02*
X1064Y3125D01*
X1143Y3125D02*
X1168Y3125D01*
X1246Y3125D02*
X1271Y3125D01*
X1350Y3125D02*
X1378Y3125D01*
X1411Y3125D02*
X1440Y3125D01*
X1537Y3125D02*
X1567Y3125D01*
X1622Y3125D02*
X1647Y3125D01*
X1894Y3125D02*
X1919Y3125D01*
X2095Y3125D02*
X2120Y3125D01*
X2172Y3125D02*
X2198Y3125D01*
X210Y3124D02*
X243Y3124D01*
X316Y3124D02*
X324Y3124D01*
X472Y3124D02*
X501Y3124D01*
X631Y3124D02*
X656Y3124D01*
X819Y3124D02*
X844Y3124D01*
X975Y3124D02*
X1003Y3124D01*
X1035Y3124D02*
X1064Y3124D01*
X1143Y3124D02*
X1168Y3124D01*
X1246Y3124D02*
X1271Y3124D01*
X1350Y3124D02*
X1379Y3124D01*
X1411Y3124D02*
X1440Y3124D01*
X1536Y3124D02*
X1566Y3124D01*
X1622Y3124D02*
X1647Y3124D01*
X1894Y3124D02*
X1919Y3124D01*
X2095Y3124D02*
X2120Y3124D01*
X2172Y3124D02*
X2198Y3124D01*
X209Y3123D02*
X242Y3123D01*
X314Y3123D02*
X326Y3123D01*
X471Y3123D02*
X500Y3123D01*
X631Y3123D02*
X656Y3123D01*
X819Y3123D02*
X844Y3123D01*
X975Y3123D02*
X1004Y3123D01*
X1035Y3123D02*
X1063Y3123D01*
X1143Y3123D02*
X1169Y3123D01*
X1246Y3123D02*
X1271Y3123D01*
X1351Y3123D02*
X1379Y3123D01*
X1410Y3123D02*
X1439Y3123D01*
X1536Y3123D02*
X1565Y3123D01*
X1622Y3123D02*
X1647Y3123D01*
X1894Y3123D02*
X1919Y3123D01*
X2095Y3123D02*
X2120Y3123D01*
X2172Y3123D02*
X2198Y3123D01*
X208Y3122D02*
X241Y3122D01*
X312Y3122D02*
X327Y3122D01*
X471Y3122D02*
X500Y3122D01*
X631Y3122D02*
X656Y3122D01*
X819Y3122D02*
X844Y3122D01*
X976Y3122D02*
X1004Y3122D01*
X1034Y3122D02*
X1063Y3122D01*
X1143Y3122D02*
X1169Y3122D01*
X1246Y3122D02*
X1271Y3122D01*
X1351Y3122D02*
X1380Y3122D01*
X1410Y3122D02*
X1439Y3122D01*
X1535Y3122D02*
X1565Y3122D01*
X1622Y3122D02*
X1647Y3122D01*
X1894Y3122D02*
X1919Y3122D01*
X2095Y3122D02*
X2120Y3122D01*
X2172Y3122D02*
X2198Y3122D01*
X208Y3121D02*
X240Y3121D01*
X311Y3121D02*
X328Y3121D01*
X470Y3121D02*
X499Y3121D01*
X631Y3121D02*
X656Y3121D01*
X819Y3121D02*
X844Y3121D01*
X976Y3121D02*
X1005Y3121D01*
X1034Y3121D02*
X1062Y3121D01*
X1143Y3121D02*
X1169Y3121D01*
X1246Y3121D02*
X1271Y3121D01*
X1352Y3121D02*
X1380Y3121D01*
X1409Y3121D02*
X1438Y3121D01*
X1535Y3121D02*
X1564Y3121D01*
X1622Y3121D02*
X1647Y3121D01*
X1894Y3121D02*
X1919Y3121D01*
X2095Y3121D02*
X2120Y3121D01*
X2172Y3121D02*
X2198Y3121D01*
X207Y3120D02*
X240Y3120D01*
X310Y3120D02*
X329Y3120D01*
X470Y3120D02*
X499Y3120D01*
X631Y3120D02*
X656Y3120D01*
X819Y3120D02*
X844Y3120D01*
X977Y3120D02*
X1005Y3120D01*
X1033Y3120D02*
X1062Y3120D01*
X1143Y3120D02*
X1170Y3120D01*
X1246Y3120D02*
X1271Y3120D01*
X1352Y3120D02*
X1381Y3120D01*
X1409Y3120D02*
X1438Y3120D01*
X1534Y3120D02*
X1564Y3120D01*
X1622Y3120D02*
X1647Y3120D01*
X1894Y3120D02*
X1919Y3120D01*
X2095Y3120D02*
X2120Y3120D01*
X2172Y3120D02*
X2198Y3120D01*
X207Y3119D02*
X239Y3119D01*
X309Y3119D02*
X330Y3119D01*
X469Y3119D02*
X498Y3119D01*
X631Y3119D02*
X656Y3119D01*
X819Y3119D02*
X844Y3119D01*
X977Y3119D02*
X1006Y3119D01*
X1033Y3119D02*
X1061Y3119D01*
X1143Y3119D02*
X1170Y3119D01*
X1246Y3119D02*
X1271Y3119D01*
X1353Y3119D02*
X1381Y3119D01*
X1408Y3119D02*
X1437Y3119D01*
X1533Y3119D02*
X1563Y3119D01*
X1622Y3119D02*
X1647Y3119D01*
X1894Y3119D02*
X1919Y3119D01*
X2095Y3119D02*
X2120Y3119D01*
X2172Y3119D02*
X2198Y3119D01*
X206Y3118D02*
X238Y3118D01*
X309Y3118D02*
X331Y3118D01*
X469Y3118D02*
X498Y3118D01*
X631Y3118D02*
X656Y3118D01*
X819Y3118D02*
X844Y3118D01*
X978Y3118D02*
X1006Y3118D01*
X1032Y3118D02*
X1061Y3118D01*
X1144Y3118D02*
X1170Y3118D01*
X1246Y3118D02*
X1271Y3118D01*
X1353Y3118D02*
X1382Y3118D01*
X1408Y3118D02*
X1437Y3118D01*
X1533Y3118D02*
X1563Y3118D01*
X1622Y3118D02*
X1647Y3118D01*
X1894Y3118D02*
X1919Y3118D01*
X2095Y3118D02*
X2120Y3118D01*
X2172Y3118D02*
X2198Y3118D01*
X206Y3117D02*
X237Y3117D01*
X308Y3117D02*
X331Y3117D01*
X468Y3117D02*
X497Y3117D01*
X631Y3117D02*
X656Y3117D01*
X819Y3117D02*
X844Y3117D01*
X978Y3117D02*
X1007Y3117D01*
X1032Y3117D02*
X1060Y3117D01*
X1144Y3117D02*
X1171Y3117D01*
X1246Y3117D02*
X1271Y3117D01*
X1354Y3117D02*
X1382Y3117D01*
X1407Y3117D02*
X1436Y3117D01*
X1532Y3117D02*
X1562Y3117D01*
X1622Y3117D02*
X1647Y3117D01*
X1894Y3117D02*
X1919Y3117D01*
X2095Y3117D02*
X2120Y3117D01*
X2172Y3117D02*
X2198Y3117D01*
X205Y3116D02*
X237Y3116D01*
X308Y3116D02*
X332Y3116D01*
X468Y3116D02*
X497Y3116D01*
X631Y3116D02*
X656Y3116D01*
X819Y3116D02*
X844Y3116D01*
X979Y3116D02*
X1007Y3116D01*
X1031Y3116D02*
X1060Y3116D01*
X1144Y3116D02*
X1172Y3116D01*
X1246Y3116D02*
X1271Y3116D01*
X1354Y3116D02*
X1383Y3116D01*
X1407Y3116D02*
X1436Y3116D01*
X1532Y3116D02*
X1561Y3116D01*
X1622Y3116D02*
X1647Y3116D01*
X1894Y3116D02*
X1919Y3116D01*
X2095Y3116D02*
X2120Y3116D01*
X2172Y3116D02*
X2198Y3116D01*
X205Y3115D02*
X236Y3115D01*
X308Y3115D02*
X332Y3115D01*
X467Y3115D02*
X496Y3115D01*
X631Y3115D02*
X656Y3115D01*
X819Y3115D02*
X844Y3115D01*
X979Y3115D02*
X1008Y3115D01*
X1031Y3115D02*
X1059Y3115D01*
X1144Y3115D02*
X1172Y3115D01*
X1246Y3115D02*
X1271Y3115D01*
X1355Y3115D02*
X1383Y3115D01*
X1406Y3115D02*
X1435Y3115D01*
X1531Y3115D02*
X1561Y3115D01*
X1622Y3115D02*
X1647Y3115D01*
X1894Y3115D02*
X1919Y3115D01*
X2095Y3115D02*
X2120Y3115D01*
X2172Y3115D02*
X2198Y3115D01*
X205Y3114D02*
X235Y3114D01*
X307Y3114D02*
X332Y3114D01*
X467Y3114D02*
X496Y3114D01*
X631Y3114D02*
X656Y3114D01*
X819Y3114D02*
X844Y3114D01*
X980Y3114D02*
X1008Y3114D01*
X1030Y3114D02*
X1059Y3114D01*
X1145Y3114D02*
X1173Y3114D01*
X1246Y3114D02*
X1271Y3114D01*
X1355Y3114D02*
X1384Y3114D01*
X1406Y3114D02*
X1435Y3114D01*
X1530Y3114D02*
X1560Y3114D01*
X1622Y3114D02*
X1647Y3114D01*
X1894Y3114D02*
X1919Y3114D01*
X2095Y3114D02*
X2120Y3114D01*
X2172Y3114D02*
X2198Y3114D01*
X204Y3113D02*
X234Y3113D01*
X307Y3113D02*
X332Y3113D01*
X466Y3113D02*
X495Y3113D01*
X631Y3113D02*
X656Y3113D01*
X819Y3113D02*
X844Y3113D01*
X980Y3113D02*
X1009Y3113D01*
X1030Y3113D02*
X1058Y3113D01*
X1145Y3113D02*
X1174Y3113D01*
X1246Y3113D02*
X1271Y3113D01*
X1356Y3113D02*
X1384Y3113D01*
X1405Y3113D02*
X1434Y3113D01*
X1530Y3113D02*
X1560Y3113D01*
X1622Y3113D02*
X1647Y3113D01*
X1894Y3113D02*
X1919Y3113D01*
X2095Y3113D02*
X2120Y3113D01*
X2172Y3113D02*
X2198Y3113D01*
X204Y3112D02*
X234Y3112D01*
X307Y3112D02*
X332Y3112D01*
X466Y3112D02*
X494Y3112D01*
X631Y3112D02*
X656Y3112D01*
X819Y3112D02*
X844Y3112D01*
X981Y3112D02*
X1009Y3112D01*
X1029Y3112D02*
X1058Y3112D01*
X1145Y3112D02*
X1174Y3112D01*
X1246Y3112D02*
X1271Y3112D01*
X1356Y3112D02*
X1385Y3112D01*
X1405Y3112D02*
X1434Y3112D01*
X1529Y3112D02*
X1559Y3112D01*
X1622Y3112D02*
X1647Y3112D01*
X1894Y3112D02*
X1919Y3112D01*
X2095Y3112D02*
X2121Y3112D01*
X2172Y3112D02*
X2198Y3112D01*
X204Y3111D02*
X233Y3111D01*
X307Y3111D02*
X332Y3111D01*
X465Y3111D02*
X494Y3111D01*
X631Y3111D02*
X656Y3111D01*
X819Y3111D02*
X844Y3111D01*
X981Y3111D02*
X1010Y3111D01*
X1029Y3111D02*
X1057Y3111D01*
X1146Y3111D02*
X1175Y3111D01*
X1246Y3111D02*
X1271Y3111D01*
X1357Y3111D02*
X1385Y3111D01*
X1404Y3111D02*
X1433Y3111D01*
X1529Y3111D02*
X1558Y3111D01*
X1622Y3111D02*
X1647Y3111D01*
X1894Y3111D02*
X1919Y3111D01*
X2095Y3111D02*
X2121Y3111D01*
X2172Y3111D02*
X2197Y3111D01*
X204Y3110D02*
X232Y3110D01*
X307Y3110D02*
X332Y3110D01*
X465Y3110D02*
X493Y3110D01*
X631Y3110D02*
X656Y3110D01*
X819Y3110D02*
X844Y3110D01*
X982Y3110D02*
X1010Y3110D01*
X1028Y3110D02*
X1057Y3110D01*
X1146Y3110D02*
X1176Y3110D01*
X1246Y3110D02*
X1271Y3110D01*
X1357Y3110D02*
X1386Y3110D01*
X1404Y3110D02*
X1433Y3110D01*
X1528Y3110D02*
X1558Y3110D01*
X1622Y3110D02*
X1647Y3110D01*
X1894Y3110D02*
X1919Y3110D01*
X2095Y3110D02*
X2121Y3110D01*
X2171Y3110D02*
X2197Y3110D01*
X204Y3109D02*
X231Y3109D01*
X307Y3109D02*
X332Y3109D01*
X464Y3109D02*
X493Y3109D01*
X631Y3109D02*
X656Y3109D01*
X819Y3109D02*
X844Y3109D01*
X982Y3109D02*
X1011Y3109D01*
X1028Y3109D02*
X1056Y3109D01*
X1146Y3109D02*
X1178Y3109D01*
X1246Y3109D02*
X1271Y3109D01*
X1358Y3109D02*
X1386Y3109D01*
X1403Y3109D02*
X1432Y3109D01*
X1528Y3109D02*
X1557Y3109D01*
X1622Y3109D02*
X1647Y3109D01*
X1894Y3109D02*
X1919Y3109D01*
X2095Y3109D02*
X2122Y3109D01*
X2171Y3109D02*
X2197Y3109D01*
X204Y3108D02*
X230Y3108D01*
X306Y3108D02*
X332Y3108D01*
X463Y3108D02*
X492Y3108D01*
X631Y3108D02*
X656Y3108D01*
X819Y3108D02*
X844Y3108D01*
X983Y3108D02*
X1011Y3108D01*
X1027Y3108D02*
X1056Y3108D01*
X1147Y3108D02*
X1179Y3108D01*
X1246Y3108D02*
X1271Y3108D01*
X1358Y3108D02*
X1387Y3108D01*
X1403Y3108D02*
X1432Y3108D01*
X1527Y3108D02*
X1557Y3108D01*
X1622Y3108D02*
X1647Y3108D01*
X1894Y3108D02*
X1919Y3108D01*
X2095Y3108D02*
X2123Y3108D01*
X2170Y3108D02*
X2197Y3108D01*
X204Y3107D02*
X230Y3107D01*
X306Y3107D02*
X332Y3107D01*
X463Y3107D02*
X492Y3107D01*
X631Y3107D02*
X656Y3107D01*
X819Y3107D02*
X844Y3107D01*
X983Y3107D02*
X1012Y3107D01*
X1027Y3107D02*
X1055Y3107D01*
X1147Y3107D02*
X1180Y3107D01*
X1246Y3107D02*
X1271Y3107D01*
X1359Y3107D02*
X1387Y3107D01*
X1402Y3107D02*
X1431Y3107D01*
X1526Y3107D02*
X1556Y3107D01*
X1622Y3107D02*
X1647Y3107D01*
X1894Y3107D02*
X1919Y3107D01*
X2096Y3107D02*
X2123Y3107D01*
X2169Y3107D02*
X2197Y3107D01*
X203Y3106D02*
X229Y3106D01*
X305Y3106D02*
X332Y3106D01*
X462Y3106D02*
X491Y3106D01*
X631Y3106D02*
X656Y3106D01*
X819Y3106D02*
X844Y3106D01*
X984Y3106D02*
X1012Y3106D01*
X1026Y3106D02*
X1055Y3106D01*
X1148Y3106D02*
X1181Y3106D01*
X1246Y3106D02*
X1271Y3106D01*
X1359Y3106D02*
X1388Y3106D01*
X1402Y3106D02*
X1431Y3106D01*
X1526Y3106D02*
X1556Y3106D01*
X1622Y3106D02*
X1647Y3106D01*
X1894Y3106D02*
X1919Y3106D01*
X2096Y3106D02*
X2124Y3106D01*
X2168Y3106D02*
X2197Y3106D01*
X204Y3105D02*
X229Y3105D01*
X304Y3105D02*
X332Y3105D01*
X461Y3105D02*
X491Y3105D01*
X631Y3105D02*
X656Y3105D01*
X819Y3105D02*
X844Y3105D01*
X984Y3105D02*
X1013Y3105D01*
X1025Y3105D02*
X1054Y3105D01*
X1148Y3105D02*
X1183Y3105D01*
X1246Y3105D02*
X1271Y3105D01*
X1360Y3105D02*
X1388Y3105D01*
X1401Y3105D02*
X1430Y3105D01*
X1525Y3105D02*
X1555Y3105D01*
X1622Y3105D02*
X1647Y3105D01*
X1894Y3105D02*
X1919Y3105D01*
X2096Y3105D02*
X2126Y3105D01*
X2167Y3105D02*
X2196Y3105D01*
X204Y3104D02*
X229Y3104D01*
X303Y3104D02*
X332Y3104D01*
X459Y3104D02*
X490Y3104D01*
X631Y3104D02*
X656Y3104D01*
X819Y3104D02*
X844Y3104D01*
X985Y3104D02*
X1014Y3104D01*
X1024Y3104D02*
X1054Y3104D01*
X1149Y3104D02*
X1186Y3104D01*
X1246Y3104D02*
X1271Y3104D01*
X1360Y3104D02*
X1390Y3104D01*
X1400Y3104D02*
X1430Y3104D01*
X1525Y3104D02*
X1554Y3104D01*
X1622Y3104D02*
X1647Y3104D01*
X1894Y3104D02*
X1919Y3104D01*
X2096Y3104D02*
X2127Y3104D01*
X2165Y3104D02*
X2196Y3104D01*
X204Y3103D02*
X230Y3103D01*
X301Y3103D02*
X331Y3103D01*
X457Y3103D02*
X490Y3103D01*
X631Y3103D02*
X656Y3103D01*
X819Y3103D02*
X844Y3103D01*
X985Y3103D02*
X1016Y3103D01*
X1022Y3103D02*
X1053Y3103D01*
X1150Y3103D02*
X1190Y3103D01*
X1246Y3103D02*
X1271Y3103D01*
X1361Y3103D02*
X1392Y3103D01*
X1398Y3103D02*
X1429Y3103D01*
X1524Y3103D02*
X1554Y3103D01*
X1622Y3103D02*
X1647Y3103D01*
X1894Y3103D02*
X1919Y3103D01*
X2097Y3103D02*
X2130Y3103D01*
X2162Y3103D02*
X2196Y3103D01*
X204Y3102D02*
X331Y3102D01*
X401Y3102D02*
X489Y3102D01*
X589Y3102D02*
X699Y3102D01*
X819Y3102D02*
X844Y3102D01*
X986Y3102D02*
X1053Y3102D01*
X1150Y3102D02*
X1271Y3102D01*
X1361Y3102D02*
X1429Y3102D01*
X1523Y3102D02*
X1553Y3102D01*
X1622Y3102D02*
X1647Y3102D01*
X1894Y3102D02*
X2013Y3102D01*
X2097Y3102D02*
X2195Y3102D01*
X204Y3101D02*
X331Y3101D01*
X398Y3101D02*
X489Y3101D01*
X586Y3101D02*
X701Y3101D01*
X819Y3101D02*
X844Y3101D01*
X986Y3101D02*
X1052Y3101D01*
X1151Y3101D02*
X1271Y3101D01*
X1362Y3101D02*
X1428Y3101D01*
X1523Y3101D02*
X1553Y3101D01*
X1622Y3101D02*
X1647Y3101D01*
X1894Y3101D02*
X2016Y3101D01*
X2097Y3101D02*
X2195Y3101D01*
X204Y3100D02*
X330Y3100D01*
X397Y3100D02*
X488Y3100D01*
X585Y3100D02*
X703Y3100D01*
X819Y3100D02*
X844Y3100D01*
X987Y3100D02*
X1052Y3100D01*
X1151Y3100D02*
X1271Y3100D01*
X1362Y3100D02*
X1428Y3100D01*
X1522Y3100D02*
X1552Y3100D01*
X1622Y3100D02*
X1647Y3100D01*
X1894Y3100D02*
X2017Y3100D01*
X2098Y3100D02*
X2194Y3100D01*
X205Y3099D02*
X330Y3099D01*
X396Y3099D02*
X488Y3099D01*
X583Y3099D02*
X704Y3099D01*
X819Y3099D02*
X844Y3099D01*
X987Y3099D02*
X1051Y3099D01*
X1152Y3099D02*
X1271Y3099D01*
X1363Y3099D02*
X1427Y3099D01*
X1522Y3099D02*
X1551Y3099D01*
X1622Y3099D02*
X1647Y3099D01*
X1894Y3099D02*
X2019Y3099D01*
X2098Y3099D02*
X2194Y3099D01*
X205Y3098D02*
X330Y3098D01*
X395Y3098D02*
X487Y3098D01*
X582Y3098D02*
X705Y3098D01*
X819Y3098D02*
X844Y3098D01*
X988Y3098D02*
X1051Y3098D01*
X1153Y3098D02*
X1271Y3098D01*
X1363Y3098D02*
X1427Y3098D01*
X1521Y3098D02*
X1551Y3098D01*
X1622Y3098D02*
X1647Y3098D01*
X1894Y3098D02*
X2019Y3098D01*
X2099Y3098D02*
X2194Y3098D01*
X205Y3097D02*
X329Y3097D01*
X394Y3097D02*
X487Y3097D01*
X582Y3097D02*
X706Y3097D01*
X819Y3097D02*
X844Y3097D01*
X988Y3097D02*
X1050Y3097D01*
X1154Y3097D02*
X1271Y3097D01*
X1364Y3097D02*
X1426Y3097D01*
X1521Y3097D02*
X1550Y3097D01*
X1622Y3097D02*
X1647Y3097D01*
X1894Y3097D02*
X2020Y3097D01*
X2099Y3097D02*
X2193Y3097D01*
X205Y3096D02*
X329Y3096D01*
X393Y3096D02*
X486Y3096D01*
X581Y3096D02*
X706Y3096D01*
X819Y3096D02*
X844Y3096D01*
X989Y3096D02*
X1050Y3096D01*
X1154Y3096D02*
X1271Y3096D01*
X1364Y3096D02*
X1426Y3096D01*
X1520Y3096D02*
X1550Y3096D01*
X1622Y3096D02*
X1647Y3096D01*
X1895Y3096D02*
X2021Y3096D01*
X2100Y3096D02*
X2192Y3096D01*
X206Y3095D02*
X328Y3095D01*
X393Y3095D02*
X485Y3095D01*
X580Y3095D02*
X707Y3095D01*
X819Y3095D02*
X844Y3095D01*
X989Y3095D02*
X1049Y3095D01*
X1155Y3095D02*
X1271Y3095D01*
X1365Y3095D02*
X1425Y3095D01*
X1520Y3095D02*
X1549Y3095D01*
X1622Y3095D02*
X1647Y3095D01*
X1895Y3095D02*
X2021Y3095D01*
X2101Y3095D02*
X2192Y3095D01*
X206Y3094D02*
X328Y3094D01*
X392Y3094D02*
X485Y3094D01*
X580Y3094D02*
X707Y3094D01*
X819Y3094D02*
X844Y3094D01*
X990Y3094D02*
X1049Y3094D01*
X1156Y3094D02*
X1271Y3094D01*
X1365Y3094D02*
X1424Y3094D01*
X1519Y3094D02*
X1549Y3094D01*
X1622Y3094D02*
X1647Y3094D01*
X1895Y3094D02*
X2022Y3094D01*
X2101Y3094D02*
X2191Y3094D01*
X207Y3093D02*
X327Y3093D01*
X392Y3093D02*
X484Y3093D01*
X580Y3093D02*
X707Y3093D01*
X819Y3093D02*
X844Y3093D01*
X990Y3093D02*
X1048Y3093D01*
X1157Y3093D02*
X1271Y3093D01*
X1366Y3093D02*
X1424Y3093D01*
X1519Y3093D02*
X1548Y3093D01*
X1622Y3093D02*
X1647Y3093D01*
X1896Y3093D02*
X2022Y3093D01*
X2102Y3093D02*
X2190Y3093D01*
X207Y3092D02*
X326Y3092D01*
X392Y3092D02*
X483Y3092D01*
X579Y3092D02*
X708Y3092D01*
X819Y3092D02*
X844Y3092D01*
X991Y3092D02*
X1048Y3092D01*
X1158Y3092D02*
X1271Y3092D01*
X1367Y3092D02*
X1423Y3092D01*
X1519Y3092D02*
X1547Y3092D01*
X1622Y3092D02*
X1647Y3092D01*
X1896Y3092D02*
X2022Y3092D01*
X2103Y3092D02*
X2190Y3092D01*
X208Y3091D02*
X326Y3091D01*
X391Y3091D02*
X483Y3091D01*
X579Y3091D02*
X708Y3091D01*
X819Y3091D02*
X844Y3091D01*
X992Y3091D02*
X1047Y3091D01*
X1159Y3091D02*
X1271Y3091D01*
X1367Y3091D02*
X1423Y3091D01*
X1518Y3091D02*
X1547Y3091D01*
X1622Y3091D02*
X1647Y3091D01*
X1897Y3091D02*
X2023Y3091D01*
X2103Y3091D02*
X2189Y3091D01*
X208Y3090D02*
X325Y3090D01*
X391Y3090D02*
X482Y3090D01*
X579Y3090D02*
X708Y3090D01*
X819Y3090D02*
X844Y3090D01*
X992Y3090D02*
X1046Y3090D01*
X1160Y3090D02*
X1271Y3090D01*
X1368Y3090D02*
X1422Y3090D01*
X1518Y3090D02*
X1546Y3090D01*
X1622Y3090D02*
X1647Y3090D01*
X1897Y3090D02*
X2023Y3090D01*
X2104Y3090D02*
X2188Y3090D01*
X209Y3089D02*
X324Y3089D01*
X391Y3089D02*
X481Y3089D01*
X579Y3089D02*
X708Y3089D01*
X819Y3089D02*
X844Y3089D01*
X993Y3089D02*
X1045Y3089D01*
X1161Y3089D02*
X1271Y3089D01*
X1369Y3089D02*
X1421Y3089D01*
X1518Y3089D02*
X1546Y3089D01*
X1622Y3089D02*
X1647Y3089D01*
X1898Y3089D02*
X2023Y3089D01*
X2105Y3089D02*
X2187Y3089D01*
X210Y3088D02*
X323Y3088D01*
X391Y3088D02*
X480Y3088D01*
X579Y3088D02*
X708Y3088D01*
X819Y3088D02*
X844Y3088D01*
X994Y3088D02*
X1045Y3088D01*
X1162Y3088D02*
X1271Y3088D01*
X1370Y3088D02*
X1420Y3088D01*
X1518Y3088D02*
X1545Y3088D01*
X1622Y3088D02*
X1647Y3088D01*
X1898Y3088D02*
X2023Y3088D01*
X2106Y3088D02*
X2186Y3088D01*
X211Y3087D02*
X322Y3087D01*
X392Y3087D02*
X479Y3087D01*
X579Y3087D02*
X708Y3087D01*
X819Y3087D02*
X844Y3087D01*
X995Y3087D02*
X1044Y3087D01*
X1164Y3087D02*
X1271Y3087D01*
X1371Y3087D02*
X1419Y3087D01*
X1518Y3087D02*
X1544Y3087D01*
X1622Y3087D02*
X1647Y3087D01*
X1899Y3087D02*
X2022Y3087D01*
X2107Y3087D02*
X2185Y3087D01*
X212Y3086D02*
X321Y3086D01*
X392Y3086D02*
X478Y3086D01*
X580Y3086D02*
X708Y3086D01*
X819Y3086D02*
X844Y3086D01*
X996Y3086D02*
X1043Y3086D01*
X1165Y3086D02*
X1271Y3086D01*
X1372Y3086D02*
X1418Y3086D01*
X1519Y3086D02*
X1544Y3086D01*
X1622Y3086D02*
X1647Y3086D01*
X1900Y3086D02*
X2022Y3086D01*
X2108Y3086D02*
X2184Y3086D01*
X212Y3085D02*
X320Y3085D01*
X392Y3085D02*
X476Y3085D01*
X580Y3085D02*
X707Y3085D01*
X820Y3085D02*
X843Y3085D01*
X997Y3085D02*
X1042Y3085D01*
X1166Y3085D02*
X1271Y3085D01*
X1373Y3085D02*
X1417Y3085D01*
X1519Y3085D02*
X1543Y3085D01*
X1623Y3085D02*
X1646Y3085D01*
X1901Y3085D02*
X2022Y3085D01*
X2110Y3085D02*
X2183Y3085D01*
X214Y3084D02*
X319Y3084D01*
X393Y3084D02*
X475Y3084D01*
X580Y3084D02*
X707Y3084D01*
X820Y3084D02*
X843Y3084D01*
X998Y3084D02*
X1040Y3084D01*
X1168Y3084D02*
X1271Y3084D01*
X1374Y3084D02*
X1416Y3084D01*
X1519Y3084D02*
X1543Y3084D01*
X1623Y3084D02*
X1646Y3084D01*
X1902Y3084D02*
X2022Y3084D01*
X2111Y3084D02*
X2181Y3084D01*
X215Y3083D02*
X318Y3083D01*
X393Y3083D02*
X474Y3083D01*
X581Y3083D02*
X706Y3083D01*
X821Y3083D02*
X842Y3083D01*
X1000Y3083D02*
X1039Y3083D01*
X1170Y3083D02*
X1271Y3083D01*
X1375Y3083D02*
X1415Y3083D01*
X1520Y3083D02*
X1542Y3083D01*
X1623Y3083D02*
X1645Y3083D01*
X1903Y3083D02*
X2021Y3083D01*
X2112Y3083D02*
X2180Y3083D01*
X216Y3082D02*
X316Y3082D01*
X394Y3082D02*
X472Y3082D01*
X581Y3082D02*
X706Y3082D01*
X821Y3082D02*
X842Y3082D01*
X1001Y3082D02*
X1038Y3082D01*
X1171Y3082D02*
X1271Y3082D01*
X1377Y3082D02*
X1413Y3082D01*
X1521Y3082D02*
X1541Y3082D01*
X1624Y3082D02*
X1645Y3082D01*
X1904Y3082D02*
X2020Y3082D01*
X2114Y3082D02*
X2179Y3082D01*
X217Y3081D02*
X315Y3081D01*
X394Y3081D02*
X470Y3081D01*
X582Y3081D02*
X705Y3081D01*
X822Y3081D02*
X841Y3081D01*
X1003Y3081D02*
X1036Y3081D01*
X1174Y3081D02*
X1271Y3081D01*
X1378Y3081D02*
X1412Y3081D01*
X1521Y3081D02*
X1541Y3081D01*
X1625Y3081D02*
X1644Y3081D01*
X1905Y3081D02*
X2020Y3081D01*
X2115Y3081D02*
X2177Y3081D01*
X219Y3080D02*
X313Y3080D01*
X395Y3080D02*
X469Y3080D01*
X583Y3080D02*
X704Y3080D01*
X823Y3080D02*
X840Y3080D01*
X1004Y3080D02*
X1034Y3080D01*
X1176Y3080D02*
X1271Y3080D01*
X1380Y3080D02*
X1410Y3080D01*
X1522Y3080D02*
X1540Y3080D01*
X1626Y3080D02*
X1643Y3080D01*
X1907Y3080D02*
X2019Y3080D01*
X2117Y3080D02*
X2175Y3080D01*
X221Y3079D02*
X311Y3079D01*
X397Y3079D02*
X466Y3079D01*
X584Y3079D02*
X703Y3079D01*
X824Y3079D02*
X839Y3079D01*
X1006Y3079D02*
X1032Y3079D01*
X1178Y3079D02*
X1271Y3079D01*
X1382Y3079D02*
X1408Y3079D01*
X1523Y3079D02*
X1539Y3079D01*
X1627Y3079D02*
X1642Y3079D01*
X1909Y3079D02*
X2018Y3079D01*
X2120Y3079D02*
X2173Y3079D01*
X223Y3078D02*
X308Y3078D01*
X398Y3078D02*
X464Y3078D01*
X586Y3078D02*
X701Y3078D01*
X826Y3078D02*
X837Y3078D01*
X1009Y3078D02*
X1030Y3078D01*
X1182Y3078D02*
X1271Y3078D01*
X1385Y3078D02*
X1405Y3078D01*
X1525Y3078D02*
X1537Y3078D01*
X1628Y3078D02*
X1640Y3078D01*
X1911Y3078D02*
X2016Y3078D01*
X2122Y3078D02*
X2170Y3078D01*
X226Y3077D02*
X305Y3077D01*
X400Y3077D02*
X459Y3077D01*
X588Y3077D02*
X699Y3077D01*
X828Y3077D02*
X835Y3077D01*
X1013Y3077D02*
X1026Y3077D01*
X1186Y3077D02*
X1271Y3077D01*
X1389Y3077D02*
X1401Y3077D01*
X1527Y3077D02*
X1535Y3077D01*
X1631Y3077D02*
X1638Y3077D01*
X1914Y3077D02*
X2014Y3077D01*
X2126Y3077D02*
X2166Y3077D01*
X1717Y3076D02*
X1824Y3076D01*
X1714Y3075D02*
X1827Y3075D01*
X1712Y3074D02*
X1829Y3074D01*
X1711Y3073D02*
X1830Y3073D01*
X1710Y3072D02*
X1831Y3072D01*
X1709Y3071D02*
X1832Y3071D01*
X1708Y3070D02*
X1833Y3070D01*
X1707Y3069D02*
X1833Y3069D01*
X1707Y3068D02*
X1834Y3068D01*
X1707Y3067D02*
X1834Y3067D01*
X1706Y3066D02*
X1835Y3066D01*
X1706Y3065D02*
X1835Y3065D01*
X1706Y3064D02*
X1835Y3064D01*
X1706Y3063D02*
X1835Y3063D01*
X1706Y3062D02*
X1835Y3062D01*
X1706Y3061D02*
X1835Y3061D01*
X1706Y3060D02*
X1834Y3060D01*
X1707Y3059D02*
X1834Y3059D01*
X1707Y3058D02*
X1834Y3058D01*
X1708Y3057D02*
X1833Y3057D01*
X1708Y3056D02*
X1833Y3056D01*
X1709Y3055D02*
X1832Y3055D01*
X1710Y3054D02*
X1831Y3054D01*
X1711Y3053D02*
X1830Y3053D01*
X1712Y3052D02*
X1829Y3052D01*
X1714Y3051D02*
X1827Y3051D01*
X1718Y3050D02*
X1823Y3050D01*
X808Y308D02*
X815Y308D01*
X806Y307D02*
X817Y307D01*
X805Y306D02*
X817Y306D01*
X805Y305D02*
X818Y305D01*
X804Y304D02*
X818Y304D01*
X1149Y304D02*
X1188Y304D01*
X715Y303D02*
X719Y303D01*
X804Y303D02*
X818Y303D01*
X898Y303D02*
X903Y303D01*
X1147Y303D02*
X1191Y303D01*
X714Y302D02*
X720Y302D01*
X804Y302D02*
X818Y302D01*
X897Y302D02*
X904Y302D01*
X1145Y302D02*
X1192Y302D01*
X713Y301D02*
X721Y301D01*
X804Y301D02*
X818Y301D01*
X897Y301D02*
X905Y301D01*
X1145Y301D02*
X1193Y301D01*
X713Y300D02*
X721Y300D01*
X804Y300D02*
X818Y300D01*
X896Y300D02*
X905Y300D01*
X1145Y300D02*
X1193Y300D01*
X712Y299D02*
X721Y299D01*
X804Y299D02*
X818Y299D01*
X896Y299D02*
X905Y299D01*
X1144Y299D02*
X1193Y299D01*
X712Y298D02*
X721Y298D01*
X804Y298D02*
X818Y298D01*
X896Y298D02*
X905Y298D01*
X1145Y298D02*
X1193Y298D01*
X712Y297D02*
X721Y297D01*
X805Y297D02*
X818Y297D01*
X896Y297D02*
X905Y297D01*
X1145Y297D02*
X1193Y297D01*
X712Y296D02*
X721Y296D01*
X805Y296D02*
X817Y296D01*
X896Y296D02*
X905Y296D01*
X1145Y296D02*
X1192Y296D01*
X712Y295D02*
X721Y295D01*
X806Y295D02*
X816Y295D01*
X896Y295D02*
X905Y295D01*
X1147Y295D02*
X1191Y295D01*
X712Y294D02*
X721Y294D01*
X809Y294D02*
X813Y294D01*
X896Y294D02*
X905Y294D01*
X1149Y294D02*
X1188Y294D01*
X712Y293D02*
X721Y293D01*
X896Y293D02*
X905Y293D01*
X1164Y293D02*
X1173Y293D01*
X712Y292D02*
X721Y292D01*
X896Y292D02*
X905Y292D01*
X1164Y292D02*
X1173Y292D01*
X712Y291D02*
X721Y291D01*
X896Y291D02*
X905Y291D01*
X1164Y291D02*
X1173Y291D01*
X712Y290D02*
X721Y290D01*
X896Y290D02*
X905Y290D01*
X1164Y290D02*
X1173Y290D01*
X712Y289D02*
X721Y289D01*
X896Y289D02*
X905Y289D01*
X1164Y289D02*
X1173Y289D01*
X712Y288D02*
X721Y288D01*
X896Y288D02*
X905Y288D01*
X1164Y288D02*
X1173Y288D01*
X712Y287D02*
X721Y287D01*
X896Y287D02*
X905Y287D01*
X1164Y287D02*
X1173Y287D01*
X712Y286D02*
X721Y286D01*
X896Y286D02*
X905Y286D01*
X1164Y286D02*
X1173Y286D01*
X712Y285D02*
X721Y285D01*
X896Y285D02*
X905Y285D01*
X1164Y285D02*
X1173Y285D01*
X712Y284D02*
X721Y284D01*
X896Y284D02*
X905Y284D01*
X1164Y284D02*
X1173Y284D01*
X712Y283D02*
X721Y283D01*
X896Y283D02*
X905Y283D01*
X1164Y283D02*
X1173Y283D01*
X654Y282D02*
X676Y282D01*
X712Y282D02*
X721Y282D01*
X731Y282D02*
X748Y282D01*
X807Y282D02*
X826Y282D01*
X868Y282D02*
X882Y282D01*
X896Y282D02*
X905Y282D01*
X940Y282D02*
X954Y282D01*
X971Y282D02*
X975Y282D01*
X1014Y282D02*
X1036Y282D01*
X1083Y282D02*
X1099Y282D01*
X1115Y282D02*
X1119Y282D01*
X1164Y282D02*
X1173Y282D01*
X652Y281D02*
X678Y281D01*
X712Y281D02*
X721Y281D01*
X729Y281D02*
X750Y281D01*
X806Y281D02*
X827Y281D01*
X866Y281D02*
X884Y281D01*
X896Y281D02*
X905Y281D01*
X938Y281D02*
X956Y281D01*
X969Y281D02*
X976Y281D01*
X1012Y281D02*
X1038Y281D01*
X1080Y281D02*
X1100Y281D01*
X1113Y281D02*
X1120Y281D01*
X1164Y281D02*
X1173Y281D01*
X650Y280D02*
X679Y280D01*
X712Y280D02*
X721Y280D01*
X727Y280D02*
X751Y280D01*
X805Y280D02*
X828Y280D01*
X864Y280D02*
X886Y280D01*
X896Y280D02*
X905Y280D01*
X936Y280D02*
X958Y280D01*
X969Y280D02*
X977Y280D01*
X1010Y280D02*
X1039Y280D01*
X1079Y280D02*
X1102Y280D01*
X1113Y280D02*
X1121Y280D01*
X1164Y280D02*
X1173Y280D01*
X649Y279D02*
X681Y279D01*
X712Y279D02*
X721Y279D01*
X726Y279D02*
X753Y279D01*
X805Y279D02*
X828Y279D01*
X863Y279D02*
X888Y279D01*
X896Y279D02*
X905Y279D01*
X935Y279D02*
X960Y279D01*
X968Y279D02*
X977Y279D01*
X1009Y279D02*
X1041Y279D01*
X1078Y279D02*
X1103Y279D01*
X1112Y279D02*
X1121Y279D01*
X1164Y279D02*
X1173Y279D01*
X648Y278D02*
X682Y278D01*
X712Y278D02*
X721Y278D01*
X725Y278D02*
X754Y278D01*
X804Y278D02*
X828Y278D01*
X862Y278D02*
X889Y278D01*
X896Y278D02*
X905Y278D01*
X934Y278D02*
X961Y278D01*
X968Y278D02*
X977Y278D01*
X1008Y278D02*
X1042Y278D01*
X1076Y278D02*
X1104Y278D01*
X1112Y278D02*
X1121Y278D01*
X1164Y278D02*
X1173Y278D01*
X647Y277D02*
X683Y277D01*
X712Y277D02*
X721Y277D01*
X724Y277D02*
X755Y277D01*
X804Y277D02*
X828Y277D01*
X861Y277D02*
X891Y277D01*
X896Y277D02*
X905Y277D01*
X933Y277D02*
X963Y277D01*
X968Y277D02*
X977Y277D01*
X1007Y277D02*
X1043Y277D01*
X1076Y277D02*
X1105Y277D01*
X1112Y277D02*
X1121Y277D01*
X1164Y277D02*
X1173Y277D01*
X646Y276D02*
X684Y276D01*
X712Y276D02*
X756Y276D01*
X804Y276D02*
X828Y276D01*
X860Y276D02*
X892Y276D01*
X896Y276D02*
X905Y276D01*
X932Y276D02*
X964Y276D01*
X968Y276D02*
X977Y276D01*
X1006Y276D02*
X1044Y276D01*
X1075Y276D02*
X1106Y276D01*
X1112Y276D02*
X1121Y276D01*
X1164Y276D02*
X1173Y276D01*
X645Y275D02*
X685Y275D01*
X712Y275D02*
X757Y275D01*
X804Y275D02*
X827Y275D01*
X860Y275D02*
X894Y275D01*
X896Y275D02*
X905Y275D01*
X932Y275D02*
X966Y275D01*
X968Y275D02*
X977Y275D01*
X1005Y275D02*
X1045Y275D01*
X1074Y275D02*
X1107Y275D01*
X1112Y275D02*
X1121Y275D01*
X1164Y275D02*
X1173Y275D01*
X644Y274D02*
X686Y274D01*
X712Y274D02*
X758Y274D01*
X804Y274D02*
X826Y274D01*
X859Y274D02*
X905Y274D01*
X931Y274D02*
X977Y274D01*
X1004Y274D02*
X1046Y274D01*
X1074Y274D02*
X1109Y274D01*
X1112Y274D02*
X1121Y274D01*
X1164Y274D02*
X1173Y274D01*
X643Y273D02*
X687Y273D01*
X712Y273D02*
X759Y273D01*
X804Y273D02*
X824Y273D01*
X859Y273D02*
X905Y273D01*
X931Y273D02*
X977Y273D01*
X1003Y273D02*
X1047Y273D01*
X1073Y273D02*
X1110Y273D01*
X1112Y273D02*
X1121Y273D01*
X1164Y273D02*
X1173Y273D01*
X642Y272D02*
X655Y272D01*
X674Y272D02*
X687Y272D01*
X712Y272D02*
X733Y272D01*
X746Y272D02*
X759Y272D01*
X804Y272D02*
X813Y272D01*
X858Y272D02*
X869Y272D01*
X881Y272D02*
X905Y272D01*
X930Y272D02*
X941Y272D01*
X953Y272D02*
X977Y272D01*
X1002Y272D02*
X1015Y272D01*
X1034Y272D02*
X1047Y272D01*
X1073Y272D02*
X1084Y272D01*
X1096Y272D02*
X1121Y272D01*
X1164Y272D02*
X1173Y272D01*
X642Y271D02*
X654Y271D01*
X676Y271D02*
X688Y271D01*
X712Y271D02*
X731Y271D01*
X748Y271D02*
X760Y271D01*
X804Y271D02*
X813Y271D01*
X858Y271D02*
X868Y271D01*
X883Y271D02*
X905Y271D01*
X930Y271D02*
X940Y271D01*
X955Y271D02*
X977Y271D01*
X1002Y271D02*
X1014Y271D01*
X1036Y271D02*
X1048Y271D01*
X1073Y271D02*
X1083Y271D01*
X1098Y271D02*
X1121Y271D01*
X1164Y271D02*
X1173Y271D01*
X641Y270D02*
X652Y270D01*
X677Y270D02*
X688Y270D01*
X712Y270D02*
X730Y270D01*
X749Y270D02*
X760Y270D01*
X804Y270D02*
X813Y270D01*
X858Y270D02*
X867Y270D01*
X884Y270D02*
X905Y270D01*
X930Y270D02*
X939Y270D01*
X956Y270D02*
X977Y270D01*
X1001Y270D02*
X1012Y270D01*
X1037Y270D02*
X1048Y270D01*
X1073Y270D02*
X1082Y270D01*
X1099Y270D02*
X1121Y270D01*
X1164Y270D02*
X1173Y270D01*
X641Y269D02*
X651Y269D01*
X678Y269D02*
X688Y269D01*
X712Y269D02*
X729Y269D01*
X750Y269D02*
X761Y269D01*
X804Y269D02*
X813Y269D01*
X858Y269D02*
X867Y269D01*
X886Y269D02*
X905Y269D01*
X930Y269D02*
X939Y269D01*
X958Y269D02*
X977Y269D01*
X1001Y269D02*
X1011Y269D01*
X1038Y269D02*
X1048Y269D01*
X1072Y269D02*
X1082Y269D01*
X1100Y269D02*
X1121Y269D01*
X1164Y269D02*
X1173Y269D01*
X641Y268D02*
X651Y268D01*
X679Y268D02*
X689Y268D01*
X712Y268D02*
X728Y268D01*
X751Y268D02*
X761Y268D01*
X804Y268D02*
X813Y268D01*
X858Y268D02*
X867Y268D01*
X887Y268D02*
X905Y268D01*
X930Y268D02*
X939Y268D01*
X959Y268D02*
X977Y268D01*
X1001Y268D02*
X1011Y268D01*
X1039Y268D02*
X1049Y268D01*
X1072Y268D02*
X1082Y268D01*
X1101Y268D02*
X1121Y268D01*
X1164Y268D02*
X1173Y268D01*
X641Y267D02*
X650Y267D01*
X680Y267D02*
X689Y267D01*
X712Y267D02*
X727Y267D01*
X751Y267D02*
X761Y267D01*
X804Y267D02*
X813Y267D01*
X858Y267D02*
X867Y267D01*
X889Y267D02*
X905Y267D01*
X930Y267D02*
X939Y267D01*
X961Y267D02*
X977Y267D01*
X1001Y267D02*
X1010Y267D01*
X1040Y267D02*
X1049Y267D01*
X1072Y267D02*
X1081Y267D01*
X1102Y267D02*
X1121Y267D01*
X1164Y267D02*
X1173Y267D01*
X641Y266D02*
X650Y266D01*
X680Y266D02*
X689Y266D01*
X712Y266D02*
X725Y266D01*
X752Y266D02*
X761Y266D01*
X804Y266D02*
X813Y266D01*
X858Y266D02*
X867Y266D01*
X890Y266D02*
X905Y266D01*
X930Y266D02*
X939Y266D01*
X962Y266D02*
X977Y266D01*
X1000Y266D02*
X1010Y266D01*
X1040Y266D02*
X1049Y266D01*
X1072Y266D02*
X1081Y266D01*
X1103Y266D02*
X1121Y266D01*
X1164Y266D02*
X1173Y266D01*
X640Y265D02*
X650Y265D01*
X680Y265D02*
X689Y265D01*
X712Y265D02*
X724Y265D01*
X752Y265D02*
X761Y265D01*
X804Y265D02*
X813Y265D01*
X858Y265D02*
X867Y265D01*
X892Y265D02*
X905Y265D01*
X930Y265D02*
X939Y265D01*
X964Y265D02*
X977Y265D01*
X1000Y265D02*
X1010Y265D01*
X1040Y265D02*
X1049Y265D01*
X1072Y265D02*
X1081Y265D01*
X1104Y265D02*
X1121Y265D01*
X1164Y265D02*
X1173Y265D01*
X640Y264D02*
X650Y264D01*
X680Y264D02*
X689Y264D01*
X712Y264D02*
X723Y264D01*
X752Y264D02*
X761Y264D01*
X804Y264D02*
X813Y264D01*
X858Y264D02*
X867Y264D01*
X893Y264D02*
X905Y264D01*
X930Y264D02*
X939Y264D01*
X965Y264D02*
X977Y264D01*
X1000Y264D02*
X1009Y264D01*
X1040Y264D02*
X1049Y264D01*
X1073Y264D02*
X1081Y264D01*
X1106Y264D02*
X1121Y264D01*
X1164Y264D02*
X1173Y264D01*
X640Y263D02*
X650Y263D01*
X680Y263D02*
X689Y263D01*
X712Y263D02*
X722Y263D01*
X752Y263D02*
X761Y263D01*
X804Y263D02*
X813Y263D01*
X858Y263D02*
X867Y263D01*
X895Y263D02*
X905Y263D01*
X930Y263D02*
X939Y263D01*
X967Y263D02*
X977Y263D01*
X1000Y263D02*
X1009Y263D01*
X1040Y263D02*
X1049Y263D01*
X1073Y263D02*
X1081Y263D01*
X1107Y263D02*
X1121Y263D01*
X1164Y263D02*
X1173Y263D01*
X640Y262D02*
X650Y262D01*
X680Y262D02*
X689Y262D01*
X712Y262D02*
X722Y262D01*
X752Y262D02*
X761Y262D01*
X804Y262D02*
X813Y262D01*
X857Y262D02*
X867Y262D01*
X896Y262D02*
X905Y262D01*
X929Y262D02*
X939Y262D01*
X968Y262D02*
X977Y262D01*
X1000Y262D02*
X1009Y262D01*
X1040Y262D02*
X1049Y262D01*
X1074Y262D02*
X1080Y262D01*
X1108Y262D02*
X1121Y262D01*
X1164Y262D02*
X1173Y262D01*
X640Y261D02*
X650Y261D01*
X680Y261D02*
X689Y261D01*
X712Y261D02*
X722Y261D01*
X752Y261D02*
X761Y261D01*
X804Y261D02*
X813Y261D01*
X857Y261D02*
X867Y261D01*
X896Y261D02*
X905Y261D01*
X929Y261D02*
X939Y261D01*
X968Y261D02*
X977Y261D01*
X1000Y261D02*
X1009Y261D01*
X1040Y261D02*
X1049Y261D01*
X1075Y261D02*
X1079Y261D01*
X1109Y261D02*
X1121Y261D01*
X1164Y261D02*
X1173Y261D01*
X640Y260D02*
X650Y260D01*
X680Y260D02*
X689Y260D01*
X712Y260D02*
X721Y260D01*
X752Y260D02*
X761Y260D01*
X804Y260D02*
X813Y260D01*
X857Y260D02*
X866Y260D01*
X896Y260D02*
X905Y260D01*
X929Y260D02*
X938Y260D01*
X968Y260D02*
X977Y260D01*
X1000Y260D02*
X1009Y260D01*
X1040Y260D02*
X1049Y260D01*
X1110Y260D02*
X1121Y260D01*
X1164Y260D02*
X1173Y260D01*
X640Y259D02*
X650Y259D01*
X680Y259D02*
X689Y259D01*
X712Y259D02*
X721Y259D01*
X752Y259D02*
X761Y259D01*
X804Y259D02*
X813Y259D01*
X857Y259D02*
X866Y259D01*
X896Y259D02*
X905Y259D01*
X929Y259D02*
X938Y259D01*
X968Y259D02*
X977Y259D01*
X1000Y259D02*
X1009Y259D01*
X1040Y259D02*
X1049Y259D01*
X1111Y259D02*
X1121Y259D01*
X1164Y259D02*
X1173Y259D01*
X640Y258D02*
X650Y258D01*
X680Y258D02*
X689Y258D01*
X712Y258D02*
X721Y258D01*
X752Y258D02*
X761Y258D01*
X804Y258D02*
X813Y258D01*
X857Y258D02*
X866Y258D01*
X896Y258D02*
X905Y258D01*
X929Y258D02*
X938Y258D01*
X968Y258D02*
X977Y258D01*
X1000Y258D02*
X1009Y258D01*
X1040Y258D02*
X1049Y258D01*
X1112Y258D02*
X1121Y258D01*
X1164Y258D02*
X1173Y258D01*
X640Y257D02*
X689Y257D01*
X712Y257D02*
X721Y257D01*
X752Y257D02*
X761Y257D01*
X804Y257D02*
X813Y257D01*
X857Y257D02*
X866Y257D01*
X896Y257D02*
X905Y257D01*
X929Y257D02*
X938Y257D01*
X968Y257D02*
X977Y257D01*
X1000Y257D02*
X1009Y257D01*
X1040Y257D02*
X1049Y257D01*
X1112Y257D02*
X1121Y257D01*
X1164Y257D02*
X1173Y257D01*
X640Y256D02*
X689Y256D01*
X712Y256D02*
X721Y256D01*
X752Y256D02*
X761Y256D01*
X804Y256D02*
X813Y256D01*
X857Y256D02*
X866Y256D01*
X896Y256D02*
X905Y256D01*
X929Y256D02*
X938Y256D01*
X968Y256D02*
X977Y256D01*
X1000Y256D02*
X1009Y256D01*
X1040Y256D02*
X1049Y256D01*
X1112Y256D02*
X1121Y256D01*
X1164Y256D02*
X1173Y256D01*
X640Y255D02*
X689Y255D01*
X712Y255D02*
X721Y255D01*
X752Y255D02*
X761Y255D01*
X804Y255D02*
X813Y255D01*
X857Y255D02*
X866Y255D01*
X896Y255D02*
X905Y255D01*
X929Y255D02*
X938Y255D01*
X968Y255D02*
X977Y255D01*
X1000Y255D02*
X1009Y255D01*
X1040Y255D02*
X1049Y255D01*
X1112Y255D02*
X1121Y255D01*
X1164Y255D02*
X1173Y255D01*
X640Y254D02*
X689Y254D01*
X712Y254D02*
X721Y254D01*
X752Y254D02*
X761Y254D01*
X804Y254D02*
X813Y254D01*
X857Y254D02*
X866Y254D01*
X896Y254D02*
X905Y254D01*
X929Y254D02*
X938Y254D01*
X968Y254D02*
X977Y254D01*
X1000Y254D02*
X1009Y254D01*
X1040Y254D02*
X1049Y254D01*
X1112Y254D02*
X1121Y254D01*
X1164Y254D02*
X1173Y254D01*
X640Y253D02*
X689Y253D01*
X712Y253D02*
X721Y253D01*
X752Y253D02*
X761Y253D01*
X804Y253D02*
X813Y253D01*
X857Y253D02*
X866Y253D01*
X896Y253D02*
X905Y253D01*
X929Y253D02*
X938Y253D01*
X968Y253D02*
X977Y253D01*
X1000Y253D02*
X1009Y253D01*
X1040Y253D02*
X1049Y253D01*
X1112Y253D02*
X1121Y253D01*
X1164Y253D02*
X1173Y253D01*
X640Y252D02*
X689Y252D01*
X712Y252D02*
X721Y252D01*
X752Y252D02*
X761Y252D01*
X804Y252D02*
X813Y252D01*
X857Y252D02*
X866Y252D01*
X896Y252D02*
X905Y252D01*
X929Y252D02*
X938Y252D01*
X968Y252D02*
X977Y252D01*
X1000Y252D02*
X1009Y252D01*
X1040Y252D02*
X1049Y252D01*
X1112Y252D02*
X1121Y252D01*
X1164Y252D02*
X1173Y252D01*
X641Y251D02*
X689Y251D01*
X712Y251D02*
X721Y251D01*
X752Y251D02*
X761Y251D01*
X804Y251D02*
X813Y251D01*
X857Y251D02*
X866Y251D01*
X896Y251D02*
X905Y251D01*
X929Y251D02*
X938Y251D01*
X968Y251D02*
X977Y251D01*
X1000Y251D02*
X1009Y251D01*
X1040Y251D02*
X1049Y251D01*
X1112Y251D02*
X1121Y251D01*
X1164Y251D02*
X1173Y251D01*
X641Y250D02*
X689Y250D01*
X712Y250D02*
X721Y250D01*
X752Y250D02*
X761Y250D01*
X804Y250D02*
X813Y250D01*
X857Y250D02*
X866Y250D01*
X896Y250D02*
X905Y250D01*
X929Y250D02*
X938Y250D01*
X968Y250D02*
X977Y250D01*
X1000Y250D02*
X1009Y250D01*
X1040Y250D02*
X1049Y250D01*
X1112Y250D02*
X1121Y250D01*
X1164Y250D02*
X1173Y250D01*
X642Y249D02*
X689Y249D01*
X712Y249D02*
X721Y249D01*
X752Y249D02*
X761Y249D01*
X804Y249D02*
X813Y249D01*
X857Y249D02*
X866Y249D01*
X896Y249D02*
X905Y249D01*
X929Y249D02*
X938Y249D01*
X968Y249D02*
X977Y249D01*
X1000Y249D02*
X1009Y249D01*
X1040Y249D02*
X1049Y249D01*
X1112Y249D02*
X1121Y249D01*
X1164Y249D02*
X1173Y249D01*
X643Y248D02*
X689Y248D01*
X712Y248D02*
X722Y248D01*
X752Y248D02*
X761Y248D01*
X804Y248D02*
X813Y248D01*
X857Y248D02*
X866Y248D01*
X896Y248D02*
X905Y248D01*
X929Y248D02*
X938Y248D01*
X968Y248D02*
X977Y248D01*
X1000Y248D02*
X1009Y248D01*
X1040Y248D02*
X1049Y248D01*
X1112Y248D02*
X1121Y248D01*
X1164Y248D02*
X1173Y248D01*
X680Y247D02*
X689Y247D01*
X712Y247D02*
X722Y247D01*
X752Y247D02*
X761Y247D01*
X804Y247D02*
X813Y247D01*
X857Y247D02*
X866Y247D01*
X896Y247D02*
X905Y247D01*
X929Y247D02*
X938Y247D01*
X968Y247D02*
X977Y247D01*
X1000Y247D02*
X1009Y247D01*
X1040Y247D02*
X1049Y247D01*
X1112Y247D02*
X1121Y247D01*
X1164Y247D02*
X1173Y247D01*
X680Y246D02*
X689Y246D01*
X712Y246D02*
X722Y246D01*
X752Y246D02*
X761Y246D01*
X804Y246D02*
X813Y246D01*
X857Y246D02*
X866Y246D01*
X896Y246D02*
X905Y246D01*
X929Y246D02*
X938Y246D01*
X968Y246D02*
X977Y246D01*
X1000Y246D02*
X1009Y246D01*
X1040Y246D02*
X1049Y246D01*
X1112Y246D02*
X1121Y246D01*
X1164Y246D02*
X1173Y246D01*
X680Y245D02*
X689Y245D01*
X712Y245D02*
X723Y245D01*
X752Y245D02*
X761Y245D01*
X804Y245D02*
X813Y245D01*
X857Y245D02*
X866Y245D01*
X896Y245D02*
X905Y245D01*
X929Y245D02*
X938Y245D01*
X968Y245D02*
X977Y245D01*
X1000Y245D02*
X1009Y245D01*
X1040Y245D02*
X1049Y245D01*
X1112Y245D02*
X1121Y245D01*
X1164Y245D02*
X1173Y245D01*
X680Y244D02*
X689Y244D01*
X712Y244D02*
X724Y244D01*
X752Y244D02*
X761Y244D01*
X804Y244D02*
X813Y244D01*
X857Y244D02*
X866Y244D01*
X896Y244D02*
X905Y244D01*
X929Y244D02*
X938Y244D01*
X968Y244D02*
X977Y244D01*
X1000Y244D02*
X1010Y244D01*
X1040Y244D02*
X1049Y244D01*
X1112Y244D02*
X1121Y244D01*
X1164Y244D02*
X1173Y244D01*
X680Y243D02*
X689Y243D01*
X712Y243D02*
X725Y243D01*
X752Y243D02*
X761Y243D01*
X804Y243D02*
X813Y243D01*
X857Y243D02*
X866Y243D01*
X896Y243D02*
X905Y243D01*
X929Y243D02*
X938Y243D01*
X968Y243D02*
X977Y243D01*
X1000Y243D02*
X1010Y243D01*
X1040Y243D02*
X1049Y243D01*
X1112Y243D02*
X1121Y243D01*
X1164Y243D02*
X1173Y243D01*
X680Y242D02*
X689Y242D01*
X712Y242D02*
X727Y242D01*
X752Y242D02*
X761Y242D01*
X804Y242D02*
X813Y242D01*
X857Y242D02*
X866Y242D01*
X896Y242D02*
X905Y242D01*
X929Y242D02*
X938Y242D01*
X968Y242D02*
X977Y242D01*
X1001Y242D02*
X1010Y242D01*
X1040Y242D02*
X1049Y242D01*
X1112Y242D02*
X1121Y242D01*
X1164Y242D02*
X1173Y242D01*
X679Y241D02*
X689Y241D01*
X712Y241D02*
X728Y241D01*
X751Y241D02*
X761Y241D01*
X804Y241D02*
X813Y241D01*
X857Y241D02*
X866Y241D01*
X896Y241D02*
X905Y241D01*
X929Y241D02*
X938Y241D01*
X968Y241D02*
X977Y241D01*
X1001Y241D02*
X1011Y241D01*
X1039Y241D02*
X1049Y241D01*
X1112Y241D02*
X1121Y241D01*
X1164Y241D02*
X1173Y241D01*
X678Y240D02*
X689Y240D01*
X712Y240D02*
X729Y240D01*
X750Y240D02*
X761Y240D01*
X804Y240D02*
X813Y240D01*
X857Y240D02*
X866Y240D01*
X896Y240D02*
X905Y240D01*
X929Y240D02*
X938Y240D01*
X968Y240D02*
X977Y240D01*
X1001Y240D02*
X1012Y240D01*
X1038Y240D02*
X1049Y240D01*
X1112Y240D02*
X1121Y240D01*
X1164Y240D02*
X1173Y240D01*
X677Y239D02*
X688Y239D01*
X712Y239D02*
X730Y239D01*
X749Y239D02*
X760Y239D01*
X804Y239D02*
X813Y239D01*
X857Y239D02*
X866Y239D01*
X896Y239D02*
X905Y239D01*
X929Y239D02*
X938Y239D01*
X968Y239D02*
X977Y239D01*
X1001Y239D02*
X1013Y239D01*
X1037Y239D02*
X1048Y239D01*
X1112Y239D02*
X1121Y239D01*
X1164Y239D02*
X1173Y239D01*
X676Y238D02*
X688Y238D01*
X712Y238D02*
X731Y238D01*
X748Y238D02*
X760Y238D01*
X804Y238D02*
X813Y238D01*
X857Y238D02*
X866Y238D01*
X896Y238D02*
X905Y238D01*
X929Y238D02*
X938Y238D01*
X968Y238D02*
X977Y238D01*
X1002Y238D02*
X1014Y238D01*
X1036Y238D02*
X1048Y238D01*
X1112Y238D02*
X1121Y238D01*
X1164Y238D02*
X1173Y238D01*
X674Y237D02*
X687Y237D01*
X712Y237D02*
X733Y237D01*
X746Y237D02*
X759Y237D01*
X804Y237D02*
X813Y237D01*
X857Y237D02*
X866Y237D01*
X896Y237D02*
X905Y237D01*
X929Y237D02*
X938Y237D01*
X968Y237D02*
X977Y237D01*
X1002Y237D02*
X1015Y237D01*
X1034Y237D02*
X1047Y237D01*
X1112Y237D02*
X1121Y237D01*
X1164Y237D02*
X1173Y237D01*
X645Y236D02*
X687Y236D01*
X712Y236D02*
X759Y236D01*
X794Y236D02*
X824Y236D01*
X857Y236D02*
X866Y236D01*
X896Y236D02*
X905Y236D01*
X929Y236D02*
X938Y236D01*
X968Y236D02*
X977Y236D01*
X1003Y236D02*
X1047Y236D01*
X1112Y236D02*
X1121Y236D01*
X1149Y236D02*
X1189Y236D01*
X642Y235D02*
X686Y235D01*
X712Y235D02*
X758Y235D01*
X791Y235D02*
X826Y235D01*
X857Y235D02*
X866Y235D01*
X896Y235D02*
X905Y235D01*
X929Y235D02*
X938Y235D01*
X968Y235D02*
X977Y235D01*
X1004Y235D02*
X1046Y235D01*
X1112Y235D02*
X1121Y235D01*
X1146Y235D02*
X1191Y235D01*
X641Y234D02*
X685Y234D01*
X712Y234D02*
X757Y234D01*
X790Y234D02*
X827Y234D01*
X857Y234D02*
X866Y234D01*
X896Y234D02*
X905Y234D01*
X929Y234D02*
X938Y234D01*
X968Y234D02*
X977Y234D01*
X1005Y234D02*
X1045Y234D01*
X1112Y234D02*
X1121Y234D01*
X1145Y234D02*
X1192Y234D01*
X641Y233D02*
X684Y233D01*
X712Y233D02*
X756Y233D01*
X790Y233D02*
X828Y233D01*
X857Y233D02*
X866Y233D01*
X896Y233D02*
X905Y233D01*
X929Y233D02*
X938Y233D01*
X968Y233D02*
X977Y233D01*
X1006Y233D02*
X1044Y233D01*
X1112Y233D02*
X1121Y233D01*
X1145Y233D02*
X1193Y233D01*
X641Y232D02*
X683Y232D01*
X712Y232D02*
X755Y232D01*
X790Y232D02*
X828Y232D01*
X857Y232D02*
X866Y232D01*
X896Y232D02*
X905Y232D01*
X929Y232D02*
X938Y232D01*
X968Y232D02*
X977Y232D01*
X1007Y232D02*
X1043Y232D01*
X1112Y232D02*
X1121Y232D01*
X1145Y232D02*
X1193Y232D01*
X640Y231D02*
X682Y231D01*
X712Y231D02*
X721Y231D01*
X724Y231D02*
X754Y231D01*
X789Y231D02*
X828Y231D01*
X857Y231D02*
X865Y231D01*
X896Y231D02*
X905Y231D01*
X929Y231D02*
X937Y231D01*
X968Y231D02*
X977Y231D01*
X1008Y231D02*
X1042Y231D01*
X1112Y231D02*
X1121Y231D01*
X1144Y231D02*
X1193Y231D01*
X641Y230D02*
X681Y230D01*
X713Y230D02*
X721Y230D01*
X726Y230D02*
X753Y230D01*
X790Y230D02*
X828Y230D01*
X857Y230D02*
X865Y230D01*
X896Y230D02*
X905Y230D01*
X929Y230D02*
X937Y230D01*
X968Y230D02*
X977Y230D01*
X1009Y230D02*
X1041Y230D01*
X1112Y230D02*
X1121Y230D01*
X1145Y230D02*
X1193Y230D01*
X641Y229D02*
X680Y229D01*
X713Y229D02*
X721Y229D01*
X727Y229D02*
X752Y229D01*
X790Y229D02*
X828Y229D01*
X857Y229D02*
X865Y229D01*
X897Y229D02*
X905Y229D01*
X929Y229D02*
X937Y229D01*
X969Y229D02*
X977Y229D01*
X1010Y229D02*
X1039Y229D01*
X1113Y229D02*
X1121Y229D01*
X1145Y229D02*
X1193Y229D01*
X642Y228D02*
X678Y228D01*
X714Y228D02*
X720Y228D01*
X729Y228D02*
X750Y228D01*
X791Y228D02*
X827Y228D01*
X858Y228D02*
X864Y228D01*
X897Y228D02*
X904Y228D01*
X930Y228D02*
X936Y228D01*
X969Y228D02*
X976Y228D01*
X1012Y228D02*
X1038Y228D01*
X1113Y228D02*
X1120Y228D01*
X1146Y228D02*
X1192Y228D01*
X643Y227D02*
X676Y227D01*
X715Y227D02*
X719Y227D01*
X731Y227D02*
X748Y227D01*
X792Y227D02*
X826Y227D01*
X859Y227D02*
X863Y227D01*
X898Y227D02*
X903Y227D01*
X931Y227D02*
X935Y227D01*
X970Y227D02*
X975Y227D01*
X1014Y227D02*
X1036Y227D01*
X1114Y227D02*
X1119Y227D01*
X1147Y227D02*
X1191Y227D01*
X627Y174D02*
X635Y174D01*
X626Y173D02*
X636Y173D01*
X625Y172D02*
X637Y172D01*
X624Y171D02*
X638Y171D01*
X624Y170D02*
X638Y170D01*
X864Y170D02*
X865Y170D01*
X977Y170D02*
X1013Y170D01*
X1116Y170D02*
X1153Y170D01*
X1189Y170D02*
X1190Y170D01*
X624Y169D02*
X638Y169D01*
X862Y169D02*
X867Y169D01*
X973Y169D02*
X1013Y169D01*
X1113Y169D02*
X1155Y169D01*
X1187Y169D02*
X1192Y169D01*
X624Y168D02*
X638Y168D01*
X861Y168D02*
X868Y168D01*
X971Y168D02*
X1013Y168D01*
X1112Y168D02*
X1156Y168D01*
X1186Y168D02*
X1193Y168D01*
X624Y167D02*
X638Y167D01*
X860Y167D02*
X868Y167D01*
X970Y167D02*
X1013Y167D01*
X1111Y167D02*
X1156Y167D01*
X1185Y167D02*
X1194Y167D01*
X624Y166D02*
X638Y166D01*
X860Y166D02*
X869Y166D01*
X969Y166D02*
X1013Y166D01*
X1110Y166D02*
X1157Y166D01*
X1185Y166D02*
X1194Y166D01*
X624Y165D02*
X638Y165D01*
X708Y165D02*
X713Y165D01*
X860Y165D02*
X869Y165D01*
X968Y165D02*
X1013Y165D01*
X1109Y165D02*
X1157Y165D01*
X1185Y165D02*
X1194Y165D01*
X624Y164D02*
X638Y164D01*
X707Y164D02*
X714Y164D01*
X860Y164D02*
X869Y164D01*
X967Y164D02*
X1013Y164D01*
X1109Y164D02*
X1157Y164D01*
X1185Y164D02*
X1194Y164D01*
X624Y163D02*
X637Y163D01*
X706Y163D02*
X714Y163D01*
X860Y163D02*
X869Y163D01*
X966Y163D02*
X1013Y163D01*
X1108Y163D02*
X1156Y163D01*
X1185Y163D02*
X1194Y163D01*
X625Y162D02*
X637Y162D01*
X706Y162D02*
X715Y162D01*
X860Y162D02*
X869Y162D01*
X966Y162D02*
X1013Y162D01*
X1108Y162D02*
X1156Y162D01*
X1185Y162D02*
X1194Y162D01*
X626Y161D02*
X636Y161D01*
X706Y161D02*
X715Y161D01*
X860Y161D02*
X869Y161D01*
X965Y161D02*
X1013Y161D01*
X1108Y161D02*
X1154Y161D01*
X1185Y161D02*
X1194Y161D01*
X706Y160D02*
X715Y160D01*
X860Y160D02*
X869Y160D01*
X965Y160D02*
X978Y160D01*
X1003Y160D02*
X1013Y160D01*
X1108Y160D02*
X1117Y160D01*
X1185Y160D02*
X1194Y160D01*
X706Y159D02*
X715Y159D01*
X860Y159D02*
X869Y159D01*
X965Y159D02*
X975Y159D01*
X1004Y159D02*
X1013Y159D01*
X1108Y159D02*
X1117Y159D01*
X1185Y159D02*
X1194Y159D01*
X706Y158D02*
X715Y158D01*
X860Y158D02*
X869Y158D01*
X964Y158D02*
X974Y158D01*
X1004Y158D02*
X1013Y158D01*
X1108Y158D02*
X1117Y158D01*
X1185Y158D02*
X1194Y158D01*
X706Y157D02*
X715Y157D01*
X860Y157D02*
X869Y157D01*
X964Y157D02*
X974Y157D01*
X1004Y157D02*
X1013Y157D01*
X1108Y157D02*
X1117Y157D01*
X1185Y157D02*
X1194Y157D01*
X706Y156D02*
X715Y156D01*
X860Y156D02*
X869Y156D01*
X964Y156D02*
X973Y156D01*
X1004Y156D02*
X1013Y156D01*
X1108Y156D02*
X1117Y156D01*
X1185Y156D02*
X1194Y156D01*
X706Y155D02*
X715Y155D01*
X860Y155D02*
X869Y155D01*
X964Y155D02*
X973Y155D01*
X1004Y155D02*
X1013Y155D01*
X1108Y155D02*
X1117Y155D01*
X1185Y155D02*
X1194Y155D01*
X706Y154D02*
X715Y154D01*
X860Y154D02*
X869Y154D01*
X964Y154D02*
X973Y154D01*
X1004Y154D02*
X1013Y154D01*
X1108Y154D02*
X1117Y154D01*
X1185Y154D02*
X1194Y154D01*
X706Y153D02*
X715Y153D01*
X860Y153D02*
X869Y153D01*
X964Y153D02*
X973Y153D01*
X1004Y153D02*
X1013Y153D01*
X1108Y153D02*
X1117Y153D01*
X1185Y153D02*
X1194Y153D01*
X706Y152D02*
X715Y152D01*
X860Y152D02*
X869Y152D01*
X964Y152D02*
X973Y152D01*
X1004Y152D02*
X1013Y152D01*
X1108Y152D02*
X1117Y152D01*
X1185Y152D02*
X1194Y152D01*
X706Y151D02*
X715Y151D01*
X860Y151D02*
X869Y151D01*
X964Y151D02*
X973Y151D01*
X1004Y151D02*
X1013Y151D01*
X1108Y151D02*
X1117Y151D01*
X1185Y151D02*
X1194Y151D01*
X706Y150D02*
X715Y150D01*
X860Y150D02*
X869Y150D01*
X964Y150D02*
X973Y150D01*
X1004Y150D02*
X1013Y150D01*
X1108Y150D02*
X1117Y150D01*
X1185Y150D02*
X1194Y150D01*
X475Y149D02*
X494Y149D01*
X538Y149D02*
X557Y149D01*
X629Y149D02*
X642Y149D01*
X687Y149D02*
X719Y149D01*
X767Y149D02*
X778Y149D01*
X839Y149D02*
X845Y149D01*
X860Y149D02*
X869Y149D01*
X911Y149D02*
X922Y149D01*
X964Y149D02*
X973Y149D01*
X1004Y149D02*
X1013Y149D01*
X1108Y149D02*
X1117Y149D01*
X1185Y149D02*
X1194Y149D01*
X469Y148D02*
X500Y148D01*
X534Y148D02*
X562Y148D01*
X626Y148D02*
X646Y148D01*
X683Y148D02*
X723Y148D01*
X761Y148D02*
X784Y148D01*
X833Y148D02*
X850Y148D01*
X860Y148D02*
X869Y148D01*
X905Y148D02*
X928Y148D01*
X964Y148D02*
X973Y148D01*
X1004Y148D02*
X1013Y148D01*
X1108Y148D02*
X1117Y148D01*
X1185Y148D02*
X1194Y148D01*
X467Y147D02*
X502Y147D01*
X533Y147D02*
X565Y147D01*
X625Y147D02*
X647Y147D01*
X682Y147D02*
X724Y147D01*
X759Y147D02*
X786Y147D01*
X831Y147D02*
X853Y147D01*
X860Y147D02*
X869Y147D01*
X903Y147D02*
X930Y147D01*
X964Y147D02*
X974Y147D01*
X1004Y147D02*
X1013Y147D01*
X1108Y147D02*
X1117Y147D01*
X1185Y147D02*
X1194Y147D01*
X465Y146D02*
X503Y146D01*
X532Y146D02*
X566Y146D01*
X624Y146D02*
X647Y146D01*
X682Y146D02*
X724Y146D01*
X758Y146D02*
X787Y146D01*
X830Y146D02*
X854Y146D01*
X860Y146D02*
X869Y146D01*
X902Y146D02*
X931Y146D01*
X964Y146D02*
X975Y146D01*
X1004Y146D02*
X1013Y146D01*
X1108Y146D02*
X1117Y146D01*
X1185Y146D02*
X1194Y146D01*
X464Y145D02*
X504Y145D01*
X532Y145D02*
X568Y145D01*
X624Y145D02*
X648Y145D01*
X681Y145D02*
X725Y145D01*
X756Y145D02*
X788Y145D01*
X828Y145D02*
X856Y145D01*
X860Y145D02*
X869Y145D01*
X900Y145D02*
X932Y145D01*
X965Y145D02*
X977Y145D01*
X1004Y145D02*
X1013Y145D01*
X1108Y145D02*
X1117Y145D01*
X1185Y145D02*
X1194Y145D01*
X463Y144D02*
X505Y144D01*
X532Y144D02*
X569Y144D01*
X624Y144D02*
X648Y144D01*
X681Y144D02*
X725Y144D01*
X755Y144D02*
X790Y144D01*
X827Y144D02*
X857Y144D01*
X860Y144D02*
X869Y144D01*
X899Y144D02*
X934Y144D01*
X965Y144D02*
X1013Y144D01*
X1108Y144D02*
X1117Y144D01*
X1185Y144D02*
X1194Y144D01*
X462Y143D02*
X506Y143D01*
X532Y143D02*
X570Y143D01*
X624Y143D02*
X648Y143D01*
X681Y143D02*
X725Y143D01*
X754Y143D02*
X791Y143D01*
X826Y143D02*
X869Y143D01*
X898Y143D02*
X935Y143D01*
X966Y143D02*
X1013Y143D01*
X1108Y143D02*
X1117Y143D01*
X1185Y143D02*
X1194Y143D01*
X462Y142D02*
X506Y142D01*
X532Y142D02*
X571Y142D01*
X624Y142D02*
X647Y142D01*
X681Y142D02*
X724Y142D01*
X753Y142D02*
X792Y142D01*
X825Y142D02*
X869Y142D01*
X897Y142D02*
X936Y142D01*
X966Y142D02*
X1013Y142D01*
X1108Y142D02*
X1117Y142D01*
X1185Y142D02*
X1194Y142D01*
X461Y141D02*
X507Y141D01*
X533Y141D02*
X572Y141D01*
X624Y141D02*
X647Y141D01*
X682Y141D02*
X724Y141D01*
X752Y141D02*
X793Y141D01*
X824Y141D02*
X869Y141D01*
X896Y141D02*
X937Y141D01*
X967Y141D02*
X1013Y141D01*
X1108Y141D02*
X1117Y141D01*
X1185Y141D02*
X1194Y141D01*
X461Y140D02*
X507Y140D01*
X534Y140D02*
X573Y140D01*
X624Y140D02*
X646Y140D01*
X683Y140D02*
X723Y140D01*
X751Y140D02*
X794Y140D01*
X823Y140D02*
X869Y140D01*
X895Y140D02*
X938Y140D01*
X968Y140D02*
X1013Y140D01*
X1108Y140D02*
X1117Y140D01*
X1185Y140D02*
X1194Y140D01*
X461Y139D02*
X507Y139D01*
X537Y139D02*
X574Y139D01*
X624Y139D02*
X643Y139D01*
X686Y139D02*
X720Y139D01*
X750Y139D02*
X794Y139D01*
X822Y139D02*
X869Y139D01*
X894Y139D02*
X938Y139D01*
X969Y139D02*
X1013Y139D01*
X1108Y139D02*
X1118Y139D01*
X1185Y139D02*
X1194Y139D01*
X461Y138D02*
X471Y138D01*
X498Y138D02*
X507Y138D01*
X561Y138D02*
X576Y138D01*
X624Y138D02*
X633Y138D01*
X706Y138D02*
X715Y138D01*
X750Y138D02*
X763Y138D01*
X782Y138D02*
X795Y138D01*
X822Y138D02*
X835Y138D01*
X849Y138D02*
X869Y138D01*
X894Y138D02*
X907Y138D01*
X926Y138D02*
X939Y138D01*
X970Y138D02*
X1013Y138D01*
X1108Y138D02*
X1118Y138D01*
X1185Y138D02*
X1194Y138D01*
X462Y137D02*
X470Y137D01*
X498Y137D02*
X508Y137D01*
X562Y137D02*
X577Y137D01*
X624Y137D02*
X633Y137D01*
X706Y137D02*
X715Y137D01*
X749Y137D02*
X761Y137D01*
X783Y137D02*
X795Y137D01*
X821Y137D02*
X834Y137D01*
X850Y137D02*
X869Y137D01*
X893Y137D02*
X905Y137D01*
X927Y137D02*
X939Y137D01*
X971Y137D02*
X1013Y137D01*
X1109Y137D02*
X1120Y137D01*
X1185Y137D02*
X1194Y137D01*
X463Y136D02*
X468Y136D01*
X499Y136D02*
X508Y136D01*
X563Y136D02*
X577Y136D01*
X624Y136D02*
X633Y136D01*
X706Y136D02*
X715Y136D01*
X749Y136D02*
X760Y136D01*
X784Y136D02*
X796Y136D01*
X821Y136D02*
X832Y136D01*
X851Y136D02*
X869Y136D01*
X893Y136D02*
X904Y136D01*
X928Y136D02*
X940Y136D01*
X973Y136D02*
X1013Y136D01*
X1109Y136D02*
X1143Y136D01*
X1185Y136D02*
X1194Y136D01*
X464Y135D02*
X467Y135D01*
X498Y135D02*
X507Y135D01*
X565Y135D02*
X578Y135D01*
X624Y135D02*
X633Y135D01*
X706Y135D02*
X715Y135D01*
X749Y135D02*
X759Y135D01*
X786Y135D02*
X796Y135D01*
X821Y135D02*
X831Y135D01*
X853Y135D02*
X869Y135D01*
X893Y135D02*
X903Y135D01*
X930Y135D02*
X940Y135D01*
X976Y135D02*
X1013Y135D01*
X1109Y135D02*
X1145Y135D01*
X1185Y135D02*
X1194Y135D01*
X498Y134D02*
X507Y134D01*
X566Y134D02*
X579Y134D01*
X624Y134D02*
X633Y134D01*
X706Y134D02*
X715Y134D01*
X748Y134D02*
X758Y134D01*
X786Y134D02*
X796Y134D01*
X820Y134D02*
X830Y134D01*
X854Y134D02*
X869Y134D01*
X892Y134D02*
X902Y134D01*
X930Y134D02*
X940Y134D01*
X985Y134D02*
X995Y134D01*
X1004Y134D02*
X1013Y134D01*
X1110Y134D02*
X1146Y134D01*
X1185Y134D02*
X1194Y134D01*
X496Y133D02*
X507Y133D01*
X567Y133D02*
X579Y133D01*
X624Y133D02*
X633Y133D01*
X706Y133D02*
X715Y133D01*
X748Y133D02*
X758Y133D01*
X787Y133D02*
X797Y133D01*
X820Y133D02*
X830Y133D01*
X855Y133D02*
X869Y133D01*
X892Y133D02*
X902Y133D01*
X931Y133D02*
X941Y133D01*
X984Y133D02*
X995Y133D01*
X1004Y133D02*
X1013Y133D01*
X1111Y133D02*
X1146Y133D01*
X1185Y133D02*
X1194Y133D01*
X493Y132D02*
X507Y132D01*
X568Y132D02*
X580Y132D01*
X624Y132D02*
X633Y132D01*
X706Y132D02*
X715Y132D01*
X748Y132D02*
X757Y132D01*
X788Y132D02*
X797Y132D01*
X820Y132D02*
X829Y132D01*
X856Y132D02*
X869Y132D01*
X892Y132D02*
X901Y132D01*
X932Y132D02*
X941Y132D01*
X983Y132D02*
X994Y132D01*
X1004Y132D02*
X1013Y132D01*
X1111Y132D02*
X1147Y132D01*
X1185Y132D02*
X1194Y132D01*
X491Y131D02*
X506Y131D01*
X569Y131D02*
X580Y131D01*
X624Y131D02*
X633Y131D01*
X706Y131D02*
X715Y131D01*
X748Y131D02*
X757Y131D01*
X788Y131D02*
X797Y131D01*
X820Y131D02*
X829Y131D01*
X857Y131D02*
X869Y131D01*
X892Y131D02*
X901Y131D01*
X932Y131D02*
X941Y131D01*
X983Y131D02*
X994Y131D01*
X1004Y131D02*
X1013Y131D01*
X1112Y131D02*
X1147Y131D01*
X1185Y131D02*
X1194Y131D01*
X489Y130D02*
X506Y130D01*
X570Y130D02*
X580Y130D01*
X624Y130D02*
X633Y130D01*
X706Y130D02*
X715Y130D01*
X748Y130D02*
X757Y130D01*
X788Y130D02*
X797Y130D01*
X820Y130D02*
X829Y130D01*
X858Y130D02*
X869Y130D01*
X892Y130D02*
X901Y130D01*
X932Y130D02*
X941Y130D01*
X982Y130D02*
X993Y130D01*
X1004Y130D02*
X1013Y130D01*
X1111Y130D02*
X1147Y130D01*
X1185Y130D02*
X1194Y130D01*
X486Y129D02*
X505Y129D01*
X571Y129D02*
X581Y129D01*
X624Y129D02*
X633Y129D01*
X706Y129D02*
X715Y129D01*
X748Y129D02*
X757Y129D01*
X788Y129D02*
X797Y129D01*
X820Y129D02*
X829Y129D01*
X859Y129D02*
X869Y129D01*
X892Y129D02*
X901Y129D01*
X932Y129D02*
X941Y129D01*
X982Y129D02*
X992Y129D01*
X1004Y129D02*
X1013Y129D01*
X1110Y129D02*
X1146Y129D01*
X1185Y129D02*
X1194Y129D01*
X484Y128D02*
X505Y128D01*
X572Y128D02*
X581Y128D01*
X624Y128D02*
X633Y128D01*
X706Y128D02*
X715Y128D01*
X748Y128D02*
X757Y128D01*
X788Y128D02*
X797Y128D01*
X820Y128D02*
X829Y128D01*
X859Y128D02*
X869Y128D01*
X892Y128D02*
X901Y128D01*
X932Y128D02*
X941Y128D01*
X981Y128D02*
X992Y128D01*
X1004Y128D02*
X1013Y128D01*
X1110Y128D02*
X1146Y128D01*
X1185Y128D02*
X1194Y128D01*
X482Y127D02*
X504Y127D01*
X572Y127D02*
X581Y127D01*
X624Y127D02*
X633Y127D01*
X706Y127D02*
X715Y127D01*
X748Y127D02*
X757Y127D01*
X788Y127D02*
X797Y127D01*
X820Y127D02*
X829Y127D01*
X860Y127D02*
X869Y127D01*
X892Y127D02*
X901Y127D01*
X932Y127D02*
X941Y127D01*
X981Y127D02*
X991Y127D01*
X1004Y127D02*
X1013Y127D01*
X1109Y127D02*
X1144Y127D01*
X1185Y127D02*
X1194Y127D01*
X1217Y127D02*
X1221Y127D01*
X479Y126D02*
X503Y126D01*
X572Y126D02*
X581Y126D01*
X624Y126D02*
X633Y126D01*
X706Y126D02*
X715Y126D01*
X748Y126D02*
X757Y126D01*
X788Y126D02*
X797Y126D01*
X820Y126D02*
X829Y126D01*
X860Y126D02*
X869Y126D01*
X892Y126D02*
X901Y126D01*
X932Y126D02*
X941Y126D01*
X980Y126D02*
X991Y126D01*
X1004Y126D02*
X1013Y126D01*
X1109Y126D02*
X1121Y126D01*
X1185Y126D02*
X1194Y126D01*
X1216Y126D02*
X1223Y126D01*
X477Y125D02*
X501Y125D01*
X572Y125D02*
X581Y125D01*
X624Y125D02*
X633Y125D01*
X706Y125D02*
X715Y125D01*
X748Y125D02*
X757Y125D01*
X788Y125D02*
X797Y125D01*
X820Y125D02*
X829Y125D01*
X860Y125D02*
X869Y125D01*
X892Y125D02*
X901Y125D01*
X932Y125D02*
X941Y125D01*
X979Y125D02*
X990Y125D01*
X1004Y125D02*
X1013Y125D01*
X1109Y125D02*
X1119Y125D01*
X1185Y125D02*
X1194Y125D01*
X1215Y125D02*
X1223Y125D01*
X475Y124D02*
X499Y124D01*
X572Y124D02*
X581Y124D01*
X624Y124D02*
X633Y124D01*
X706Y124D02*
X715Y124D01*
X748Y124D02*
X757Y124D01*
X788Y124D02*
X797Y124D01*
X820Y124D02*
X829Y124D01*
X860Y124D02*
X869Y124D01*
X892Y124D02*
X901Y124D01*
X932Y124D02*
X941Y124D01*
X979Y124D02*
X990Y124D01*
X1004Y124D02*
X1013Y124D01*
X1108Y124D02*
X1118Y124D01*
X1185Y124D02*
X1194Y124D01*
X1215Y124D02*
X1224Y124D01*
X472Y123D02*
X497Y123D01*
X572Y123D02*
X581Y123D01*
X624Y123D02*
X633Y123D01*
X706Y123D02*
X715Y123D01*
X748Y123D02*
X757Y123D01*
X788Y123D02*
X797Y123D01*
X820Y123D02*
X829Y123D01*
X860Y123D02*
X869Y123D01*
X892Y123D02*
X901Y123D01*
X932Y123D02*
X941Y123D01*
X978Y123D02*
X989Y123D01*
X1004Y123D02*
X1013Y123D01*
X1108Y123D02*
X1118Y123D01*
X1185Y123D02*
X1194Y123D01*
X1215Y123D02*
X1224Y123D01*
X470Y122D02*
X494Y122D01*
X572Y122D02*
X581Y122D01*
X624Y122D02*
X633Y122D01*
X706Y122D02*
X715Y122D01*
X748Y122D02*
X757Y122D01*
X788Y122D02*
X797Y122D01*
X820Y122D02*
X829Y122D01*
X860Y122D02*
X869Y122D01*
X892Y122D02*
X901Y122D01*
X932Y122D02*
X941Y122D01*
X978Y122D02*
X988Y122D01*
X1004Y122D02*
X1013Y122D01*
X1108Y122D02*
X1117Y122D01*
X1185Y122D02*
X1194Y122D01*
X1215Y122D02*
X1224Y122D01*
X468Y121D02*
X492Y121D01*
X572Y121D02*
X581Y121D01*
X624Y121D02*
X633Y121D01*
X706Y121D02*
X715Y121D01*
X748Y121D02*
X757Y121D01*
X788Y121D02*
X797Y121D01*
X820Y121D02*
X829Y121D01*
X860Y121D02*
X869Y121D01*
X892Y121D02*
X901Y121D01*
X932Y121D02*
X941Y121D01*
X977Y121D02*
X988Y121D01*
X1004Y121D02*
X1013Y121D01*
X1108Y121D02*
X1117Y121D01*
X1185Y121D02*
X1194Y121D01*
X1215Y121D02*
X1224Y121D01*
X467Y120D02*
X490Y120D01*
X572Y120D02*
X581Y120D01*
X624Y120D02*
X633Y120D01*
X706Y120D02*
X715Y120D01*
X748Y120D02*
X757Y120D01*
X788Y120D02*
X797Y120D01*
X820Y120D02*
X829Y120D01*
X860Y120D02*
X869Y120D01*
X892Y120D02*
X901Y120D01*
X932Y120D02*
X941Y120D01*
X976Y120D02*
X987Y120D01*
X1004Y120D02*
X1013Y120D01*
X1108Y120D02*
X1117Y120D01*
X1185Y120D02*
X1194Y120D01*
X1215Y120D02*
X1224Y120D01*
X465Y119D02*
X488Y119D01*
X572Y119D02*
X581Y119D01*
X624Y119D02*
X633Y119D01*
X706Y119D02*
X715Y119D01*
X748Y119D02*
X757Y119D01*
X788Y119D02*
X797Y119D01*
X820Y119D02*
X829Y119D01*
X860Y119D02*
X869Y119D01*
X892Y119D02*
X901Y119D01*
X932Y119D02*
X941Y119D01*
X976Y119D02*
X987Y119D01*
X1004Y119D02*
X1013Y119D01*
X1108Y119D02*
X1117Y119D01*
X1185Y119D02*
X1194Y119D01*
X1215Y119D02*
X1224Y119D01*
X464Y118D02*
X485Y118D01*
X572Y118D02*
X581Y118D01*
X624Y118D02*
X633Y118D01*
X706Y118D02*
X715Y118D01*
X748Y118D02*
X757Y118D01*
X788Y118D02*
X797Y118D01*
X820Y118D02*
X829Y118D01*
X860Y118D02*
X869Y118D01*
X892Y118D02*
X901Y118D01*
X932Y118D02*
X941Y118D01*
X975Y118D02*
X986Y118D01*
X1004Y118D02*
X1013Y118D01*
X1108Y118D02*
X1117Y118D01*
X1185Y118D02*
X1194Y118D01*
X1215Y118D02*
X1224Y118D01*
X463Y117D02*
X483Y117D01*
X572Y117D02*
X581Y117D01*
X624Y117D02*
X633Y117D01*
X706Y117D02*
X715Y117D01*
X748Y117D02*
X757Y117D01*
X788Y117D02*
X797Y117D01*
X820Y117D02*
X829Y117D01*
X860Y117D02*
X869Y117D01*
X892Y117D02*
X901Y117D01*
X932Y117D02*
X941Y117D01*
X975Y117D02*
X985Y117D01*
X1004Y117D02*
X1013Y117D01*
X1108Y117D02*
X1117Y117D01*
X1185Y117D02*
X1194Y117D01*
X1215Y117D02*
X1224Y117D01*
X463Y116D02*
X481Y116D01*
X572Y116D02*
X581Y116D01*
X624Y116D02*
X633Y116D01*
X706Y116D02*
X715Y116D01*
X748Y116D02*
X757Y116D01*
X788Y116D02*
X797Y116D01*
X820Y116D02*
X829Y116D01*
X860Y116D02*
X869Y116D01*
X892Y116D02*
X901Y116D01*
X932Y116D02*
X941Y116D01*
X974Y116D02*
X985Y116D01*
X1004Y116D02*
X1013Y116D01*
X1108Y116D02*
X1117Y116D01*
X1185Y116D02*
X1194Y116D01*
X1215Y116D02*
X1224Y116D01*
X462Y115D02*
X478Y115D01*
X572Y115D02*
X581Y115D01*
X624Y115D02*
X633Y115D01*
X706Y115D02*
X715Y115D01*
X748Y115D02*
X757Y115D01*
X788Y115D02*
X797Y115D01*
X820Y115D02*
X829Y115D01*
X860Y115D02*
X869Y115D01*
X892Y115D02*
X901Y115D01*
X932Y115D02*
X941Y115D01*
X974Y115D02*
X984Y115D01*
X1004Y115D02*
X1013Y115D01*
X1108Y115D02*
X1117Y115D01*
X1185Y115D02*
X1194Y115D01*
X1215Y115D02*
X1224Y115D01*
X462Y114D02*
X476Y114D01*
X572Y114D02*
X581Y114D01*
X624Y114D02*
X633Y114D01*
X706Y114D02*
X715Y114D01*
X748Y114D02*
X757Y114D01*
X788Y114D02*
X797Y114D01*
X820Y114D02*
X829Y114D01*
X860Y114D02*
X869Y114D01*
X892Y114D02*
X901Y114D01*
X932Y114D02*
X941Y114D01*
X973Y114D02*
X984Y114D01*
X1004Y114D02*
X1013Y114D01*
X1108Y114D02*
X1117Y114D01*
X1185Y114D02*
X1194Y114D01*
X1215Y114D02*
X1224Y114D01*
X461Y113D02*
X474Y113D01*
X571Y113D02*
X581Y113D01*
X624Y113D02*
X633Y113D01*
X706Y113D02*
X715Y113D01*
X748Y113D02*
X757Y113D01*
X788Y113D02*
X797Y113D01*
X820Y113D02*
X829Y113D01*
X859Y113D02*
X869Y113D01*
X892Y113D02*
X901Y113D01*
X932Y113D02*
X941Y113D01*
X972Y113D02*
X983Y113D01*
X1004Y113D02*
X1013Y113D01*
X1108Y113D02*
X1117Y113D01*
X1185Y113D02*
X1194Y113D01*
X1215Y113D02*
X1224Y113D01*
X461Y112D02*
X472Y112D01*
X571Y112D02*
X581Y112D01*
X624Y112D02*
X633Y112D01*
X706Y112D02*
X715Y112D01*
X748Y112D02*
X757Y112D01*
X788Y112D02*
X797Y112D01*
X820Y112D02*
X829Y112D01*
X859Y112D02*
X869Y112D01*
X892Y112D02*
X901Y112D01*
X932Y112D02*
X941Y112D01*
X972Y112D02*
X983Y112D01*
X1004Y112D02*
X1013Y112D01*
X1108Y112D02*
X1117Y112D01*
X1185Y112D02*
X1194Y112D01*
X1215Y112D02*
X1224Y112D01*
X461Y111D02*
X470Y111D01*
X570Y111D02*
X580Y111D01*
X624Y111D02*
X633Y111D01*
X706Y111D02*
X715Y111D01*
X748Y111D02*
X757Y111D01*
X788Y111D02*
X797Y111D01*
X820Y111D02*
X829Y111D01*
X858Y111D02*
X869Y111D01*
X892Y111D02*
X901Y111D01*
X932Y111D02*
X941Y111D01*
X971Y111D02*
X982Y111D01*
X1004Y111D02*
X1013Y111D01*
X1108Y111D02*
X1117Y111D01*
X1185Y111D02*
X1194Y111D01*
X1215Y111D02*
X1224Y111D01*
X460Y110D02*
X470Y110D01*
X569Y110D02*
X580Y110D01*
X624Y110D02*
X633Y110D01*
X678Y110D02*
X683Y110D01*
X706Y110D02*
X715Y110D01*
X748Y110D02*
X757Y110D01*
X788Y110D02*
X797Y110D01*
X820Y110D02*
X829Y110D01*
X857Y110D02*
X869Y110D01*
X892Y110D02*
X901Y110D01*
X932Y110D02*
X941Y110D01*
X971Y110D02*
X981Y110D01*
X1004Y110D02*
X1013Y110D01*
X1108Y110D02*
X1117Y110D01*
X1185Y110D02*
X1194Y110D01*
X1215Y110D02*
X1224Y110D01*
X460Y109D02*
X470Y109D01*
X568Y109D02*
X580Y109D01*
X624Y109D02*
X633Y109D01*
X677Y109D02*
X684Y109D01*
X706Y109D02*
X715Y109D01*
X748Y109D02*
X757Y109D01*
X787Y109D02*
X797Y109D01*
X820Y109D02*
X829Y109D01*
X856Y109D02*
X869Y109D01*
X892Y109D02*
X901Y109D01*
X931Y109D02*
X941Y109D01*
X970Y109D02*
X981Y109D01*
X1004Y109D02*
X1013Y109D01*
X1108Y109D02*
X1117Y109D01*
X1185Y109D02*
X1194Y109D01*
X1215Y109D02*
X1224Y109D01*
X460Y108D02*
X469Y108D01*
X567Y108D02*
X579Y108D01*
X624Y108D02*
X633Y108D01*
X677Y108D02*
X684Y108D01*
X706Y108D02*
X715Y108D01*
X748Y108D02*
X758Y108D01*
X787Y108D02*
X797Y108D01*
X820Y108D02*
X830Y108D01*
X855Y108D02*
X869Y108D01*
X892Y108D02*
X902Y108D01*
X931Y108D02*
X941Y108D01*
X969Y108D02*
X980Y108D01*
X1004Y108D02*
X1013Y108D01*
X1108Y108D02*
X1117Y108D01*
X1185Y108D02*
X1194Y108D01*
X1215Y108D02*
X1224Y108D01*
X460Y107D02*
X470Y107D01*
X565Y107D02*
X579Y107D01*
X624Y107D02*
X633Y107D01*
X676Y107D02*
X685Y107D01*
X706Y107D02*
X715Y107D01*
X748Y107D02*
X759Y107D01*
X786Y107D02*
X796Y107D01*
X820Y107D02*
X831Y107D01*
X853Y107D02*
X869Y107D01*
X892Y107D02*
X903Y107D01*
X930Y107D02*
X940Y107D01*
X969Y107D02*
X980Y107D01*
X1004Y107D02*
X1013Y107D01*
X1108Y107D02*
X1117Y107D01*
X1185Y107D02*
X1194Y107D01*
X1215Y107D02*
X1224Y107D01*
X460Y106D02*
X470Y106D01*
X503Y106D02*
X506Y106D01*
X564Y106D02*
X578Y106D01*
X624Y106D02*
X633Y106D01*
X676Y106D02*
X685Y106D01*
X706Y106D02*
X715Y106D01*
X749Y106D02*
X760Y106D01*
X785Y106D02*
X796Y106D01*
X821Y106D02*
X832Y106D01*
X852Y106D02*
X869Y106D01*
X893Y106D02*
X904Y106D01*
X929Y106D02*
X940Y106D01*
X968Y106D02*
X979Y106D01*
X1004Y106D02*
X1013Y106D01*
X1108Y106D02*
X1117Y106D01*
X1185Y106D02*
X1194Y106D01*
X1215Y106D02*
X1224Y106D01*
X460Y105D02*
X470Y105D01*
X501Y105D02*
X507Y105D01*
X563Y105D02*
X577Y105D01*
X624Y105D02*
X633Y105D01*
X676Y105D02*
X686Y105D01*
X705Y105D02*
X715Y105D01*
X749Y105D02*
X761Y105D01*
X784Y105D02*
X796Y105D01*
X821Y105D02*
X833Y105D01*
X851Y105D02*
X869Y105D01*
X893Y105D02*
X905Y105D01*
X928Y105D02*
X940Y105D01*
X968Y105D02*
X978Y105D01*
X1004Y105D02*
X1013Y105D01*
X1108Y105D02*
X1117Y105D01*
X1185Y105D02*
X1195Y105D01*
X1214Y105D02*
X1224Y105D01*
X461Y104D02*
X471Y104D01*
X499Y104D02*
X508Y104D01*
X562Y104D02*
X576Y104D01*
X624Y104D02*
X633Y104D01*
X676Y104D02*
X686Y104D01*
X705Y104D02*
X715Y104D01*
X749Y104D02*
X762Y104D01*
X783Y104D02*
X795Y104D01*
X821Y104D02*
X834Y104D01*
X850Y104D02*
X869Y104D01*
X893Y104D02*
X906Y104D01*
X927Y104D02*
X939Y104D01*
X967Y104D02*
X978Y104D01*
X1004Y104D02*
X1013Y104D01*
X1108Y104D02*
X1117Y104D01*
X1185Y104D02*
X1195Y104D01*
X1213Y104D02*
X1223Y104D01*
X461Y103D02*
X472Y103D01*
X498Y103D02*
X509Y103D01*
X561Y103D02*
X575Y103D01*
X624Y103D02*
X633Y103D01*
X677Y103D02*
X688Y103D01*
X703Y103D02*
X714Y103D01*
X750Y103D02*
X763Y103D01*
X781Y103D02*
X795Y103D01*
X822Y103D02*
X835Y103D01*
X849Y103D02*
X869Y103D01*
X894Y103D02*
X907Y103D01*
X925Y103D02*
X939Y103D01*
X967Y103D02*
X977Y103D01*
X1004Y103D02*
X1013Y103D01*
X1108Y103D02*
X1117Y103D01*
X1186Y103D02*
X1197Y103D01*
X1212Y103D02*
X1223Y103D01*
X461Y102D02*
X509Y102D01*
X535Y102D02*
X574Y102D01*
X612Y102D02*
X644Y102D01*
X677Y102D02*
X714Y102D01*
X751Y102D02*
X794Y102D01*
X823Y102D02*
X869Y102D01*
X895Y102D02*
X938Y102D01*
X966Y102D02*
X977Y102D01*
X1004Y102D02*
X1013Y102D01*
X1108Y102D02*
X1153Y102D01*
X1186Y102D02*
X1223Y102D01*
X462Y101D02*
X509Y101D01*
X534Y101D02*
X573Y101D01*
X611Y101D02*
X646Y101D01*
X677Y101D02*
X713Y101D01*
X751Y101D02*
X794Y101D01*
X823Y101D02*
X869Y101D01*
X895Y101D02*
X938Y101D01*
X965Y101D02*
X976Y101D01*
X1004Y101D02*
X1013Y101D01*
X1108Y101D02*
X1155Y101D01*
X1186Y101D02*
X1222Y101D01*
X462Y100D02*
X509Y100D01*
X533Y100D02*
X572Y100D01*
X610Y100D02*
X647Y100D01*
X678Y100D02*
X713Y100D01*
X752Y100D02*
X793Y100D01*
X824Y100D02*
X869Y100D01*
X896Y100D02*
X937Y100D01*
X965Y100D02*
X976Y100D01*
X1004Y100D02*
X1013Y100D01*
X1108Y100D02*
X1156Y100D01*
X1187Y100D02*
X1222Y100D01*
X463Y99D02*
X508Y99D01*
X532Y99D02*
X571Y99D01*
X609Y99D02*
X648Y99D01*
X679Y99D02*
X712Y99D01*
X753Y99D02*
X792Y99D01*
X825Y99D02*
X869Y99D01*
X897Y99D02*
X936Y99D01*
X964Y99D02*
X975Y99D01*
X1004Y99D02*
X1013Y99D01*
X1109Y99D02*
X1156Y99D01*
X1188Y99D02*
X1221Y99D01*
X464Y98D02*
X507Y98D01*
X532Y98D02*
X570Y98D01*
X609Y98D02*
X648Y98D01*
X679Y98D02*
X712Y98D01*
X754Y98D02*
X791Y98D01*
X826Y98D02*
X858Y98D01*
X860Y98D02*
X869Y98D01*
X898Y98D02*
X934Y98D01*
X964Y98D02*
X974Y98D01*
X1004Y98D02*
X1013Y98D01*
X1109Y98D02*
X1157Y98D01*
X1188Y98D02*
X1220Y98D01*
X464Y97D02*
X506Y97D01*
X532Y97D02*
X568Y97D01*
X609Y97D02*
X648Y97D01*
X680Y97D02*
X711Y97D01*
X756Y97D02*
X789Y97D01*
X828Y97D02*
X857Y97D01*
X860Y97D02*
X869Y97D01*
X900Y97D02*
X933Y97D01*
X964Y97D02*
X974Y97D01*
X1004Y97D02*
X1013Y97D01*
X1110Y97D02*
X1157Y97D01*
X1189Y97D02*
X1220Y97D01*
X465Y96D02*
X505Y96D01*
X532Y96D02*
X567Y96D01*
X609Y96D02*
X648Y96D01*
X681Y96D02*
X710Y96D01*
X757Y96D02*
X788Y96D01*
X829Y96D02*
X855Y96D01*
X860Y96D02*
X869Y96D01*
X901Y96D02*
X932Y96D01*
X964Y96D02*
X973Y96D01*
X1004Y96D02*
X1013Y96D01*
X1110Y96D02*
X1157Y96D01*
X1190Y96D02*
X1219Y96D01*
X467Y95D02*
X503Y95D01*
X533Y95D02*
X566Y95D01*
X610Y95D02*
X647Y95D01*
X683Y95D02*
X708Y95D01*
X758Y95D02*
X787Y95D01*
X830Y95D02*
X854Y95D01*
X860Y95D02*
X868Y95D01*
X902Y95D02*
X931Y95D01*
X965Y95D02*
X973Y95D01*
X1004Y95D02*
X1012Y95D01*
X1111Y95D02*
X1156Y95D01*
X1191Y95D02*
X1217Y95D01*
X468Y94D02*
X501Y94D01*
X533Y94D02*
X564Y94D01*
X610Y94D02*
X647Y94D01*
X684Y94D02*
X707Y94D01*
X760Y94D02*
X785Y94D01*
X832Y94D02*
X852Y94D01*
X861Y94D02*
X867Y94D01*
X904Y94D02*
X929Y94D01*
X965Y94D02*
X972Y94D01*
X1005Y94D02*
X1011Y94D01*
X1113Y94D02*
X1155Y94D01*
X1193Y94D02*
X1216Y94D01*
X471Y93D02*
X499Y93D01*
X535Y93D02*
X562Y93D01*
X612Y93D02*
X645Y93D01*
X686Y93D02*
X705Y93D01*
X762Y93D02*
X783Y93D01*
X834Y93D02*
X850Y93D01*
X862Y93D02*
X866Y93D01*
X906Y93D02*
X927Y93D01*
X967Y93D02*
X971Y93D01*
X1006Y93D02*
X1010Y93D01*
X1114Y93D02*
X1154Y93D01*
X1195Y93D02*
X1213Y93D01*
X1040Y92D02*
X1081Y92D01*
X1038Y91D02*
X1083Y91D01*
X1037Y90D02*
X1084Y90D01*
X1036Y89D02*
X1084Y89D01*
X1036Y88D02*
X1085Y88D01*
X1036Y87D02*
X1085Y87D01*
X1036Y86D02*
X1085Y86D01*
X1037Y85D02*
X1084Y85D01*
X1037Y84D02*
X1084Y84D01*
X1038Y83D02*
X1082Y83D01*
D02*
G04 End of Copper0*
M02*